<svg width="40" height="40" viewBox="0 0 40 40" fill="none" xmlns="http://www.w3.org/2000/svg">
<path fill-rule="evenodd" clip-rule="evenodd" d="M25.25 15.625L25.125 14.875H15.125V15.625C15 16.25 12.5 26.25 12.5 30C12.4834 30.9954 12.6652 31.9841 13.0346 32.9085C13.4041 33.8329 13.9539 34.6746 14.652 35.3843C15.3501 36.094 16.1825 36.6577 17.1007 37.0424C18.0189 37.4271 19.0045 37.6251 20 37.625C20.9954 37.6416 21.9841 37.4599 22.9085 37.0904C23.833 36.7209 24.6746 36.1711 25.3843 35.473C26.094 34.7749 26.6577 33.9425 27.0424 33.0243C27.4271 32.1061 27.6251 31.1205 27.625 30.125C27.625 27.25 25.25 16.375 25.125 15.75L25.25 15.625ZM20.25 33.375C19.78 33.3918 19.3114 33.3137 18.8722 33.1453C18.433 32.977 18.0323 32.7218 17.6939 32.3951C17.3556 32.0684 17.0865 31.6769 16.9029 31.2439C16.7192 30.8109 16.6247 30.3453 16.625 29.875C16.625 28.9467 16.9938 28.0565 17.6501 27.4001C18.3065 26.7437 19.1967 26.375 20.125 26.375C20.6058 26.3575 21.0849 26.4393 21.5327 26.6153C21.9804 26.7913 22.387 27.0576 22.7272 27.3978C23.0674 27.738 23.3337 28.1446 23.5097 28.5923C23.6857 29.0401 23.7675 29.5193 23.75 30C23.75 30.9283 23.3813 31.8185 22.7249 32.4749C22.0685 33.1313 21.1783 33.5 20.25 33.5V33.375ZM15 10.5H25.375V13H15V10.5ZM15 6.5H25.375V9H15V6.5ZM15 2.5H25.375V5H15V2.5Z" fill="#3F3F3F"/>
<path fill-rule="evenodd" clip-rule="evenodd" d="M15 10.5H25.375V13H15V10.5ZM15 6.5H25.375V9H15V6.5ZM15 2.5H25.375V5H15V2.5Z" fill="#D61635"/>
</svg>
