<svg width="34" height="30" viewBox="0 0 34 30" fill="none" xmlns="http://www.w3.org/2000/svg">
<path fill-rule="evenodd" clip-rule="evenodd" d="M10.75 25H30.75V5H10.75V25ZM10.75 27.5L0.75 30V0L10.75 2.5H30.75C31.413 2.5 32.0489 2.76339 32.5178 3.23223C32.9866 3.70107 33.25 4.33696 33.25 5V25C33.25 25.663 32.9866 26.2989 32.5178 26.7678C32.0489 27.2366 31.413 27.5 30.75 27.5H10.75ZM8.25 25V5L3.25 3.75V26.25L8.25 25ZM13.25 5H15.75V12.5H13.25V5ZM13.25 15H15.75V18.75H13.25V15Z" fill="#3F3F3F"/>
<path d="M25.75 17.5C27.1307 17.5 28.25 16.3807 28.25 15C28.25 13.6193 27.1307 12.5 25.75 12.5C24.3693 12.5 23.25 13.6193 23.25 15C23.25 16.3807 24.3693 17.5 25.75 17.5Z" fill="#D61635"/>
</svg>
