<svg width="26" height="33" viewBox="0 0 26 33" fill="none" xmlns="http://www.w3.org/2000/svg">
<path d="M24.375 8.37499H18.625C18.382 8.4056 18.1587 8.52432 17.9974 8.70865C17.8361 8.89297 17.7481 9.13007 17.75 9.37499V20.75C17.7502 21.3844 17.6233 22.0125 17.3769 22.5971C17.1304 23.1817 16.7693 23.711 16.3149 24.1537C15.8605 24.5965 15.322 24.9437 14.7312 25.1749C14.1404 25.4062 13.5092 25.5167 12.875 25.5C11.6152 25.5 10.407 24.9995 9.51624 24.1087C8.62544 23.2179 8.125 22.0098 8.125 20.75V9.37499C8.12692 9.13007 8.03889 8.89297 7.87761 8.70865C7.71632 8.52432 7.493 8.4056 7.25 8.37499H1.5C1.23478 8.37499 0.980429 8.48035 0.792893 8.66788C0.605357 8.85542 0.5 9.10977 0.5 9.37499V20.75C0.809519 23.8336 2.25346 26.6922 4.55166 28.7713C6.84986 30.8503 9.83843 32.0015 12.9375 32.0015C16.0366 32.0015 19.0251 30.8503 21.3233 28.7713C23.6215 26.6922 25.0655 23.8336 25.375 20.75V9.37499C25.3956 9.22239 25.3808 9.0671 25.3315 8.9212C25.2823 8.7753 25.2 8.64274 25.0911 8.53386C24.9822 8.42498 24.8497 8.34271 24.7038 8.29347C24.5579 8.24423 24.4026 8.22935 24.25 8.24999L24.375 8.37499ZM23.125 10.5V13.875H19.875V10.5H23.25H23.125ZM6 10.5V13.875H2.625V10.5H6ZM12.875 30.875C7.5 30.875 2.625 26.75 2.625 21.25V17H5.75V21.25C5.75 24.75 9.5 27.875 12.875 27.875C16.375 27.875 20.125 24.75 20.125 21.25V17H23.25V21.25C23.25 26.75 18.375 30.875 12.875 30.875Z" fill="#3F3F3F"/>
<path fill-rule="evenodd" clip-rule="evenodd" d="M2.625 5.75C2.625 6.08152 2.4933 6.39946 2.25888 6.63388C2.02446 6.8683 1.70652 7 1.375 7C1.04348 7 0.725537 6.8683 0.491117 6.63388C0.256696 6.39946 0.125 6.08152 0.125 5.75C0.125 5.41848 0.256696 5.10054 0.491117 4.86612C0.725537 4.6317 1.04348 4.5 1.375 4.5C1.70652 4.5 2.02446 4.6317 2.25888 4.86612C2.4933 5.10054 2.625 5.41848 2.625 5.75ZM8.375 5.75C8.375 6.08152 8.24331 6.39946 8.00888 6.63388C7.77446 6.8683 7.45652 7 7.125 7C6.79348 7 6.47554 6.8683 6.24112 6.63388C6.0067 6.39946 5.875 6.08152 5.875 5.75C5.875 5.41848 6.0067 5.10054 6.24112 4.86612C6.47554 4.6317 6.79348 4.5 7.125 4.5C7.45652 4.5 7.77446 4.6317 8.00888 4.86612C8.24331 5.10054 8.375 5.41848 8.375 5.75ZM5.5 2C5.5 2.33152 5.3683 2.64946 5.13388 2.88388C4.89946 3.1183 4.58152 3.25 4.25 3.25C3.91848 3.25 3.60054 3.1183 3.36612 2.88388C3.1317 2.64946 3 2.33152 3 2C3 1.66848 3.1317 1.35054 3.36612 1.11612C3.60054 0.881696 3.91848 0.75 4.25 0.75C4.58152 0.75 4.89946 0.881696 5.13388 1.11612C5.3683 1.35054 5.5 1.66848 5.5 2ZM19.875 5.75C19.875 6.08152 19.7433 6.39946 19.5089 6.63388C19.2745 6.8683 18.9565 7 18.625 7C18.2935 7 17.9755 6.8683 17.7411 6.63388C17.5067 6.39946 17.375 6.08152 17.375 5.75C17.375 5.41848 17.5067 5.10054 17.7411 4.86612C17.9755 4.6317 18.2935 4.5 18.625 4.5C18.9565 4.5 19.2745 4.6317 19.5089 4.86612C19.7433 5.10054 19.875 5.41848 19.875 5.75ZM25.5 5.75C25.5 6.08152 25.3683 6.39946 25.1339 6.63388C24.8995 6.8683 24.5815 7 24.25 7C23.9185 7 23.6005 6.8683 23.3661 6.63388C23.1317 6.39946 23 6.08152 23 5.75C23 5.41848 23.1317 5.10054 23.3661 4.86612C23.6005 4.6317 23.9185 4.5 24.25 4.5C24.5815 4.5 24.8995 4.6317 25.1339 4.86612C25.3683 5.10054 25.5 5.41848 25.5 5.75ZM22.625 2C22.625 2.33152 22.4933 2.64946 22.2589 2.88388C22.0245 3.1183 21.7065 3.25 21.375 3.25C21.0435 3.25 20.7255 3.1183 20.4911 2.88388C20.2567 2.64946 20.125 2.33152 20.125 2C20.125 1.66848 20.2567 1.35054 20.4911 1.11612C20.7255 0.881696 21.0435 0.75 21.375 0.75C21.7065 0.75 22.0245 0.881696 22.2589 1.11612C22.4933 1.35054 22.625 1.66848 22.625 2Z" fill="#D61635"/>
</svg>
