<svg width="28" height="34" viewBox="0 0 28 34" fill="none" xmlns="http://www.w3.org/2000/svg">
<path fill-rule="evenodd" clip-rule="evenodd" d="M27.5 9.125V6.625C27.5 6 26.875 5.375 26.25 5.375C21.375 5.375 17.75 4.125 14.625 1.125C14.4086 0.962722 14.1455 0.875 13.875 0.875C13.6045 0.875 13.3414 0.962722 13.125 1.125C11.5893 2.61024 9.7654 3.76478 7.76591 4.51728C5.76642 5.26978 3.63386 5.60424 1.5 5.5C1.18904 5.49844 0.888665 5.61284 0.657529 5.82087C0.426392 6.02889 0.281091 6.3156 0.249998 6.625V9.125C0.249998 17.25 -0.125001 28.375 13.5 33.125C13.7441 33.2018 14.0059 33.2018 14.25 33.125C27.875 28.25 27.625 17.25 27.5 9.125ZM13.75 30.375C2.625 26.5 2.75 17.625 2.75 9.75V8.25C7.25 8 10.75 6.75 13.875 4.125C16.875 6.625 20.375 8 24.875 8.25V9.5C25 17.5 25.125 26.375 13.875 30.5L13.75 30.375Z" fill="#3F3F3F"/>
<path fill-rule="evenodd" clip-rule="evenodd" d="M17.875 13L12.375 18.5L10.125 16.125C9.89785 16.034 9.649 16.0118 9.40931 16.0609C9.16962 16.1101 8.94963 16.2285 8.77661 16.4016C8.60359 16.5746 8.48516 16.7946 8.43599 17.0343C8.38682 17.274 8.40908 17.5228 8.50001 17.75L11.625 20.875C11.73 20.9846 11.8561 21.0719 11.9958 21.1315C12.1354 21.1911 12.2857 21.2218 12.4375 21.2218C12.5893 21.2218 12.7396 21.1911 12.8792 21.1315C13.0189 21.0719 13.145 20.9846 13.25 20.875L19.5 14.625C19.692 14.5481 19.862 14.4248 19.9946 14.2661C20.1272 14.1074 20.2184 13.9183 20.26 13.7157C20.3016 13.5131 20.2922 13.3033 20.2327 13.1052C20.1733 12.9071 20.0656 12.7268 19.9194 12.5806C19.7731 12.4343 19.5929 12.3267 19.3948 12.2672C19.1967 12.2078 18.9869 12.1984 18.7843 12.24C18.5817 12.2815 18.3926 12.3727 18.2339 12.5054C18.0752 12.638 17.9519 12.8079 17.875 13Z" fill="#D61635"/>
</svg>
