<svg width="36" height="36" viewBox="0 0 36 36" fill="none" xmlns="http://www.w3.org/2000/svg">
<path d="M26.625 17.625C24.8016 17.625 23.053 16.9007 21.7636 15.6114C20.4743 14.322 19.75 12.5734 19.75 10.75V0.5H0.5V35.5H12V33.625H14.625V35.5H35.5V26.5C35.5 25.3345 35.2704 24.1804 34.8244 23.1037C34.3784 22.0269 33.7247 21.0485 32.9006 20.2244C32.0765 19.4003 31.0981 18.7466 30.0213 18.3006C28.9445 17.8546 27.7905 17.625 26.625 17.625ZM2.5 2.625H12V2.875C12 3.86956 11.6049 4.82339 10.9017 5.52665C10.1984 6.22991 9.24456 6.625 8.25 6.625H2.5V2.5V2.625ZM2.5 8.625H8.25C9.75358 8.62536 11.1975 8.03674 12.2723 6.9853C13.3471 5.93385 13.9673 4.50323 14 3V2.625H17.75V8.625H14.25V10.5H17.625V11.75H14.25V13.75H18L18.5 14.875H14.25V16.75H19.875C20.9584 17.9289 22.3406 18.7927 23.875 19.25V28H13.875C13.6263 25.5248 12.4639 23.2311 10.6148 21.5669C8.76567 19.9028 6.36267 18.9875 3.875 19H2.5V8.625ZM2.5 21.125H4C5.90048 21.1314 7.73662 21.8141 9.17958 23.0509C10.6225 24.2877 11.5781 25.9979 11.875 27.875H2.5V21V21.125ZM33.5 33.5H30.75V31.5H28.75V33.5H26.125V31.5H24V33.5H21.375V31.5H19.375V33.5H16.625V31.625H9.875V33.5H7.375V31.5H5.125V33.5H2.5V30H33.5V33.5Z" fill="#3F3F3F"/>
<path fill-rule="evenodd" clip-rule="evenodd" d="M33.5 28H26V19.625H26.625C28.4484 19.625 30.197 20.3493 31.4864 21.6386C32.7757 22.928 33.5 24.6766 33.5 26.5V28Z" fill="#D61635"/>
</svg>
