<svg width="40" height="40" viewBox="0 0 40 40" fill="none" xmlns="http://www.w3.org/2000/svg">
<path fill-rule="evenodd" clip-rule="evenodd" d="M26.25 18C26.25 18.4268 26.3341 18.8494 26.4974 19.2437C26.6607 19.638 26.9001 19.9963 27.2019 20.2981C27.5037 20.5999 27.862 20.8393 28.2563 21.0026C28.6506 21.1659 29.0732 21.25 29.5 21.25C29.9268 21.25 30.3494 21.1659 30.7437 21.0026C31.138 20.8393 31.4963 20.5999 31.7981 20.2981C32.0999 19.9963 32.3393 19.638 32.5026 19.2437C32.6659 18.8494 32.75 18.4268 32.75 18C32.75 17 31.625 15.125 29.5 12.5C27.25 15 26.25 17 26.25 18ZM29.5 23.75C27.975 23.75 26.5125 23.1442 25.4341 22.0659C24.3558 20.9875 23.75 19.525 23.75 18C23.75 15.875 25.625 12.875 29.5 8.75C33.25 12.875 35.25 15.875 35.25 18C35.25 18.7551 35.1013 19.5028 34.8123 20.2004C34.5233 20.8981 34.0998 21.5319 33.5659 22.0659C33.0319 22.5998 32.3981 23.0233 31.7004 23.3123C31.0028 23.6013 30.2551 23.75 29.5 23.75ZM2.5 25H37.5V27.5H2.5V25ZM8.125 37.5V31.25L6.875 31.875L6.25 30.625L8.375 29.625H10V37.5H8.125ZM11.125 35.75H13.125V37.5L12.375 38.75H11.375L11.875 37.625H11.125V35.875V35.75ZM16.125 31.25V32.5H17.875C18.625 32.5 19.125 32.75 19.5 33C19.875 33.375 20 33.875 20 34.5V35.375C20 36.125 19.875 36.625 19.5 37C19.125 37.375 18.625 37.5 17.875 37.5H16.5C16.0828 37.4638 15.6661 37.4221 15.25 37.375C14.75 37.3845 14.25 37.3845 13.75 37.375V35.75H15C15.9581 35.7766 16.9169 35.7766 17.875 35.75C17.9202 35.6993 17.9546 35.6399 17.9761 35.5754C17.9976 35.5109 18.0057 35.4427 18 35.375V34.75C18 34.375 17.75 34.125 17.375 34.125H14.125V29.5H19.5V31.25H16.125ZM31.125 33H30.75C30.4515 33.0572 30.1587 33.1409 29.875 33.25V37.5H27.875V33.5C27.8957 33.4417 27.9017 33.3792 27.8924 33.318C27.8831 33.2568 27.8588 33.1989 27.8217 33.1494C27.7845 33.0999 27.7357 33.0603 27.6796 33.0343C27.6235 33.0082 27.5618 32.9964 27.5 33H27C26.7015 33.0572 26.4087 33.1409 26.125 33.25V37.5H24.25V31.5H26V32.125C26.1972 31.9823 26.4063 31.8569 26.625 31.75L27.375 31.5H29L29.625 32.125L30.25 31.75L30.875 31.5H31.875C32.375 31.5 32.875 31.5 33.125 31.875C33.375 32.25 33.625 32.625 33.625 33.125V37.5H31.625V33.5C31.6457 33.4417 31.6517 33.3792 31.6424 33.318C31.6331 33.2568 31.6088 33.1989 31.5717 33.1494C31.5345 33.0999 31.4857 33.0603 31.4296 33.0343C31.3735 33.0082 31.3118 32.9964 31.25 33H31.125ZM13.125 22.5C10.9701 22.5 8.90349 21.644 7.37976 20.1202C5.85602 18.5965 5 16.5299 5 14.375C5 11.375 7.75 7 13.125 1.25C18.5 7 21.25 11.375 21.25 14.375C21.25 16.5299 20.394 18.5965 18.8702 20.1202C17.3465 21.644 15.2799 22.5 13.125 22.5ZM7.5 14.375C7.5 15.1137 7.64549 15.8451 7.92818 16.5276C8.21086 17.2101 8.62519 17.8301 9.14752 18.3525C9.66985 18.8748 10.2899 19.2891 10.9724 19.5718C11.6549 19.8545 12.3863 20 13.125 20C13.8637 20 14.5951 19.8545 15.2776 19.5718C15.9601 19.2891 16.5801 18.8748 17.1025 18.3525C17.6248 17.8301 18.0391 17.2101 18.3218 16.5276C18.6045 15.8451 18.75 15.1137 18.75 14.375C18.75 12.5 16.875 9.375 13.125 5C9.375 9.25 7.5 12.5 7.5 14.375Z" fill="#3F3F3F"/>
<path fill-rule="evenodd" clip-rule="evenodd" d="M2.5 25H37.5V27.5H2.5V25Z" fill="#D61635"/>
</svg>
