<svg width="34" height="38" viewBox="0 0 34 38" fill="none" xmlns="http://www.w3.org/2000/svg">
<path fill-rule="evenodd" clip-rule="evenodd" d="M3.25 21.5V25.25H30.75V21.5H3.25ZM3.25 19H30.75C31.413 19 32.0489 19.2634 32.5178 19.7322C32.9866 20.2011 33.25 20.837 33.25 21.5V25.25C33.25 25.913 32.9866 26.5489 32.5178 27.0178C32.0489 27.4866 31.413 27.75 30.75 27.75H3.25C2.58696 27.75 1.95107 27.4866 1.48223 27.0178C1.01339 26.5489 0.75 25.913 0.75 25.25V21.5C0.75 20.837 1.01339 20.2011 1.48223 19.7322C1.95107 19.2634 2.58696 19 3.25 19ZM7 21.5V24H9.5V21.5H7ZM15.75 21.5V24H18.25V21.5H15.75ZM11.375 22.75V25.25H13.875V22.75H11.375ZM24.5 21.5V24H27V21.5H24.5ZM20.125 22.75V25.25H22.625V22.75H20.125ZM5.75 35.625C6.18098 35.625 6.5943 35.4538 6.89905 35.149C7.2038 34.8443 7.375 34.431 7.375 34C7.375 33.569 7.2038 33.1557 6.89905 32.851C6.5943 32.5462 6.18098 32.375 5.75 32.375C5.31902 32.375 4.9057 32.5462 4.60095 32.851C4.2962 33.1557 4.125 33.569 4.125 34C4.125 34.431 4.2962 34.8443 4.60095 35.149C4.9057 35.4538 5.31902 35.625 5.75 35.625ZM5.75 37.75C4.75544 37.75 3.80161 37.3549 3.09835 36.6516C2.39509 35.9484 2 34.9946 2 34C2 33.0054 2.39509 32.0516 3.09835 31.3483C3.80161 30.6451 4.75544 30.25 5.75 30.25C6.74456 30.25 7.69839 30.6451 8.40165 31.3483C9.10491 32.0516 9.5 33.0054 9.5 34C9.5 34.9946 9.10491 35.9484 8.40165 36.6516C7.69839 37.3549 6.74456 37.75 5.75 37.75ZM17 35.5C17.2469 35.6029 17.5155 35.6432 17.7817 35.6174C18.048 35.5916 18.3038 35.5005 18.5264 35.3521C18.749 35.2037 18.9315 35.0026 19.0577 34.7668C19.184 34.5309 19.25 34.2675 19.25 34C19.25 33.7325 19.184 33.4691 19.0577 33.2332C18.9315 32.9974 18.749 32.7963 18.5264 32.6479C18.3038 32.4995 18.048 32.4084 17.7817 32.3826C17.5155 32.3568 17.2469 32.3971 17 32.5C16.7039 32.6234 16.4509 32.8317 16.2729 33.0986C16.095 33.3655 16 33.6792 16 34C16 34.3208 16.095 34.6345 16.2729 34.9014C16.4509 35.1683 16.7039 35.3766 17 35.5ZM17 37.75C16.0054 37.75 15.0516 37.3549 14.3483 36.6516C13.6451 35.9484 13.25 34.9946 13.25 34C13.25 33.0054 13.6451 32.0516 14.3483 31.3483C15.0516 30.6451 16.0054 30.25 17 30.25C17.9946 30.25 18.9484 30.6451 19.6517 31.3483C20.3549 32.0516 20.75 33.0054 20.75 34C20.75 34.9946 20.3549 35.9484 19.6517 36.6516C18.9484 37.3549 17.9946 37.75 17 37.75ZM28.25 35.5C28.4969 35.6029 28.7655 35.6432 29.0317 35.6174C29.298 35.5916 29.5538 35.5005 29.7764 35.3521C29.999 35.2037 30.1815 35.0026 30.3077 34.7668C30.434 34.5309 30.5 34.2675 30.5 34C30.5 33.7325 30.434 33.4691 30.3077 33.2332C30.1815 32.9974 29.999 32.7963 29.7764 32.6479C29.5538 32.4995 29.298 32.4084 29.0317 32.3826C28.7655 32.3568 28.4969 32.3971 28.25 32.5C27.9539 32.6234 27.7009 32.8317 27.5229 33.0986C27.345 33.3655 27.25 33.6792 27.25 34C27.25 34.3208 27.345 34.6345 27.5229 34.9014C27.7009 35.1683 27.9539 35.3766 28.25 35.5ZM28.25 37.75C27.2554 37.75 26.3016 37.3549 25.5983 36.6516C24.8951 35.9484 24.5 34.9946 24.5 34C24.5 33.0054 24.8951 32.0516 25.5983 31.3483C26.3016 30.6451 27.2554 30.25 28.25 30.25C29.2446 30.25 30.1984 30.6451 30.9017 31.3483C31.6049 32.0516 32 33.0054 32 34C32 34.9946 31.6049 35.9484 30.9017 36.6516C30.1984 37.3549 29.2446 37.75 28.25 37.75ZM4.5 11V1.5C4.5 1.16848 4.6317 0.850537 4.86612 0.616116C5.10054 0.381696 5.41848 0.25 5.75 0.25C6.08152 0.25 6.39946 0.381696 6.63388 0.616116C6.8683 0.850537 7 1.16848 7 1.5V11L8.25 9.5C8.49072 9.31946 8.78847 9.23181 9.08861 9.25314C9.38875 9.27447 9.67112 9.40335 9.88388 9.61612C10.0966 9.82888 10.2255 10.1113 10.2469 10.4114C10.2682 10.7115 10.1805 11.0093 10 11.25L6.5 14.75C6.42893 14.8448 6.34476 14.9289 6.25 15C6.03363 15.1623 5.77046 15.25 5.5 15.25C5.22954 15.25 4.96637 15.1623 4.75 15C4.65524 14.9289 4.57107 14.8448 4.5 14.75L1.125 11.375C0.944464 11.1343 0.856815 10.8365 0.878145 10.5364C0.899475 10.2363 1.02835 9.95388 1.24112 9.74112C1.45388 9.52835 1.73625 9.39948 2.03639 9.37815C2.33653 9.35682 2.63428 9.44446 2.875 9.625L4.5 11ZM27 11V1.5C27 1.16848 27.1317 0.850537 27.3661 0.616116C27.6005 0.381696 27.9185 0.25 28.25 0.25C28.5815 0.25 28.8995 0.381696 29.1339 0.616116C29.3683 0.850537 29.5 1.16848 29.5 1.5V11L30.75 9.5C30.9907 9.31946 31.2885 9.23181 31.5886 9.25314C31.8887 9.27447 32.1711 9.40335 32.3839 9.61612C32.5966 9.82888 32.7255 10.1113 32.7469 10.4114C32.7682 10.7115 32.6805 11.0093 32.5 11.25L29 14.75C28.9289 14.8448 28.8448 14.9289 28.75 15C28.5336 15.1623 28.2705 15.25 28 15.25C27.7295 15.25 27.4664 15.1623 27.25 15C27.1552 14.9289 27.0711 14.8448 27 14.75L23.5 11.25C23.3567 11.1425 23.2382 11.0056 23.1525 10.8483C23.0668 10.6911 23.0158 10.5173 23.0031 10.3386C22.9904 10.16 23.0163 9.98069 23.0789 9.81291C23.1415 9.64512 23.2395 9.49275 23.3661 9.36612C23.4928 9.23948 23.6451 9.14153 23.8129 9.07891C23.9807 9.01629 24.16 8.99045 24.3386 9.00315C24.5173 9.01584 24.6911 9.06677 24.8483 9.1525C25.0056 9.23822 25.1425 9.35673 25.25 9.5L27 11Z" fill="#3F3F3F"/>
<path fill-rule="evenodd" clip-rule="evenodd" d="M15.75 13.5V4C15.75 3.66848 15.8817 3.35054 16.1161 3.11612C16.3505 2.8817 16.6685 2.75 17 2.75C17.3315 2.75 17.6495 2.8817 17.8839 3.11612C18.1183 3.35054 18.25 3.66848 18.25 4V13.5L19.625 12C19.8657 11.8195 20.1635 11.7318 20.4636 11.7531C20.7637 11.7745 21.0461 11.9034 21.2589 12.1161C21.4716 12.3289 21.6005 12.6113 21.6219 12.9114C21.6432 13.2115 21.5555 13.5093 21.375 13.75L17.875 17.25C17.8039 17.3448 17.7198 17.4289 17.625 17.5C17.4086 17.6623 17.1455 17.75 16.875 17.75C16.6045 17.75 16.3414 17.6623 16.125 17.5C16.0302 17.4289 15.9461 17.3448 15.875 17.25L12.375 13.75C12.2317 13.6425 12.1132 13.5056 12.0275 13.3483C11.9418 13.1911 11.8908 13.0173 11.8781 12.8386C11.8654 12.66 11.8913 12.4807 11.9539 12.3129C12.0165 12.1451 12.1145 11.9928 12.2411 11.8661C12.3678 11.7395 12.5201 11.6415 12.6879 11.5789C12.8557 11.5163 13.035 11.4904 13.2136 11.5031C13.3923 11.5158 13.5661 11.5668 13.7233 11.6525C13.8806 11.7382 14.0175 11.8567 14.125 12L15.625 13.5H15.75Z" fill="#D61635"/>
</svg>
