<svg width="36" height="36" viewBox="0 0 36 36" fill="none" xmlns="http://www.w3.org/2000/svg">
<path fill-rule="evenodd" clip-rule="evenodd" d="M35.5 15.7499C34.25 5.74995 23.625 -1.75005 12.875 1.12495C9.5 2.12495 6.375 4.37495 4.125 7.62495C1.89626 10.5902 0.630993 14.1678 0.5 17.8749V22.8749C0.544242 23.4416 0.742214 23.9855 1.0726 24.4481C1.40299 24.9106 1.85328 25.2743 2.375 25.4999L24.875 34.8749C25.604 35.1765 26.3862 35.3281 27.175 35.3208C27.9638 35.3135 28.7431 35.1475 29.4664 34.8325C30.1897 34.5175 30.8421 34.0601 31.3847 33.4876C31.9274 32.915 32.3492 32.239 32.625 31.4999L33 30.6249L34 30.9999C34.1478 31.06 34.3078 31.0838 34.4667 31.0694C34.6255 31.055 34.7786 31.0028 34.9132 30.9171C35.0478 30.8315 35.1599 30.7149 35.2402 30.5771C35.3206 30.4393 35.3668 30.2842 35.375 30.1249V15.8749L35.5 15.7499ZM30.5 31.1249C29.75 33.2499 27.375 33.6249 25.5 32.8749L3.375 23.4999C3.17829 23.421 3.01175 23.2816 2.89941 23.1019C2.78707 22.9221 2.73475 22.7114 2.75 22.4999V17.9999C2.75 11.6249 7.75 5.12495 13.625 3.49995C21.625 1.24995 31.125 6.24995 32.875 14.6249L20.375 12.9999C18.625 12.7499 16.75 14.4999 16.75 16.2499V20.8749C16.75 22.1249 17.625 23.3749 18.75 23.8749L31 30.1249L30.5 31.3749V31.1249ZM20.875 15.2499V22.4999L19.625 21.4999C19.25 21.2499 19.25 20.8749 19.25 20.4999V16.3749C19.25 15.8749 19.625 15.1249 20.25 15.2499H20.875ZM33 28.3749L23.25 23.2499V15.7499L33 16.9999V28.2499V28.3749Z" fill="#3F3F3F"/>
<path fill-rule="evenodd" clip-rule="evenodd" d="M8.625 14.875C7.55279 14.9075 6.53542 15.3564 5.78866 16.1265C5.0419 16.8966 4.62451 17.9273 4.625 19C4.65639 20.0509 5.0879 21.0502 5.83135 21.7937C6.57479 22.5371 7.57407 22.9686 8.625 23C9.1667 23 9.7031 22.8933 10.2036 22.686C10.704 22.4787 11.1588 22.1749 11.5418 21.7918C11.9249 21.4088 12.2287 20.954 12.436 20.4536C12.6433 19.9531 12.75 19.4167 12.75 18.875C12.75 18.3333 12.6433 17.7969 12.436 17.2964C12.2287 16.796 11.9249 16.3412 11.5418 15.9582C11.1588 15.5751 10.704 15.2713 10.2036 15.064C9.7031 14.8567 9.1667 14.75 8.625 14.75V14.875ZM8.625 21.125C8.35059 21.11 8.0822 21.0387 7.8366 20.9154C7.59099 20.7921 7.37343 20.6195 7.19749 20.4083C7.02156 20.1972 6.89102 19.9521 6.81403 19.6883C6.73704 19.4245 6.71524 19.1476 6.75 18.875C6.75 18.4794 6.8673 18.0928 7.08706 17.7639C7.30682 17.435 7.61918 17.1786 7.98463 17.0272C8.35008 16.8759 8.75222 16.8363 9.14018 16.9134C9.52814 16.9906 9.88451 17.1811 10.1642 17.4608C10.4439 17.7405 10.6344 18.0969 10.7116 18.4848C10.7887 18.8728 10.7491 19.2749 10.5978 19.6404C10.4464 20.0058 10.19 20.3182 9.86114 20.5379C9.53224 20.7577 9.14556 20.875 8.75 20.875L8.625 21.125Z" fill="#D61635"/>
</svg>
