<svg width="12" height="8" viewBox="0 0 12 8" fill="none" xmlns="http://www.w3.org/2000/svg">
<rect width="12" height="8" fill="#338AF3"/>
<path d="M8.24834 4.22998H3.74927C3.74927 4.5407 4.01974 4.79257 4.33033 4.79257H4.31162C4.31162 5.10328 4.56339 5.35522 4.87404 5.35522C4.87404 5.66593 5.1258 5.91787 5.43645 5.91787H6.56122C6.87187 5.91787 7.12363 5.666 7.12363 5.35522C7.43428 5.35522 7.68605 5.10335 7.68605 4.79257H7.66734C7.97781 4.79257 8.24834 4.5407 8.24834 4.22998Z" fill="#FFDA44"/>
<path d="M7.55631 3.49414C7.55631 4.35458 6.85903 5.05215 5.99889 5.05215C5.13875 5.05215 4.44153 4.35464 4.44153 3.49414" fill="#338AF3"/>
<path d="M7.54264 3.34833L6.91181 3.60384L7.24774 4.12992L6.56271 4.0171L6.47595 4.61286L5.99881 4.17467L5.52167 4.61286L5.43492 4.0171L4.74988 4.12986L5.08582 3.60384L4.45499 3.34833L5.08582 3.09283L4.74988 2.5668L5.43486 2.67963L5.52167 2.0838L5.99881 2.52205L6.47595 2.0838L6.56271 2.67963L7.24774 2.5668L6.91181 3.09289L7.54264 3.34833Z" fill="#FFDA44"/>
</svg>
