<svg width="12" height="8" viewBox="0 0 12 8" fill="none" xmlns="http://www.w3.org/2000/svg">
<rect width="12" height="8" fill="#00A14E"/>
<rect width="12" height="5.3913" fill="#E61B23"/>
<rect width="2.69542" height="8" fill="#F0F0F0"/>
<path d="M1.60882 3.70952L1.17398 2.92086L1.60882 2.14459L2.0436 2.92086L1.60882 3.70952Z" fill="#E61B23"/>
<path d="M0.739285 3.70952L0.304443 2.92086L0.739285 2.14459L1.17406 2.92086L0.739285 3.70952Z" fill="#E61B23"/>
<path d="M1.60882 5.85405L1.17398 5.0654L1.60882 4.28912L2.0436 5.0654L1.60882 5.85405Z" fill="#E61B23"/>
<path d="M0.739285 5.85405L0.304443 5.0654L0.739285 4.28912L1.17406 5.0654L0.739285 5.85405Z" fill="#E61B23"/>
<path d="M1.60882 7.9987L1.17398 7.21005L1.60882 6.43378L2.0436 7.21005L1.60882 7.9987Z" fill="#E61B23"/>
<path d="M0.739285 7.9987L0.304443 7.21005L0.739285 6.43378L1.17406 7.21005L0.739285 7.9987Z" fill="#E61B23"/>
<path d="M1.60882 1.56499L1.17398 0.776335L1.60882 0L2.0436 0.776335L1.60882 1.56499Z" fill="#E61B23"/>
<path d="M0.739285 1.56499L0.304443 0.776335L0.739285 0L1.17406 0.776335L0.739285 1.56499Z" fill="#E61B23"/>
</svg>
