<svg width="147" height="14" viewBox="0 0 147 14" fill="none" xmlns="http://www.w3.org/2000/svg">
<g clip-path="url(#clip0)">
<path fill-rule="evenodd" clip-rule="evenodd" d="M129.125 12.7114L130.287 0H126.288L125.006 14L129.125 12.7114Z" fill="white"/>
<path fill-rule="evenodd" clip-rule="evenodd" d="M21.054 12.7114L22.2211 0H18.2167L16.9355 14L21.054 12.7114Z" fill="white"/>
<path fill-rule="evenodd" clip-rule="evenodd" d="M39.9761 0L39.0891 9.6867L32.0296 0.00486291H25.4473L24.1661 14L28.2846 12.7114L29.1664 3.09274L36.1792 12.7114H42.8185L43.9804 0H39.9761Z" fill="white"/>
<path fill-rule="evenodd" clip-rule="evenodd" d="M61.3465 0L60.4595 9.6867L53.4 0.00486291H46.8177L45.5314 14L49.655 12.7114L50.5368 3.09274L57.5496 12.7114H64.189L65.3508 0H61.3465Z" fill="white"/>
<path fill-rule="evenodd" clip-rule="evenodd" d="M83.4587 0H67.4724L67.2026 2.94686H73.1677L72.1562 14L76.2747 12.7114L77.172 2.94686H83.1889L83.4587 0Z" fill="white"/>
<path fill-rule="evenodd" clip-rule="evenodd" d="M136.739 9.57971L137.616 0H133.612L132.45 12.7114H145.76L146.045 9.57971H136.739Z" fill="white"/>
<path fill-rule="evenodd" clip-rule="evenodd" d="M15.3327 2.94686L15.6025 0H1.28119L0 14L4.12365 12.7114L4.51787 8.40778H14.3265L14.5962 5.46092H4.78759L5.01582 2.94686H15.3327Z" fill="white"/>
<path fill-rule="evenodd" clip-rule="evenodd" d="M118.471 12.7114H123.087L116.806 0.00973511H111.51L103.081 12.7114H107.428L108.927 10.455H117.454L118.471 12.7114ZM110.701 7.77076L113.989 2.81557L116.235 7.77076H110.701Z" fill="white"/>
<path fill-rule="evenodd" clip-rule="evenodd" d="M98.9781 0C102.002 0 102.35 2.091 102.21 3.68114C102.147 4.41056 102.059 5.33449 101.95 5.6214C101.758 6.12226 101.509 6.53074 101.105 6.90518C100.462 7.50816 99.5435 7.79993 98.6773 7.92636C98.6773 7.92636 98.9781 7.9215 99.0818 7.92636C101.8 8.03334 101.432 9.92497 101.432 9.92497L101.151 12.7114H97.1471L97.256 11.1358C97.256 9.37548 95.5962 9.49705 95.5962 9.49705H88.9102L88.6093 12.7551L88.5834 12.7308L84.4908 12.7114L85.772 0.00486291H98.9781V0ZM97.7643 5.65544C97.6191 5.93262 97.1419 6.35568 96.5869 6.35568H89.1903L89.4859 3.11219H96.8099C97.7436 3.11219 97.9251 3.64224 97.9874 3.94373C98.1015 4.47864 98.0237 5.16916 97.7643 5.65544ZM98.6409 7.93123C98.6254 7.93123 98.6202 7.93609 98.6409 7.93123V7.93123Z" fill="white"/>
</g>
<defs>
<clipPath id="clip0">
<rect width="146.045" height="14" fill="white"/>
</clipPath>
</defs>
</svg>
