<svg width="100" height="100" viewBox="0 0 100 100" fill="none" xmlns="http://www.w3.org/2000/svg">
<path d="M100 25.1099V74.8899C99.9842 77.0012 99.1343 79.0207 97.6357 80.508C96.1372 81.9954 94.1114 82.83 92 82.8299H8C5.88862 82.83 3.86283 81.9954 2.36425 80.508C0.865676 79.0207 0.0158353 77.0012 0 74.8899L0 25.1099C0.0158353 22.9986 0.865676 20.9792 2.36425 19.4918C3.86283 18.0045 5.88862 17.1699 8 17.1699H92.1C94.194 17.196 96.1943 18.0422 97.6713 19.5267C99.1484 21.0113 99.9845 23.0158 100 25.1099Z" fill="#262626"/>
<path d="M24.4901 39.75C24.01 40.3453 23.3998 40.8225 22.7063 41.145C22.0129 41.4674 21.2547 41.6265 20.4901 41.61C20.4082 40.1119 20.9141 38.6409 21.9001 37.51C22.9043 36.363 24.3117 35.6467 25.8301 35.51C25.9506 37.0535 25.4543 38.5818 24.4501 39.76L24.4901 39.75ZM25.8301 41.93C23.6401 41.8 21.7801 43.16 20.8301 43.16C19.8801 43.16 18.3201 42 16.4601 42C15.3272 42.0216 14.2197 42.3395 13.2478 42.9219C12.2759 43.5044 11.4734 44.3312 10.9201 45.32C8.58011 49.32 10.3201 55.39 12.6101 58.68C13.7201 60.29 15.1201 62.1 16.8101 62.03C18.5001 61.96 19.1301 61 21.1401 61C23.1501 61 23.6601 62.08 25.4901 62.05C27.3201 62.02 28.4901 60.42 29.5901 58.78C30.3812 57.6174 30.9946 56.3434 31.4101 55C30.358 54.5474 29.4614 53.7968 28.8306 52.8409C28.1998 51.8849 27.8625 50.7653 27.8601 49.62C27.8802 48.6126 28.1536 47.6266 28.6552 46.7527C29.1568 45.8789 29.8704 45.1454 30.7301 44.62C30.1726 43.8409 29.4455 43.1984 28.6037 42.7411C27.7618 42.2838 26.8272 42.0236 25.8701 41.98L25.8301 41.93ZM38.4501 37.43V61.92H42.3801V53.47H47.6401C48.6566 53.5267 49.6743 53.3826 50.6351 53.0459C51.5959 52.7092 52.4809 52.1865 53.2396 51.5077C53.9983 50.8288 54.6158 50.0071 55.0569 49.0896C55.4979 48.172 55.7539 47.1765 55.8101 46.16C55.8101 45.91 55.8101 45.66 55.8101 45.41C55.8862 43.3788 55.1582 41.3995 53.784 39.9017C52.4098 38.404 50.5004 37.5086 48.4701 37.41H47.7501L38.4501 37.43ZM42.3801 40.62H46.6601C47.856 40.4516 49.0699 40.7645 50.0354 41.49C51.0009 42.2155 51.6392 43.2945 51.8101 44.49C51.8426 44.8226 51.8426 45.1575 51.8101 45.49C51.8523 46.0941 51.775 46.7006 51.5827 47.2749C51.3904 47.8491 51.0869 48.3798 50.6894 48.8367C50.292 49.2936 49.8084 49.6677 49.2663 49.9377C48.7242 50.2076 48.1342 50.3681 47.5301 50.41C47.2208 50.44 46.9094 50.44 46.6001 50.41H42.3801V40.62ZM62.6601 61.92C63.7856 61.9469 64.8978 61.6717 65.8809 61.123C66.864 60.5742 67.6821 59.7721 68.2501 58.8V61.92H71.7701V49.67C71.7701 46.12 68.9501 43.85 64.6001 43.85C60.2501 43.85 57.6501 46.17 57.4801 49.34H60.9001C61.0957 48.5566 61.5677 47.8703 62.2292 47.4073C62.8907 46.9442 63.6971 46.7357 64.5001 46.82C66.8101 46.82 68.1201 47.93 68.1201 49.92V51.25L63.3601 51.56C58.9601 51.81 56.5701 53.62 56.5701 56.76C56.5895 57.4697 56.7489 58.1685 57.0391 58.8163C57.3294 59.4642 57.7447 60.0484 58.2613 60.5353C58.778 61.0222 59.3857 61.4022 60.0496 61.6536C60.7135 61.9049 61.4206 62.0227 62.1301 62C62.3082 61.9838 62.4852 61.9571 62.6601 61.92ZM63.6601 59.03C61.6601 59.03 60.3601 58.03 60.3601 56.51C60.3601 54.99 61.6001 54 64.0001 54L68.2301 53.72V55.1C68.1935 56.1858 67.7316 57.2137 66.9441 57.962C66.1565 58.7103 65.1063 59.119 64.0201 59.1H63.7001L63.6601 59.03ZM76.5401 68.39C80.2401 68.39 81.9801 66.98 83.5401 62.7L90.2101 44.08H86.3401L81.8601 58.55L77.3801 44.08H73.3801L79.8201 61.92L79.4201 63C79.3017 63.7456 78.9065 64.4192 78.3133 64.8863C77.7202 65.3534 76.9727 65.5797 76.2201 65.52H75.0901V68.52C75.5764 68.545 76.0638 68.545 76.5501 68.52L76.5401 68.39Z" fill="#808080"/>
</svg>
