<svg width="100" height="100" viewBox="0 0 100 100" fill="none" xmlns="http://www.w3.org/2000/svg">
<path d="M100 25.1099V74.8899C99.9842 77.0012 99.1343 79.0207 97.6357 80.508C96.1372 81.9954 94.1114 82.83 92 82.8299H8C5.88862 82.83 3.86283 81.9954 2.36425 80.508C0.865676 79.0207 0.0158353 77.0012 0 74.8899L0 25.1099C0.0158353 22.9986 0.865676 20.9792 2.36425 19.4918C3.86283 18.0045 5.88862 17.1699 8 17.1699H92.1C94.194 17.196 96.1943 18.0422 97.6713 19.5267C99.1484 21.0113 99.9845 23.0158 100 25.1099Z" fill="#262626"/>
<path d="M47.78 51.63V61.17H44.78V37.6H52.78C54.71 37.5508 56.5805 38.2702 57.98 39.6C58.6709 40.2368 59.2223 41.0099 59.5995 41.8705C59.9766 42.731 60.1713 43.6604 60.1713 44.6C60.1713 45.5396 59.9766 46.469 59.5995 47.3296C59.2223 48.1901 58.6709 48.9632 57.98 49.6C57.2889 50.2612 56.4734 50.7785 55.5807 51.1218C54.688 51.4651 53.7361 51.6277 52.78 51.6L47.78 51.63ZM47.78 40.5V48.73H52.86C53.6656 48.7449 54.4577 48.5221 55.1373 48.0895C55.817 47.6568 56.3541 47.0335 56.6816 46.2974C57.0092 45.5613 57.1125 44.745 56.9789 43.9505C56.8452 43.156 56.4804 42.4184 55.93 41.83L55.85 41.75C55.4653 41.3433 54.9995 41.0219 54.4827 40.8066C53.9659 40.5913 53.4097 40.4868 52.85 40.5H47.78Z" fill="#808080"/>
<path d="M67.13 44.52C69.0611 44.4129 70.9593 45.0539 72.43 46.31C73.0896 46.9413 73.6045 47.708 73.9394 48.5573C74.2743 49.4066 74.4212 50.3184 74.37 51.23V61.17H71.48V58.94H71.35C70.8248 59.7916 70.0885 60.4932 69.2125 60.9767C68.3366 61.4603 67.3505 61.7094 66.35 61.7C64.7182 61.7484 63.1274 61.1848 61.89 60.12C61.3142 59.6382 60.8544 59.0329 60.5445 58.3491C60.2346 57.6653 60.0827 56.9205 60.1 56.17C60.0703 55.4004 60.2265 54.635 60.5556 53.9387C60.8846 53.2424 61.3766 52.6357 61.99 52.17C63.4499 51.137 65.2138 50.623 67 50.71C68.5446 50.6557 70.0771 51.0001 71.45 51.71V51C71.4492 50.4892 71.3369 49.9848 71.121 49.5219C70.9051 49.059 70.5908 48.6488 70.2 48.32C69.3941 47.6017 68.3495 47.2095 67.27 47.22C66.4753 47.2016 65.6894 47.3889 64.9886 47.7639C64.2877 48.1389 63.6957 48.6887 63.27 49.36L60.6 47.68C61.327 46.6384 62.3091 45.8008 63.4525 45.2475C64.5959 44.6942 65.8621 44.4437 67.13 44.52ZM63.22 56.24C63.2127 56.6293 63.2999 57.0147 63.474 57.363C63.6482 57.7113 63.9041 58.0122 64.22 58.24C64.8872 58.7694 65.7185 59.0489 66.57 59.03C67.2085 59.0286 67.8405 58.9006 68.4292 58.6534C69.018 58.4063 69.5518 58.0448 70 57.59C70.4719 57.173 70.8496 56.6605 71.1083 56.0863C71.3669 55.5122 71.5004 54.8897 71.5 54.26C70.3355 53.4371 68.9225 53.0414 67.5 53.14C66.4069 53.0927 65.3284 53.4054 64.43 54.03C64.0546 54.2648 63.7442 54.5903 63.5275 54.9765C63.3108 55.3627 63.1948 55.7972 63.19 56.24H63.22Z" fill="#808080"/>
<path d="M91.0001 45.05L80.8901 68.28H77.7601L81.5201 60.1501L74.8701 45.05H78.1601L83.0001 56.6301L87.7001 45.05H91.0001Z" fill="#808080"/>
<path d="M35.5401 49.5699C35.6131 51.4242 35.2947 53.2731 34.6055 54.9961C33.9163 56.7191 32.8718 58.2776 31.5401 59.5699C29.0669 61.769 25.8482 62.942 22.5401 62.8499C19.0114 62.754 15.6595 61.2849 13.1976 58.7552C10.7357 56.2255 9.35815 52.8349 9.35815 49.3049C9.35815 45.775 10.7357 42.3844 13.1976 39.8547C15.6595 37.3249 19.0114 35.8558 22.5401 35.7599C25.903 35.7204 29.1504 36.9856 31.6001 39.2899L27.7401 43.1499C26.3329 41.8322 24.4676 41.1148 22.5401 41.1499C21.2789 41.1815 20.042 41.5044 18.9263 42.0934C17.8106 42.6824 16.8462 43.5214 16.1086 44.545C15.371 45.5685 14.8802 46.7488 14.6745 47.9936C14.4687 49.2383 14.5537 50.5138 14.9228 51.7202C15.2919 52.9267 15.935 54.0314 16.8019 54.948C17.6688 55.8646 18.7359 56.5683 19.9199 57.004C21.1039 57.4398 22.3727 57.5957 23.6269 57.4597C24.8812 57.3237 26.087 56.8993 27.1501 56.2199C27.8664 55.7404 28.476 55.118 28.9406 54.3918C29.4053 53.6656 29.7149 52.8513 29.8501 51.9999H22.5401V46.8099H35.3101C35.4611 47.7222 35.538 48.6452 35.5401 49.5699Z" fill="#808080"/>
</svg>
