<svg width="20" height="22" viewBox="0 0 20 22" fill="none" xmlns="http://www.w3.org/2000/svg">
<path d="M1 3.35294H2.86207M19 3.35294H17.1379M17.1379 3.35294V19C17.1379 20.1046 16.2425 21 15.1379 21H4.86207C3.7575 21 2.86207 20.1046 2.86207 19V3.35294M17.1379 3.35294H13.569M2.86207 3.35294H6.43103M6.43103 3.35294H10H13.569M6.43103 3.35294H13.569M6.43103 3.35294V3C6.43103 1.89543 7.32647 1 8.43104 1H11.569C12.6735 1 13.569 1.89543 13.569 3V3.35294M6.43103 6.29412V18.0588M10 6.29412V18.0588M13.569 6.29412V18.0588" stroke="#BEBEBE" stroke-linecap="round"/>
</svg>
