<svg width="60" height="68" viewBox="0 0 60 68" fill="none" xmlns="http://www.w3.org/2000/svg">
<g clip-path="url(#clip0)">
<g clip-path="url(#clip1)">
<path d="M56.7467 48.0963L56.2677 42.8549C56.0684 40.6967 54.8976 38.7882 53.1347 37.75L49.7623 35.7643C49.7546 35.5476 49.7489 35.3309 49.7402 35.1133C49.6818 33.4845 49.6061 31.8539 49.517 30.2685L49.333 27.0995C50.8209 26.474 51.8001 25.0374 51.7043 23.468L51.2751 16.528L54.0804 16.7532C54.1072 16.7532 54.135 16.7532 54.1618 16.7532C54.4286 16.7532 54.6845 16.649 54.8731 16.4635C55.0618 16.278 55.1678 16.0264 55.1678 15.7641V1.91624C55.167 1.7803 55.1378 1.64597 55.0818 1.52164C55.0259 1.39731 54.9445 1.28565 54.8428 1.19362C54.741 1.1016 54.621 1.0312 54.4903 0.986799C54.3597 0.942403 54.2211 0.92497 54.0832 0.935589L46.7242 1.52436C46.5363 1.15501 46.2476 0.844324 45.8905 0.627053C45.5333 0.409782 45.1217 0.294489 44.7017 0.294067L42.8353 0.294067C42.4041 0.29456 41.982 0.415979 41.6185 0.644074C41.255 0.872169 40.9652 1.19748 40.7831 1.58182L36.2264 1.30675C32.0786 1.05703 27.9191 1.05703 23.7713 1.30675L19.2147 1.58182C19.0327 1.19777 18.7432 0.872653 18.3801 0.644579C18.017 0.416505 17.5953 0.294918 17.1644 0.294067L15.298 0.294067C14.878 0.294489 14.4664 0.409782 14.1092 0.627053C13.752 0.844324 13.4634 1.15501 13.2755 1.52436L5.91645 0.935589C5.7779 0.924524 5.63852 0.941813 5.5071 0.986364C5.37569 1.03092 5.25509 1.10176 5.15291 1.19443C5.05074 1.28711 4.96921 1.3996 4.91346 1.5248C4.85771 1.65001 4.82896 1.78521 4.82902 1.92189V15.7697C4.82978 16.0317 4.93624 16.2827 5.12502 16.4676C5.31381 16.6525 5.5695 16.7563 5.83597 16.756C5.8628 16.756 5.89058 16.756 5.91741 16.756L8.72268 16.5309L8.2925 23.468C8.19669 25.0364 9.17586 26.473 10.6638 27.0985L10.4875 30.2666C10.3984 31.8577 10.3227 33.4883 10.2642 35.1124C10.2556 35.33 10.2499 35.5466 10.2422 35.7633L6.86974 37.7491C5.10687 38.7853 3.93609 40.6958 3.73681 42.854L3.24914 48.0963C3.23296 48.2738 3.26578 48.4523 3.34415 48.6129C3.42251 48.7736 3.54351 48.9104 3.69439 49.0091C3.84527 49.1078 4.02044 49.1646 4.20141 49.1736C4.38239 49.1825 4.56248 49.1433 4.72268 49.06L4.88363 48.9753C5.11042 52.6085 5.74076 56.2065 6.7634 59.705C7.07391 60.8073 7.72182 61.789 8.61921 62.5169C9.48179 63.2207 10.5643 63.6115 11.6851 63.6238C12.1938 64.3368 12.8516 64.9345 13.6146 65.3769C14.3775 65.8193 15.2279 66.0962 16.1086 66.1889L19.0882 66.4998C22.7105 66.8766 26.3506 67.0653 29.9931 67.065C33.6357 67.0653 37.2757 66.8766 40.8981 66.4998L43.8777 66.1889C44.7584 66.0963 45.6088 65.8195 46.3718 65.3771C47.1347 64.9346 47.7926 64.3368 48.3012 63.6238C49.4221 63.612 50.5047 63.2211 51.3671 62.5169C52.2644 61.7892 52.9126 60.8079 53.2238 59.7059C54.2457 56.2073 54.8757 52.6094 55.1026 48.9762L55.2636 49.06C55.4238 49.1433 55.6039 49.1825 55.7848 49.1736C55.9658 49.1646 56.141 49.1078 56.2919 49.0091C56.4428 48.9104 56.5638 48.7736 56.6421 48.6129C56.7205 48.4523 56.7533 48.2738 56.7371 48.0963H56.7467ZM52.0971 39.4476C53.3101 40.1616 54.1177 41.5021 54.2586 43.0339L54.5766 46.4779L54.2892 46.3479L54.2308 46.3225C54.1455 46.2848 54.0602 46.2481 53.974 46.2123L53.8619 46.1661L53.654 46.0823L53.5323 46.0352L53.3283 45.9579L53.2085 45.9137C53.1338 45.8863 53.0581 45.86 52.9833 45.8345C52.9508 45.8232 52.9192 45.811 52.8875 45.8006C52.7802 45.7639 52.6729 45.729 52.5656 45.6951L52.5081 45.6772C52.419 45.649 52.3299 45.6226 52.2399 45.5962L52.1278 45.5642L51.9113 45.5029L51.7877 45.4709L51.575 45.4163L51.4552 45.3861C51.3766 45.3673 51.2981 45.3494 51.2195 45.3324L51.1237 45.3108C51.0135 45.2863 50.9033 45.2637 50.7932 45.242L50.7328 45.2307C50.6427 45.2128 50.5517 45.1958 50.4607 45.1798L50.3438 45.161L50.1244 45.1252L49.996 45.1063L49.9002 45.0922C49.9002 44.8831 49.9002 44.6768 49.9002 44.4705V43.8327C49.9002 43.7762 49.9002 43.7197 49.9002 43.6632C49.9002 43.4609 49.9002 43.2606 49.9002 43.0621V43.0508C49.9002 42.5484 49.8961 42.0479 49.8878 41.5492L49.882 41.1037C49.8769 40.7225 49.8715 40.3403 49.8657 39.9572C49.8657 39.8197 49.8609 39.6812 49.8581 39.5437C49.8491 39.0657 49.8389 38.5881 49.8274 38.1108L52.0971 39.4476ZM53.1587 14.6939L46.9637 14.1984V3.49037L53.1587 2.99486V14.6939ZM42.5843 2.5182C42.5845 2.4529 42.6111 2.39036 42.6581 2.34428C42.7052 2.2982 42.7689 2.27233 42.8353 2.27233H44.7017C44.768 2.27233 44.8316 2.29823 44.8785 2.34434C44.9254 2.39045 44.9517 2.45299 44.9517 2.5182V15.1706C44.9517 15.2029 44.9452 15.2348 44.9327 15.2647C44.9201 15.2945 44.9017 15.3216 44.8785 15.3444C44.8553 15.3673 44.8277 15.3854 44.7974 15.3977C44.767 15.4101 44.7345 15.4164 44.7017 15.4164H42.8353C42.7689 15.4164 42.7052 15.3906 42.6581 15.3445C42.6111 15.2984 42.5845 15.2359 42.5843 15.1706V2.5182ZM23.8959 3.28124C27.9614 3.03725 32.0383 3.03725 36.1038 3.28124L40.5723 3.5516V14.1419L36.1038 14.4122C34.0784 14.5347 32.0386 14.6006 29.9998 14.6006C27.961 14.6006 25.9213 14.5394 23.8959 14.4122L19.4274 14.1419V3.5516L23.8959 3.28124ZM15.048 2.5182C15.048 2.45299 15.0743 2.39045 15.1212 2.34434C15.1681 2.29823 15.2317 2.27233 15.298 2.27233H17.1644C17.2308 2.27233 17.2945 2.2982 17.3415 2.34428C17.3886 2.39036 17.4151 2.4529 17.4154 2.5182V15.1706C17.4151 15.2359 17.3886 15.2984 17.3415 15.3445C17.2945 15.3906 17.2308 15.4164 17.1644 15.4164H15.298C15.2652 15.4164 15.2327 15.4101 15.2023 15.3977C15.172 15.3854 15.1444 15.3673 15.1212 15.3444C15.098 15.3216 15.0796 15.2945 15.067 15.2647C15.0544 15.2348 15.048 15.2029 15.048 15.1706V2.5182ZM6.841 2.99486L13.036 3.49037V14.1984L6.841 14.6939V2.99486ZM10.3006 23.5885L10.7471 16.367L13.2745 16.1644L13.286 16.1851C13.3023 16.2162 13.3196 16.2473 13.3368 16.2793C13.3435 16.2897 13.3493 16.3001 13.355 16.3104C13.378 16.3481 13.4029 16.3858 13.4278 16.4225L13.4441 16.4451C13.4652 16.4753 13.4882 16.5045 13.5112 16.5337L13.5351 16.5638C13.562 16.5968 13.5907 16.6298 13.6195 16.658L13.6242 16.6627C13.6549 16.696 13.6868 16.7274 13.7201 16.7569C13.7288 16.7662 13.7381 16.775 13.7478 16.7833C13.7747 16.8078 13.8015 16.8323 13.8302 16.8559L13.8523 16.8747C13.8868 16.9039 13.9222 16.9312 13.9586 16.9576L13.9854 16.9764C14.0151 16.9972 14.0458 17.0169 14.0813 17.0367L14.1119 17.0565C14.1512 17.0801 14.1905 17.1027 14.2307 17.1243L14.246 17.1319C14.2815 17.1507 14.3189 17.1686 14.3553 17.1856L14.3907 17.2016L14.5028 17.2468L14.521 17.2534C14.5651 17.2694 14.6092 17.2835 14.6532 17.2967L14.6887 17.3071L14.7979 17.3344L14.8314 17.3419C14.8774 17.3514 14.9272 17.3598 14.9704 17.3664H14.9991C15.0384 17.3721 15.0777 17.3759 15.1169 17.3787H15.1572C15.206 17.3787 15.253 17.3834 15.3038 17.3834H17.1701C17.2209 17.3834 17.2659 17.3834 17.3205 17.3777H17.3598C17.4039 17.3777 17.447 17.3693 17.4901 17.3636H17.5083C17.5562 17.3561 17.6041 17.3476 17.6511 17.3372L17.6875 17.3288C17.7268 17.3203 17.7651 17.3099 17.8034 17.2986L17.8302 17.2911C17.8762 17.2779 17.9203 17.2628 17.9644 17.2459L17.996 17.2336C18.0324 17.2204 18.0678 17.2054 18.1033 17.1893L18.134 17.1762C18.1761 17.1564 18.2173 17.1356 18.2585 17.113C18.2668 17.1092 18.2748 17.1048 18.2825 17.0998C18.3169 17.081 18.3505 17.0603 18.3831 17.0396L18.4137 17.0207C18.453 16.9953 18.4913 16.9698 18.5277 16.9416L18.5421 16.9312C18.5756 16.9058 18.6072 16.8804 18.6379 16.854L18.6657 16.8304C18.7011 16.7993 18.7356 16.7683 18.7692 16.7362C18.8017 16.7042 18.8334 16.6703 18.865 16.6354L18.8889 16.6081C18.9158 16.577 18.9426 16.545 18.9675 16.5139C18.9715 16.5099 18.9751 16.5055 18.978 16.5007C19.0068 16.4647 19.0337 16.4273 19.0585 16.3886L19.0786 16.3585C19.0997 16.3264 19.1198 16.295 19.139 16.2643C19.144 16.2567 19.1485 16.2489 19.1524 16.2407C19.1754 16.2012 19.1965 16.1597 19.2166 16.1183C19.2169 16.1148 19.2169 16.1113 19.2166 16.1079L23.7732 16.383C24.031 16.399 24.2897 16.4131 24.5483 16.4272C26.3591 16.5214 28.1795 16.5704 29.9998 16.5704C32.0808 16.5704 34.1608 16.5073 36.2274 16.382L40.784 16.107C40.7852 16.1106 40.7869 16.114 40.7888 16.1173C40.809 16.1588 40.83 16.2002 40.853 16.2398C40.8569 16.2479 40.8614 16.2558 40.8664 16.2633C40.8856 16.2972 40.9057 16.3286 40.9268 16.3575L40.9469 16.3877C40.9718 16.4264 40.9986 16.4638 41.0274 16.4998L41.037 16.513C41.0629 16.5459 41.0897 16.578 41.1165 16.6072L41.1405 16.6345C41.2027 16.7037 41.2693 16.7692 41.3397 16.8304L41.3675 16.854C41.3991 16.8804 41.4317 16.9067 41.4633 16.9312L41.4767 16.9416C41.5141 16.9698 41.5534 16.9953 41.5917 17.0207L41.6214 17.0396C41.6549 17.0603 41.6885 17.081 41.723 17.0998C41.7306 17.1048 41.7386 17.1092 41.7469 17.113C41.7881 17.1356 41.8293 17.1564 41.8724 17.1762L41.9012 17.1893C41.9376 17.2054 41.973 17.2204 42.0094 17.2346L42.0401 17.2459C42.0842 17.2628 42.1292 17.2779 42.1752 17.2911L42.2011 17.2986C42.2403 17.3099 42.2787 17.3203 42.3189 17.3288L42.3543 17.3372C42.4013 17.3476 42.4502 17.3561 42.4971 17.3636H42.5153C42.5584 17.3693 42.6015 17.374 42.6456 17.3777H42.6849C42.7347 17.3777 42.7807 17.3834 42.8353 17.3834H44.7017C44.7505 17.3834 44.7975 17.3834 44.8482 17.3787H44.8885C44.9278 17.3787 44.967 17.3721 45.0063 17.3664H45.0341C45.0811 17.3598 45.1299 17.3514 45.174 17.3419L45.2075 17.3344L45.3167 17.3071L45.3522 17.2967C45.3963 17.2835 45.4403 17.2694 45.4835 17.2534L45.5026 17.2468C45.54 17.2327 45.5773 17.2176 45.6138 17.2016L45.6502 17.1856C45.6866 17.1686 45.7239 17.1507 45.7594 17.1319L45.7747 17.1243C45.815 17.1027 45.8542 17.0801 45.8935 17.0565L45.9242 17.0367C45.9548 17.0169 45.9855 16.9972 46.0142 16.9764L46.042 16.9576C46.0784 16.9312 46.1139 16.9039 46.1484 16.8747L46.1704 16.8559C46.1991 16.8323 46.226 16.8078 46.2528 16.7833C46.2625 16.775 46.2718 16.7662 46.2806 16.7569C46.3132 16.7255 46.3451 16.6941 46.3764 16.6627L46.3812 16.658C46.4099 16.626 46.4387 16.593 46.4655 16.5638L46.4894 16.5337C46.5124 16.5045 46.5345 16.4753 46.5565 16.4451L46.5728 16.4225C46.5977 16.3858 46.6217 16.3481 46.6456 16.3104L46.6629 16.2793C46.6811 16.2492 46.6983 16.2181 46.7146 16.1851L46.7261 16.1644L49.2535 16.367L49.7 23.5876C49.7527 24.4496 49.0667 25.2343 48.1038 25.4123C48.0285 25.4268 47.9528 25.4371 47.8768 25.4434L33.7163 26.6473V22.5966C33.7163 22.3342 33.6103 22.0827 33.4216 21.8972C33.2329 21.7117 32.9771 21.6075 32.7103 21.6075H27.2913C27.0245 21.6075 26.7687 21.7117 26.58 21.8972C26.3913 22.0827 26.2853 22.3342 26.2853 22.5966V26.6473L12.1239 25.4462L12.0118 25.434C11.9735 25.4283 11.9361 25.4227 11.8978 25.4151C10.9339 25.2343 10.248 24.4496 10.3006 23.5885ZM28.2973 38.0882V37.0134H31.7043V38.0882L30.0018 38.8315L28.2973 38.0882ZM32.7045 31.4328H33.0226V35.0351H26.9732V31.4328H32.7083H32.7045ZM28.2973 29.4545V23.5838H31.7043V29.4545H28.2973ZM5.74016 43.0339C5.881 41.5021 6.68867 40.1616 7.9016 39.4476L10.1723 38.1108C10.1614 38.5856 10.1531 39.0623 10.1474 39.5408C10.1474 39.6803 10.1474 39.8234 10.1397 39.9591C10.1339 40.3403 10.1285 40.7212 10.1234 41.1018C10.1234 41.2516 10.1234 41.4004 10.1177 41.5492C10.1119 42.0517 10.1078 42.5541 10.1052 43.0565C10.1052 43.2505 10.1052 43.4465 10.1052 43.6443C10.1052 43.7225 10.1052 43.8016 10.1052 43.8808V44.5006C10.1052 44.6966 10.1052 44.8944 10.1052 45.0922L10.0094 45.1063L9.88867 45.1242L9.65969 45.1619L9.55142 45.1798L9.264 45.2326L9.21897 45.2411C9.10687 45.2637 8.99478 45.2863 8.88364 45.3108L8.80124 45.3296L8.55118 45.3871L8.44196 45.4144L8.2149 45.4718L8.10472 45.502C8.02615 45.5227 7.94759 45.5444 7.86999 45.567L7.77418 45.5943C7.67166 45.6245 7.5701 45.6546 7.46855 45.6885L7.44843 45.6951C7.33729 45.73 7.22615 45.7667 7.11597 45.8044L7.04795 45.8279L6.79214 45.9221L6.69633 45.9589L6.47118 46.0446L6.36483 46.0861C6.2901 46.1153 6.21441 46.1454 6.13968 46.1803L6.04387 46.2208C5.95286 46.2584 5.86184 46.2971 5.77178 46.3366L5.72579 46.3574C5.62998 46.3997 5.53417 46.4431 5.43836 46.4874L5.74016 43.0339ZM9.89346 60.9823C9.31472 60.509 8.89825 59.8719 8.70065 59.1576C7.65856 55.5931 7.04093 51.9216 6.86016 48.2169L6.84962 48.0163L6.87453 48.0059C6.98471 47.9607 7.09394 47.9174 7.20507 47.875L7.31525 47.8326C7.4034 47.7996 7.49058 47.7676 7.57873 47.7384L7.68987 47.6997C7.80771 47.6583 7.92651 47.6187 8.04532 47.5811L8.06064 47.5763C8.17945 47.5396 8.29825 47.5038 8.41801 47.4699L8.53298 47.4369L8.79645 47.3663L8.91621 47.3361C9.02544 47.3088 9.13562 47.2834 9.2458 47.2589L9.28795 47.2485C9.41059 47.2221 9.53322 47.1967 9.65681 47.1732L9.7737 47.1515C9.8628 47.1355 9.9519 47.1195 10.041 47.1053L10.1138 47.0931C10.1138 47.1185 10.1138 47.143 10.1138 47.1675C10.1138 47.2853 10.1138 47.403 10.1138 47.5208C10.1138 47.793 10.1205 48.0662 10.1253 48.3384L10.1339 48.7991C10.1339 49.0355 10.1426 49.2701 10.1474 49.5094L10.1589 50.0096C10.1633 50.2351 10.1688 50.4602 10.1751 50.685C10.1751 50.8555 10.1838 51.026 10.1886 51.1966C10.1943 51.4189 10.2007 51.6412 10.2077 51.8635C10.2077 52.0331 10.2183 52.2026 10.224 52.3722C10.231 52.6002 10.2387 52.8282 10.247 53.0561C10.2527 53.2172 10.2575 53.3783 10.2642 53.5384C10.2729 53.7881 10.2834 54.0368 10.293 54.2855C10.2987 54.4239 10.3035 54.5615 10.3093 54.7C10.3252 55.0843 10.3422 55.4683 10.36 55.8521L10.5708 60.4068C10.5708 60.501 10.5823 60.5952 10.5919 60.6894C10.5919 60.7205 10.5986 60.7506 10.6015 60.7836C10.6092 60.8476 10.6168 60.9126 10.6254 60.972C10.6254 61.0078 10.6369 61.0436 10.6427 61.0794C10.6523 61.1378 10.6618 61.1971 10.6733 61.2555C10.68 61.2923 10.6877 61.329 10.6954 61.3657C10.703 61.4025 10.7069 61.4242 10.7136 61.4534C10.4169 61.3395 10.1401 61.1805 9.89346 60.9823V60.9823ZM43.6717 64.222L40.6921 64.5328C33.5837 65.2714 26.416 65.2714 19.3076 64.5328L16.328 64.222C15.6642 64.1523 15.0269 63.9279 14.469 63.5675C13.9111 63.207 13.4488 62.7209 13.1203 62.1495C13.0733 62.0676 13.0245 61.9809 12.9852 61.8923C12.7467 61.3984 12.6112 60.8626 12.5866 60.3163L12.3759 55.7616C12.2254 52.5408 12.1383 49.2466 12.1153 45.9711V45.8242C12.1095 44.8821 12.1086 43.958 12.1153 43.0687C12.1153 42.4564 12.1207 41.8425 12.1315 41.2271C12.1517 39.6068 12.1871 37.979 12.2389 36.3671C12.2504 35.9746 12.2631 35.5812 12.2772 35.1868C12.3356 33.575 12.4104 31.9575 12.4985 30.3824L12.6604 27.481L26.2882 28.6397V29.4611H25.9701C25.7033 29.4611 25.4474 29.5654 25.2588 29.7508C25.0701 29.9363 24.9641 30.1879 24.9641 30.4503V36.0308C24.9641 36.2932 25.0701 36.5448 25.2588 36.7303C25.4474 36.9158 25.7033 37.02 25.9701 37.02H26.2882V38.7288C26.2882 38.9203 26.3446 39.1076 26.4507 39.2682C26.5569 39.4287 26.7081 39.5555 26.8861 39.6332L29.5965 40.8182C29.725 40.8741 29.8641 40.903 30.0046 40.903C30.1452 40.903 30.2842 40.8741 30.4128 40.8182L33.1213 39.635C33.2878 39.5623 33.431 39.4466 33.5358 39.3001C33.6406 39.1536 33.703 38.9819 33.7163 38.8032C33.7163 38.7797 33.7163 38.7552 33.7163 38.7307V37.0134H34.0343C34.3011 37.0134 34.557 36.9092 34.7457 36.7237C34.9343 36.5382 35.0403 36.2866 35.0403 36.0243V30.4437C35.0403 30.1813 34.9343 29.9298 34.7457 29.7443C34.557 29.5588 34.3011 29.4545 34.0343 29.4545H33.7163V28.6331L47.3441 27.4744L47.506 30.3768C47.5941 31.95 47.6679 33.5674 47.7273 35.1811C47.7417 35.5749 47.7551 35.9677 47.7666 36.3643C47.8375 38.5866 47.8787 40.8399 47.8892 43.0631C47.8892 43.942 47.8892 44.869 47.8892 45.8242V45.9664C47.8662 49.24 47.7781 52.5342 47.6286 55.7569L47.4169 60.3144C47.3925 60.8607 47.2569 61.3966 47.0183 61.8905C46.9762 61.979 46.9302 62.0657 46.8813 62.1495C46.5529 62.7214 46.0903 63.2078 45.532 63.5683C44.9737 63.9287 44.3359 64.1529 43.6717 64.222V64.222ZM51.3 59.1576C51.1014 59.872 50.6848 60.5092 50.1062 60.9833C49.8578 61.182 49.5791 61.341 49.2803 61.4543C49.2871 61.427 49.2918 61.3978 49.2976 61.3705C49.3033 61.3431 49.3139 61.2932 49.3215 61.2546C49.3321 61.1971 49.3417 61.1397 49.3512 61.0822C49.357 61.0455 49.3637 61.0087 49.3685 60.972C49.3771 60.9089 49.3848 60.8448 49.3915 60.7836C49.3915 60.7525 49.3992 60.7214 49.402 60.6894C49.4116 60.5952 49.4183 60.501 49.4231 60.4068L49.6339 55.8521C49.6645 55.187 49.6926 54.5191 49.7182 53.8484C49.7182 53.7617 49.7249 53.676 49.7278 53.5893C49.752 52.9506 49.7734 52.3103 49.792 51.6685C49.792 51.5564 49.7987 51.4434 49.8015 51.3313C49.8194 50.6957 49.8351 50.0592 49.8485 49.4218L49.8542 49.1024C49.8664 48.4468 49.8769 47.7911 49.8859 47.1355V47.0931L49.9539 47.1044C50.0465 47.1195 50.1385 47.1355 50.2298 47.1524L50.34 47.1732C50.4645 47.1967 50.5881 47.2221 50.7117 47.2495L50.751 47.2579C50.8621 47.2824 50.9723 47.3088 51.0835 47.3361L51.2023 47.3672L51.4638 47.4369L51.5836 47.4708C51.6976 47.5029 51.8106 47.5368 51.9247 47.5726L51.9726 47.5876C52.0837 47.6234 52.1948 47.6602 52.305 47.6988L52.4296 47.7421C52.512 47.7713 52.5934 47.8015 52.6748 47.8363L52.8013 47.8834C52.8971 47.9221 53.0006 47.9616 53.0993 48.0031L53.1501 48.0229L53.1405 48.2226C52.9584 51.9252 52.3408 55.5947 51.3 59.1576V59.1576Z" fill="#E8E8E8"/>
<path d="M43.8038 44.0984C43.2967 43.7868 42.716 43.6102 42.1186 43.5859L34.6455 43.2326C31.5614 43.0866 28.4342 43.0866 25.3521 43.2326L17.879 43.5859C16.5846 43.6481 15.4838 44.365 15.0651 45.4116C14.9533 45.6916 14.8958 45.9897 14.8955 46.2905C14.8954 46.4455 14.9108 46.6001 14.9415 46.7521L15.272 48.4091C15.2816 48.4619 15.295 48.5137 15.3084 48.5645L15.3199 48.605C15.3334 48.6512 15.3477 48.6992 15.364 48.7426L15.3698 48.7595C15.388 48.8095 15.4081 48.8594 15.4301 48.9084C15.4301 48.9206 15.4407 48.9319 15.4464 48.9442C15.4656 48.9866 15.4866 49.029 15.5087 49.0704C15.5116 49.0779 15.5151 49.0851 15.5192 49.0921C15.5451 49.1401 15.5729 49.1863 15.6026 49.2343L15.6198 49.2616C15.6457 49.3021 15.6735 49.3427 15.7022 49.3822C15.7022 49.3888 15.7118 49.3963 15.7175 49.4029C15.7511 49.4482 15.7856 49.4971 15.8229 49.5367L15.8373 49.5546C15.8708 49.5932 15.9053 49.6319 15.9417 49.6686L15.9532 49.6818L15.822 55.3613L15.8066 56.0207C15.8066 56.1048 15.8066 56.1887 15.8066 56.2722C15.8362 57.5717 16.3236 58.8209 17.1858 59.8062C18.048 60.7916 19.2314 61.452 20.5338 61.6748L29.8273 63.263C29.9414 63.2819 30.058 63.2819 30.1722 63.263L39.4656 61.6757C40.8111 61.4456 42.0282 60.7488 42.8957 59.7117C43.7633 58.6746 44.2238 57.366 44.1938 56.0235L44.0472 49.6884L44.0635 49.6705C44.096 49.6366 44.1267 49.6017 44.1593 49.5669L44.1813 49.5414C44.2168 49.499 44.2512 49.4557 44.2829 49.4124L44.3039 49.3841C44.3298 49.3464 44.3557 49.3097 44.3806 49.2711L44.4007 49.239C44.4295 49.1938 44.4572 49.1448 44.4821 49.0996C44.4869 49.0911 44.4908 49.0827 44.4956 49.0751C44.5166 49.0346 44.5368 48.9932 44.5559 48.9517C44.5617 48.9395 44.5674 48.9272 44.5722 48.915C44.5942 48.866 44.6144 48.8208 44.6326 48.7661L44.6383 48.7492C44.6546 48.704 44.669 48.655 44.6824 48.6126C44.6824 48.5984 44.6901 48.5853 44.6929 48.5721C44.7073 48.5203 44.7198 48.4684 44.7303 48.4157L45.0608 46.7587C45.1505 46.3101 45.108 45.8456 44.9382 45.42C44.7156 44.8703 44.3175 44.4065 43.8038 44.0984V44.0984ZM16.9401 46.1284C17.0637 45.8176 17.49 45.583 17.9767 45.5632L25.4498 45.21C26.9588 45.1384 28.4792 45.1026 29.9997 45.1026C31.5202 45.1026 33.0407 45.1384 34.5506 45.21L42.0237 45.5632C42.1826 45.571 42.3393 45.6027 42.4884 45.6574C42.5725 45.6882 42.6534 45.727 42.7298 45.7733C42.8757 45.8569 42.9914 45.9834 43.0603 46.135C43.0914 46.2112 43.0997 46.2946 43.0843 46.3753L42.7538 48.0323C42.75 48.0508 42.7449 48.0691 42.7384 48.0869C42.6817 48.2327 42.5794 48.3571 42.4462 48.4421C42.3633 48.4993 42.2736 48.5461 42.1789 48.5815L37.9212 49.2164C35.9724 49.5057 34.0088 49.6881 32.0395 49.7628C31.3631 49.7882 30.6819 49.8005 30.0007 49.8005C29.3195 49.8005 28.6383 49.7882 27.9628 49.7628C25.9935 49.6881 24.0299 49.5057 22.0812 49.2164L17.8225 48.5815C17.7269 48.546 17.6364 48.4985 17.5532 48.4402C17.4028 48.3469 17.2937 48.2012 17.2476 48.0323L16.9171 46.3743C16.9121 46.3479 16.9095 46.3211 16.9094 46.2942C16.9088 46.2376 16.9192 46.1813 16.9401 46.1284V46.1284ZM31.0709 51.7627V54.5888C30.3762 54.8205 29.6232 54.8205 28.9286 54.5888V51.7627C29.284 51.7703 29.6395 51.7731 29.9959 51.7731C30.3523 51.7731 30.7078 51.7731 31.0632 51.7627H31.0709ZM39.1188 59.72L29.9988 61.2782L20.8778 59.72C20.005 59.5756 19.2148 59.1258 18.6528 58.4536C18.0907 57.7814 17.7948 56.932 17.8196 56.0621L17.9461 50.5984L21.7784 51.1692C23.4646 51.4179 25.1892 51.5922 26.9137 51.6874V55.2294C26.9137 55.4065 26.9621 55.5804 27.0538 55.7328C27.1455 55.8853 27.2771 56.0107 27.4349 56.0961C28.2198 56.5207 29.101 56.7433 29.9969 56.7433C30.8927 56.7433 31.7739 56.5207 32.5588 56.0961C32.7166 56.0107 32.8482 55.8853 32.9399 55.7328C33.0316 55.5804 33.08 55.4065 33.08 55.2294V51.6874C34.2958 51.6205 35.5087 51.515 36.7092 51.3699C37.2151 51.3071 37.7181 51.2393 38.2182 51.1664L42.0515 50.5984L42.178 56.0621C42.178 56.1187 42.178 56.1752 42.178 56.2308C42.167 56.821 42.0088 57.3995 41.7173 57.9156C41.4258 58.4317 41.0099 58.8695 40.5061 59.1906C40.085 59.4572 39.6134 59.6372 39.1197 59.72H39.1188Z" fill="#E8E8E8"/>
</g>
</g>
<defs>
<clipPath id="clip0">
<rect width="59.554" height="66.771" fill="white" transform="translate(0.2229 0.294067)"/>
</clipPath>
<clipPath id="clip1">
<rect width="53.5014" height="66.771" fill="white" transform="translate(3.24927 0.294067)"/>
</clipPath>
</defs>
</svg>
