<svg width="18" height="18" viewBox="0 0 18 18" fill="none" xmlns="http://www.w3.org/2000/svg">
<g clip-path="url(#clip0)">
<path d="M13.6848 11.9074C13.0968 11.3268 12.3626 11.3268 11.7783 11.9074C11.3326 12.3493 10.8869 12.7913 10.4486 13.2408C10.3288 13.3644 10.2276 13.3906 10.0815 13.3082C9.79313 13.1509 9.48599 13.0236 9.20881 12.8513C7.91657 12.0385 6.83408 10.9934 5.8752 9.81731C5.39951 9.23299 4.97625 8.60747 4.68034 7.90329C4.62041 7.76095 4.63165 7.66731 4.74777 7.5512C5.1935 7.12045 5.62799 6.67847 6.06623 6.23648C6.67677 5.6222 6.67677 4.90304 6.06248 4.28501C5.71414 3.93292 5.3658 3.58832 5.01745 3.23623C4.65787 2.87665 4.30204 2.51333 3.93871 2.15749C3.35065 1.58441 2.6165 1.58441 2.03218 2.16124C1.58271 2.60322 1.15196 3.05644 0.694994 3.49094C0.271737 3.89172 0.0582363 4.3824 0.0132888 4.95548C-0.0578782 5.88814 0.170605 6.76836 0.49273 7.62611C1.15196 9.40154 2.15579 10.9784 3.37312 12.4243C5.01745 14.3795 6.98016 15.9264 9.27623 17.0426C10.31 17.5445 11.3813 17.9303 12.5462 17.994C13.3477 18.039 14.0444 17.8367 14.6025 17.2112C14.9846 16.7842 15.4153 16.3946 15.8199 15.9864C16.4192 15.3796 16.4229 14.6454 15.8273 14.0461C15.1157 13.3307 14.4003 12.619 13.6848 11.9074Z" fill="#202020"/>
<path d="M12.9694 8.92211L14.3516 8.68614C14.1343 7.41637 13.535 6.26646 12.6248 5.35253C11.6622 4.3899 10.4449 3.78311 9.10395 3.59583L8.90918 4.98545C9.94672 5.13153 10.8906 5.59974 11.636 6.34512C12.3402 7.0493 12.8009 7.94076 12.9694 8.92211Z" fill="#202020"/>
<path d="M15.1306 2.9141C13.535 1.31846 11.5161 0.310887 9.28742 0L9.09265 1.38963C11.0179 1.65931 12.7634 2.53205 14.1418 3.90669C15.449 5.21392 16.3067 6.86574 16.6176 8.68237L17.9998 8.4464C17.6364 6.34135 16.6438 4.43108 15.1306 2.9141Z" fill="#202020"/>
</g>
<defs>
<clipPath id="clip0">
<rect width="18" height="18" fill="white"/>
</clipPath>
</defs>
</svg>
