<svg width="72" height="73" viewBox="0 0 72 73" fill="none" xmlns="http://www.w3.org/2000/svg">
<path fill-rule="evenodd" clip-rule="evenodd" d="M13.3763 4.03837C13.4613 3.55652 13.8866 3.20468 14.384 3.20468H43.3881C43.8854 3.20468 44.3107 3.55652 44.3957 4.03837C44.4808 4.52022 44.2009 4.99235 43.7326 5.15709L29.9087 10.0197V16.7757C29.9087 17.0416 29.8016 17.2967 29.6109 17.4851L19.6384 27.3361C20.08 27.3391 20.5201 27.3578 20.9573 27.3906C25.418 27.726 29.6052 29.5339 32.3869 31.2673L35.6694 27.1495C37.4917 24.8633 40.2818 23.5279 43.2359 23.5279H52.2782C52.843 23.5279 53.3009 23.9782 53.3009 24.5335C53.3009 25.0889 52.843 25.5391 52.2782 25.5391H43.2359C40.9104 25.5391 38.7139 26.5904 37.2793 28.3901L33.4138 33.2394C33.079 33.6594 32.469 33.7492 32.0239 33.444C29.5004 31.7142 25.2607 29.7312 20.8014 29.396C19.6593 29.3101 18.5046 29.3317 17.3598 29.4935C17.1954 29.5663 17.0154 29.5941 16.8391 29.577C13.755 30.1314 10.768 31.7458 8.32239 35.0664C4.83841 39.797 5.19414 44.1814 7.02683 47.8165C8.87211 51.4766 12.2345 54.3872 14.8171 55.9574C17.5942 56.8316 24.9311 57.3738 32.0015 52.2426C32.2687 52.0487 32.615 51.9944 32.9303 52.097C33.2456 52.1997 33.4906 52.4465 33.5872 52.7589C33.7334 53.2311 34.1996 53.9657 34.9443 54.87C35.6629 55.7426 36.5556 56.6736 37.4308 57.5231C38.6819 58.7374 40.4211 59.3668 42.2478 59.3668H52.2782C52.843 59.3668 53.3009 59.817 53.3009 60.3724C53.3009 60.9278 52.843 61.378 52.2782 61.378H42.2478C39.9539 61.378 37.6753 60.5863 35.9939 58.9544C35.0889 58.076 34.1384 57.0874 33.3546 56.1355C32.9314 55.6216 32.5277 55.0844 32.2065 54.5577C24.7478 59.449 17.1518 58.8557 14.0569 57.8287C13.9852 57.8049 13.9163 57.7733 13.8516 57.7346C11.0385 56.0485 7.28505 52.8569 5.19419 48.7097C3.06704 44.4906 2.6819 39.2961 6.66569 33.8868C9.46713 30.083 12.9416 28.2302 16.4883 27.5969L27.8633 16.3606V10.0197L14.0395 5.15709C13.5711 4.99235 13.2913 4.52022 13.3763 4.03837ZM28.886 8.24349L37.4931 5.21585H20.2789L28.886 8.24349Z" fill="#E8E8E8"/>
<path fill-rule="evenodd" clip-rule="evenodd" d="M19.5512 47.6533C22.196 47.6533 24.3401 45.5451 24.3401 42.9447C24.3401 40.3442 22.196 38.2361 19.5512 38.2361C16.9064 38.2361 14.7624 40.3442 14.7624 42.9447C14.7624 45.5451 16.9064 47.6533 19.5512 47.6533ZM19.5512 49.6644C23.3257 49.6644 26.3855 46.6559 26.3855 42.9447C26.3855 39.2334 23.3257 36.2249 19.5512 36.2249C15.7767 36.2249 12.7169 39.2334 12.7169 42.9447C12.7169 46.6559 15.7767 49.6644 19.5512 49.6644Z" fill="#E8E8E8"/>
<path fill-rule="evenodd" clip-rule="evenodd" d="M55.3793 26.3151C56.3684 26.3151 57.1702 25.5267 57.1702 24.5542C57.1702 23.5816 56.3684 22.7932 55.3793 22.7932C54.3901 22.7932 53.5883 23.5816 53.5883 24.5542C53.5883 25.5267 54.3901 26.3151 55.3793 26.3151ZM55.3793 28.3263C57.4981 28.3263 59.2157 26.6374 59.2157 24.5542C59.2157 22.4709 57.4981 20.782 55.3793 20.782C53.2605 20.782 51.5428 22.4709 51.5428 24.5542C51.5428 26.6374 53.2605 28.3263 55.3793 28.3263Z" fill="#E8E8E8"/>
<path fill-rule="evenodd" clip-rule="evenodd" d="M55.3793 62.1334C56.3684 62.1334 57.1702 61.345 57.1702 60.3724C57.1702 59.3999 56.3684 58.6115 55.3793 58.6115C54.3901 58.6115 53.5883 59.3999 53.5883 60.3724C53.5883 61.345 54.3901 62.1334 55.3793 62.1334ZM55.3793 64.1445C57.4981 64.1445 59.2157 62.4557 59.2157 60.3724C59.2157 58.2891 57.4981 56.6003 55.3793 56.6003C53.2605 56.6003 51.5428 58.2891 51.5428 60.3724C51.5428 62.4557 53.2605 64.1445 55.3793 64.1445Z" fill="#E8E8E8"/>
<path fill-rule="evenodd" clip-rule="evenodd" d="M49.6443 34.8856C50.2091 34.8856 50.667 35.3358 50.667 35.8911V49.7533C50.667 50.3086 50.2091 50.7589 49.6443 50.7589C49.0795 50.7589 48.6216 50.3086 48.6216 49.7533V35.8911C48.6216 35.3358 49.0795 34.8856 49.6443 34.8856Z" fill="#E8E8E8"/>
<path fill-rule="evenodd" clip-rule="evenodd" d="M52.8347 34.8856C53.3996 34.8856 53.8575 35.3358 53.8575 35.8911V49.7533C53.8575 50.3086 53.3996 50.7589 52.8347 50.7589C52.2699 50.7589 51.812 50.3086 51.812 49.7533V35.8911C51.812 35.3358 52.2699 34.8856 52.8347 34.8856Z" fill="#E8E8E8"/>
<path fill-rule="evenodd" clip-rule="evenodd" d="M56.0252 34.8856C56.59 34.8856 57.0479 35.3358 57.0479 35.8911V49.7533C57.0479 50.3086 56.59 50.7589 56.0252 50.7589C55.4603 50.7589 55.0024 50.3086 55.0024 49.7533V35.8911C55.0024 35.3358 55.4603 34.8856 56.0252 34.8856Z" fill="#E8E8E8"/>
<path fill-rule="evenodd" clip-rule="evenodd" d="M55.3792 26.2376C55.944 26.2376 56.4019 26.6878 56.4019 27.2432L56.4019 35.8911C56.4019 36.4465 55.944 36.8967 55.3792 36.8967C54.8143 36.8967 54.3564 36.4465 54.3564 35.8911L54.3564 27.2432C54.3564 26.6878 54.8143 26.2376 55.3792 26.2376Z" fill="#E8E8E8"/>
<path fill-rule="evenodd" clip-rule="evenodd" d="M55.3792 48.6588C55.944 48.6588 56.4019 49.109 56.4019 49.6644L56.4019 57.2566C56.4019 57.812 55.944 58.2622 55.3792 58.2622C54.8143 58.2622 54.3564 57.812 54.3564 57.2566L54.3564 49.6644C54.3564 49.109 54.8143 48.6588 55.3792 48.6588Z" fill="#E8E8E8"/>
<path fill-rule="evenodd" clip-rule="evenodd" d="M59.2156 34.8856C59.7804 34.8856 60.2383 35.3358 60.2383 35.8911V49.7533C60.2383 50.3086 59.7804 50.7589 59.2156 50.7589C58.6508 50.7589 58.1929 50.3086 58.1929 49.7533V35.8911C58.1929 35.3358 58.6508 34.8856 59.2156 34.8856Z" fill="#E8E8E8"/>
<path fill-rule="evenodd" clip-rule="evenodd" d="M19.9214 41.8017C20.4479 42.0027 20.7091 42.5853 20.5048 43.103L12.3369 63.7957C12.1325 64.3134 11.54 64.5702 11.0134 64.3693C10.4869 64.1684 10.2257 63.5857 10.43 63.068L18.5979 42.3754C18.8023 41.8576 19.3948 41.6008 19.9214 41.8017Z" fill="#E8E8E8"/>
<path fill-rule="evenodd" clip-rule="evenodd" d="M16.273 64.2984H6.04917C4.96938 64.2984 4.09404 65.1591 4.09404 66.2208C4.09404 67.2825 4.96938 68.1431 6.04917 68.1431H16.273C17.3528 68.1431 18.2281 67.2825 18.2281 66.2208C18.2281 65.1591 17.3528 64.2984 16.273 64.2984ZM6.04917 62.2872C3.83971 62.2872 2.04858 64.0483 2.04858 66.2208C2.04858 68.3932 3.83971 70.1543 6.04917 70.1543H16.273C18.4824 70.1543 20.2735 68.3932 20.2735 66.2208C20.2735 64.0483 18.4824 62.2872 16.273 62.2872H6.04917Z" fill="#E8E8E8"/>
<path fill-rule="evenodd" clip-rule="evenodd" d="M45.1413 33.4123H40.6955V52.0661H45.1413V33.4123ZM40.6955 31.4011C39.5658 31.4011 38.65 32.3016 38.65 33.4123V52.0661C38.65 53.1768 39.5658 54.0773 40.6955 54.0773H45.1413C46.271 54.0773 47.1867 53.1768 47.1867 52.0661V33.4123C47.1867 32.3016 46.271 31.4011 45.1413 31.4011H40.6955Z" fill="#E8E8E8"/>
<path fill-rule="evenodd" clip-rule="evenodd" d="M67.9058 45.7115V39.7669C67.9058 36.9499 66.0416 34.561 63.46 33.7279V51.7505C66.0416 50.9173 67.9058 48.5285 67.9058 45.7115ZM63.46 53.8408C63.4564 53.8416 63.4528 53.8425 63.4492 53.8433C63.0252 53.9441 62.5888 54.0137 62.1427 54.0494C61.9119 54.0678 61.6785 54.0773 61.4429 54.0773C61.4272 54.0773 61.4146 54.0648 61.4146 54.0494V31.429C61.4146 31.4136 61.4272 31.4011 61.4429 31.4011C61.6785 31.4011 61.9119 31.4105 62.1427 31.429C62.5888 31.4647 63.0252 31.5343 63.4492 31.6351C63.4528 31.6359 63.4564 31.6368 63.46 31.6376C67.1854 32.5281 69.9513 35.8299 69.9513 39.7669V45.7115C69.9513 49.6485 67.1854 52.9502 63.46 53.8408Z" fill="#E8E8E8"/>
<path fill-rule="evenodd" clip-rule="evenodd" d="M61.3569 36.7188L47.0334 36.7188L47.0334 48.7595L61.3569 48.7595V36.7188ZM47.0334 34.7077C45.9037 34.7077 44.9879 35.6081 44.9879 36.7188V48.7595C44.9879 49.8702 45.9037 50.7707 47.0334 50.7707H61.3569C62.4866 50.7707 63.4024 49.8702 63.4024 48.7595V36.7188C63.4024 35.6081 62.4866 34.7077 61.3569 34.7077H47.0334Z" fill="#E8E8E8"/>
<path fill-rule="evenodd" clip-rule="evenodd" d="M31.6777 32.839C31.6777 32.2836 32.1356 31.8334 32.7005 31.8334H39.9437C40.5085 31.8334 40.9664 32.2836 40.9664 32.839C40.9664 33.3943 40.5085 33.8445 39.9437 33.8445H32.7005C32.1356 33.8445 31.6777 33.3943 31.6777 32.839ZM31.6777 52.5511C31.6777 51.9958 32.1356 51.5456 32.7005 51.5456H39.9437C40.5085 51.5456 40.9664 51.9958 40.9664 52.5511C40.9664 53.1065 40.5085 53.5567 39.9437 53.5567H32.7005C32.1356 53.5567 31.6777 53.1065 31.6777 52.5511Z" fill="#E8E8E8"/>
</svg>
