<svg width="54" height="54" viewBox="0 0 54 54" fill="none" xmlns="http://www.w3.org/2000/svg">
<g clip-path="url(#clip0)">
<path d="M44.9916 19.8496C42.4959 9.90734 32.413 3.87076 22.4707 6.36651C14.7011 8.31694 9.0594 15.0321 8.47812 23.0217C2.96134 23.9315 -0.773426 29.1412 0.136353 34.6579C0.945105 39.5624 5.19482 43.1542 10.1654 43.1345H18.602V39.7599H10.1654C6.43795 39.7599 3.41618 36.7381 3.41618 33.0106C3.41618 29.2831 6.43795 26.2613 10.1654 26.2613C11.0974 26.2613 11.8528 25.5059 11.8528 24.574C11.8443 16.1871 18.6365 9.38132 27.0234 9.37299C34.2835 9.36572 40.5332 14.4983 41.9376 21.6212C42.0763 22.3324 42.6534 22.8757 43.3718 22.9711C47.9847 23.628 51.1916 27.8999 50.5348 32.5127C49.945 36.6549 46.4083 39.739 42.2244 39.7599H35.4752V43.1345H42.2244C48.7476 43.1148 54.0196 37.8107 53.9998 31.2875C53.9833 25.8575 50.2666 21.1382 44.9916 19.8496Z" fill="#202020"/>
<path d="M25.8408 26.7507L20.2824 32.3091C19.6247 32.9668 19.6247 34.0331 20.2824 34.6908C20.9391 35.3475 22.0034 35.3486 22.6615 34.6934L25.3515 32.0151V46.5091C25.3515 47.441 26.1069 48.1965 27.0388 48.1965C27.9707 48.1965 28.7261 47.441 28.7261 46.5091V32.0151L31.4005 34.6895C32.0575 35.3465 33.1226 35.3465 33.7796 34.6895C34.4366 34.0325 34.4366 32.9674 33.7796 32.3104L28.2199 26.7507C27.5617 26.0964 26.4989 26.0964 25.8408 26.7507Z" fill="#202020"/>
</g>
<defs>
<clipPath id="clip0">
<rect width="54" height="54" fill="white"/>
</clipPath>
</defs>
</svg>
