<svg width="26" height="16" viewBox="0 0 26 16" fill="none" xmlns="http://www.w3.org/2000/svg">
<path d="M25.2709 1.53735C25.4293 0.904012 25.2709 0.508179 24.4001 0.508179H21.5501C20.8376 0.508179 20.5209 0.904011 20.3626 1.29984C20.3626 1.29984 18.9376 4.78318 16.8793 7.07901C16.2459 7.71235 15.9293 7.94985 15.5334 7.94985C15.3751 7.94985 15.0584 7.71235 15.0584 7.15818V1.53735C15.0584 0.824846 14.8209 0.508179 14.2668 0.508179H9.83345C9.35845 0.508179 9.12095 0.824846 9.12095 1.14151C9.12095 1.85401 10.1501 2.01235 10.2293 3.91235V8.02901C10.2293 8.89985 10.0709 9.13735 9.67511 9.13735C8.72511 9.13735 6.42928 5.65401 5.00428 1.61651C4.76678 0.824846 4.45011 0.508179 3.73761 0.508179H1.04595C0.25428 0.508179 0.0959473 0.904011 0.0959473 1.29984C0.0959473 2.01234 1.04595 5.73318 4.52928 10.6415C6.82511 13.9665 10.1501 15.7873 13.1584 15.7873C14.9793 15.7873 15.1376 15.3915 15.1376 14.679V12.1457C15.1376 11.354 15.2959 11.1957 15.8501 11.1957C16.2459 11.1957 16.9584 11.4332 18.6209 13.0165C20.5209 14.9165 20.8376 15.7873 21.9459 15.7873H24.8751C25.6668 15.7873 26.0626 15.3915 25.8251 14.5998C25.5876 13.8082 24.6376 12.6207 23.4501 11.2748C22.8168 10.4832 21.7876 9.69151 21.4709 9.21651C21.0751 8.66235 21.1543 8.42485 21.4709 7.94985C21.4709 8.02901 24.9543 3.19985 25.2709 1.53735Z" fill="#808080"/>
</svg>
