<svg width="177" height="160" viewBox="0 0 177 160" fill="none" xmlns="http://www.w3.org/2000/svg">
<path d="M0 11C0 4.92487 4.92487 0 11 0H163C169.075 0 174 4.92487 174 11V30H0V11Z" fill="#202020"/>
<path d="M11 0H166C172.075 0 177 4.92487 177 11V160H11V0Z" fill="#27AA06"/>
<path d="M13 4C13 3.44772 13.4477 3 14 3H166.809C170.015 3 172.883 4.99422 174 8V8H14C13.4477 8 13 7.55228 13 7V4Z" fill="#6FD955"/>
<path d="M80.9895 79.8247C84.0007 76.2957 85.4955 70.8397 85.4955 63.4136V59.6681C85.4955 52.1986 84.0224 46.8076 81.0978 43.5168C78.1516 40.2259 73.1691 38.5804 66.1936 38.5804C59.1964 38.5804 54.2572 40.2475 51.3543 43.5817C48.4514 46.8942 47 52.3285 47 59.8846V63.327C47 70.7748 48.4948 76.2524 51.4626 79.8031C54.4305 83.3537 59.348 85.1074 66.1936 85.1074C73.0391 85.1074 77.9783 83.3537 80.9895 79.8247ZM71.8043 62.7424C71.8043 64.4745 71.7827 65.8601 71.7393 66.8993C71.696 67.9386 71.566 68.9994 71.3494 70.1036C71.1328 71.2078 70.8295 72.0305 70.4396 72.6151C70.0496 73.1996 69.4864 73.6543 68.7932 74.0224C68.0783 74.3904 67.2334 74.5636 66.2152 74.5636C65.1971 74.5636 64.3305 74.3904 63.6373 74.0224C62.9224 73.6543 62.3809 73.1996 61.9909 72.6367C61.601 72.0738 61.2977 71.2511 61.0811 70.1469C60.8644 69.0427 60.7345 67.9819 60.6911 66.9426C60.6478 65.9034 60.6261 64.5178 60.6261 62.7857V60.231C60.6261 58.4556 60.6478 57.0916 60.6911 56.139C60.7345 55.1864 60.8644 54.1905 61.0377 53.1729C61.211 52.1337 61.5143 51.3759 61.9043 50.9212C62.2942 50.4449 62.8574 50.0552 63.5507 49.7305C64.2656 49.4274 65.1537 49.2542 66.2369 49.2542C67.3201 49.2542 68.2082 49.4057 68.9231 49.7305C69.638 50.0336 70.1796 50.4233 70.5695 50.8779C70.9595 51.3326 71.2628 52.0904 71.4577 53.1729C71.6527 54.2338 71.761 55.2297 71.8043 56.139C71.826 57.0483 71.8477 58.434 71.8477 60.2743V62.7424H71.8043Z" fill="white"/>
<path d="M99.9015 37L74.0356 122H86.9686L112.813 37H99.9015Z" fill="white"/>
<path d="M135.602 78.8288C132.656 75.5379 127.695 73.8925 120.72 73.8925C113.744 73.8925 108.783 75.5595 105.881 78.8937C102.978 82.2279 101.526 87.6622 101.526 95.1966V98.639C101.526 106.087 103.021 111.564 106.011 115.115C109 118.666 113.896 120.419 120.72 120.419C127.565 120.419 132.505 118.666 135.516 115.137C138.527 111.608 140.022 106.152 140.022 98.7256V94.9801C140 87.5106 138.549 82.1413 135.602 78.8288ZM126.331 98.0545C126.331 99.7865 126.309 101.172 126.266 102.211C126.222 103.251 126.092 104.311 125.876 105.416C125.659 106.52 125.356 107.343 124.966 107.927C124.576 108.512 124.013 108.966 123.319 109.334C122.605 109.702 121.76 109.876 120.741 109.876C119.723 109.876 118.857 109.702 118.164 109.334C117.449 108.966 116.907 108.512 116.517 107.949C116.127 107.386 115.824 106.563 115.607 105.459C115.391 104.355 115.261 103.294 115.217 102.255C115.174 101.215 115.152 99.8298 115.152 98.0978V95.543C115.152 93.7676 115.174 92.4037 115.217 91.451C115.261 90.4984 115.391 89.5025 115.564 88.4849C115.737 87.4457 116.041 86.6879 116.431 86.2333C116.82 85.7569 117.384 85.3672 118.077 85.0425C118.792 84.7394 119.68 84.5662 120.763 84.5662C121.846 84.5662 122.734 84.7177 123.449 85.0425C124.164 85.3456 124.706 85.7353 125.096 86.19C125.486 86.6446 125.789 87.4024 125.984 88.4849C126.179 89.5458 126.287 90.5417 126.331 91.451C126.352 92.3604 126.374 93.746 126.374 95.5863V98.0545H126.331Z" fill="white"/>
</svg>
