<svg width="72" height="73" viewBox="0 0 72 73" fill="none" xmlns="http://www.w3.org/2000/svg">
<path fill-rule="evenodd" clip-rule="evenodd" d="M20.2122 9.09496C20.3623 9.08668 20.5122 9.11392 20.6495 9.17438L25.1315 11.1489C25.5375 11.3278 25.7617 11.7621 25.6695 12.1912L25.0847 14.9139C25.0058 15.2813 24.7107 15.5658 24.3365 15.6353L17.0502 16.9888C16.8299 17.0297 16.6021 16.9919 16.4075 16.8822L10.7594 13.6971C10.4872 13.5436 10.3102 13.2668 10.2869 12.9585C10.2636 12.6502 10.3972 12.3506 10.6433 12.1591L13.9181 9.61104C14.0704 9.49255 14.256 9.42325 14.4496 9.41258L20.2122 9.09496ZM14.8524 11.2539L12.909 12.7661L17.0423 15.0969L23.3696 13.9216L23.6661 12.5411L20.0891 10.9652L14.8524 11.2539Z" fill="#E8E8E8"/>
<path fill-rule="evenodd" clip-rule="evenodd" d="M51.3506 9.17438C51.4879 9.11392 51.6378 9.08668 51.7879 9.09496L57.5505 9.41258C57.7441 9.42325 57.9297 9.49255 58.082 9.61104L61.3567 12.1591C61.6029 12.3506 61.7364 12.6502 61.7132 12.9585C61.6899 13.2668 61.5129 13.5436 61.2407 13.6971L55.5926 16.8822C55.3991 16.9913 55.1727 17.0293 54.9535 16.9894L47.2951 15.5972C46.8748 15.5208 46.5591 15.1751 46.5258 14.7548L46.3129 12.0709C46.2818 11.6786 46.5043 11.3094 46.8686 11.1489L51.3506 9.17438ZM51.911 10.9652L48.2455 12.5801L48.3499 13.897L54.956 15.0979L59.0911 12.7661L57.1477 11.2539L51.911 10.9652Z" fill="#E8E8E8"/>
<path fill-rule="evenodd" clip-rule="evenodd" d="M58.487 48.1113C58.7345 48.5634 58.5636 49.1278 58.1052 49.3719L51.6648 52.8023C51.2065 53.0464 50.6343 52.8778 50.3868 52.4257C50.1393 51.9736 50.3102 51.4092 50.7685 51.1651L57.2089 47.7348C57.6673 47.4906 58.2395 47.6592 58.487 48.1113Z" fill="#E8E8E8"/>
<path fill-rule="evenodd" clip-rule="evenodd" d="M13.5577 48.1112C13.8053 47.6592 14.3775 47.4906 14.8358 47.7348L21.2512 51.1528C21.7095 51.397 21.8804 51.9614 21.6328 52.4135C21.3853 52.8655 20.813 53.034 20.3547 52.7899L13.9393 49.3719C13.481 49.1277 13.3102 48.5633 13.5577 48.1112Z" fill="#E8E8E8"/>
<path fill-rule="evenodd" clip-rule="evenodd" d="M18.8186 42.8436C19.2087 42.503 19.8047 42.5388 20.15 42.9235L25.4064 48.7802L31.6639 55.7525H40.3348L42.6856 53.1353L44.5743 51.0301L46.5936 48.7802L51.8501 42.9235C52.1953 42.5388 52.7914 42.503 53.1815 42.8436C53.5715 43.1842 53.6078 43.7721 53.2625 44.1568L45.987 52.2632L41.4652 57.2997C41.2862 57.499 41.0292 57.6131 40.7593 57.6131H31.239C30.9689 57.6131 30.7117 57.4988 30.5326 57.2992L26.0117 52.2618L23.994 50.0135L18.7376 44.1568C18.3923 43.7721 18.4286 43.1842 18.8186 42.8436Z" fill="#E8E8E8"/>
<path fill-rule="evenodd" clip-rule="evenodd" d="M24.1753 48.6239C24.5675 48.3648 25.0936 48.4316 25.4064 48.7802L27.4236 51.028L29.3159 53.1349C29.5007 53.3408 29.5838 53.6167 29.5428 53.8887C29.5017 54.1608 29.3408 54.4009 29.1031 54.5447L27.0689 55.7757L13.7889 66.6176C13.5286 66.8301 13.1729 66.889 12.8565 66.772C12.54 66.655 12.3113 66.38 12.2567 66.051L11.3625 60.6567C11.3139 60.3639 11.4099 60.0658 11.6208 59.8543L20.1305 51.319C20.1755 51.274 20.2249 51.2336 20.2782 51.1984L24.1753 48.6239ZM21.4079 52.6914L13.3013 60.8223L13.853 64.15L25.9177 54.3003C25.952 54.2723 25.9883 54.2467 26.0263 54.2238L27.1585 53.5387L26.0116 52.2618L24.5402 50.6222L21.4079 52.6914Z" fill="#E8E8E8"/>
<path fill-rule="evenodd" clip-rule="evenodd" d="M4.87202 57.097C4.94671 56.6473 5.34074 56.3171 5.8028 56.3171H11.7514C12.2134 56.3171 12.6074 56.6472 12.6821 57.0968L14.7711 69.6765C14.8159 69.946 14.7384 70.2212 14.5592 70.4293C14.38 70.6374 14.1172 70.7574 13.8404 70.7574H3.71382C3.43703 70.7574 3.17421 70.6375 2.99501 70.4294C2.8158 70.2213 2.7383 69.9461 2.78304 69.6767L4.87202 57.097ZM6.60406 58.1777L4.82405 68.8968H12.7299L10.9503 58.1777H6.60406Z" fill="#E8E8E8"/>
<path fill-rule="evenodd" clip-rule="evenodd" d="M46.5936 48.7802C46.9065 48.4316 47.4324 48.3648 47.8246 48.6238L51.7414 51.2107C51.7948 51.2459 51.8444 51.2865 51.8894 51.3317L60.3813 59.8564C60.5921 60.068 60.6879 60.3661 60.6393 60.6588L59.7432 66.0514C59.6886 66.3803 59.4597 66.6552 59.1433 66.7721C58.8268 66.889 58.4712 66.83 58.2109 66.6174L44.9523 55.788L42.8985 54.5447C42.661 54.4009 42.5001 54.1608 42.459 53.8889C42.418 53.617 42.5009 53.3411 42.6856 53.1353L46.5936 48.7802ZM47.4598 50.6221L44.8427 53.5386L45.9953 54.2362C46.0333 54.2592 46.0696 54.2848 46.1039 54.3128L58.1476 64.15L58.7003 60.8237L50.6116 52.7037L47.4598 50.6221Z" fill="#E8E8E8"/>
<path fill-rule="evenodd" clip-rule="evenodd" d="M59.3195 57.0969C59.3943 56.6472 59.7883 56.3171 60.2503 56.3171H66.1971C66.6592 56.3171 67.0532 56.6473 67.1279 57.097L69.2169 69.6767C69.2616 69.9461 69.1841 70.2213 69.0049 70.4294C68.8257 70.6375 68.5629 70.7574 68.2861 70.7574H58.1613C57.8846 70.7574 57.6218 70.6375 57.4426 70.4295C57.2634 70.2215 57.1858 69.9463 57.2305 69.6769L59.3195 57.0969ZM61.0515 58.1777L59.2713 68.8968H67.1758L65.3958 58.1777H61.0515Z" fill="#E8E8E8"/>
<path fill-rule="evenodd" clip-rule="evenodd" d="M28.1166 52.9588C28.5069 52.7226 29.0128 52.7971 29.3162 53.1353L31.6638 55.7524H40.3347L42.6859 53.1349C42.9894 52.7969 43.4952 52.7227 43.8853 52.9589L45.7739 54.1024C46.0534 54.2716 46.2237 54.5718 46.2237 54.8952V65.218C46.2237 65.7318 45.8014 66.1483 45.2805 66.1483H26.7176C26.1967 66.1483 25.7744 65.7318 25.7744 65.218V54.897C25.7744 54.5735 25.9448 54.2732 26.2243 54.1041L28.1166 52.9588ZM27.6608 55.4176V64.2877H44.3373V55.4158L43.573 54.953L41.4651 57.2997C41.2861 57.499 41.0291 57.613 40.7592 57.613H31.2389C30.9688 57.613 30.7116 57.4988 30.5326 57.2992L28.4282 54.9532L27.6608 55.4176Z" fill="#E8E8E8"/>
<path fill-rule="evenodd" clip-rule="evenodd" d="M17.8706 26.939C18.1274 26.6792 18.5139 26.5904 18.8607 26.7115L35.7119 32.5959L53.1504 26.7083C53.4951 26.5919 53.877 26.6818 54.1313 26.9391L64.4599 37.3925C64.7548 37.6909 64.8125 38.1464 64.6012 38.5072L58.4469 49.0135C58.3002 49.2639 58.0438 49.4328 57.753 49.4705C57.4623 49.5081 57.1704 49.4103 56.9631 49.2057L51.8891 44.1978L48.9103 41.2574L39.2423 47.7841C39.0854 47.89 38.8997 47.9467 38.7096 47.9467H33.2886C33.0985 47.9467 32.9127 47.89 32.7558 47.7841L23.0896 41.2575L20.111 44.1978L15.0369 49.2057C14.8296 49.4102 14.5377 49.5081 14.247 49.4705C13.9563 49.4328 13.6999 49.264 13.5531 49.0136L7.3971 38.5073C7.18564 38.1464 7.24336 37.6908 7.53836 37.3924L17.8706 26.939ZM53.1968 28.6592L36.0121 34.4611C35.8109 34.529 35.5924 34.5279 35.3919 34.4579L18.8 28.6641L9.38789 38.1865L14.5714 47.033L18.7766 42.8826L22.3089 39.3958C22.6298 39.079 23.1341 39.0327 23.5088 39.2857L33.5805 46.0861H38.4177L48.4912 39.2857C48.8659 39.0327 49.3702 39.079 49.6911 39.3958L57.4285 47.0329L62.6104 38.1865L53.1968 28.6592Z" fill="#E8E8E8"/>
<path fill-rule="evenodd" clip-rule="evenodd" d="M17.6568 27.2779C17.8306 26.7936 18.3696 26.54 18.8607 26.7115L35.7101 32.5959L53.1485 26.7083C53.6414 26.5419 54.1776 26.801 54.3463 27.2871C54.515 27.7732 54.2523 28.3022 53.7594 28.4686L36.0103 34.4611C35.8091 34.529 35.5905 34.5279 35.39 34.4579L18.2311 28.4654C17.74 28.2939 17.4829 27.7622 17.6568 27.2779Z" fill="#E8E8E8"/>
<path fill-rule="evenodd" clip-rule="evenodd" d="M35.7653 2.63092C35.9193 2.5919 36.0808 2.5919 36.2348 2.63092L45.9124 5.08369C46.2571 5.17105 46.5226 5.44238 46.5989 5.78527L48.543 14.5217C48.6547 15.0235 48.3328 15.5197 47.824 15.6298C47.3152 15.74 46.8122 15.4224 46.7005 14.9206L44.8808 6.74329L36.0001 4.49248L27.1048 6.74696L25.0782 14.9416C24.9548 15.4407 24.4445 15.7467 23.9384 15.6249C23.4323 15.5032 23.1221 14.9998 23.2456 14.5007L25.4061 5.76426C25.4886 5.43073 25.7506 5.16912 26.0877 5.08369L35.7653 2.63092Z" fill="#E8E8E8"/>
<path fill-rule="evenodd" clip-rule="evenodd" d="M42.7129 12.7074C42.9099 12.6193 43.1316 12.6007 43.3409 12.6547L47.8604 13.8211C48.1365 13.8924 48.365 14.0831 48.482 14.3398L54.3411 27.1982C54.4504 27.4381 54.4517 27.7124 54.3446 27.9532C54.2375 28.1941 54.0321 28.379 53.7792 28.4621L53.7581 28.4691L36.2864 34.4596C36.0856 34.5285 35.8671 34.5284 35.6663 34.4594L18.2499 28.4718L18.2359 28.4675C17.9806 28.3888 17.7712 28.2069 17.6598 27.9671C17.5484 27.7273 17.5455 27.452 17.6517 27.21L23.2963 14.3515C23.4115 14.0891 23.6426 13.8935 23.9231 13.8211L28.4426 12.6547C28.649 12.6015 28.8675 12.6188 29.0626 12.7038L35.9773 15.7171L42.7129 12.7074ZM19.7865 27.0297L35.9771 32.5959L52.1982 27.0341L46.9464 15.5085L43.1868 14.5382L36.3713 17.5837C36.1267 17.693 35.8465 17.6943 35.6009 17.5872L28.6015 14.537L24.8449 15.5065L19.7865 27.0297Z" fill="#E8E8E8"/>
<path fill-rule="evenodd" clip-rule="evenodd" d="M27.3382 17.4696C27.6126 17.3933 27.9073 17.4435 28.1398 17.6063L33.8237 21.5836C34.0421 21.7364 34.1843 21.9735 34.2149 22.2359L34.8874 27.9919C34.9246 28.3101 34.7932 28.6247 34.5397 28.8248C34.2862 29.0249 33.9461 29.0823 33.6396 28.9767L24.4359 25.8075C24.1892 25.7226 23.9892 25.5404 23.8838 25.3046C23.7783 25.0687 23.7768 24.8003 23.8796 24.5633L26.7269 17.9991C26.8391 17.7405 27.0638 17.5459 27.3382 17.4696ZM28.0015 19.7908L26.0112 24.3793L32.8413 26.7311L32.3891 22.861L28.0015 19.7908Z" fill="#E8E8E8"/>
<path fill-rule="evenodd" clip-rule="evenodd" d="M44.6619 17.4484C44.9363 17.5247 45.161 17.7194 45.2731 17.9779L48.1204 24.5439C48.2232 24.7809 48.2217 25.0493 48.1162 25.2852C48.0108 25.521 47.8109 25.7031 47.5642 25.7881L38.3623 28.9573C38.0558 29.0628 37.7158 29.0055 37.4622 28.8055C37.2087 28.6055 37.0773 28.2909 37.1143 27.9728L37.785 22.215C37.8156 21.9525 37.9578 21.7153 38.1763 21.5624L43.8602 17.585C44.0927 17.4223 44.3874 17.3721 44.6619 17.4484ZM39.611 22.8397L39.16 26.7118L45.9889 24.3598L43.9984 19.7696L39.611 22.8397Z" fill="#E8E8E8"/>
</svg>
