<svg width="72" height="73" viewBox="0 0 72 73" fill="none" xmlns="http://www.w3.org/2000/svg">
<path fill-rule="evenodd" clip-rule="evenodd" d="M47.7597 46.2255L55.9971 51.5384L54.8884 53.2573L46.651 47.9444L47.7597 46.2255Z" fill="#E8E8E8"/>
<path fill-rule="evenodd" clip-rule="evenodd" d="M26.2778 52.9852L17.138 58.8794L16.0294 57.1604L25.1692 51.2662L26.2778 52.9852Z" fill="#E8E8E8"/>
<path fill-rule="evenodd" clip-rule="evenodd" d="M25.2084 48.0534L17.1378 53.2574L16.0293 51.5383L24.0999 46.3343L25.2084 48.0534Z" fill="#E8E8E8"/>
<path fill-rule="evenodd" clip-rule="evenodd" d="M46.8818 51.282L55.997 57.1604L54.8884 58.8794L45.7732 53.0009L46.8818 51.282Z" fill="#E8E8E8"/>
<path fill-rule="evenodd" clip-rule="evenodd" d="M7.8776 45.1623C5.81327 45.1623 4.13908 46.8366 4.13908 48.9028V63.1818C4.13908 65.248 5.81327 66.9223 7.8776 66.9223H12.07C14.1344 66.9223 15.8085 65.248 15.8085 63.1818V48.9028C15.8085 46.8366 14.1344 45.1623 12.07 45.1623H7.8776ZM2.09363 48.9028C2.09363 45.7077 4.68281 43.1169 7.8776 43.1169H12.07C15.2648 43.1169 17.854 45.7077 17.854 48.9028V63.1818C17.854 66.3769 15.2648 68.9677 12.07 68.9677H7.8776C4.68281 68.9677 2.09363 66.3769 2.09363 63.1818V48.9028Z" fill="#E8E8E8"/>
<path fill-rule="evenodd" clip-rule="evenodd" d="M65.5145 66.9223C66.8245 66.9223 67.8872 65.8598 67.8872 64.5482V47.5363C67.8872 46.2248 66.8245 45.1623 65.5145 45.1623H58.5447C57.2347 45.1623 56.1721 46.2248 56.1721 47.5363V64.5482C56.1721 65.8598 57.2347 66.9223 58.5447 66.9223H65.5145ZM69.9326 64.5482C69.9326 66.9886 67.955 68.9677 65.5145 68.9677H58.5447C56.1043 68.9677 54.1266 66.9886 54.1266 64.5482V47.5363C54.1266 45.0959 56.1043 43.1168 58.5447 43.1168H65.5145C67.955 43.1168 69.9326 45.0959 69.9326 47.5363V64.5482Z" fill="#E8E8E8"/>
<path fill-rule="evenodd" clip-rule="evenodd" d="M14.5393 5.41405C14.5393 4.84922 14.9972 4.39133 15.562 4.39133H24.2826L27.6693 12.0927C27.8966 12.6097 27.6618 13.2132 27.1447 13.4406C26.6277 13.668 26.0242 13.4331 25.7968 12.9161L22.9476 6.43678H15.562C14.9972 6.43678 14.5393 5.97889 14.5393 5.41405Z" fill="#E8E8E8"/>
<path fill-rule="evenodd" clip-rule="evenodd" d="M47.7439 4.39133H56.4662C57.031 4.39133 57.4889 4.84922 57.4889 5.41405C57.4889 5.97889 57.031 6.43678 56.4662 6.43678H49.0789L46.2296 12.9161C46.0022 13.4331 45.3987 13.668 44.8817 13.4406C44.3646 13.2132 44.1298 12.6097 44.3572 12.0927L47.7439 4.39133Z" fill="#E8E8E8"/>
<path fill-rule="evenodd" clip-rule="evenodd" d="M24.8503 16.338H47.1793L56.6096 25.0669L55.2201 26.568L46.3779 18.3834H25.6486L16.913 26.4275L15.5275 24.9228L24.8503 16.338Z" fill="#E8E8E8"/>
<path fill-rule="evenodd" clip-rule="evenodd" d="M19.3463 42.185L20.3941 40.4283L24.1845 42.6891C24.7286 42.9929 25.1464 43.4812 25.3626 44.0661L25.3875 44.1336L27.7052 54.8246H44.3199L46.9226 43.2036L51.6422 40.448L52.6735 42.2144L48.7238 44.5205L45.9579 56.8701H26.0556L23.4228 44.7254C23.3714 44.6185 23.2878 44.53 23.1832 44.4727L23.1668 44.4637L19.3463 42.185Z" fill="#E8E8E8"/>
<path fill-rule="evenodd" clip-rule="evenodd" d="M8.622 23.287C8.87946 23.0295 9.25442 22.9283 9.60646 23.0214L22.8877 26.5305C23.1899 26.6104 23.439 26.824 23.5639 27.1105L29.5769 40.8977C29.7148 41.2139 29.6841 41.5783 29.4951 41.8668C29.3061 42.1554 28.9844 42.3293 28.6395 42.3293H19.8702C19.7338 42.3293 19.5989 42.302 19.4732 42.2491L5.18947 36.2337C4.90102 36.1122 4.68408 35.8653 4.60067 35.5637L2.97146 29.6711C2.87331 29.3162 2.97359 28.9359 3.23399 28.6754L8.622 23.287ZM9.65256 25.1492L5.10174 29.7004L6.44009 34.5409L20.0767 40.2838H27.0777L21.8868 28.3817L9.65256 25.1492Z" fill="#E8E8E8"/>
<path fill-rule="evenodd" clip-rule="evenodd" d="M62.4217 23.0407C62.7738 22.9476 63.1489 23.0489 63.4063 23.3066L68.7926 28.6968C69.0529 28.9572 69.153 29.3374 69.0549 29.6923L67.4257 35.583C67.3423 35.8846 67.1254 36.1314 66.837 36.2529L52.555 42.2701C52.4294 42.3231 52.2943 42.3504 52.158 42.3504H43.3869C43.0419 42.3504 42.7202 42.1765 42.5313 41.8879C42.3423 41.5994 42.3115 41.235 42.4494 40.9188L48.4624 27.1298C48.5873 26.8433 48.8364 26.6297 49.1386 26.5498L62.4217 23.0407ZM50.1395 28.401L44.9486 40.3049H51.9513L65.5863 34.5603L66.9246 29.7212L62.3753 25.1685L50.1395 28.401Z" fill="#E8E8E8"/>
<path fill-rule="evenodd" clip-rule="evenodd" d="M47.1141 33.5915H24.6649V31.5461H47.1141V33.5915Z" fill="#E8E8E8"/>
<path fill-rule="evenodd" clip-rule="evenodd" d="M45.4302 42.3293H28.6394V40.2839H45.4302V42.3293Z" fill="#E8E8E8"/>
<path fill-rule="evenodd" clip-rule="evenodd" d="M26.2651 10.4871C26.3939 10.053 26.7928 9.75519 27.2457 9.75519H44.7808C45.2336 9.75519 45.6325 10.0529 45.7613 10.487L50.5243 26.5417C50.6161 26.8511 50.5564 27.1857 50.3634 27.4444C50.1703 27.703 49.8665 27.8553 49.5438 27.8553H22.4844C22.1617 27.8553 21.8579 27.703 21.6648 27.4444C21.4718 27.1858 21.4121 26.8512 21.5039 26.5418L26.2651 10.4871ZM28.0091 11.8006L23.8545 25.8099H48.1736L44.0174 11.8006H28.0091Z" fill="#E8E8E8"/>
<path d="M12.1559 34.1671C13.8381 34.1671 15.2019 32.8028 15.2019 31.1198C15.2019 29.4369 13.8381 28.0726 12.1559 28.0726C10.4736 28.0726 9.10986 29.4369 9.10986 31.1198C9.10986 32.8028 10.4736 34.1671 12.1559 34.1671Z" fill="#E8E8E8"/>
<path d="M19.1083 36.1184C20.1845 36.1184 21.057 35.2455 21.057 34.1688C21.057 33.0921 20.1845 32.2193 19.1083 32.2193C18.032 32.2193 17.1595 33.0921 17.1595 34.1688C17.1595 35.2455 18.032 36.1184 19.1083 36.1184Z" fill="#E8E8E8"/>
<path d="M59.8721 34.1671C61.5543 34.1671 62.9181 32.8028 62.9181 31.1198C62.9181 29.4369 61.5543 28.0726 59.8721 28.0726C58.1898 28.0726 56.826 29.4369 56.826 31.1198C56.826 32.8028 58.1898 34.1671 59.8721 34.1671Z" fill="#E8E8E8"/>
<path d="M52.9181 36.1184C53.9944 36.1184 54.8668 35.2455 54.8668 34.1688C54.8668 33.0921 53.9944 32.2193 52.9181 32.2193C51.8418 32.2193 50.9694 33.0921 50.9694 34.1688C50.9694 35.2455 51.8418 36.1184 52.9181 36.1184Z" fill="#E8E8E8"/>
<path fill-rule="evenodd" clip-rule="evenodd" d="M2.64368 49.0308L3.59909 47.2222L9.97702 50.5914L16.3532 47.2222L17.3088 49.0307L9.97715 52.9047L2.64368 49.0308Z" fill="#E8E8E8"/>
<path fill-rule="evenodd" clip-rule="evenodd" d="M2.64417 55.1306L3.59921 53.3218L9.97733 56.6895L16.3537 53.3219L17.309 55.1306L9.97745 59.0026L2.64417 55.1306Z" fill="#E8E8E8"/>
<path fill-rule="evenodd" clip-rule="evenodd" d="M2.64368 61.2268L3.59909 59.4182L9.97702 62.7873L16.3532 59.4182L17.3088 61.2267L9.97715 65.1007L2.64368 61.2268Z" fill="#E8E8E8"/>
<path fill-rule="evenodd" clip-rule="evenodd" d="M0.643433 47.4204C0.643433 46.8556 1.10132 46.3977 1.66616 46.3977H3.1163C3.68114 46.3977 4.13903 46.8556 4.13903 47.4204C4.13903 47.9852 3.68114 48.4431 3.1163 48.4431H1.66616C1.10132 48.4431 0.643433 47.9852 0.643433 47.4204Z" fill="#E8E8E8"/>
<path fill-rule="evenodd" clip-rule="evenodd" d="M0.643433 53.1689C0.643433 52.604 1.10132 52.1461 1.66616 52.1461H3.1163C3.68114 52.1461 4.13903 52.604 4.13903 53.1689C4.13903 53.7337 3.68114 54.1916 3.1163 54.1916H1.66616C1.10132 54.1916 0.643433 53.7337 0.643433 53.1689Z" fill="#E8E8E8"/>
<path fill-rule="evenodd" clip-rule="evenodd" d="M0.643433 58.9174C0.643433 58.3526 1.10132 57.8947 1.66616 57.8947H3.1163C3.68114 57.8947 4.13903 58.3526 4.13903 58.9174C4.13903 59.4822 3.68114 59.9401 3.1163 59.9401H1.66616C1.10132 59.9401 0.643433 59.4822 0.643433 58.9174Z" fill="#E8E8E8"/>
<path fill-rule="evenodd" clip-rule="evenodd" d="M0.643433 64.6659C0.643433 64.1011 1.10132 63.6432 1.66616 63.6432H3.1163C3.68114 63.6432 4.13903 64.1011 4.13903 64.6659C4.13903 65.2308 3.68114 65.6886 3.1163 65.6886H1.66616C1.10132 65.6886 0.643433 65.2308 0.643433 64.6659Z" fill="#E8E8E8"/>
<path fill-rule="evenodd" clip-rule="evenodd" d="M15.8085 47.4204C15.8085 46.8556 16.2664 46.3977 16.8312 46.3977H18.2884C18.8532 46.3977 19.3111 46.8556 19.3111 47.4204C19.3111 47.9852 18.8532 48.4431 18.2884 48.4431H16.8312C16.2664 48.4431 15.8085 47.9852 15.8085 47.4204Z" fill="#E8E8E8"/>
<path fill-rule="evenodd" clip-rule="evenodd" d="M15.8085 53.1689C15.8085 52.604 16.2664 52.1461 16.8312 52.1461H18.2884C18.8532 52.1461 19.3111 52.604 19.3111 53.1689C19.3111 53.7337 18.8532 54.1916 18.2884 54.1916H16.8312C16.2664 54.1916 15.8085 53.7337 15.8085 53.1689Z" fill="#E8E8E8"/>
<path fill-rule="evenodd" clip-rule="evenodd" d="M15.8085 58.9174C15.8085 58.3526 16.2664 57.8947 16.8312 57.8947H18.2884C18.8532 57.8947 19.3111 58.3526 19.3111 58.9174C19.3111 59.4822 18.8532 59.9401 18.2884 59.9401H16.8312C16.2664 59.9401 15.8085 59.4822 15.8085 58.9174Z" fill="#E8E8E8"/>
<path fill-rule="evenodd" clip-rule="evenodd" d="M15.8085 64.6659C15.8085 64.1011 16.2664 63.6432 16.8312 63.6432H18.2884C18.8532 63.6432 19.3111 64.1011 19.3111 64.6659C19.3111 65.2308 18.8532 65.6886 18.2884 65.6886H16.8312C16.2664 65.6886 15.8085 65.2308 15.8085 64.6659Z" fill="#E8E8E8"/>
<path fill-rule="evenodd" clip-rule="evenodd" d="M69.3864 49.0315L62.0297 52.9038L54.6731 49.0315L55.6258 47.2214L62.0297 50.5923L68.4337 47.2214L69.3864 49.0315Z" fill="#E8E8E8"/>
<path fill-rule="evenodd" clip-rule="evenodd" d="M69.3862 55.1313L62.0297 59.0017L54.6732 55.1313L55.6256 53.3211L62.0297 56.6904L68.4338 53.3211L69.3862 55.1313Z" fill="#E8E8E8"/>
<path fill-rule="evenodd" clip-rule="evenodd" d="M69.3864 61.2275L62.0297 65.0998L54.6731 61.2275L55.6258 59.4175L62.0297 62.7883L68.4337 59.4174L69.3864 61.2275Z" fill="#E8E8E8"/>
<path fill-rule="evenodd" clip-rule="evenodd" d="M52.5465 47.4204C52.5465 46.8556 53.0044 46.3977 53.5692 46.3977H55.0264C55.5912 46.3977 56.0491 46.8556 56.0491 47.4204C56.0491 47.9852 55.5912 48.4431 55.0264 48.4431H53.5692C53.0044 48.4431 52.5465 47.9852 52.5465 47.4204Z" fill="#E8E8E8"/>
<path fill-rule="evenodd" clip-rule="evenodd" d="M52.5465 53.1689C52.5465 52.604 53.0044 52.1461 53.5692 52.1461H55.0264C55.5912 52.1461 56.0491 52.604 56.0491 53.1689C56.0491 53.7337 55.5912 54.1916 55.0264 54.1916H53.5692C53.0044 54.1916 52.5465 53.7337 52.5465 53.1689Z" fill="#E8E8E8"/>
<path fill-rule="evenodd" clip-rule="evenodd" d="M52.5465 58.9174C52.5465 58.3526 53.0044 57.8947 53.5692 57.8947H55.0264C55.5912 57.8947 56.0491 58.3526 56.0491 58.9174C56.0491 59.4822 55.5912 59.9401 55.0264 59.9401H53.5692C53.0044 59.9401 52.5465 59.4822 52.5465 58.9174Z" fill="#E8E8E8"/>
<path fill-rule="evenodd" clip-rule="evenodd" d="M52.5465 64.6659C52.5465 64.1011 53.0044 63.6432 53.5692 63.6432H55.0264C55.5912 63.6432 56.0491 64.1011 56.0491 64.6659C56.0491 65.2308 55.5912 65.6886 55.0264 65.6886H53.5692C53.0044 65.6886 52.5465 65.2308 52.5465 64.6659Z" fill="#E8E8E8"/>
<path fill-rule="evenodd" clip-rule="evenodd" d="M67.8871 47.4204C67.8871 46.8556 68.345 46.3977 68.9098 46.3977H70.3336C70.8985 46.3977 71.3563 46.8556 71.3563 47.4204C71.3563 47.9852 70.8985 48.4431 70.3336 48.4431H68.9098C68.345 48.4431 67.8871 47.9852 67.8871 47.4204Z" fill="#E8E8E8"/>
<path fill-rule="evenodd" clip-rule="evenodd" d="M67.8871 53.1689C67.8871 52.604 68.345 52.1461 68.9098 52.1461H70.3336C70.8985 52.1461 71.3563 52.604 71.3563 53.1689C71.3563 53.7337 70.8985 54.1916 70.3336 54.1916H68.9098C68.345 54.1916 67.8871 53.7337 67.8871 53.1689Z" fill="#E8E8E8"/>
<path fill-rule="evenodd" clip-rule="evenodd" d="M67.8871 58.9174C67.8871 58.3526 68.345 57.8947 68.9098 57.8947H70.3336C70.8985 57.8947 71.3563 58.3526 71.3563 58.9174C71.3563 59.4822 70.8985 59.9401 70.3336 59.9401H68.9098C68.345 59.9401 67.8871 59.4822 67.8871 58.9174Z" fill="#E8E8E8"/>
<path fill-rule="evenodd" clip-rule="evenodd" d="M67.8871 64.6659C67.8871 64.1011 68.345 63.6432 68.9098 63.6432H70.3336C70.8985 63.6432 71.3563 64.1011 71.3563 64.6659C71.3563 65.2308 70.8985 65.6886 70.3336 65.6886H68.9098C68.345 65.6886 67.8871 65.2308 67.8871 64.6659Z" fill="#E8E8E8"/>
</svg>
