<svg width="10" height="11" viewBox="0 0 10 11" fill="none" xmlns="http://www.w3.org/2000/svg">
<path d="M4.99582 4.185C4.80982 4.185 4.64782 4.119 4.50982 3.987C4.37782 3.849 4.31182 3.687 4.31182 3.501C4.31182 3.315 4.37782 3.156 4.50982 3.024C4.64782 2.892 4.80982 2.826 4.99582 2.826C5.18782 2.826 5.34982 2.892 5.48182 3.024C5.61382 3.156 5.67982 3.315 5.67982 3.501C5.67982 3.687 5.61382 3.849 5.48182 3.987C5.34982 4.119 5.18782 4.185 4.99582 4.185ZM5.57182 9H4.42882V4.653H5.57182V9Z" fill="black"/>
<circle cx="5" cy="6" r="4.7" stroke="#202020" stroke-width="0.6"/>
</svg>
