<svg width="18" height="13" viewBox="0 0 18 13" fill="none" xmlns="http://www.w3.org/2000/svg">
<path d="M11.9317 6.28004L18 10.1163V2.28177L11.9317 6.28004Z" fill="#D61635"/>
<path d="M0 2.28177V10.1163L6.06829 6.28004L0 2.28177Z" fill="#D61635"/>
<path d="M16.875 0H1.12495C0.56357 0 0.118067 0.418503 0.0336914 0.957381L9 6.86479L17.9663 0.957381C17.8819 0.418503 17.4364 0 16.875 0Z" fill="#D61635"/>
<path d="M10.9014 6.95916L9.30956 8.00767C9.21506 8.06954 9.10819 8.09992 9.00019 8.09992C8.89219 8.09992 8.78531 8.06954 8.69081 8.00767L7.09893 6.95804L0.0361328 11.4254C0.122758 11.9598 0.566011 12.3749 1.12514 12.3749H16.8752C17.4344 12.3749 17.8776 11.9598 17.9642 11.4254L10.9014 6.95916Z" fill="#D61635"/>
</svg>
