<svg width="24" height="20" viewBox="0 0 24 20" fill="none" xmlns="http://www.w3.org/2000/svg">
<path fill-rule="evenodd" clip-rule="evenodd" d="M11.9278 1.18812C7.95258 1.18812 4.58842 3.91652 3.57632 7.65361L2.41726 7.3459C3.56156 3.12069 7.37757 0 11.9278 0C16.8389 0 20.8929 3.63285 21.6592 8.37118L22.798 6.84539L23.7631 7.55151L21.2601 10.905L17.9086 7.62067L18.7527 6.77622L20.4552 8.44458C19.7323 4.31027 16.1784 1.18812 11.9278 1.18812ZM2.5982 9.09772L6.04145 12.4719L5.19731 13.3164L3.40032 11.5554C4.12326 15.6897 7.67715 18.8119 11.9278 18.8119C15.8404 18.8119 19.161 16.1688 20.2297 12.5219L21.3822 12.853C20.1738 16.9766 16.4063 20 11.9278 20C7.0124 20 2.9557 16.3609 2.19439 11.6166L0.961078 13.2499L0 12.5384L2.5982 9.09772Z" fill="#D61635"/>
</svg>
