<svg width="177" height="160" viewBox="0 0 177 160" fill="none" xmlns="http://www.w3.org/2000/svg">
<path d="M0 11C0 4.92487 4.92487 0 11 0H166C172.075 0 177 4.92487 177 11V30H0V11Z" fill="#202020"/>
<path d="M166 0H11V160H177V11C177 4.92487 172.075 0 166 0Z" fill="#D61635"/>
<path fill-rule="evenodd" clip-rule="evenodd" d="M87.9273 44.3466C85.5975 41.177 82.1061 39.052 78.6971 38.3C75.3614 37.5643 71.4196 38.057 69.1216 41.1887C65.6123 45.9712 65.3345 53.6524 70.3394 58.083H52V77.7683H91.3719V64.2501L96.6238 64.25V77.7682L136 77.7683V58.083L117.656 58.0829C122.661 53.6524 122.383 45.9712 118.874 41.1887C116.576 38.0569 112.634 37.5642 109.299 38.3C105.89 39.0519 102.398 41.177 100.068 44.3466C99.0236 45.7679 98.3483 47.5592 97.8891 49.2695C97.4211 51.0128 97.1305 52.8555 96.9473 54.5063C96.8046 55.7927 96.7241 56.9908 96.679 57.9746L91.3167 57.9746C91.2715 56.9908 91.1911 55.7928 91.0484 54.5063C90.8652 52.8555 90.5746 51.0129 90.1066 49.2696C89.6474 47.5593 88.9721 45.768 87.9273 44.3466ZM82.7137 57.5827C84.0691 57.7819 85.336 57.9022 86.3698 57.9746C86.327 57.1217 86.2555 56.1167 86.1373 55.0512C85.9706 53.5484 85.7157 51.9713 85.3344 50.5509C84.9442 49.0975 84.4664 47.9812 83.9461 47.2734C82.3509 45.1033 79.913 43.6284 77.6328 43.1255C75.2792 42.6063 73.7719 43.2037 73.1053 44.1122C70.7221 47.36 70.9468 52.11 73.7044 54.461C75.5916 56.0699 79.1513 57.0591 82.7137 57.5827ZM110.363 43.1254C108.083 43.6284 105.645 45.1032 104.05 47.2733C103.529 47.9812 103.051 49.0974 102.661 50.5508C102.28 51.9712 102.025 53.5483 101.858 55.0512C101.74 56.1167 101.669 57.1216 101.626 57.9746C102.66 57.9022 103.927 57.7819 105.282 57.5827C108.844 57.059 112.404 56.0699 114.291 54.461C117.049 52.11 117.274 47.36 114.89 44.1121C114.224 43.2036 112.716 42.6063 110.363 43.1254Z" fill="white"/>
<path fill-rule="evenodd" clip-rule="evenodd" d="M57.9293 81.2521H91.373V122H57.9293V81.2521ZM96.6238 81.2521H130.069V122H96.6238V81.2521Z" fill="white"/>
<path d="M13 4C13 3.44772 13.4477 3 14 3H165.824C169.027 3 171.891 4.99539 173 8V8H14C13.4477 8 13 7.55228 13 7V4Z" fill="#F7667D"/>
</svg>
