<svg id="Слой_1" data-name="Слой 1" xmlns="http://www.w3.org/2000/svg" viewBox="0 0 32 32"><defs><style>.cls-1{fill:#202020;}.cls-2{fill:#27aa06;}.cls-3{fill:#6fd955;}.cls-4{fill:#fff;}</style></defs><title>32х32</title><path class="cls-1" d="M0,3.74A1.87,1.87,0,0,1,1.88,1.88H30.12A1.87,1.87,0,0,1,32,3.74V7H0Z"/><path class="cls-2" d="M3.88,1.88H30.12A1.91,1.91,0,0,1,32,3.82v26.3H3.88Z"/><path class="cls-3" d="M4.22,2.56a.17.17,0,0,1,.17-.17H30.26a1.31,1.31,0,0,1,1.22.85H4.39a.17.17,0,0,1-.17-.17Z"/><path class="cls-4" d="M15.73,15.4a4.22,4.22,0,0,0,.76-2.78V12a4.11,4.11,0,0,0-.74-2.73,3.24,3.24,0,0,0-2.52-.84,3.21,3.21,0,0,0-2.52.85A4.17,4.17,0,0,0,10,12v.58a4.29,4.29,0,0,0,.75,2.79,3.06,3.06,0,0,0,2.5.9A3.12,3.12,0,0,0,15.73,15.4Zm-1.56-2.89c0,.29,0,.52,0,.7a3.43,3.43,0,0,1-.06.54,1.17,1.17,0,0,1-.16.43.79.79,0,0,1-.27.24,1,1,0,0,1-.44.09,1,1,0,0,1-.44-.09.83.83,0,0,1-.28-.24,1.25,1.25,0,0,1-.15-.42,3.64,3.64,0,0,1-.07-.54c0-.18,0-.41,0-.71v-.43c0-.3,0-.53,0-.69a4.53,4.53,0,0,1,.06-.5.79.79,0,0,1,.15-.39.78.78,0,0,1,.28-.2,1.17,1.17,0,0,1,.45-.08,1.19,1.19,0,0,1,.46.08.75.75,0,0,1,.28.2.92.92,0,0,1,.15.39,2.92,2.92,0,0,1,.05.5c0,.15,0,.39,0,.7v.42Z"/><path class="cls-4" d="M18.93,8.15,14.55,22.54h2.19L21.12,8.15Z"/><path class="cls-4" d="M25,15.23a3.24,3.24,0,0,0-2.52-.84,3.24,3.24,0,0,0-2.52.85A4.17,4.17,0,0,0,19.21,18v.58A4.25,4.25,0,0,0,20,21.37a3.07,3.07,0,0,0,2.49.9,3.14,3.14,0,0,0,2.5-.89,4.21,4.21,0,0,0,.77-2.78V18A4.1,4.1,0,0,0,25,15.23Zm-1.57,3.25c0,.3,0,.53,0,.71a3.64,3.64,0,0,1-.07.54,1.41,1.41,0,0,1-.15.43.91.91,0,0,1-.28.23,1,1,0,0,1-.88,0,.69.69,0,0,1-.27-.23,1.19,1.19,0,0,1-.16-.42,2.62,2.62,0,0,1-.06-.54c0-.18,0-.42,0-.71v-.43c0-.3,0-.53,0-.69a3,3,0,0,1,0-.51.79.79,0,0,1,.15-.38.88.88,0,0,1,.28-.2,1.17,1.17,0,0,1,.45-.08,1.19,1.19,0,0,1,.46.08.75.75,0,0,1,.28.2.81.81,0,0,1,.15.38,5,5,0,0,1,.06.51v1.11Z"/></svg>