<svg width="22" height="22" viewBox="0 0 22 22" fill="none" xmlns="http://www.w3.org/2000/svg">
<path fill-rule="evenodd" clip-rule="evenodd" d="M4.88889 0C2.18883 0 0 2.18883 0 4.88889V17.1111C0 19.8112 2.18883 22 4.88889 22H17.1111C19.8112 22 22 19.8112 22 17.1111V4.88889C22 2.18883 19.8112 0 17.1111 0H4.88889ZM10.9963 16.4933C7.87477 16.4933 5.34599 13.9645 5.34599 10.8429C5.34599 7.72139 7.87477 5.19261 10.9963 5.19261C12.4949 5.19261 13.9321 5.78791 14.9917 6.84756C16.0514 7.9072 16.6467 9.34438 16.6467 10.8429C16.6467 12.3415 16.0514 13.7787 14.9917 14.8383C13.9321 15.898 12.4949 16.4933 10.9963 16.4933ZM16.8715 6.30117C16.1419 6.30117 15.554 5.71206 15.554 4.98361C15.554 4.81067 15.5881 4.63942 15.6542 4.47964C15.7204 4.31986 15.8174 4.17468 15.9397 4.05239C16.062 3.9301 16.2072 3.8331 16.367 3.76691C16.5267 3.70073 16.698 3.66667 16.8709 3.66667C17.0439 3.66667 17.2151 3.70073 17.3749 3.76691C17.5347 3.8331 17.6799 3.9301 17.8022 4.05239C17.9244 4.17468 18.0214 4.31986 18.0876 4.47964C18.1538 4.63942 18.1879 4.81067 18.1879 4.98361C18.1879 5.71206 17.5988 6.30117 16.8715 6.30117ZM14.6666 10.843C14.6666 12.87 13.0234 14.5133 10.9963 14.5133C8.96924 14.5133 7.32597 12.87 7.32597 10.843C7.32597 8.81591 8.96924 7.17264 10.9963 7.17264C13.0234 7.17264 14.6666 8.81591 14.6666 10.843Z" fill="#D61635"/>
<path fill-rule="evenodd" clip-rule="evenodd" d="M4.88889 0C2.18883 0 0 2.18883 0 4.88889V17.1111C0 19.8112 2.18883 22 4.88889 22H17.1111C19.8112 22 22 19.8112 22 17.1111V4.88889C22 2.18883 19.8112 0 17.1111 0H4.88889ZM10.9963 16.4933C7.87477 16.4933 5.34599 13.9645 5.34599 10.8429C5.34599 7.72139 7.87477 5.19261 10.9963 5.19261C12.4949 5.19261 13.9321 5.78791 14.9917 6.84756C16.0514 7.9072 16.6467 9.34438 16.6467 10.8429C16.6467 12.3415 16.0514 13.7787 14.9917 14.8383C13.9321 15.898 12.4949 16.4933 10.9963 16.4933ZM16.8715 6.30117C16.1419 6.30117 15.554 5.71206 15.554 4.98361C15.554 4.81067 15.5881 4.63942 15.6542 4.47964C15.7204 4.31986 15.8174 4.17468 15.9397 4.05239C16.062 3.9301 16.2072 3.8331 16.367 3.76691C16.5267 3.70073 16.698 3.66667 16.8709 3.66667C17.0439 3.66667 17.2151 3.70073 17.3749 3.76691C17.5347 3.8331 17.6799 3.9301 17.8022 4.05239C17.9244 4.17468 18.0214 4.31986 18.0876 4.47964C18.1538 4.63942 18.1879 4.81067 18.1879 4.98361C18.1879 5.71206 17.5988 6.30117 16.8715 6.30117ZM14.6666 10.843C14.6666 12.87 13.0234 14.5133 10.9963 14.5133C8.96924 14.5133 7.32597 12.87 7.32597 10.843C7.32597 8.81591 8.96924 7.17264 10.9963 7.17264C13.0234 7.17264 14.6666 8.81591 14.6666 10.843Z" fill="url(#paint0_radial)"/>
<path fill-rule="evenodd" clip-rule="evenodd" d="M4.88889 0C2.18883 0 0 2.18883 0 4.88889V17.1111C0 19.8112 2.18883 22 4.88889 22H17.1111C19.8112 22 22 19.8112 22 17.1111V4.88889C22 2.18883 19.8112 0 17.1111 0H4.88889ZM10.9963 16.4933C7.87477 16.4933 5.34599 13.9645 5.34599 10.8429C5.34599 7.72139 7.87477 5.19261 10.9963 5.19261C12.4949 5.19261 13.9321 5.78791 14.9917 6.84756C16.0514 7.9072 16.6467 9.34438 16.6467 10.8429C16.6467 12.3415 16.0514 13.7787 14.9917 14.8383C13.9321 15.898 12.4949 16.4933 10.9963 16.4933ZM16.8715 6.30117C16.1419 6.30117 15.554 5.71206 15.554 4.98361C15.554 4.81067 15.5881 4.63942 15.6542 4.47964C15.7204 4.31986 15.8174 4.17468 15.9397 4.05239C16.062 3.9301 16.2072 3.8331 16.367 3.76691C16.5267 3.70073 16.698 3.66667 16.8709 3.66667C17.0439 3.66667 17.2151 3.70073 17.3749 3.76691C17.5347 3.8331 17.6799 3.9301 17.8022 4.05239C17.9244 4.17468 18.0214 4.31986 18.0876 4.47964C18.1538 4.63942 18.1879 4.81067 18.1879 4.98361C18.1879 5.71206 17.5988 6.30117 16.8715 6.30117ZM14.6666 10.843C14.6666 12.87 13.0234 14.5133 10.9963 14.5133C8.96924 14.5133 7.32597 12.87 7.32597 10.843C7.32597 8.81591 8.96924 7.17264 10.9963 7.17264C13.0234 7.17264 14.6666 8.81591 14.6666 10.843Z" fill="url(#paint1_radial)"/>
<defs>
<radialGradient id="paint0_radial" cx="0" cy="0" r="1" gradientUnits="userSpaceOnUse" gradientTransform="translate(8.17846 22.0159) scale(27.4238)">
<stop stop-color="#FFDD55"/>
<stop offset="0.328" stop-color="#FF543F"/>
<stop offset="0.348" stop-color="#FC5245"/>
<stop offset="0.504" stop-color="#E64771"/>
<stop offset="0.643" stop-color="#D53E91"/>
<stop offset="0.761" stop-color="#CC39A4"/>
<stop offset="0.841" stop-color="#C837AB"/>
</radialGradient>
<radialGradient id="paint1_radial" cx="0" cy="0" r="1" gradientUnits="userSpaceOnUse" gradientTransform="translate(3.54013 -0.274668) scale(18.2094 12.133)">
<stop stop-color="#4168C9"/>
<stop offset="0.999" stop-color="#4168C9" stop-opacity="0"/>
</radialGradient>
</defs>
</svg>
