<svg width="22" height="22" viewBox="0 0 22 22" fill="none" xmlns="http://www.w3.org/2000/svg">
<path fill-rule="evenodd" clip-rule="evenodd" d="M4.88889 0C2.18883 0 0 2.18883 0 4.88889V17.1111C0 19.8112 2.18883 22 4.88889 22H17.1111C19.8112 22 22 19.8112 22 17.1111V4.88889C22 2.18883 19.8112 0 17.1111 0H4.88889ZM16.1627 15.6961H17.7613L17.7604 15.6952C18.2105 15.6952 18.4442 15.4623 18.2884 15.0132C18.1482 14.5622 17.6211 13.9104 16.9382 13.134C16.7495 12.9143 16.5133 12.6827 16.3039 12.4773C16.099 12.2764 15.9197 12.1005 15.8354 11.9854C15.6026 11.6738 15.6649 11.55 15.8354 11.2704C15.8354 11.2704 17.7916 8.50759 17.9932 7.57534C18.1023 7.23342 17.9932 6.98592 17.512 6.98592H15.9133C15.5091 6.98592 15.323 7.20317 15.2139 7.436C15.2139 7.436 14.3917 9.42334 13.2422 10.7122C12.87 11.0843 12.6986 11.209 12.4969 11.209C12.4043 11.209 12.2485 11.0843 12.2485 10.7433V7.55975C12.2485 7.15642 12.1247 6.97034 11.7828 6.97034H9.26749C9.01999 6.97034 8.86416 7.15642 8.86416 7.34342C8.86416 7.49179 8.94831 7.59695 9.05571 7.73114C9.22898 7.94765 9.46276 8.23976 9.50124 8.91092V11.2723C9.50124 11.7838 9.40774 11.8773 9.20607 11.8773C8.66249 11.8773 7.34249 9.87434 6.55141 7.59184C6.39557 7.15734 6.23974 6.97125 5.83641 6.97125H4.23774C3.78766 6.97125 3.69416 7.1885 3.69416 7.42134C3.69416 7.85584 4.23866 9.95225 6.22599 12.7463C7.54507 14.6566 9.42424 15.6814 11.1164 15.6814C12.1412 15.6814 12.265 15.4486 12.265 15.0599V13.6162C12.265 13.1661 12.3585 13.0726 12.6848 13.0726C12.9177 13.0726 13.3366 13.1963 14.2835 14.113C14.5965 14.4303 14.8349 14.6961 15.0302 14.9137C15.513 15.4521 15.7319 15.6961 16.1627 15.6961Z" fill="#2787F5"/>
</svg>
