<svg width="40" height="40" viewBox="0 0 40 40" fill="none" xmlns="http://www.w3.org/2000/svg">
<path d="M19.666 0.506623C19.8241 0.266825 20.1759 0.266824 20.334 0.506623L26.8296 10.3604C26.8829 10.4413 26.9639 10.5001 27.0574 10.5259L38.4361 13.6586C38.713 13.7348 38.8217 14.0694 38.6425 14.2938L31.2783 23.5165C31.2178 23.5923 31.1869 23.6874 31.1913 23.7843L31.7281 35.5742C31.7412 35.8611 31.4566 36.0679 31.1877 35.9668L20.1408 31.8129C20.05 31.7788 19.95 31.7788 19.8592 31.8129L8.81227 35.9668C8.54343 36.0679 8.25883 35.8611 8.2719 35.5742L8.80873 23.7843C8.81314 23.6874 8.78222 23.5923 8.72173 23.5165L1.3575 14.2938C1.17828 14.0694 1.28699 13.7348 1.5639 13.6586L12.9426 10.5259C13.0361 10.5001 13.1171 10.4413 13.1704 10.3604L19.666 0.506623Z" fill="#E8E8E8"/>
</svg>
