<svg width="22" height="22" viewBox="0 0 22 22" fill="none" xmlns="http://www.w3.org/2000/svg">
<path d="M0.5 18C0.5 19.933 2.067 21.5 4 21.5L18 21.5C19.933 21.5 21.5 19.933 21.5 18L21.5 7.53846C21.5 6.71003 20.8284 6.03846 20 6.03846C19.1716 6.03846 18.5 6.71003 18.5 7.53846L18.5 18C18.5 18.2761 18.2761 18.5 18 18.5L4 18.5C3.72386 18.5 3.5 18.2761 3.5 18L3.5 7.53846C3.5 6.71003 2.82843 6.03846 2 6.03846C1.17157 6.03846 0.499999 6.71003 0.499999 7.53846L0.5 18ZM6.65946 4.1606C6.06842 4.74109 6.05987 5.6908 6.64036 6.28184C7.22085 6.87287 8.17056 6.88142 8.76159 6.30094L9.5 5.57571L9.5 14C9.5 14.8284 10.1716 15.5 11 15.5C11.8284 15.5 12.5 14.8284 12.5 14L12.5 5.46151L13.4216 6.32525C14.0261 6.89174 14.9754 6.86096 15.5419 6.25649C16.1083 5.65202 16.0776 4.70277 15.4731 4.13628L12.0257 0.905513C11.4389 0.355546 10.5227 0.366275 9.94893 0.929834L6.65946 4.1606Z" fill="#202020" stroke="white" stroke-linecap="round" stroke-linejoin="round"/>
</svg>
