<svg width="21" height="14" viewBox="0 0 21 14" fill="none" xmlns="http://www.w3.org/2000/svg">
<path d="M16.435 0.00510755L3.88187 1.11823C3.66025 1.13749 3.44821 1.21744 3.26905 1.3493C3.08988 1.48117 2.95052 1.65985 2.86625 1.86573L0.25 8.17073V8.23573C0.25 8.23573 0.33125 8.69073 0.36375 8.82886C0.463994 9.19708 0.608595 9.55176 0.794375 9.88511C1.06455 10.3878 1.46878 10.8058 1.96217 11.0927C2.45557 11.3796 3.01882 11.524 3.58938 11.5101C4.15993 11.524 4.72318 11.3796 5.21658 11.0927C5.70997 10.8058 6.1142 10.3878 6.38438 9.88511C6.57156 9.55338 6.71365 9.19817 6.80687 8.82886C6.8475 8.69073 6.92063 8.23573 6.92063 8.23573V8.17073L4.48313 2.36136L9.55312 1.91448V12.7857C9.55312 12.9581 9.62161 13.1235 9.74351 13.2454C9.8654 13.3673 10.0307 13.4357 10.2031 13.4357C10.2885 13.4357 10.373 13.4189 10.4519 13.3863C10.5307 13.3536 10.6024 13.3057 10.6627 13.2454C10.7231 13.185 10.771 13.1133 10.8036 13.0345C10.8363 12.9556 10.8531 12.8711 10.8531 12.7857V1.80073L15.85 1.36198L13.5587 6.99261V7.05761C13.5587 7.05761 13.6319 7.51261 13.6725 7.65886C13.7672 8.0277 13.9092 8.38273 14.095 8.71511C14.3745 9.21038 14.7806 9.62249 15.2717 9.90925C15.7628 10.196 16.3213 10.3471 16.89 10.3471C17.4587 10.3471 18.0172 10.196 18.5083 9.90925C18.9994 9.62249 19.4055 9.21038 19.685 8.71511C19.8679 8.3804 20.0124 8.02606 20.1156 7.65886C20.1156 7.51261 20.2294 7.05761 20.2294 7.05761V6.99261L17.67 0.760733C17.573 0.518525 17.4004 0.314118 17.1779 0.177958C16.9554 0.0417979 16.6948 -0.0188291 16.435 0.00510755ZM1.875 7.60198L3.58125 3.49073L5.2875 7.60198H1.875ZM5.42562 8.94261C5.37798 9.05935 5.32372 9.17328 5.26312 9.28386C5.11125 9.58325 4.87848 9.83407 4.59124 10.0078C4.30401 10.1816 3.97381 10.2714 3.63812 10.267C3.29562 10.2792 2.95678 10.193 2.66163 10.0188C2.36649 9.84463 2.12736 9.5896 1.9725 9.28386C1.9119 9.17328 1.85765 9.05935 1.81 8.94261H5.42562ZM18.7344 7.72386C18.6856 7.84573 18.6287 7.95948 18.5719 8.07323C18.4078 8.37139 18.1666 8.62003 17.8737 8.7932C17.5807 8.96637 17.2466 9.05772 16.9062 9.05772C16.5659 9.05772 16.2318 8.96637 15.9388 8.7932C15.6459 8.62003 15.4047 8.37139 15.2406 8.07323C15.1838 7.95948 15.1269 7.84573 15.0781 7.72386H18.7344ZM15.2 6.43198L16.9062 2.31261L18.6125 6.43198H15.2Z" fill="#BEBEBE"/>
</svg>
