<svg width="32" height="32" viewBox="0 0 32 32" fill="none" xmlns="http://www.w3.org/2000/svg">
<rect width="32" height="32" fill="white"/>
<path d="M13.2162 12C13.2162 13.1046 12.2724 14 11.1081 14C9.94383 14 9 13.1046 9 12C9 10.8954 9.94383 10 11.1081 10C12.2724 10 13.2162 10.8954 13.2162 12ZM13.2162 12H23" stroke="#202020"/>
<path d="M18.7838 19C18.7838 17.8954 19.7276 17 20.8919 17C22.0562 17 23 17.8954 23 19C23 20.1046 22.0562 21 20.8919 21C19.7276 21 18.7838 20.1046 18.7838 19ZM18.7838 19L9 19" stroke="#202020"/>
</svg>
