<svg width="26" height="21" viewBox="0 0 26 21" fill="none" xmlns="http://www.w3.org/2000/svg">
<path fill-rule="evenodd" clip-rule="evenodd" d="M0.457297 0.794866C0.570721 0.310924 1.05498 0.0105601 1.53892 0.123984L6.41511 1.26684C6.77529 1.35126 7.04712 1.64747 7.10037 2.01355L8.81687 13.8145H20.2289L21.3374 11.0428H11.6952C11.1981 11.0428 10.7952 10.6399 10.7952 10.1428C10.7952 9.64577 11.1981 9.24283 11.6952 9.24283H22.0573L23.1658 6.4714H12.9142C12.4171 6.4714 12.0142 6.06845 12.0142 5.5714C12.0142 5.07434 12.4171 4.6714 12.9142 4.6714H24.4952C24.7938 4.6714 25.073 4.81954 25.2404 5.06683C25.4078 5.31413 25.4417 5.62837 25.3308 5.90565L23.5022 10.477L23.5022 10.4771L21.674 15.0487C21.5373 15.3904 21.2063 15.6145 20.8383 15.6145H8.03831C7.5913 15.6145 7.21203 15.2864 7.14768 14.8441L5.40737 2.87943L1.12818 1.87649C0.644237 1.76307 0.343873 1.27881 0.457297 0.794866ZM11.6955 18.4288C11.6955 19.5334 10.7403 20.4288 9.56212 20.4288C8.38391 20.4288 7.42879 19.5334 7.42879 18.4288C7.42879 17.3242 8.38391 16.4288 9.56212 16.4288C10.7403 16.4288 11.6955 17.3242 11.6955 18.4288ZM19.3142 20.4288C20.4924 20.4288 21.4475 19.5334 21.4475 18.4288C21.4475 17.3242 20.4924 16.4288 19.3142 16.4288C18.1359 16.4288 17.1808 17.3242 17.1808 18.4288C17.1808 19.5334 18.1359 20.4288 19.3142 20.4288Z" fill="white"/>
</svg>
