<svg width="30" height="19" viewBox="0 0 30 19" fill="none" xmlns="http://www.w3.org/2000/svg">
<path d="M29.2083 1.67482C29.3917 0.941488 29.2084 0.483154 28.2 0.483154H24.9C24.075 0.483154 23.7083 0.941487 23.525 1.39982C23.525 1.39982 21.875 5.43315 19.4917 8.09149C18.7584 8.82482 18.3917 9.09982 17.9333 9.09982C17.75 9.09982 17.3834 8.82482 17.3834 8.18315V1.67482C17.3834 0.849821 17.1084 0.483154 16.4667 0.483154H11.3334C10.7833 0.483154 10.5084 0.849821 10.5084 1.21649C10.5084 2.04149 11.7 2.22482 11.7917 4.42482V9.19149C11.7917 10.1998 11.6083 10.4748 11.15 10.4748C10.05 10.4748 7.39168 6.44149 5.74168 1.76649C5.46668 0.849821 5.10002 0.483154 4.27502 0.483154H1.15835C0.241683 0.483154 0.0583496 0.941487 0.0583496 1.39982C0.0583496 2.22482 1.15835 6.53315 5.19168 12.2165C7.85002 16.0665 11.7 18.1748 15.1833 18.1748C17.2917 18.1748 17.475 17.7165 17.475 16.8915V13.9582C17.475 13.0415 17.6584 12.8582 18.3 12.8582C18.7584 12.8582 19.5834 13.1332 21.5084 14.9665C23.7084 17.1665 24.075 18.1748 25.3583 18.1748H28.75C29.6667 18.1748 30.125 17.7165 29.85 16.7998C29.575 15.8832 28.475 14.5082 27.1 12.9498C26.3667 12.0332 25.175 11.1165 24.8083 10.5665C24.35 9.92482 24.4417 9.64982 24.8083 9.09982C24.8083 9.19149 28.8417 3.59982 29.2083 1.67482Z" fill="#5181B8"/>
</svg>
