<svg width="15" height="15" viewBox="0 0 15 15" fill="none" xmlns="http://www.w3.org/2000/svg">
<path d="M13.8054 11.0004L11.8786 9.07768C11.1905 8.39099 10.0206 8.66569 9.74538 9.55836C9.53894 10.1764 8.85081 10.5197 8.23149 10.3824C6.85522 10.039 4.99726 8.25365 4.65319 6.8116C4.44675 6.19356 4.85963 5.50687 5.47895 5.30089C6.37353 5.02621 6.64878 3.85884 5.96065 3.17216L4.03387 1.24943C3.48336 0.768746 2.6576 0.768746 2.17591 1.24943L0.868455 2.55414C-0.439 3.92751 1.00608 7.56696 4.24031 10.7944C7.47454 14.0218 11.1217 15.5326 12.4979 14.1592L13.8054 12.8545C14.2871 12.3051 14.2871 11.4811 13.8054 11.0004Z" fill="#D61635"/>
</svg>
