<svg width="24" height="16" viewBox="0 0 24 16" fill="none" xmlns="http://www.w3.org/2000/svg">
<path fill-rule="evenodd" clip-rule="evenodd" d="M20.5119 0L24 8.40727L23.9848 8.5365L23.4887 8.47815C23.9848 8.5365 23.9848 8.53626 23.9848 8.5365L23.9846 8.53752L23.9845 8.53883L23.9841 8.54234L23.9827 8.55286C23.9816 8.56141 23.98 8.57298 23.9778 8.58739C23.9736 8.6162 23.9672 8.65639 23.9581 8.70636C23.9399 8.80617 23.9107 8.94574 23.8661 9.11198C23.7774 9.44249 23.6247 9.88864 23.3679 10.3396C22.8476 11.2531 21.8798 12.2064 20.1908 12.2064C18.5018 12.2064 17.534 11.2531 17.0137 10.3396C16.7569 9.88864 16.6042 9.4425 16.5155 9.11198C16.4709 8.94574 16.4418 8.80617 16.4235 8.70636C16.4144 8.65639 16.408 8.6162 16.4038 8.58739C16.4016 8.57299 16.4 8.56141 16.3989 8.55287L16.3976 8.54234L16.3971 8.53883L16.397 8.53752C16.3969 8.53728 16.3968 8.5365 16.8929 8.47815L16.3968 8.5365L16.3816 8.40727L19.4137 1.09902L12.4995 1.70985V16H11.5005V1.79811L4.53131 2.41379L7.61839 9.85449L7.60316 9.98373L7.10708 9.92538C7.60316 9.98373 7.60319 9.98349 7.60316 9.98373L7.60304 9.98474L7.60288 9.98605L7.60245 9.98956L7.60109 10.0001C7.59996 10.0086 7.59837 10.0202 7.59623 10.0346C7.59197 10.0634 7.58556 10.1036 7.57645 10.1536C7.55825 10.2534 7.52912 10.393 7.4845 10.5592C7.39579 10.8897 7.24312 11.3359 6.98629 11.7868C6.46598 12.7003 5.49817 13.6536 3.8092 13.6536C2.12022 13.6536 1.15241 12.7003 0.632102 11.7868C0.375274 11.3359 0.222605 10.8897 0.13389 10.5592C0.0892716 10.393 0.0601436 10.2534 0.0419421 10.1536C0.0328292 10.1036 0.0264198 10.0634 0.0221581 10.0346C0.0200263 10.0202 0.0184292 10.0086 0.0172979 10.0001L0.0159408 9.98956L0.0155075 9.98605L0.0153494 9.98474C0.0153209 9.9845 0.0152292 9.98373 0.511311 9.92538L0.0152292 9.98373L0 9.85449L3.46367 1.50612L20.5119 0ZM1.25909 9.42632L3.8092 3.27987L6.35931 9.42632H1.25909ZM1.13391 10.4244C1.21014 10.6794 1.32661 10.9881 1.50039 11.2932C1.89968 11.9942 2.58081 12.6555 3.8092 12.6555C5.03758 12.6555 5.71871 11.9942 6.11801 11.2932C6.29178 10.9881 6.40825 10.6794 6.48448 10.4244H1.13391ZM20.1908 1.83265L17.6407 7.9791H22.7409L20.1908 1.83265ZM17.5155 8.97721C17.5917 9.23222 17.7082 9.54083 17.882 9.84593C18.2813 10.547 18.9624 11.2083 20.1908 11.2083C21.4192 11.2083 22.1003 10.547 22.4996 9.84593C22.6734 9.54083 22.7899 9.23223 22.8661 8.97721H17.5155Z" fill="#202020"/>
</svg>
