<svg width="24" height="19" viewBox="0 0 24 19" fill="none" xmlns="http://www.w3.org/2000/svg">
<path fill-rule="evenodd" clip-rule="evenodd" d="M0 2.6C0 1.16406 1.16406 0 2.6 0H18.2387C19.6746 0 20.8387 1.16406 20.8387 2.6V10.4681C22.6538 10.9004 24 12.5428 24 14.4961C24 16.7778 22.163 18.6353 19.8874 18.6353C18.9653 18.6353 18.1139 18.3294 17.4286 17.8143C16.7432 18.3294 15.8918 18.6353 14.9697 18.6353C13.363 18.6353 11.9752 17.7087 11.2983 16.3627H2.6C1.16406 16.3627 0 15.1987 0 13.7627V2.6ZM10.9103 15.1627C10.8753 14.9455 10.8571 14.7228 10.8571 14.4961C10.8571 13.9092 10.9789 13.3492 11.1989 12.8417C11.8319 11.3821 13.2798 10.3569 14.9697 10.3569C15.8918 10.3569 16.7432 10.6628 17.4286 11.1779C18.0518 10.7094 18.8124 10.414 19.6387 10.3643V5.22353H1.2V13.7627C1.2 14.5359 1.8268 15.1627 2.6 15.1627H10.9103ZM1.2 4.02353H19.6387V2.6C19.6387 1.8268 19.0119 1.2 18.2387 1.2H2.6C1.8268 1.2 1.2 1.8268 1.2 2.6V4.02353ZM18.2825 12.0429C18.7851 12.7295 19.0824 13.5785 19.0824 14.4961C19.0824 15.4137 18.7851 16.2626 18.2825 16.9493C18.743 17.2569 19.2944 17.4353 19.8874 17.4353C21.4917 17.4353 22.8 16.1236 22.8 14.4961C22.8 12.8685 21.4917 11.5569 19.8874 11.5569C19.2944 11.5569 18.743 11.7353 18.2825 12.0429ZM10.0174 8.24118H3.37815V7.04118H10.0174V8.24118ZM8.53043 11.5569H3.37815V10.3569H8.53043V11.5569ZM14.9697 11.5569C13.7789 11.5569 12.7511 12.2787 12.2999 13.3191C12.144 13.6786 12.0571 14.0763 12.0571 14.4961C12.0571 14.8684 12.1255 15.2232 12.2496 15.5494C12.6705 16.6555 13.7322 17.4353 14.9697 17.4353C15.7623 17.4353 16.4806 17.1166 17.0069 16.5967C17.5473 16.063 17.8824 15.3199 17.8824 14.4961C17.8824 13.6722 17.5473 12.9292 17.0069 12.3954C16.4806 11.8756 15.7623 11.5569 14.9697 11.5569Z" fill="#D61635"/>
</svg>
