<svg width="22" height="22" viewBox="0 0 22 22" fill="none" xmlns="http://www.w3.org/2000/svg">
<path d="M21.2335 6.74857C21.2204 5.89104 21.0593 5.04221 20.7573 4.23954C20.5039 3.55608 20.1079 2.9344 19.5957 2.41585C19.0782 1.89659 18.4511 1.4997 17.7604 1.25426C16.9614 0.953282 16.1166 0.792176 15.2629 0.778008C14.1014 0.778008 13.811 0.708313 10.9999 0.708313C8.18888 0.708313 7.85202 0.708313 6.74851 0.778008C5.89098 0.791075 5.04215 0.952195 4.23948 1.25426C3.55093 1.49726 2.92711 1.8946 2.41579 2.41585C1.90067 2.93211 1.50427 3.55446 1.2542 4.23954C0.952134 5.04221 0.791014 5.89104 0.777947 6.74857C0.777947 7.84046 0.708252 8.20055 0.708252 10.9884C0.708252 13.7762 0.708252 14.1595 0.777947 15.2514C0.793527 16.1087 0.954567 16.9571 1.2542 17.7604C1.50427 18.4455 1.90067 19.0678 2.41579 19.5841C2.93321 20.0978 3.55521 20.494 4.23948 20.7457C5.04215 21.0478 5.89098 21.2089 6.74851 21.2219C7.8404 21.2219 8.20049 21.2916 10.9999 21.2916C13.7993 21.2916 14.1594 21.2916 15.2513 21.2219C16.1089 21.2089 16.9577 21.0478 17.7604 20.7457C18.4433 20.4914 19.0648 20.0955 19.5841 19.5841C20.0992 19.0678 20.4956 18.4455 20.7456 17.7604C21.0453 16.9571 21.2063 16.1087 21.2219 15.2514C21.28 14.1595 21.2916 13.7994 21.2916 10.9884C21.2916 8.17732 21.2916 7.84046 21.2335 6.74857ZM10.9767 16.2852C9.92858 16.2852 8.90403 15.9742 8.03272 15.3917C7.16141 14.8092 6.48251 13.9812 6.08194 13.0127C5.68138 12.0441 5.57717 10.9785 5.78249 9.95072C5.98781 8.92292 6.49344 7.97913 7.23538 7.23882C7.97732 6.49851 8.92221 5.99495 9.95046 5.79189C10.9787 5.58882 12.0441 5.69538 13.0118 6.09806C13.9794 6.50075 14.8059 7.18147 15.3865 8.05405C15.9671 8.92664 16.2758 9.95187 16.2735 11C16.2735 11.695 16.1364 12.3832 15.8701 13.0252C15.6038 13.6672 15.2134 14.2504 14.7214 14.7413C14.2294 15.2322 13.6454 15.6213 13.0028 15.8862C12.3602 16.1511 11.6717 16.2867 10.9767 16.2852ZM16.4942 6.72534C16.3316 6.72687 16.1702 6.69616 16.0195 6.63497C15.8687 6.57378 15.7316 6.48332 15.6161 6.36883C15.5005 6.25435 15.4088 6.11809 15.3462 5.96794C15.2835 5.8178 15.2513 5.65673 15.2513 5.49405C15.2346 5.32152 15.2541 5.1474 15.3087 4.98287C15.3632 4.81834 15.4516 4.66704 15.5681 4.53869C15.6846 4.41033 15.8267 4.30777 15.9852 4.23758C16.1437 4.1674 16.3151 4.13114 16.4884 4.13114C16.6618 4.13114 16.8332 4.1674 16.9917 4.23758C17.1502 4.30777 17.2922 4.41033 17.4087 4.53869C17.5252 4.66704 17.6136 4.81834 17.6682 4.98287C17.7227 5.1474 17.7422 5.32152 17.7255 5.49405C17.7255 5.82061 17.5958 6.13379 17.3649 6.3647C17.134 6.59561 16.8208 6.72534 16.4942 6.72534Z" fill="#7A7A7A"/>
<path d="M14.1666 10.9999C14.1666 11.6262 13.9809 12.2385 13.6329 12.7592C13.2849 13.28 12.7904 13.6859 12.2117 13.9255C11.6331 14.1652 10.9964 14.2279 10.3821 14.1057C9.76786 13.9836 9.20361 13.682 8.76075 13.2391C8.31788 12.7962 8.01629 12.232 7.8941 11.6177C7.77191 11.0034 7.83462 10.3667 8.0743 9.78809C8.31398 9.20945 8.71986 8.71489 9.24061 8.36693C9.76137 8.01897 10.3736 7.83325 10.9999 7.83325C11.8398 7.83325 12.6452 8.16688 13.2391 8.76075C13.833 9.35461 14.1666 10.1601 14.1666 10.9999Z" fill="#7A7A7A"/>
</svg>
