<svg width="68" height="70" viewBox="0 0 68 70" fill="none" xmlns="http://www.w3.org/2000/svg">
<path d="M66.12 24.3213C66.1449 22.3814 66.0019 20.4429 65.6924 18.5269C64.8987 13.668 63.0772 9.79145 60.4124 7.31762C56.6215 3.7971 53.1948 4.64187 49.2263 5.6154C46.4285 6.29824 43.2578 7.07863 39.1385 6.6221C34.7792 6.13436 30.8643 4.67113 27.0794 3.2479C22.1803 1.41106 17.5551 -0.324326 12.793 0.49313C2.39365 2.28119 0.513594 6.79379 0.184213 8.61794C0.064333 8.84057 0.0201695 9.09512 0.0582011 9.34424C0.0962328 9.59336 0.214458 9.82394 0.395533 10.0022L9.01897 18.3728C5.25195 23.1182 3.20442 28.9645 3.20123 34.9843C3.20123 35.1794 3.20123 35.3657 3.20916 35.554C3.22603 36.4115 3.28754 37.2787 3.38774 38.1342C2.72456 43.7233 3.84879 49.3767 6.60417 54.3087C6.74406 54.5594 6.89288 54.814 7.04368 55.0627C10.0188 59.9598 14.4821 63.8153 19.8042 66.0857C23.2291 67.5384 26.921 68.2841 30.651 68.2766H30.6728C30.9089 68.2766 31.1689 68.2766 31.4526 68.2649C31.5938 68.2619 31.7325 68.2276 31.8585 68.1647C31.9844 68.1018 32.0943 68.0118 32.18 67.9014C32.2658 67.7911 32.3252 67.6632 32.3538 67.5272C32.3825 67.3912 32.3796 67.2506 32.3455 67.1158C31.9321 65.4691 31.6881 63.7858 31.6173 62.0911C31.6034 61.7409 31.5965 61.3897 31.5965 61.0502C31.5965 60.7108 31.6034 60.3596 31.6173 60.0094C31.6816 58.4469 31.8939 56.8938 32.2513 55.37C32.2909 55.2007 32.2814 55.0239 32.2238 54.8597C32.1662 54.6955 32.0629 54.5505 31.9255 54.4413C31.7882 54.3321 31.6223 54.263 31.447 54.242C31.2716 54.2209 31.0938 54.2488 30.9337 54.3223C30.7353 54.4199 30.521 54.5077 30.3037 54.5994C25.868 56.4723 22.3986 56.92 19.0562 56.0509C15.8546 55.2188 12.915 53.3312 10.7105 50.7043C13.1181 47.7448 16.1736 45.3574 19.6495 43.7198C19.932 44.6836 20.073 45.6822 20.0681 46.6853C20.0681 49.0264 19.335 50.6038 19.329 50.6165C19.2607 50.7577 19.2298 50.9137 19.2393 51.0698C19.2488 51.226 19.2984 51.3772 19.3834 51.5094C19.4683 51.6417 19.586 51.7506 19.7253 51.8261C19.8646 51.9016 20.0211 51.9412 20.1802 51.9412C23.1476 51.9454 26.0072 50.848 28.1871 48.8685C30.367 46.8889 31.7065 44.1732 31.9378 41.2645H32.5995L43.853 52.1899L43.4076 52.6523C43.0737 53.0001 42.8936 53.4639 42.9068 53.9421C42.92 54.4202 43.1254 54.8737 43.478 55.2032L44.6229 56.2684C44.9293 56.5531 45.3259 56.7255 45.7463 56.7568C46.1666 56.788 46.5851 56.6762 46.9315 56.4401L48.262 57.679C47.1893 57.6638 46.1334 57.9418 45.212 58.4819C44.2905 59.0221 43.5396 59.8031 43.0431 60.7381C42.5465 61.6731 42.3236 62.7253 42.3994 63.7774C42.4751 64.8296 42.8465 65.8404 43.4721 66.6973L42.7399 67.4172L44.0733 68.7283L44.8055 68.0084C45.6989 68.6391 46.7564 69.0067 47.8545 69.0683C48.9526 69.1299 50.0458 68.883 51.0064 68.3563C51.967 67.8296 52.7553 67.045 53.2791 66.0941C53.803 65.1432 54.0407 64.0654 53.9646 62.9866L59.957 68.5693C60.2439 68.8381 60.6252 68.9877 61.0215 68.9868H61.0652C61.2698 68.9817 61.4713 68.9364 61.6578 68.8537C61.8444 68.7709 62.0122 68.6523 62.1515 68.5049L64.6725 65.8867C64.9549 65.593 65.1072 65.2012 65.096 64.7972C65.0849 64.3932 64.9111 64.01 64.613 63.7318L51.5836 51.6076C51.8056 51.2552 51.8973 50.8384 51.8431 50.4273C51.7888 50.0163 51.5921 49.6362 51.2859 49.3513L50.141 48.2851C49.7873 47.9569 49.3157 47.7801 48.8296 47.7932C48.3435 47.8064 47.8825 48.0085 47.5476 48.3553L47.1577 48.7601L38.7992 41.2645H52.6431C52.7911 41.2644 52.937 41.2301 53.069 41.1643C53.201 41.0986 53.3154 41.0032 53.403 40.8859C53.4906 40.7687 53.5489 40.6328 53.5732 40.4893C53.5975 40.3457 53.5872 40.1986 53.543 40.0598C53.1428 38.8096 52.65 37.5899 52.0687 36.4105C53.4985 36.1268 54.9502 35.9636 56.4082 35.9227C56.5489 35.9186 56.6868 35.8836 56.8119 35.8202C56.937 35.7569 57.0461 35.6669 57.1313 35.5567C57.2164 35.4465 57.2754 35.319 57.3039 35.1835C57.3325 35.048 57.3298 34.908 57.2961 34.7736C56.3582 31.0779 54.6369 27.6187 52.2448 24.6226C49.8527 21.6264 46.844 19.1609 43.4155 17.3876C40.0649 15.6488 36.3812 14.6187 32.6015 14.3635C32.2046 14.3353 31.7999 14.3177 31.3961 14.307C31.2324 13.6797 31.0171 12.7042 31.0171 11.9161C31.0171 10.6811 31.5538 9.26274 31.5588 9.24908C31.6134 9.1084 31.6324 8.95675 31.614 8.80724C31.5957 8.65773 31.5405 8.51488 31.4533 8.39104C31.3662 8.26721 31.2497 8.16612 31.1138 8.09654C30.978 8.02695 30.827 7.99096 30.6738 7.99168H30.65C26.9621 7.98717 23.3113 8.71592 19.9171 10.1341C16.5229 11.5523 13.4554 13.6307 10.899 16.2443L2.1734 8.42285C2.41217 7.75594 2.78311 7.14223 3.26472 6.61722C4.50982 5.21545 7.22821 3.33179 13.1223 2.31924C17.3666 1.58957 21.5553 3.16011 26.4067 4.98036C30.3047 6.44066 34.3297 7.95169 38.9262 8.46382C43.3838 8.96131 46.877 8.10289 49.6837 7.41419C53.5341 6.46895 56.0768 5.84366 59.1186 8.66672C63.9304 13.1335 64.2568 21.5099 64.232 24.1769C63.5834 24.3362 63.0075 24.7041 62.596 25.2222C62.1845 25.7402 61.961 26.3787 61.961 27.0361C61.961 27.6934 62.1845 28.3319 62.596 28.85C63.0075 29.368 63.5834 29.736 64.232 29.8952L64.238 39.0316C64.2385 39.3365 64.1778 39.6384 64.0595 39.9202C63.9411 40.202 63.7674 40.4581 63.5482 40.6737C63.3291 40.8894 63.0688 41.0604 62.7823 41.177C62.4958 41.2936 62.1888 41.3535 61.8787 41.3533V41.3533C61.4623 41.3531 61.0533 41.2447 60.6932 41.0392C60.3331 40.8336 60.0346 40.5381 59.828 40.1827C59.9291 40.0911 60.0086 39.979 60.061 39.8541C60.1135 39.7291 60.1375 39.5945 60.1314 39.4595C60.1254 39.3245 60.0894 39.1924 60.026 39.0725C59.9627 38.9526 59.8734 38.8477 59.7645 38.7653L59.1514 38.3029C59.0119 38.1973 58.8451 38.1323 58.6699 38.1152C58.4947 38.0981 58.3182 38.1296 58.1603 38.2062C58.0025 38.2828 57.8696 38.4014 57.7768 38.5485C57.684 38.6956 57.6351 38.8653 57.6354 39.0384C57.636 40.1443 58.0832 41.2046 58.8787 41.9863C59.6743 42.768 60.753 43.2069 61.8777 43.2067V43.2067C62.4351 43.2067 62.9871 43.0987 63.5021 42.8888C64.017 42.6789 64.4849 42.3713 64.8789 41.9836C65.2728 41.5959 65.5852 41.1356 65.7982 40.629C66.0112 40.1225 66.1205 39.5797 66.12 39.0316V29.7557C66.5502 29.5777 66.9324 29.3036 67.2362 28.9552C67.5399 28.6067 67.757 28.1935 67.8701 27.7482C68.0414 27.0656 67.9592 26.3454 67.6383 25.7171C67.3175 25.0889 66.779 24.5939 66.12 24.3213V24.3213ZM51.025 66.0203C50.411 66.6566 49.5946 67.0679 48.7107 67.1862C47.8268 67.3045 46.9283 67.1228 46.1637 66.671L48.8483 64.0313L47.5169 62.7164L44.8322 65.357C44.456 64.7432 44.2617 64.0382 44.2711 63.3216C44.2805 62.6049 44.4933 61.9052 44.8855 61.3011C45.2777 60.697 45.8338 60.2126 46.4909 59.9026C47.1481 59.5926 47.8803 59.4692 48.605 59.5463C49.3296 59.6235 50.018 59.8981 50.5924 60.3393C51.1668 60.7805 51.6045 61.3707 51.8561 62.0433C52.1077 62.716 52.1632 63.4443 52.0163 64.1463C51.8695 64.8483 51.5261 65.496 51.025 66.0164V66.0203ZM61.0096 66.9958L48.255 55.1203L50.3156 52.9801L63.0702 64.8517L61.0096 66.9958ZM48.8791 49.6654L49.9486 50.6633L47.9147 52.7762L46.2381 54.5223L45.8809 54.8881L44.8084 53.8912L48.8791 49.6654ZM18.571 57.8389C22.09 58.754 25.6686 58.4038 30.0627 56.6967C29.8867 57.7671 29.7761 58.8469 29.7313 59.9304C29.7164 60.306 29.7085 60.6815 29.7085 61.0463C29.7085 61.4112 29.7164 61.7858 29.7313 62.1623C29.7901 63.5939 29.9643 65.0187 30.2522 66.4232C26.9133 66.3796 23.6161 65.6874 20.5503 64.3864C15.5915 62.2705 11.4335 58.6773 8.6628 54.1136C8.52192 53.8824 8.38501 53.6473 8.25505 53.4151C6.92628 51.0458 5.99654 48.4806 5.50193 45.819C5.50193 45.8278 5.50987 45.8356 5.51285 45.8444C5.61206 46.059 5.71127 46.2736 5.81048 46.4863C5.82536 46.5184 5.84124 46.5506 5.85711 46.5838C5.95632 46.7945 6.06347 47.0033 6.17062 47.211L6.21626 47.2988C6.32737 47.5115 6.44146 47.7241 6.55853 47.9339L6.57937 47.9719C6.69644 48.1817 6.81748 48.3904 6.9405 48.5972L6.96927 48.646C7.09031 48.8495 7.21498 49.0518 7.34329 49.2527L7.40282 49.3503C7.52783 49.5454 7.65515 49.7385 7.78478 49.9297C7.80661 49.9629 7.83042 49.9961 7.85324 50.0273C7.98552 50.2224 8.1178 50.4139 8.25009 50.6018C8.26894 50.6262 8.28679 50.6516 8.30564 50.6769C8.45049 50.8759 8.59766 51.073 8.74713 51.2681C11.2562 54.5116 14.7435 56.8459 18.571 57.8389ZM21.5216 49.9941C21.8081 48.9111 21.9521 47.7965 21.9502 46.6775C21.9571 45.4208 21.7673 44.1706 21.3876 42.9706L21.6317 42.8779C21.6942 42.8545 21.7567 42.8301 21.8202 42.8077C21.966 42.755 22.1119 42.7033 22.2577 42.6536L22.3946 42.6058C22.5871 42.5407 22.7806 42.478 22.975 42.4175L23.0742 42.3873C23.2336 42.3385 23.394 42.291 23.5554 42.2449L23.7479 42.1922C23.8788 42.1551 24.0108 42.12 24.1447 42.0858L24.3521 42.0361L24.736 41.9434L24.9493 41.8947C25.0833 41.8644 25.2182 41.8351 25.3531 41.8069L25.5436 41.7678C25.7083 41.7347 25.874 41.7035 26.0397 41.6703C26.0724 41.6654 26.1041 41.6586 26.1389 41.6527C26.3419 41.6163 26.546 41.5838 26.751 41.5552L26.8393 41.5425C27.0109 41.5171 27.1836 41.4928 27.3552 41.4713L27.5318 41.4498C27.6766 41.4332 27.8215 41.4167 27.9673 41.402L28.1657 41.3825C28.3076 41.3689 28.4505 41.3562 28.5933 41.3455C28.6568 41.3406 28.7203 41.3347 28.7848 41.3308C28.9366 41.3201 29.0894 41.3103 29.2422 41.3025L29.4009 41.2938C29.5993 41.284 29.7978 41.2762 29.9962 41.2713H30.0418C29.9913 41.8 29.8964 42.3237 29.7581 42.837C29.2558 44.6957 28.206 46.367 26.7405 47.6408C25.275 48.9145 23.4593 49.734 21.5216 49.9961V49.9941ZM45.7757 50.0302L45.0694 50.7647L35.2822 41.2625H35.9985L45.7757 50.0302ZM42.5375 19.0273C45.5592 20.5905 48.2327 22.7317 50.401 25.325C52.5693 27.9183 54.1887 30.9115 55.1641 34.1288C53.5719 34.2408 51.9927 34.4896 50.4446 34.8721C50.3057 34.9072 50.1768 34.9729 50.0676 35.0642C49.9583 35.1556 49.8718 35.2703 49.8144 35.3995C49.757 35.5287 49.7303 35.6691 49.7364 35.8099C49.7424 35.9508 49.7811 36.0885 49.8493 36.2125C50.4164 37.2436 50.9097 38.3124 51.3256 39.4111H35.1214C32.844 39.4035 30.6385 38.6258 28.8754 37.2084C27.1122 35.7911 25.8986 33.8204 25.4384 31.6273C24.9783 29.4342 25.2995 27.1522 26.3482 25.1645C27.3969 23.1767 29.1092 21.6042 31.1976 20.711L30.4456 19.0147C28.8948 19.6773 27.5054 20.6573 26.37 21.8894C25.2158 23.144 24.3548 24.6317 23.8475 26.2482C23.3401 27.8647 23.1986 29.5708 23.433 31.2467C23.6673 32.9226 24.2718 34.5279 25.2041 35.9497C26.1363 37.3716 27.3737 38.5756 28.8295 39.4774C27.1168 39.5849 25.4184 39.8514 23.7568 40.2734C22.9631 40.4763 22.1807 40.715 21.4095 40.9894C20.8698 41.1845 20.334 41.3855 19.8042 41.6108C15.8278 43.3028 12.313 45.8925 9.54479 49.1698L9.52991 49.1493L9.47038 49.0596C9.41582 48.9806 9.36224 48.9025 9.30867 48.8225L9.23128 48.7055C9.18366 48.6343 9.13207 48.5621 9.08941 48.4899C9.06163 48.448 9.03584 48.406 9.00806 48.3641L8.87512 48.1495L8.79476 48.0197C8.7511 47.9495 8.70745 47.8783 8.66479 47.8061L8.5884 47.6793L8.45744 47.4569L8.37906 47.3359C8.33441 47.2569 8.28878 47.1779 8.24512 47.0979C8.22429 47.0618 8.20445 47.0257 8.18461 46.9896C8.13302 46.8979 8.08539 46.8052 8.0338 46.7126L7.99511 46.6423C7.86812 46.4043 7.7451 46.1643 7.62605 45.9224C7.6191 45.9068 7.61216 45.8922 7.60422 45.8766C7.55362 45.7732 7.50501 45.6688 7.45441 45.5644C7.43953 45.5342 7.42663 45.5049 7.41274 45.4747C7.37008 45.384 7.32841 45.2932 7.28674 45.2025C7.27087 45.1674 7.255 45.1323 7.24011 45.0972C7.20043 45.0104 7.16273 44.9235 7.12503 44.8367L7.07741 44.7275L6.97026 44.4651L6.92562 44.3577L6.81648 44.0846L6.77779 43.9871C6.74009 43.8895 6.70239 43.792 6.66568 43.6944C6.65576 43.6691 6.64584 43.6437 6.63691 43.6183C6.59326 43.5023 6.55159 43.3852 6.50992 43.2681C6.50668 43.2612 6.50403 43.254 6.50198 43.2467C6.36507 42.8617 6.23841 42.4734 6.122 42.0819C6.122 42.0673 6.11308 42.0527 6.10911 42.038C6.07537 41.9249 6.04264 41.8117 6.0099 41.6986L5.99105 41.6274C5.96128 41.522 5.93251 41.4167 5.90473 41.3113C5.89779 41.284 5.89084 41.2567 5.88291 41.2294C5.85612 41.126 5.83032 41.0226 5.80453 40.9182C5.79758 40.8909 5.79064 40.8645 5.78469 40.8372C5.75889 40.7309 5.7331 40.6246 5.70929 40.5173C5.70333 40.4939 5.69837 40.4704 5.69242 40.4461C5.66662 40.3319 5.64182 40.2168 5.61801 40.1027C5.61801 40.0871 5.61107 40.0715 5.60809 40.0559C5.49565 39.5213 5.40173 38.9828 5.32633 38.4405C5.32633 38.4356 5.32633 38.4307 5.32633 38.4258C5.31244 38.3283 5.30054 38.2307 5.28863 38.1332C5.29855 38.0561 5.30847 37.9791 5.31939 37.901C5.3303 37.823 5.34121 37.7391 5.35312 37.6581C5.368 37.5606 5.38387 37.463 5.39975 37.3655C5.41165 37.2865 5.42356 37.2074 5.43745 37.1284C5.45431 37.0309 5.47316 36.9275 5.49102 36.827C5.50491 36.7509 5.5188 36.6739 5.53368 36.5978C5.55253 36.4944 5.57436 36.3929 5.59519 36.2905C5.61007 36.2164 5.62496 36.1422 5.64083 36.0691C5.66365 35.9627 5.68845 35.8574 5.71226 35.751C5.72814 35.6818 5.74302 35.6116 5.75988 35.5423C5.78667 35.4301 5.81445 35.3189 5.84322 35.2067C5.85909 35.1443 5.87398 35.0809 5.88985 35.0185C5.92259 34.8936 5.95731 34.7697 5.98906 34.6458C6.00295 34.597 6.01585 34.5483 6.02974 34.4976C6.07934 34.3239 6.12895 34.1513 6.18352 33.9796C6.36077 33.4027 6.5592 32.8343 6.77878 32.2744C8.31716 28.3419 10.8371 24.8531 14.1065 22.1294C14.421 21.868 14.7157 21.6319 15.0103 21.4075C19.4794 17.9855 24.9866 16.1359 30.651 16.1545H30.6748C31.2701 16.1545 31.8762 16.176 32.4606 16.217C35.9822 16.4523 39.4147 17.4096 42.5375 19.0273V19.0273ZM29.4019 9.87827C29.2324 10.5451 29.1406 11.2288 29.1281 11.9161C29.1281 12.715 29.2928 13.6202 29.4555 14.3216C29.2987 14.3275 29.143 14.3362 28.9862 14.345H28.9287C28.7441 14.3567 28.5596 14.3694 28.3751 14.384L28.2342 14.3967L27.8264 14.4328L27.628 14.4543L27.2808 14.4933L27.0615 14.5206C26.9534 14.5343 26.8452 14.5479 26.7371 14.5635L26.5069 14.5967L26.1964 14.6435L25.9603 14.6825L25.6567 14.7352L25.4196 14.7791L25.1219 14.8367L24.8838 14.8854L24.5862 14.9488L24.3481 15.0025L24.0505 15.0717L23.8153 15.1293L23.5177 15.2054L23.2875 15.2668L22.9899 15.3498L22.7647 15.4141L22.4611 15.5058L22.2468 15.5722C22.1397 15.6053 22.0325 15.6405 21.9264 15.6756C21.8609 15.697 21.7964 15.7175 21.7279 15.74C21.6039 15.7809 21.4809 15.8248 21.3579 15.8677L21.216 15.9175C21.0463 15.978 20.8777 16.0414 20.709 16.1058L20.5999 16.1487C20.4679 16.1994 20.336 16.2462 20.2031 16.3038L20.0205 16.3799C19.9143 16.4238 19.8092 16.4667 19.703 16.5125C19.6356 16.5408 19.5681 16.5711 19.5046 16.6013C19.4054 16.6433 19.3062 16.6862 19.2119 16.7301L18.9996 16.8276L18.7288 16.9661L18.5125 17.0637L18.2407 17.1973L18.0234 17.3076L17.7565 17.4539C17.6841 17.4919 17.6117 17.53 17.5402 17.569C17.4519 17.6158 17.3646 17.6665 17.2773 17.7124C17.2049 17.7514 17.1335 17.7914 17.062 17.8324C16.9747 17.8811 16.8874 17.9299 16.8011 17.9816C16.7297 18.0216 16.6592 18.0626 16.5888 18.1045L16.3289 18.2606L16.1205 18.3864L15.8596 18.5503L15.6612 18.6781L15.3963 18.8518C15.3318 18.8947 15.2663 18.9366 15.2028 18.9805L14.927 19.162L14.7464 19.2868C14.6472 19.3571 14.548 19.4283 14.4488 19.4995L14.3 19.6068C14.1512 19.7154 14.0037 19.8256 13.8575 19.9375C13.541 20.1774 13.2235 20.4252 12.8862 20.712C12.7076 20.8603 12.533 21.0125 12.3584 21.1656L12.2453 21.2632C12.0757 21.4144 11.907 21.5665 11.7423 21.7216L11.6669 21.7928C11.5161 21.934 11.3676 22.0767 11.2215 22.2211L11.1312 22.3098C10.9711 22.4685 10.8137 22.6288 10.6589 22.7908C10.6262 22.8249 10.5935 22.86 10.5597 22.8942C10.4139 23.0493 10.268 23.2053 10.1262 23.3624L10.0845 23.4073C9.9337 23.5757 9.78488 23.7458 9.63805 23.9174L9.53884 24.0345C9.39333 24.2062 9.2498 24.3798 9.10826 24.5554L9.06461 24.611C8.93233 24.7742 8.80368 24.9388 8.67868 25.1046L8.59236 25.2178C8.45843 25.3943 8.32747 25.5728 8.19552 25.7533L8.12012 25.8606C8.00305 26.0264 7.8873 26.1932 7.77288 26.361L7.71732 26.443C7.59331 26.6283 7.47227 26.8146 7.35222 27.0029L7.27186 27.1307C7.15182 27.3258 7.03276 27.516 6.91768 27.7101C6.91768 27.7101 6.91768 27.7199 6.90974 27.7238C6.79565 27.9189 6.68552 28.1091 6.57738 28.3042L6.50496 28.433C6.39781 28.6281 6.29298 28.8232 6.19046 29.0183C6.17359 29.0495 6.15772 29.0817 6.14085 29.1158C6.04859 29.2963 5.95731 29.4777 5.86902 29.6611C5.85116 29.6972 5.8333 29.7323 5.81643 29.7684C5.72053 29.9694 5.62694 30.1713 5.53567 30.3742L5.51086 30.4269C6.30703 26.1808 8.20121 22.2077 11.0111 18.8898C11.2185 18.6449 11.4328 18.4021 11.651 18.164C13.9098 15.7024 16.6405 13.7034 19.6866 12.2816C22.7326 10.8597 26.0342 10.043 29.4019 9.87827V9.87827ZM64.0048 27.5989C63.9031 27.4332 63.848 27.2438 63.8451 27.0503C63.8422 26.8567 63.8916 26.6659 63.9882 26.4973C64.0849 26.3286 64.2253 26.1882 64.3952 26.0904C64.5651 25.9926 64.7584 25.9409 64.9552 25.9406C65.0463 25.9405 65.1369 25.9517 65.2251 25.9738C65.4022 26.0173 65.5657 26.1031 65.7011 26.2235C65.8365 26.3439 65.9397 26.4953 66.0014 26.6642C66.0632 26.8332 66.0816 27.0145 66.0551 27.1921C66.0287 27.3697 65.9581 27.5382 65.8496 27.6826C65.7412 27.8271 65.5982 27.943 65.4334 28.0202C65.2685 28.0973 65.0869 28.1334 64.9045 28.1251C64.7221 28.1168 64.5446 28.0645 64.3877 27.9727C64.2308 27.8809 64.0993 27.7526 64.0048 27.5989V27.5989Z" fill="#E8E8E8"/>
</svg>
