<svg width="24" height="17" viewBox="0 0 24 17" fill="none" xmlns="http://www.w3.org/2000/svg">
<path fill-rule="evenodd" clip-rule="evenodd" d="M9.98561 0H17.0236L18.8834 3.13035H23.9999V17H8.50693V15.9996H22.9999V4.13079H18.1211L16.2613 1.00044H10.7479L8.88807 4.13079H3.50935V7.38175H2.50935V3.13035H8.12579L9.98561 0ZM13.5047 6.0003C11.5727 6.0003 10.0065 7.56716 10.0065 9.49997C10.0065 11.4328 11.5727 12.9996 13.5047 12.9996C15.4366 12.9996 17.0028 11.4328 17.0028 9.49997C17.0028 7.56716 15.4366 6.0003 13.5047 6.0003ZM9.00655 9.49997C9.00655 7.01463 11.0204 4.99986 13.5047 4.99986C15.9889 4.99986 18.0028 7.01463 18.0028 9.49997C18.0028 11.9853 15.9889 14.0001 13.5047 14.0001C11.0204 14.0001 9.00655 11.9853 9.00655 9.49997ZM2.50935 12.9996V10.3924H3.50935V12.9996H6.01869V14.0001H3.50935V16.4998H2.50935V14.0001H0V12.9996H2.50935Z" fill="#202020"/>
</svg>
