<svg width="20" height="20" viewBox="0 0 20 20" fill="none" xmlns="http://www.w3.org/2000/svg">
<path fill-rule="evenodd" clip-rule="evenodd" d="M9.96854 0L19.9371 4.36977L19.8857 4.80356L19.3004 4.73419C19.8857 4.80356 19.8857 4.80346 19.8857 4.80356L19.8851 4.80861L19.8835 4.82148L19.8775 4.86993C19.8721 4.91208 19.8642 4.9736 19.8535 5.05249C19.8323 5.21025 19.8001 5.43764 19.7565 5.71864C19.6693 6.28024 19.5359 7.05805 19.3508 7.92338C18.985 9.63323 18.4022 11.7611 17.5371 13.2166C16.5253 14.9192 14.6849 16.5732 13.1487 17.7774C12.3721 18.3861 11.6567 18.8925 11.1353 19.2468C10.8744 19.4241 10.6616 19.5636 10.5134 19.6593C10.4392 19.7071 10.3812 19.744 10.3414 19.7691L10.2955 19.798L10.2832 19.8056L10.2798 19.8077L10.2788 19.8083C10.2787 19.8084 10.2783 19.8086 9.96854 19.3072C9.65876 19.8086 9.65868 19.8086 9.65857 19.8085L9.65726 19.8077L9.65389 19.8056L9.64163 19.798L9.59573 19.7691C9.55587 19.744 9.49785 19.7071 9.42371 19.6593C9.27546 19.5636 9.06264 19.4241 8.80175 19.2468C8.28037 18.8925 7.565 18.3861 6.78842 17.7774C5.25218 16.5732 3.41182 14.9192 2.39995 13.2166C1.53491 11.7611 0.952056 9.63323 0.586283 7.92338C0.40117 7.05805 0.26776 6.28024 0.180582 5.71864C0.136962 5.43764 0.104836 5.21025 0.0835399 5.05249C0.0728903 4.9736 0.0649441 4.91208 0.0596188 4.86993L0.0535848 4.82148L0.0520217 4.80861L0.051479 4.80408C0.051466 4.80397 0.0514173 4.80356 0.6367 4.73419L0.051479 4.80408L0 4.36977L9.96854 0ZM1.2796 5.09589C1.29729 5.22038 1.31918 5.36895 1.34539 5.53783C1.43006 6.08325 1.55961 6.83839 1.73896 7.6768C2.10212 9.37444 2.65422 11.3372 3.41326 12.6144C4.30657 14.1175 5.99717 15.6594 7.51561 16.8496C8.26636 17.4381 8.95926 17.9286 9.46431 18.2718C9.66516 18.4083 9.83599 18.5213 9.96854 18.6077C10.1011 18.5213 10.2719 18.4083 10.4728 18.2718C10.9778 17.9286 11.6707 17.4381 12.4215 16.8496C13.9399 15.6594 15.6305 14.1175 16.5238 12.6144C17.2829 11.3372 17.835 9.37444 18.1981 7.6768C18.3775 6.83839 18.507 6.08325 18.5917 5.53783C18.6179 5.36895 18.6398 5.22038 18.6575 5.09589L9.96854 1.28704L1.2796 5.09589ZM9.96854 19.3072L9.65857 19.8085L9.96854 20L10.2788 19.8083L9.96854 19.3072ZM13.4959 8.52575L9.37328 12.6484L6.46982 10.1079L7.24604 9.22075L9.31956 11.0351L12.6624 7.69224L13.4959 8.52575Z" fill="#D61635"/>
</svg>
