<svg width="35" height="30" viewBox="0 0 35 30" fill="none" xmlns="http://www.w3.org/2000/svg">
<path fill-rule="evenodd" clip-rule="evenodd" d="M17.5599 1.2C11.668 1.2 6.68433 5.3211 5.18519 10.9623L4.02544 10.6541C5.6542 4.52517 11.0855 0 17.5599 0C24.884 0 30.8699 5.78686 31.5331 13.1433L33.3528 11.3742L34.1893 12.2345L31.4124 14.9343L30.9942 15.3409L30.5759 14.9343L27.7991 12.2345L28.6356 11.3742L30.3138 13.0058C29.595 6.34831 24.1426 1.2 17.5599 1.2ZM4.12552 13.6673L4.54377 14.0739L7.67218 17.1154L6.83568 17.9758L4.80588 16.0024C5.52472 22.6599 10.9771 27.8082 17.5599 27.8082C23.3591 27.8082 28.2782 23.816 29.8612 18.3109L31.0145 18.6425C29.2944 24.6242 23.9322 29.0082 17.5599 29.0082C10.2358 29.0082 4.24979 23.2214 3.58657 15.8649L1.41535 17.9758L0.578857 17.1154L3.70727 14.0739L4.12552 13.6673ZM17.517 14.5041H12.8907V13.8591L15.3347 11.1435C15.6968 10.7329 15.9458 10.3999 16.0816 10.1445C16.2206 9.88589 16.2901 9.61918 16.2901 9.34438C16.2901 8.97583 16.1785 8.67355 15.9555 8.43755C15.7324 8.20155 15.435 8.08355 15.0632 8.08355C14.617 8.08355 14.2695 8.21125 14.0206 8.46665C13.7749 8.71881 13.652 9.0712 13.652 9.52381H12.7549C12.7549 8.87399 12.9634 8.34865 13.3805 7.94776C13.8007 7.54688 14.3616 7.34644 15.0632 7.34644C15.7195 7.34644 16.2383 7.5194 16.6198 7.86532C17.0013 8.20801 17.1921 8.66547 17.1921 9.2377C17.1921 9.93277 16.7491 10.7604 15.8633 11.7206L13.9721 13.7719H17.517V14.5041ZM21.4159 14.5041H20.5139V8.52484L18.7051 9.1892V8.37451L21.2752 7.40948H21.4159V14.5041ZM14.7372 19.9819C15.0941 20.3544 15.557 20.5406 16.126 20.5406C16.8295 20.5406 17.3571 20.2703 17.7089 19.7298L17.2705 19.3884C17.1386 19.5591 16.9847 19.6962 16.8088 19.7996C16.633 19.9031 16.4183 19.9548 16.1648 19.9548C15.8079 19.9548 15.5131 19.8281 15.2803 19.5746C15.0501 19.3186 14.9299 18.9836 14.9195 18.5698H17.7632V18.2711C17.7632 17.6012 17.6119 17.0866 17.3093 16.7271C17.0067 16.3676 16.5825 16.1878 16.0368 16.1878C15.7032 16.1878 15.3928 16.2809 15.1057 16.4671C14.8212 16.6508 14.5988 16.9068 14.4385 17.2353C14.2807 17.5611 14.2018 17.9323 14.2018 18.3487V18.4806C14.2018 19.1065 14.3803 19.6069 14.7372 19.9819ZM15.3075 17.0956C15.504 16.8835 15.7471 16.7775 16.0368 16.7775C16.3368 16.7775 16.5748 16.8784 16.7506 17.0801C16.9265 17.2792 17.0248 17.5611 17.0455 17.9258V17.9801H14.9428C14.9893 17.5999 15.1109 17.3051 15.3075 17.0956ZM10.0408 19.5707L9.79253 19.8772H9.46665L9.46277 21.6967H10.1805V20.463H13.1095V21.6967H13.8272V19.8772H13.288V16.2654H10.5839L10.518 17.9413C10.4792 18.6655 10.3201 19.2086 10.0408 19.5707ZM12.5702 19.8772H10.6421C10.9939 19.4142 11.1917 18.7651 11.2357 17.9297L11.2784 16.9288H12.5702V19.8772ZM21.7884 20.463H21.0707V18.6707H19.1426V20.463H18.421V16.2654H19.1426V18.0849H21.0707V16.2654H21.7884V20.463ZM24.5799 17.7124H23.4898V16.2654H22.7721V20.463H24.5489C25.0299 20.463 25.4127 20.3363 25.6972 20.0828C25.9817 19.8294 26.124 19.4931 26.124 19.0741C26.124 18.6577 25.9856 18.328 25.7089 18.0849C25.4321 17.8418 25.0558 17.7176 24.5799 17.7124ZM23.4898 19.8772V18.2982H24.5838C24.8424 18.3034 25.0429 18.381 25.1851 18.531C25.33 18.6784 25.4024 18.8685 25.4024 19.1013C25.4024 19.3418 25.3287 19.5319 25.1812 19.6716C25.0338 19.8087 24.8256 19.8772 24.5566 19.8772H23.4898Z" fill="black"/>
</svg>
