<svg width="21" height="15" viewBox="0 0 21 15" fill="none" xmlns="http://www.w3.org/2000/svg">
<path d="M13.7576 7.31115L20.5001 11.5737V2.86862L13.7576 7.31115Z" fill="#D61635"/>
<path d="M0.5 2.86862V11.5737L7.24254 7.31115L0.5 2.86862Z" fill="#D61635"/>
<path d="M19.25 0.333328H1.74986C1.12611 0.333328 0.631104 0.798331 0.537354 1.39708L10.4999 7.96088L20.4625 1.39708C20.3687 0.798331 19.8737 0.333328 19.25 0.333328Z" fill="#D61635"/>
<path d="M12.6126 8.06573L10.8439 9.23074C10.7389 9.29949 10.6201 9.33324 10.5001 9.33324C10.3801 9.33324 10.2613 9.29949 10.1563 9.23074L8.38759 8.06448L0.540039 13.0283C0.63629 13.622 1.12879 14.0833 1.75005 14.0833H19.2502C19.8714 14.0833 20.3639 13.622 20.4602 13.0283L12.6126 8.06573Z" fill="#D61635"/>
</svg>
