<svg id="Слой_1" data-name="Слой 1" xmlns="http://www.w3.org/2000/svg" viewBox="0 0 32 32"><defs><style>.cls-1{fill:#202020;}.cls-2{fill:#d61635;}.cls-3{fill:#f7667d;}.cls-4{fill:#fff;}</style></defs><title>32х32</title><path class="cls-1" d="M0,3.81A1.86,1.86,0,0,1,1.86,2H30.14A1.86,1.86,0,0,1,32,3.81V7H0Z"/><path class="cls-2" d="M32,3.81V30.05H3.89V2H30.13A1.86,1.86,0,0,1,32,3.81Z"/><path class="cls-3" d="M4.23,2.64a.18.18,0,0,1,.17-.17H30.08a1.32,1.32,0,0,1,1.24.88H4.4a.17.17,0,0,1-.17-.17Z"/><path class="cls-4" d="M22,12.15a2.28,2.28,0,0,0,.2-3,1.53,1.53,0,0,0-1.64-.5A2.71,2.71,0,0,0,19,9.74a2.46,2.46,0,0,0-.38.86,6.35,6.35,0,0,0-.16.92c0,.23,0,.44-.05.61h-.92c0-.17,0-.38-.05-.61a6.35,6.35,0,0,0-.16-.92,2.66,2.66,0,0,0-.38-.86A2.71,2.71,0,0,0,15.3,8.68a1.55,1.55,0,0,0-1.65.5,2.3,2.3,0,0,0,.21,3H10.71v3.46h6.78V13.23h.9v2.38h6.78V12.15Zm-6-.09a3.23,3.23,0,0,1-1.56-.55,1.4,1.4,0,0,1-.1-1.81.73.73,0,0,1,.78-.18,2,2,0,0,1,1.09.73,1.9,1.9,0,0,1,.24.58,6.5,6.5,0,0,1,.14.79c0,.19,0,.36,0,.51A5.5,5.5,0,0,1,16,12.06Zm5.43-.55a3.15,3.15,0,0,1-1.55.55,5.5,5.5,0,0,1-.63.07c0-.15,0-.32,0-.51a6.5,6.5,0,0,1,.14-.79,1.9,1.9,0,0,1,.24-.58,1.92,1.92,0,0,1,1.09-.73.73.73,0,0,1,.78.18A1.39,1.39,0,0,1,21.43,11.51Z"/><path class="cls-4" d="M11.73,16.22h5.76v7.16H11.73Zm6.66,0h5.76v7.16H18.39Z"/></svg>