<svg width="33" height="32" viewBox="0 0 33 32" fill="none" xmlns="http://www.w3.org/2000/svg">
<path fill-rule="evenodd" clip-rule="evenodd" d="M7.61111 0C3.68375 0 0.5 3.18375 0.5 7.11111V24.8889C0.5 28.8162 3.68375 32 7.61111 32H25.3889C29.3162 32 32.5 28.8162 32.5 24.8889V7.11111C32.5 3.18375 29.3162 0 25.3889 0H7.61111ZM16.4947 23.9902C11.9542 23.9902 8.27599 20.312 8.27599 15.7715C8.27599 11.2311 11.9542 7.55287 16.4947 7.55287C18.6744 7.55287 20.7648 8.41877 22.3061 9.96007C23.8474 11.5014 24.7133 13.5918 24.7133 15.7715C24.7133 17.9513 23.8474 20.0417 22.3061 21.583C20.7648 23.1243 18.6744 23.9902 16.4947 23.9902ZM25.0404 9.16532C23.9791 9.16532 23.124 8.30843 23.124 7.24887C23.124 6.99732 23.1735 6.74823 23.2698 6.51582C23.3661 6.28342 23.5072 6.07225 23.685 5.89437C23.8629 5.7165 24.0741 5.5754 24.3065 5.47913C24.5389 5.38287 24.788 5.33332 25.0395 5.33332C25.2911 5.33332 25.5402 5.38287 25.7726 5.47913C26.005 5.5754 26.2162 5.7165 26.3941 5.89437C26.5719 6.07225 26.713 6.28342 26.8093 6.51582C26.9056 6.74823 26.9551 6.99732 26.9551 7.24887C26.9551 8.30843 26.0982 9.16532 25.0404 9.16532ZM21.8333 15.7716C21.8333 18.7201 19.4431 21.1103 16.4946 21.1103C13.5462 21.1103 11.156 18.7201 11.156 15.7716C11.156 12.8231 13.5462 10.4329 16.4946 10.4329C19.4431 10.4329 21.8333 12.8231 21.8333 15.7716Z" fill="#969696"/>
</svg>
