<svg width="16" height="16" viewBox="0 0 16 16" fill="none" xmlns="http://www.w3.org/2000/svg">
<path d="M10.1502 9.85156L6.34757 7.62175C6.23325 7.5447 6.08364 7.5447 5.96928 7.62175C5.85686 7.69572 5.79532 7.82643 5.80999 7.96022V12.4199C5.79532 12.5536 5.85683 12.6844 5.96928 12.7583L6.14846 12.8181C6.21945 12.8195 6.28911 12.7986 6.34753 12.7583L10.1502 10.5285C10.3371 10.4352 10.413 10.2081 10.3197 10.0211C10.2831 9.94767 10.2235 9.88818 10.1502 9.85156ZM6.60639 11.723V8.65701L9.21448 10.19L6.60639 11.723Z" fill="white"/>
<path d="M13.9727 4.51599H2.02726C1.03766 4.51599 0.235462 5.31822 0.235462 6.30779V13.8733C0.235462 14.8629 1.0377 15.6651 2.02726 15.6651H13.9727C14.9623 15.6651 15.7645 14.8628 15.7645 13.8733V6.30779C15.7645 5.31819 14.9623 4.51599 13.9727 4.51599ZM14.9682 13.8733C14.9682 14.423 14.5225 14.8687 13.9727 14.8687H2.02726C1.47749 14.8687 1.03183 14.423 1.03183 13.8733V6.30779C1.03183 5.75802 1.47749 5.31236 2.02726 5.31236H13.9727C14.5225 5.31236 14.9682 5.75802 14.9682 6.30779V13.8733Z" fill="white"/>
<path d="M2.28602 3.32133H13.7337C13.9536 3.32133 14.1319 3.14306 14.1319 2.92315C14.1319 2.70323 13.9536 2.52496 13.7337 2.52496H2.28602C2.0661 2.52496 1.88784 2.70323 1.88784 2.92315C1.88784 3.14306 2.0661 3.32133 2.28602 3.32133Z" fill="white"/>
<path d="M3.97842 1.13139H12.0217C12.2416 1.13139 12.4199 0.953121 12.4199 0.733204C12.4199 0.513287 12.2416 0.335022 12.0217 0.335022H3.97842C3.7585 0.335022 3.58023 0.513287 3.58023 0.733204C3.58023 0.953121 3.75854 1.13139 3.97842 1.13139Z" fill="white"/>
</svg>
