<svg width="68" height="65" viewBox="0 0 68 65" fill="none" xmlns="http://www.w3.org/2000/svg">
<path d="M67.75 50.1221V44.099C67.75 44.091 67.75 44.084 67.75 44.077C67.75 44.0429 67.75 44.0078 67.75 43.9768C67.7158 42.6579 67.1683 41.4044 66.224 40.4831C65.2796 39.5618 64.013 39.0454 62.6937 39.0437H57.0273C55.7079 39.0456 54.4413 39.5623 53.497 40.4837C52.5527 41.4052 52.0052 42.6588 51.971 43.9778C51.971 44.0118 51.971 44.0469 51.971 44.078C51.971 44.085 51.971 44.092 51.971 44.1V46.2129L46.2265 42.48L46.6723 40.4924L50.5183 38.2392L64.6523 32.2883C64.798 32.2262 64.9278 32.1319 65.0319 32.0126C65.1359 31.8932 65.2117 31.7518 65.2534 31.599L66.8724 25.7463C66.9221 25.5669 66.9233 25.3775 66.876 25.1975C66.8286 25.0174 66.7344 24.8532 66.6029 24.7214L61.247 19.3666C61.117 19.2366 60.9551 19.1429 60.7776 19.095C60.6 19.047 60.413 19.0463 60.2352 19.0931L54.0669 20.7231L45.5612 12.8526L44.342 8.73002L47.0099 2.66688H54.3233C54.6023 2.66688 54.8699 2.55606 55.0672 2.35878C55.2644 2.1615 55.3753 1.89394 55.3753 1.61495C55.3753 1.33596 55.2644 1.0684 55.0672 0.871123C54.8699 0.673847 54.6023 0.563019 54.3233 0.563019H46.3186C46.1145 0.563151 45.9149 0.622593 45.744 0.734113C45.573 0.845634 45.4382 1.00443 45.3559 1.19117L43.229 6.02906C43.0714 5.93949 42.8933 5.89221 42.712 5.89181H25.28C25.0987 5.89221 24.9206 5.93949 24.763 6.02906L22.6391 1.19117C22.5568 1.00443 22.422 0.845634 22.251 0.734113C22.0801 0.622593 21.8805 0.563151 21.6764 0.563019L13.6747 0.563019C13.3957 0.563019 13.1281 0.673847 12.9308 0.871123C12.7336 1.0684 12.6227 1.33596 12.6227 1.61495C12.6227 1.89394 12.7336 2.1615 12.9308 2.35878C13.1281 2.55606 13.3957 2.66688 13.6747 2.66688H20.9881L23.656 8.73002L22.4327 12.8516L13.9111 20.7L7.7638 19.074C7.58605 19.0268 7.39903 19.0272 7.22145 19.075C7.04387 19.1228 6.88196 19.2165 6.75194 19.3465L1.3931 24.7074C1.26159 24.8389 1.16734 25.003 1.12 25.1829C1.07265 25.3628 1.07389 25.552 1.1236 25.7313L2.74258 31.58C2.78436 31.7326 2.86014 31.8738 2.96424 31.993C3.06834 32.1122 3.19806 32.2063 3.34368 32.2683L17.4696 38.2182L21.1975 40.4363L21.2305 40.4543C21.3265 40.5074 21.4041 40.5885 21.4529 40.6867L21.8326 42.4399L15.9859 46.2319V44.099C15.9859 44.091 15.9859 44.084 15.9859 44.077C15.9859 44.0439 15.9859 44.0108 15.9859 43.9768C15.953 42.657 15.406 41.4023 14.4616 40.4799C13.5171 39.5575 12.2498 39.0404 10.9296 39.0387H5.30929C3.96772 39.04 2.68149 39.5736 1.73294 40.5223C0.784401 41.4711 0.251061 42.7574 0.25 44.099L0.25 59.7367C0.251326 61.0781 0.784783 62.3642 1.7333 63.3127C2.68181 64.2612 3.96789 64.7947 5.30929 64.796H10.9266C12.268 64.7947 13.5541 64.2612 14.5026 63.3127C15.4511 62.3642 15.9846 61.0781 15.9859 59.7367V54.3268C16.0069 54.3148 16.029 54.3047 16.049 54.2917L23.3735 49.542L23.8944 51.9464C23.9454 52.1811 24.0752 52.3913 24.2622 52.542C24.4492 52.6927 24.6821 52.7749 24.9223 52.7749H43.0777C43.3165 52.7748 43.5483 52.6934 43.7347 52.5441C43.9212 52.3948 44.0512 52.1865 44.1036 51.9534L44.6405 49.553L51.6614 54.1154C51.7558 54.1762 51.8593 54.2216 51.968 54.2496V59.7327C51.9696 61.074 52.5031 62.36 53.4516 63.3084C54.4001 64.2569 55.686 64.7904 57.0273 64.792H62.6907C64.0321 64.7907 65.3182 64.2572 66.2667 63.3087C67.2152 62.3602 67.7487 61.0741 67.75 59.7327V50.115V50.1221ZM59.3696 48.5822C59.5206 48.6612 59.6886 48.7025 59.859 48.7025C60.0294 48.7025 60.1974 48.6612 60.3484 48.5822L65.6461 45.7951V49.4769L59.8595 52.5205L54.0719 49.4769V45.7951L59.3696 48.5822ZM54.0719 51.8572L59.3696 54.6434C59.5205 54.7229 59.6884 54.7645 59.859 54.7645C60.0296 54.7645 60.1975 54.7229 60.3484 54.6434L65.6461 51.8572V55.539L59.8595 58.5796L54.0719 55.536V51.8572ZM57.0273 41.1466H62.6907C63.3625 41.1475 64.014 41.377 64.5381 41.7972C65.0623 42.2174 65.4279 42.8033 65.575 43.4588L59.8645 46.4643L54.148 43.4588C54.2943 42.8036 54.659 42.2176 55.1822 41.7969C55.7053 41.3762 56.356 41.1458 57.0273 41.1436V41.1466ZM64.6854 25.7793L63.3659 30.5471L49.8341 36.2446H43.5606C43.4945 36.2318 43.4275 36.2251 43.3602 36.2245H42.9454L48.0678 24.485L60.1901 21.2791L64.6854 25.7793ZM27.3598 36.2285L24.4945 29.6474H43.5295L40.6482 36.2285H27.3598ZM46.0341 21.8431H21.9619L24.1299 14.5367H43.8661L46.0341 21.8431ZM46.002 23.947L44.4332 27.5436H23.5718L22.002 23.947H46.002ZM51.6574 21.3592L48.3454 22.2338L46.7354 16.8039L51.6574 21.3592ZM41.9266 7.99567L43.243 12.4328H24.754L26.0704 7.99567H41.9266ZM21.2676 16.7858L19.6567 22.2158L16.3245 21.3362L21.2676 16.7858ZM3.31463 25.7563L7.80889 21.262L19.9312 24.4679L25.0646 36.2285H18.1659L4.63405 30.5271L3.31463 25.7563ZM7.62956 48.5812C7.78095 48.6608 7.94942 48.7024 8.12046 48.7024C8.2915 48.7024 8.45997 48.6608 8.61136 48.5812L13.882 45.7981V49.4779L8.12046 52.5195L2.35386 49.4759V45.7961L7.62956 48.5812ZM2.35386 51.8572L7.62956 54.6414C7.78074 54.7216 7.94929 54.7636 8.12046 54.7636C8.29162 54.7636 8.46018 54.7216 8.61136 54.6414L13.882 51.8572V55.537L8.12046 58.5786L2.35386 55.534V51.8572ZM5.30929 41.1436H10.9266C11.5986 41.1442 12.2504 41.3737 12.7746 41.7941C13.2989 42.2146 13.6644 42.801 13.8109 43.4568L8.12046 46.4623L2.425 43.4568C2.57189 42.8011 2.93745 42.2149 3.46162 41.7946C3.98579 41.3742 4.63737 41.1446 5.30929 41.1436V41.1436ZM10.9266 62.6921H5.30929C4.52571 62.6914 3.77445 62.3797 3.22037 61.8256C2.66629 61.2716 2.35466 60.5203 2.35386 59.7367V57.9134L7.62956 60.6985C7.78095 60.7781 7.94942 60.8197 8.12046 60.8197C8.2915 60.8197 8.45997 60.7781 8.61136 60.6985L13.882 57.9154V59.7367C13.8812 60.5203 13.5696 61.2716 13.0155 61.8256C12.4615 62.3797 11.7102 62.6914 10.9266 62.6921ZM15.9859 51.8262V48.7395L22.3095 44.638L22.8966 47.343L15.9859 51.8262ZM25.7709 50.6721L23.4927 40.1467C23.4817 40.0978 23.4677 40.0496 23.4506 40.0025C23.232 39.4156 22.812 38.9256 22.2654 38.6199L21.7735 38.3324H41.1371C41.2001 38.3452 41.2642 38.3519 41.3285 38.3524H46.1694L45.2136 38.9125C45.0891 38.9854 44.9809 39.0832 44.8958 39.1997C44.8107 39.3162 44.7504 39.4489 44.7187 39.5897L42.2351 50.6721H25.7709ZM45.1314 47.366L45.7326 44.669L51.9039 48.6764C51.9239 48.6894 51.945 48.6994 51.965 48.7105V51.8061L45.1314 47.366ZM62.6907 62.6941H57.0273C56.2438 62.6931 55.4927 62.3814 54.9387 61.8274C54.3846 61.2733 54.0729 60.5222 54.0719 59.7387V57.9124L59.3696 60.6995C59.5206 60.7785 59.6886 60.8197 59.859 60.8197C60.0294 60.8197 60.1974 60.7785 60.3484 60.6995L65.6461 57.9124V59.7367C65.6453 60.5203 65.3337 61.2716 64.7796 61.8256C64.2256 62.3797 63.4743 62.6914 62.6907 62.6921V62.6941Z" fill="#E8E8E8"/>
</svg>
