<svg width="16" height="16" viewBox="0 0 16 16" fill="none" xmlns="http://www.w3.org/2000/svg">
<path d="M0.505001 15.5032L1.55482 11.7746C0.879724 10.6277 0.524283 9.32277 0.524283 7.98227C0.524283 3.85482 3.88221 0.496887 8.00967 0.496887C12.1371 0.496887 15.495 3.85482 15.495 7.98227C15.495 12.1097 12.1371 15.4677 8.00967 15.4677C6.72358 15.4677 5.46425 15.1385 4.35019 14.5134L0.505001 15.5032ZM4.54677 13.1516L4.77589 13.2915C5.74722 13.8844 6.86546 14.1979 8.00967 14.1979C11.437 14.1979 14.2252 11.4096 14.2252 7.98227C14.2252 4.55498 11.437 1.76666 8.00967 1.76666C4.58237 1.76666 1.79405 4.55498 1.79405 7.98227C1.79405 9.17647 2.13346 10.3361 2.77549 11.3359L2.92979 11.5762L2.32524 13.7234L4.54677 13.1516Z" fill="#249B06"/>
<path d="M5.90695 4.49837L5.42124 4.47189C5.26868 4.46356 5.11903 4.51454 5.00372 4.61471C4.76825 4.81919 4.39174 5.21452 4.2761 5.72967C4.10364 6.49778 4.37015 7.43835 5.05992 8.37892C5.74969 9.31949 7.03512 10.8244 9.30814 11.4671C10.0406 11.6743 10.6168 11.5346 11.0614 11.2502C11.4135 11.025 11.6562 10.6635 11.7437 10.2548L11.8212 9.89263C11.8458 9.7775 11.7874 9.66068 11.6804 9.6114L10.0389 8.85475C9.93235 8.80566 9.80599 8.8367 9.73432 8.92958L9.08988 9.76499C9.04121 9.8281 8.95788 9.85312 8.88263 9.82669C8.44131 9.67159 6.96302 9.05246 6.15187 7.48999C6.1167 7.42222 6.12544 7.33997 6.17534 7.28217L6.79123 6.56969C6.85415 6.49694 6.87005 6.39465 6.83223 6.30623L6.12464 4.65078C6.08697 4.56265 6.00256 4.50359 5.90695 4.49837Z" fill="#249B06"/>
</svg>
