<svg width="32" height="32" viewBox="0 0 32 32" fill="none" xmlns="http://www.w3.org/2000/svg">
<path d="M31 0H1C0.447715 0 0 0.448954 0 1.00277C0 1.55658 0.447715 2.00553 1 2.00553H31C31.5523 2.00553 32 1.55658 32 1.00277C32 0.448954 31.5523 0 31 0Z" fill="#5194DC"/>
<path fill-rule="evenodd" clip-rule="evenodd" d="M30.646 22.9519L17.646 31.5068C16.6466 32.1644 15.3534 32.1644 14.354 31.5068L1.35403 22.9519C0.508984 22.3958 0 21.4504 0 20.4368V7.01937C0 5.35793 1.34315 4.01107 3 4.01107H29C30.6569 4.01107 32 5.35793 32 7.01937V20.4368C32 21.4504 31.491 22.3958 30.646 22.9519ZM9.31676 17H10.9768V10.33H9.24676V14L6.54676 10.33H4.77676V17H6.49676V13.14L9.31676 17ZM17.0691 17H12.1791V10.33H17.0691V11.83H13.8991V12.87H16.9991V14.37H13.8991V15.5H17.0691V17ZM23.1578 17H24.9778L26.8878 10.33H24.9478L23.9478 14.78L22.8078 10.33H21.4878L20.3478 14.78L19.3378 10.33H17.4078L19.3178 17H21.1378L22.1478 12.82L23.1578 17Z" fill="#5194DC"/>
</svg>
