<svg width="24" height="18" viewBox="0 0 24 18" fill="none" xmlns="http://www.w3.org/2000/svg">
<path d="M23.2418 3.37922C23.0043 2.35006 22.2126 1.55839 21.1834 1.32089C19.3626 0.766723 12.0001 0.766724 12.0001 0.766724C12.0001 0.766724 4.71678 0.766723 2.81678 1.24172C1.86678 1.47922 0.995948 2.35006 0.758448 3.30006C0.283448 5.20006 0.283447 9.00006 0.283447 9.00006C0.283447 9.00006 0.283448 12.8001 0.758448 14.6209C0.995948 15.6501 1.86678 16.4417 2.81678 16.6792C4.63761 17.1542 12.0001 17.1542 12.0001 17.1542C12.0001 17.1542 19.3626 17.1542 21.1834 16.6792C22.2126 16.4417 23.0043 15.6501 23.2418 14.6209C23.7168 12.8001 23.7168 9.00006 23.7168 9.00006C23.7168 9.00006 23.7168 5.20006 23.2418 3.37922ZM9.62512 12.4834V5.43756L15.7209 8.92089L9.62512 12.4834Z" fill="#7A7A7A"/>
</svg>
