<svg width="30" height="30" viewBox="0 0 30 30" fill="none" xmlns="http://www.w3.org/2000/svg">
<path fill-rule="evenodd" clip-rule="evenodd" d="M6.51778 0C2.91811 0 0 2.91811 0 6.51778V22.8122C0 26.4119 2.91811 29.33 6.51778 29.33H22.8122C26.4119 29.33 29.33 26.4119 29.33 22.8122V6.51778C29.33 2.91811 26.4119 0 22.8122 0H6.51778ZM21.0404 9.31083C21.7384 9.49879 22.2887 10.0491 22.4765 10.7471C22.8256 12.0221 22.8122 14.6797 22.8122 14.6797C22.8122 14.6797 22.8122 17.3238 22.4767 18.5989C22.2887 19.2969 21.7385 19.8471 21.0404 20.035C19.7653 20.3707 14.665 20.3707 14.665 20.3707C14.665 20.3707 9.57796 20.3707 8.28954 20.0217C7.59148 19.8337 7.0413 19.2834 6.85333 18.5855C6.51778 17.3238 6.51778 14.6663 6.51778 14.6663C6.51778 14.6663 6.51778 12.0221 6.85333 10.7471C7.0411 10.0492 7.60491 9.48537 8.28944 9.2976C9.56454 8.96194 14.6648 8.96194 14.6648 8.96194C14.6648 8.96194 19.7653 8.96194 21.0404 9.31083ZM17.2822 14.6663L13.0409 12.2235V17.1091L17.2822 14.6663Z" fill="#FF0000"/>
</svg>
