<svg width="14" height="11" viewBox="0 0 14 11" fill="none" xmlns="http://www.w3.org/2000/svg">
<path d="M12.264 5.95833C12.264 8.25 11.004 9.625 8.75 10.1255L9.1875 10.9872L12.264 11C13.44 9.768 14 8.23533 14 6.41667C14 3.366 12.313 0.997333 9.625 0L7 7.79167L4.375 0C1.687 0.997333 0 3.366 0 6.41667C0 8.23533 0.6895 9.75608 1.8095 10.9881H4.81687L5.22375 10.1264C3.0625 9.625 1.75 8.25 1.75 5.95833C1.75 4.49167 2.1 3.3 3.052 2.36133C3.164 2.244 3.332 2.18533 3.5 2.244C3.5975 2.27674 3.68756 2.33007 3.76462 2.4007C3.84167 2.47134 3.90408 2.55777 3.948 2.65467L6.61325 10.9872H7.4375L10.108 2.70233C10.164 2.46767 10.332 2.35033 10.5 2.29167C10.724 2.233 10.836 2.29167 11.004 2.409C11.956 3.34767 12.264 4.55033 12.264 5.95833Z" fill="#B4228D"/>
</svg>
