<svg width="15" height="16" viewBox="0 0 15 16" fill="none" xmlns="http://www.w3.org/2000/svg">
<path fill-rule="evenodd" clip-rule="evenodd" d="M5.68965 1.53448H1.03448L1.03448 6.18965H5.68965V1.53448ZM1.03448 0.5C0.463154 0.5 0 0.963154 0 1.53448V6.18965C0 6.76098 0.463154 7.22414 1.03448 7.22414H5.68965C6.26098 7.22414 6.72414 6.76098 6.72414 6.18965V1.53448C6.72414 0.963154 6.26098 0.5 5.68965 0.5H1.03448Z" fill="black"/>
<path fill-rule="evenodd" clip-rule="evenodd" d="M5.68965 9.81033H1.03448L1.03448 14.4655H5.68965V9.81033ZM1.03448 8.77585C0.463154 8.77585 0 9.239 0 9.81033V14.4655C0 15.0368 0.463154 15.5 1.03448 15.5H5.68965C6.26098 15.5 6.72414 15.0368 6.72414 14.4655V9.81033C6.72414 9.239 6.26098 8.77585 5.68965 8.77585H1.03448Z" fill="black"/>
<path fill-rule="evenodd" clip-rule="evenodd" d="M13.9655 1.53448H9.31036L9.31036 6.18965H13.9655V1.53448ZM9.31036 0.5C8.73903 0.5 8.27588 0.963154 8.27588 1.53448V6.18965C8.27588 6.76098 8.73903 7.22414 9.31036 7.22414H13.9655C14.5369 7.22414 15 6.76098 15 6.18965V1.53448C15 0.963154 14.5369 0.5 13.9655 0.5H9.31036Z" fill="black"/>
<path fill-rule="evenodd" clip-rule="evenodd" d="M13.9655 9.81033H9.31036L9.31036 14.4655H13.9655V9.81033ZM9.31036 8.77585C8.73903 8.77585 8.27588 9.239 8.27588 9.81033V14.4655C8.27588 15.0368 8.73903 15.5 9.31036 15.5H13.9655C14.5369 15.5 15 15.0368 15 14.4655V9.81033C15 9.239 14.5369 8.77585 13.9655 8.77585H9.31036Z" fill="black"/>
</svg>
