<svg width="33" height="32" viewBox="0 0 33 32" fill="none" xmlns="http://www.w3.org/2000/svg">
<path fill-rule="evenodd" clip-rule="evenodd" d="M7.61111 0C3.68375 0 0.5 3.18375 0.5 7.11111V24.8889C0.5 28.8162 3.68375 32 7.61111 32H25.3889C29.3162 32 32.5 28.8162 32.5 24.8889V7.11111C32.5 3.18375 29.3162 0 25.3889 0H7.61111ZM24.0093 22.8307H26.3347L26.3333 22.8293C26.988 22.8293 27.328 22.4907 27.1013 21.8373C26.8973 21.1813 26.1307 20.2333 25.1373 19.104C24.863 18.7845 24.5194 18.4476 24.2147 18.1488C23.9167 17.8565 23.6559 17.6008 23.5333 17.4333C23.1946 16.98 23.2853 16.8 23.5333 16.3933C23.5333 16.3933 26.3787 12.3747 26.672 11.0187C26.8307 10.5213 26.672 10.1613 25.972 10.1613H23.6467C23.0587 10.1613 22.788 10.4773 22.6293 10.816C22.6293 10.816 21.4333 13.7067 19.7613 15.5813C19.22 16.1227 18.9707 16.304 18.6773 16.304C18.5427 16.304 18.316 16.1227 18.316 15.6267V10.996C18.316 10.4093 18.136 10.1387 17.6387 10.1387H13.98C13.62 10.1387 13.3933 10.4093 13.3933 10.6813C13.3933 10.8972 13.5157 11.0501 13.6719 11.2453C13.924 11.5602 14.264 11.9851 14.32 12.9613V16.396C14.32 17.14 14.184 17.276 13.8907 17.276C13.1 17.276 11.18 14.3627 10.0293 11.0427C9.80265 10.4107 9.57598 10.14 8.98932 10.14H6.66398C6.00932 10.14 5.87332 10.456 5.87332 10.7947C5.87332 11.4267 6.66532 14.476 9.55598 18.54C11.4746 21.3187 14.208 22.8093 16.6693 22.8093C18.16 22.8093 18.34 22.4707 18.34 21.9053V19.8053C18.34 19.1507 18.476 19.0147 18.9507 19.0147C19.2893 19.0147 19.8986 19.1947 21.276 20.528C21.7313 20.9895 22.0781 21.3761 22.362 21.6927C23.0644 22.4757 23.3827 22.8307 24.0093 22.8307Z" fill="#969696"/>
</svg>
