<svg width="16" height="16" viewBox="0 0 16 16" fill="none" xmlns="http://www.w3.org/2000/svg">
<path fill-rule="evenodd" clip-rule="evenodd" d="M6.84365 1.20888C6.39985 0.605152 5.73479 0.200379 5.08542 0.0571484C4.45002 -0.082999 3.69916 0.0108478 3.26142 0.60738C2.59296 1.51833 2.54004 2.98141 3.49341 3.82534H0V7.57491H7.4998V5.00002L8.5002 5V7.5749L16.0008 7.57491V3.82534L12.5066 3.82533C13.46 2.98141 13.407 1.51832 12.7386 0.60737C12.3008 0.0108381 11.55 -0.0830087 10.9146 0.0571386C10.2652 0.20037 9.60015 0.605143 9.15635 1.20887C8.95734 1.4796 8.8287 1.82081 8.74123 2.14658C8.65208 2.47864 8.59672 2.82962 8.56183 3.14405C8.53465 3.3891 8.51932 3.61729 8.51072 3.80469L7.48928 3.8047C7.48068 3.6173 7.46535 3.38911 7.43817 3.14406C7.40328 2.82963 7.34792 2.47865 7.25877 2.14659C7.1713 1.82082 7.04266 1.47961 6.84365 1.20888ZM5.85052 3.73004C6.10871 3.76799 6.35003 3.7909 6.54697 3.8047C6.53881 3.64223 6.5252 3.4508 6.50268 3.24786C6.47092 2.9616 6.42237 2.66119 6.34973 2.39064C6.27541 2.11381 6.18439 1.90119 6.08528 1.76636C5.78142 1.35301 5.31703 1.07208 4.88269 0.976281C4.43436 0.877395 4.14724 0.991179 4.02026 1.16422C3.56629 1.78286 3.60909 2.68762 4.13439 3.13544C4.49387 3.44189 5.17194 3.6303 5.85052 3.73004ZM11.1173 0.976271C10.683 1.07207 10.2186 1.353 9.91472 1.76635C9.81561 1.90118 9.72459 2.1138 9.65027 2.39063C9.57763 2.66118 9.52908 2.96159 9.49732 3.24785C9.4748 3.45079 9.46119 3.64222 9.45303 3.80469C9.64997 3.79089 9.89129 3.76798 10.1495 3.73003C10.8281 3.63029 11.5061 3.44188 11.8656 3.13543C12.3909 2.68761 12.4337 1.78285 11.9797 1.16421C11.8528 0.991169 11.5656 0.877386 11.1173 0.976271Z" fill="white"/>
<path fill-rule="evenodd" clip-rule="evenodd" d="M1.12945 8.23849H7.5V16H1.12945V8.23849ZM8.5002 8.23849H14.8711V16H8.5002V8.23849Z" fill="white"/>
</svg>
