<svg width="28" height="20" viewBox="0 0 28 20" fill="none" xmlns="http://www.w3.org/2000/svg">
<path d="M27.0167 3.49174C26.7417 2.30007 25.825 1.3834 24.6334 1.1084C22.525 0.466736 14 0.466736 14 0.466736C14 0.466736 5.56668 0.466735 3.36668 1.01674C2.26668 1.29174 1.25835 2.30007 0.98335 3.40007C0.43335 5.60007 0.43335 10.0001 0.43335 10.0001C0.43335 10.0001 0.43335 14.4001 0.98335 16.5084C1.25835 17.7001 2.26668 18.6167 3.36668 18.8917C5.47502 19.4417 14 19.4417 14 19.4417C14 19.4417 22.525 19.4417 24.6334 18.8917C25.825 18.6167 26.7417 17.7001 27.0167 16.5084C27.5667 14.4001 27.5667 10.0001 27.5667 10.0001C27.5667 10.0001 27.5667 5.60007 27.0167 3.49174ZM11.25 14.0334V5.87507L18.3084 9.90841L11.25 14.0334Z" fill="#FF0000"/>
</svg>
