<svg width="25" height="28" viewBox="0 0 25 28" fill="none" xmlns="http://www.w3.org/2000/svg">
<path d="M14.4667 2.35803C15.8417 2.35803 17.2167 2.35803 18.5917 2.35803C18.6833 4.00803 19.2333 5.65803 20.425 6.75803C21.6167 7.9497 23.2667 8.4997 24.9167 8.68303V12.9914C23.3583 12.8997 21.8917 12.6247 20.425 11.983C19.7833 11.708 19.2333 11.3414 18.6833 10.9747C18.6833 14.0914 18.6833 17.208 18.6833 20.233C18.5917 21.6997 18.1333 23.1664 17.2167 24.4497C15.8417 26.4664 13.4583 27.8414 10.9833 27.8414C9.42501 27.933 7.95835 27.4747 6.67501 26.7414C4.56668 25.458 3.00835 23.1664 2.82501 20.6914C2.82501 20.1414 2.82501 19.5914 2.82501 19.133C3.00835 17.1164 4.01668 15.1914 5.57501 13.908C7.31668 12.3497 9.79168 11.6164 12.0833 12.0747C12.0833 13.633 12.0833 15.1914 12.0833 16.7497C11.075 16.383 9.79168 16.4747 8.87501 17.1164C8.23335 17.5747 7.68334 18.2164 7.40835 18.9497C7.22501 19.4997 7.22501 20.0497 7.22501 20.6914C7.50001 22.433 9.15001 23.8997 10.8917 23.7164C12.0833 23.7164 13.1833 22.983 13.825 21.9747C14.0083 21.608 14.2833 21.2414 14.2833 20.8747C14.375 18.9497 14.375 17.1164 14.375 15.1914C14.4667 10.883 14.4667 6.66636 14.4667 2.35803Z" fill="#FE2C55"/>
<path d="M12.5417 0.433167C13.9167 0.433167 15.2917 0.433167 16.6667 0.433167C16.7584 2.08317 17.3084 3.73317 18.5 4.83317C19.6917 6.02483 21.3417 6.57483 22.9917 6.75817V11.0665C21.4334 10.9748 19.9667 10.6998 18.5 10.0582C17.8584 9.78317 17.3084 9.4165 16.7584 9.04983C16.7584 12.1665 16.7584 15.2832 16.7584 18.3082C16.6667 19.7748 16.2084 21.2415 15.2917 22.5248C13.9167 24.5415 11.5334 25.9165 9.05836 25.9165C7.50002 26.0082 6.03336 25.5498 4.75002 24.8165C2.64169 23.5332 1.08336 21.2415 0.900024 18.7665C0.900024 18.2165 0.900024 17.6665 0.900024 17.2082C1.08336 15.1915 2.09169 13.2665 3.65002 11.9832C5.39169 10.4248 7.86669 9.6915 10.1584 10.1498C10.1584 11.7082 10.1584 13.2665 10.1584 14.8248C9.15002 14.4582 7.86669 14.5498 6.95002 15.1915C6.30836 15.6498 5.75836 16.2915 5.48336 17.0248C5.30002 17.5748 5.30002 18.1248 5.30002 18.7665C5.57502 20.5082 7.22502 21.9748 8.96669 21.7915C10.1584 21.7915 11.2584 21.0582 11.9 20.0498C12.0834 19.6832 12.3584 19.3165 12.3584 18.9498C12.45 17.0248 12.45 15.1915 12.45 13.2665C12.5417 8.95817 12.5417 4.7415 12.5417 0.433167Z" fill="#25F4EE"/>
<path d="M13.55 1.25818C14.925 1.25818 16.3 1.25818 17.675 1.25818C17.7667 2.90818 18.3167 4.55818 19.5083 5.65818C20.7 6.84984 22.35 7.39984 24 7.58318V11.8915C22.4417 11.7998 20.975 11.5248 19.5083 10.8832C18.8667 10.6082 18.3167 10.2415 17.7667 9.87484C17.7667 12.9915 17.7667 16.1082 17.7667 19.1332C17.675 20.5998 17.2167 22.0665 16.3 23.3498C14.925 25.3665 12.5417 26.7415 10.0667 26.7415C8.50833 26.8332 7.04166 26.3748 5.75833 25.6415C3.64999 24.3582 2.09166 22.0665 1.90833 19.5915C1.90833 19.0415 1.90833 18.4915 1.90833 18.0332C2.09166 16.0165 3.09999 14.0915 4.65833 12.8082C6.39999 11.2498 8.87499 10.5165 11.1667 10.9748C11.1667 12.5332 11.1667 14.0915 11.1667 15.6498C10.1583 15.2832 8.87499 15.3748 7.95833 16.0165C7.31666 16.4748 6.76666 17.1165 6.49166 17.8498C6.30833 18.3998 6.30833 18.9498 6.30833 19.5915C6.58333 21.3332 8.23333 22.7998 9.97499 22.6165C11.1667 22.6165 12.2667 21.8832 12.9083 20.8748C13.0917 20.5082 13.3667 20.1415 13.3667 19.7748C13.4583 17.8498 13.4583 16.0165 13.4583 14.0915C13.55 9.78318 13.55 5.56651 13.55 1.25818Z" fill="black"/>
</svg>
