<svg width="12" height="12" viewBox="0 0 12 12" fill="none" xmlns="http://www.w3.org/2000/svg">
<path fill-rule="evenodd" clip-rule="evenodd" d="M5.13247 0.906659C4.79964 0.453864 4.30087 0.150284 3.81387 0.0428613C3.33735 -0.0622492 2.77423 0.00813586 2.44594 0.455535C1.94462 1.13875 1.90493 2.23606 2.61992 2.869H0V5.68119H5.62456V3.75002L6.37482 3.75V5.68118L12 5.68119V2.869L9.37946 2.86899C10.0944 2.23605 10.0548 1.13874 9.55344 0.455528C9.22515 0.00812857 8.66204 -0.0622565 8.18552 0.042854C7.69851 0.150277 7.19974 0.453857 6.86691 0.906652C6.71766 1.1097 6.62118 1.36561 6.55559 1.60993C6.48873 1.85898 6.44721 2.12222 6.42104 2.35804C6.40065 2.54182 6.38916 2.71297 6.38271 2.85352L5.61667 2.85352C5.61022 2.71298 5.59873 2.54183 5.57834 2.35805C5.55217 2.12222 5.51065 1.85898 5.44379 1.60994C5.3782 1.36561 5.28173 1.10971 5.13247 0.906659ZM4.38767 2.79753C4.5813 2.82599 4.76228 2.84318 4.90997 2.85352C4.90385 2.73167 4.89365 2.5881 4.87676 2.43589C4.85294 2.2212 4.81653 1.99589 4.76205 1.79298C4.70631 1.58536 4.63806 1.42589 4.56372 1.32477C4.33584 1.01475 3.98757 0.804062 3.66183 0.732211C3.3256 0.658046 3.11027 0.743384 3.01504 0.873167C2.67458 1.33715 2.70668 2.01572 3.10063 2.35158C3.37023 2.58142 3.87876 2.72273 4.38767 2.79753ZM8.33755 0.732203C8.01181 0.804055 7.66354 1.01475 7.43566 1.32476C7.36133 1.42588 7.29307 1.58535 7.23733 1.79298C7.18285 1.99589 7.14644 2.22119 7.12262 2.43588C7.10573 2.5881 7.09553 2.73166 7.08941 2.85352C7.2371 2.84317 7.41809 2.82599 7.61172 2.79752C8.12063 2.72272 8.62915 2.58141 8.89875 2.35157C9.2927 2.01571 9.3248 1.33714 8.98435 0.87316C8.88911 0.743377 8.67378 0.658039 8.33755 0.732203Z" fill="#202020"/>
<path fill-rule="evenodd" clip-rule="evenodd" d="M0.847043 6.17887H5.62471V12H0.847043V6.17887ZM6.37482 6.17887H11.1528V12H6.37482V6.17887Z" fill="#202020"/>
</svg>
