<svg width="44" height="54" viewBox="0 0 44 54" fill="none" xmlns="http://www.w3.org/2000/svg">
<path d="M26.6957 54L24.3478 43.4348L26.6349 40.2839L22 37.5652L17.3651 40.2839L19.6522 43.4348L17.3043 54H26.6957Z" fill="#202020"/>
<path fill-rule="evenodd" clip-rule="evenodd" d="M36.761 33.9873L27.8696 31.9352V29.6235C29.1243 28.6153 30.1131 27.2912 30.7184 25.7734C32.1835 25.6455 33.5655 24.9995 34.5622 23.903C35.5424 22.8254 36.0508 21.4096 36.0543 19.9565H36.087V10.7555C36.087 8.12683 34.4705 5.79104 32.0356 4.85386L31.1729 3.99119C30.5155 3.33373 29.8018 2.75422 29.0446 2.25267C28.8108 2.00047 27.3812 1.31798 26.6957 1.00826C25.0804 0.348505 23.3361 0 21.5374 0C14.0256 0 7.91304 6.1126 7.91304 13.6244V19.9565H7.94571C7.94915 21.4107 8.45758 22.8254 9.43775 23.903C10.4345 24.9995 11.8165 25.6455 13.2816 25.7734C13.6301 26.6458 13.5625 27.5136 16.1304 30.2283V31.9352L7.23896 33.9873C3.48851 34.8523 0.869564 38.1453 0.869564 41.9943V54H43.1304V41.9943C43.1304 38.1453 40.5115 34.8523 36.761 33.9873ZM19.8998 36.2824L17.0378 34.1363L16.2113 34.3266L16.9558 38.049L19.8998 36.2824ZM19.7897 51.6522H24.2091H26.5724H32.5652V42.2609H34.913V51.6522H40.7826V41.9943C40.7826 39.2453 38.9111 36.894 36.2326 36.2761L30.0764 34.8557L28.6927 41.7771L26.2365 40.3028L24.1753 39.0653L22 37.7601L19.8236 39.0653L17.7623 40.3017L15.3062 41.7759L13.9225 34.8546L7.7663 36.2749C5.08889 36.8923 3.21739 39.2441 3.21739 41.9943V51.6522H9.08696V42.2609H11.4348V51.6522H17.4276H19.7897ZM26.9633 34.1363L24.1014 36.2824L27.0465 38.049L27.791 34.3278L26.9633 34.1363ZM22 34.9239L25.5217 32.2826V31.0044C24.4338 31.4469 23.2456 31.6957 22 31.6957C20.7544 31.6957 19.5662 31.4469 18.4783 31.0044V32.2826L22 34.9239ZM14.9565 22.3043C14.9565 26.1889 18.1154 29.3478 22 29.3478C25.8846 29.3478 29.0435 26.1889 29.0435 22.3043V16.4348H27.1439L26.2142 14.5753C23.9884 15.7951 21.5002 16.4348 18.942 16.4348H14.9565V22.3043ZM11.1763 22.3256C11.5815 22.7704 12.098 23.0839 12.6591 23.2742C12.6265 22.9549 12.6087 22.6316 12.6087 22.3043V16.6881C11.3454 17.1673 10.4042 18.2788 10.2775 19.608C10.1812 20.6174 10.5016 21.5821 11.1763 22.3256ZM31.342 23.2742C31.902 23.0839 32.4196 22.7715 32.8249 22.3256C33.4995 21.5821 33.8188 20.6163 33.7225 19.6069C33.5958 18.2776 32.6546 17.1662 31.3913 16.687V22.3043C31.3913 22.6316 31.3735 22.9549 31.342 23.2742ZM31.0204 6.98272L30.7573 6.89559L29.5118 5.65003C27.3823 3.52059 24.5496 2.34783 21.5374 2.34783C15.3205 2.34783 10.2609 7.40746 10.2609 13.6244V15.3606C11.2995 14.5742 12.5886 14.087 13.9844 14.087H18.942C21.4778 14.087 23.9334 13.3429 26.0451 11.9363L27.1513 11.1992L28.5952 14.087H30.0156C31.4114 14.087 32.7005 14.5742 33.7391 15.3606V10.7555C33.7391 9.04165 32.646 7.52611 31.0204 6.98272Z" fill="#202020"/>
</svg>
