<svg width="15" height="12" viewBox="0 0 15 12" fill="none" xmlns="http://www.w3.org/2000/svg">
<path fill-rule="evenodd" clip-rule="evenodd" d="M14.3809 0.244467C14.3178 0.18758 14.2413 0.147594 14.1586 0.128233C14.0759 0.108872 13.9896 0.110767 13.9078 0.133742L0.771841 5.06602C0.674751 5.10027 0.59114 5.16464 0.533198 5.24974C0.475256 5.33484 0.446013 5.43623 0.449733 5.53912C0.452875 5.64105 0.488872 5.73924 0.552359 5.81905C0.615845 5.89887 0.703423 5.95603 0.802038 5.98202L4.01305 6.9886C4.01305 6.9886 4.86865 9.56547 5.31155 10.874C5.3378 10.9555 5.38364 11.0294 5.44507 11.089C5.50649 11.1487 5.58161 11.1924 5.66385 11.2163C5.74663 11.2352 5.83275 11.2342 5.91503 11.2132C5.99732 11.1922 6.0734 11.1518 6.13695 11.0955L7.95887 9.36415C7.95887 9.36415 10.0526 10.9042 11.2403 11.7498C11.3321 11.818 11.4395 11.8622 11.5527 11.8782C11.6659 11.8943 11.7814 11.8817 11.8885 11.8417C11.9956 11.8016 12.091 11.7354 12.1659 11.649C12.2408 11.5626 12.2929 11.4588 12.3174 11.3471C12.8308 8.94138 14.0689 2.87166 14.542 0.697431C14.558 0.614426 14.5516 0.528629 14.5233 0.448967C14.4949 0.369305 14.4458 0.298689 14.3809 0.244467ZM11.9651 2.45896L5.98596 7.8442L5.76451 9.90771L4.75793 6.65643L11.7436 2.19725C11.7736 2.16893 11.8132 2.15315 11.8544 2.15315C11.8956 2.15315 11.9352 2.16893 11.9651 2.19725C11.9842 2.21331 11.9995 2.23334 12.01 2.25595C12.0205 2.27855 12.0259 2.30317 12.0259 2.3281C12.0259 2.35303 12.0205 2.37766 12.01 2.40026C11.9995 2.42286 11.9842 2.4429 11.9651 2.45896Z" fill="#26A6E7"/>
</svg>
