<svg width="33" height="32" viewBox="0 0 33 32" fill="none" xmlns="http://www.w3.org/2000/svg">
<path fill-rule="evenodd" clip-rule="evenodd" d="M7.61111 0C3.68375 0 0.5 3.18375 0.5 7.11111V24.8889C0.5 28.8162 3.68375 32 7.61111 32H25.3889C29.3162 32 32.5 28.8162 32.5 24.8889V7.11111C32.5 3.18375 29.3162 0 25.3889 0H7.61111ZM23.4558 10.1584C24.2173 10.3635 24.8177 10.9639 25.0226 11.7255C25.4035 13.1165 25.3888 16.0161 25.3888 16.0161C25.3888 16.0161 25.3888 18.9008 25.0228 20.292C24.8177 21.0535 24.2174 21.6539 23.4558 21.8588C22.0646 22.2251 16.5 22.2251 16.5 22.2251C16.5 22.2251 10.9499 22.2251 9.54417 21.8443C8.78255 21.6392 8.18229 21.0389 7.97721 20.2774C7.61111 18.9008 7.61111 16.0014 7.61111 16.0014C7.61111 16.0014 7.61111 13.1165 7.97721 11.7255C8.18208 10.964 8.7972 10.3489 9.54406 10.144C10.9352 9.77778 16.4998 9.77778 16.4998 9.77778C16.4998 9.77778 22.0646 9.77778 23.4558 10.1584ZM14.7281 13.3363V18.6666L19.3555 16.0014L14.7281 13.3363Z" fill="#969696"/>
</svg>
