<svg width="16" height="16" viewBox="0 0 16 16" fill="none" xmlns="http://www.w3.org/2000/svg">
<path d="M15.0935 11.3754L12.9259 9.21236C12.1518 8.43983 10.8357 8.74887 10.5261 9.75312C10.2938 10.4484 9.51966 10.8347 8.82292 10.6802C7.27462 10.2939 5.18442 8.28533 4.79734 6.66302C4.56509 5.96772 5.02959 5.1952 5.72632 4.96347C6.73272 4.65446 7.04238 3.34117 6.26823 2.56864L4.1006 0.405575C3.48128 -0.135192 2.5523 -0.135192 2.0104 0.405575L0.539511 1.87337C-0.931375 3.41842 0.694342 7.5128 4.33285 11.1437C7.97136 14.7745 12.0744 16.4741 13.6227 14.929L15.0935 13.4612C15.6355 12.8432 15.6355 11.9162 15.0935 11.3754Z" fill="#D61635"/>
</svg>
