<svg width="36" height="28" viewBox="0 0 36 28" fill="none" xmlns="http://www.w3.org/2000/svg">
<path fill-rule="evenodd" clip-rule="evenodd" d="M27.1227 0H27.4083L27.5884 0.221644L35.2137 9.60667L35.348 9.772V9.98503V22.3029V22.9029H34.748H31.7908C31.4961 25.2186 29.5184 27.0088 27.1227 27.0088C24.7269 27.0088 22.7493 25.2186 22.4546 22.9029H14.1938C13.8991 25.2186 11.9215 27.0088 9.52577 27.0088C7.13001 27.0088 5.15239 25.2186 4.85771 22.9029H1.31387H0.713867V22.3029V0.6V0H1.31387H27.1227ZM27.1227 17.5969C29.5184 17.5969 31.4961 19.3872 31.7908 21.7029H34.148V10.1981L26.8371 1.2H1.91387V21.7029H4.85771C5.15239 19.3872 7.13001 17.5969 9.52577 17.5969C11.9215 17.5969 13.8991 19.3872 14.1938 21.7029H22.4546C22.7493 19.3872 24.7269 17.5969 27.1227 17.5969ZM30.6286 22.3029C30.6286 20.3666 29.059 18.7969 27.1227 18.7969C25.1864 18.7969 23.6167 20.3666 23.6167 22.3029C23.6167 24.2392 25.1864 25.8088 27.1227 25.8088C29.059 25.8088 30.6286 24.2392 30.6286 22.3029ZM13.0317 22.3029C13.0317 20.3666 11.462 18.7969 9.52577 18.7969C7.58948 18.7969 6.01982 20.3666 6.01982 22.3029C6.01982 24.2392 7.58948 25.8088 9.52577 25.8088C11.462 25.8088 13.0317 24.2392 13.0317 22.3029ZM9.62165 11.0112H11.9908V10.4024H9.62165V8.47138H12.3747V7.85873H8.87716V13.5044H9.62165V11.0112ZM14.011 11.2205H15.3371L16.5624 13.5044H17.3612V13.4579L16.0351 11.0616C16.3737 10.9323 16.6374 10.7372 16.8261 10.4761C17.0174 10.215 17.113 9.90865 17.113 9.55709C17.113 9.00389 16.9411 8.58254 16.5973 8.29301C16.2561 8.00349 15.7675 7.85873 15.1316 7.85873H13.2626V13.5044H14.011V11.2205ZM15.1549 10.6118H14.011V8.47138H15.151C15.5439 8.47397 15.8438 8.56832 16.0506 8.75444C16.26 8.94056 16.3647 9.20811 16.3647 9.55709C16.3647 9.87763 16.2548 10.1335 16.0351 10.3248C15.8179 10.5161 15.5245 10.6118 15.1549 10.6118ZM21.3512 10.8948H18.9044V12.8956H21.7467V13.5044H18.16V7.85873H21.7079V8.47138H18.9044V10.2861H21.3512V10.8948ZM23.4179 10.8948H25.8646V10.2861H23.4179V8.47138H26.2213V7.85873H22.6734V13.5044H26.2601V12.8956H23.4179V10.8948Z" fill="#202020"/>
</svg>
