<svg width="165" height="102" viewBox="0 0 165 102" fill="none" xmlns="http://www.w3.org/2000/svg">
<g opacity="0.46">
<path opacity="0.8" d="M164.885 33.5201L95.852 65.1064V31.5863L164.885 1.90735e-06V33.5201Z" fill="url(#paint0_linear)"/>
<path d="M152.101 53.227L95.852 79.4805V51.6196L152.101 25.3661V53.227Z" fill="#B9C3CD" fill-opacity="0.8"/>
<path d="M132.982 19.1139L96.052 36.0149V18.0791L132.982 1.17802V19.1139Z" fill="#B9C3CD" fill-opacity="0.8"/>
</g>
<g opacity="0.46">
<path opacity="0.8" d="M0.115383 68.4799L69.148 36.8936V70.4138L0.115383 102V68.4799Z" fill="url(#paint1_linear)"/>
<path d="M12.8992 48.773L69.148 22.5195V50.3804L12.8992 76.6339V48.773Z" fill="#B9C3CD" fill-opacity="0.8"/>
<path d="M32.0181 82.8862L68.948 65.9851V83.9209L32.0181 100.822V82.8862Z" fill="#B9C3CD" fill-opacity="0.8"/>
</g>
<ellipse cx="82.8977" cy="50.3377" rx="40.056" ry="39.7403" fill="#D61635"/>
<g clip-path="url(#clip0)">
<path fill-rule="evenodd" clip-rule="evenodd" d="M58.9615 35.1983C59.0062 34.9914 59.0918 34.7956 59.2133 34.6226C59.3347 34.4496 59.4895 34.3028 59.6685 34.191C59.8475 34.0792 60.0471 34.0047 60.2553 33.9719C60.4635 33.9391 60.6762 33.9487 60.8806 34L69.3351 36.032C69.6382 36.1036 69.9134 36.2639 70.1257 36.4927C70.3381 36.7214 70.4781 37.0084 70.528 37.3172L73.4845 57.8106H93.1942L95.096 52.9998L96.3408 49.8737L98.2599 45.063L99.1762 42.8747C99.6085 41.8847 100.162 41.9195 100.559 41.9368C100.815 41.9408 101.066 42.0059 101.291 42.1267C101.517 42.2475 101.71 42.4206 101.856 42.6315C101.996 42.8445 102.083 43.0881 102.11 43.342C102.137 43.5958 102.104 43.8524 102.012 44.0904L98.8477 52.0272L95.6838 60.0509C95.5663 60.3403 95.3651 60.5877 95.1062 60.761C94.8473 60.9344 94.5426 61.0258 94.2315 61.0235H72.1013C71.7278 61.0233 71.3667 60.888 71.0842 60.6425C70.8017 60.397 70.6166 60.0575 70.5626 59.6862L67.6061 38.8281L60.2064 37.0914C59.9994 37.0522 59.8024 36.9716 59.6269 36.8544C59.4515 36.7373 59.3013 36.586 59.1853 36.4094C59.0692 36.2329 58.9895 36.0347 58.9511 35.8267C58.9127 35.6186 58.9162 35.405 58.9615 35.1983ZM78.4292 65.8342C78.3976 66.7848 77.9923 67.684 77.3021 68.335C76.6119 68.986 75.693 69.3358 74.7466 69.3077C73.8295 69.3077 72.95 68.9417 72.3015 68.2903C71.6531 67.6389 71.2887 66.7555 71.2887 65.8342C71.2887 64.913 71.6531 64.0295 72.3015 63.3781C72.95 62.7267 73.8295 62.3608 74.7466 62.3608C75.2158 62.3446 75.6835 62.4217 76.1229 62.5877C76.5624 62.7537 76.9648 63.0054 77.307 63.3282C77.6492 63.651 77.9246 64.0386 78.1172 64.4687C78.3097 64.8988 78.4158 65.3628 78.4292 65.8342ZM91.6036 69.3077C92.2761 69.2637 92.9213 69.0232 93.4596 68.6158C93.9979 68.2083 94.4059 67.6518 94.6335 67.0145C94.8611 66.3772 94.8983 65.687 94.7406 65.0287C94.5829 64.3705 94.2371 63.7729 93.7457 63.3094C93.2544 62.846 92.6389 62.5369 91.975 62.4201C91.311 62.3034 90.6276 62.3841 90.0088 62.6524C89.3899 62.9206 88.8626 63.3647 88.4917 63.93C88.1208 64.4953 87.9224 65.1572 87.921 65.8342C87.9526 66.7848 88.3578 67.684 89.0481 68.335C89.7383 68.986 90.6572 69.3358 91.6036 69.3077Z" fill="white"/>
<path d="M77.7895 44.212C77.7895 40.3738 79.674 36.5356 83.9272 36.5356C88.1803 36.5356 90.0821 40.3738 90.0821 44.212C90.0821 48.0501 88.1803 51.9057 83.9617 51.9057C79.7432 51.9057 77.7895 48.0501 77.7895 44.212ZM86.8317 44.212C86.8317 41.4679 86.0364 39.3491 83.9272 39.3491C81.8179 39.3491 80.988 41.4679 80.988 44.212C80.988 46.956 81.7833 49.0922 83.9272 49.0922C86.071 49.0922 86.8317 46.956 86.8317 44.212Z" fill="white"/>
</g>
<defs>
<linearGradient id="paint0_linear" x1="97.4826" y1="41.8922" x2="165.535" y2="-1.12148" gradientUnits="userSpaceOnUse">
<stop stop-color="#B9C3CD"/>
<stop offset="1" stop-color="#B9C3CD" stop-opacity="0"/>
</linearGradient>
<linearGradient id="paint1_linear" x1="67.5173" y1="60.1078" x2="-0.534661" y2="103.122" gradientUnits="userSpaceOnUse">
<stop stop-color="#B9C3CD"/>
<stop offset="1" stop-color="#B9C3CD" stop-opacity="0"/>
</linearGradient>
<clipPath id="clip0">
<rect width="43.1538" height="35.3077" fill="white" transform="translate(58.9615 34)"/>
</clipPath>
</defs>
</svg>
