<svg width="16" height="16" viewBox="0 0 16 16" fill="none" xmlns="http://www.w3.org/2000/svg">
<path d="M13.4251 4.07355H2.57491C1.64387 4.07355 0.891876 4.82912 0.891876 5.75658V13.982C0.891876 14.913 1.64745 15.665 2.57491 15.665H13.4251C14.3561 15.665 15.1081 14.9094 15.1081 13.982V5.75658C15.1081 4.82554 14.3526 4.07355 13.4251 4.07355ZM1.63671 5.84968C1.64029 5.32687 2.03061 4.82196 2.557 4.82196H13.443C13.9658 4.82196 14.3597 5.32687 14.3597 5.84968V9.16203L10.0554 11.6866C9.64723 11.9337 9.12441 11.8871 8.76632 11.5756L6.63209 9.70634C5.97678 9.13339 5.00993 9.094 4.31165 9.61323L1.63671 11.5577V5.84968ZM14.3633 13.8924C14.3597 14.4188 13.9694 14.9237 13.443 14.9237H2.557C2.03419 14.9237 1.64029 14.4188 1.64029 13.896V12.4923L4.76285 10.2112C5.1854 9.90687 5.76193 9.93909 6.14867 10.2864L8.28289 12.1378C8.88449 12.657 9.74749 12.7394 10.435 12.3419L14.3633 10.0215V13.8924Z" fill="white"/>
<path d="M9.31068 6.16846C8.39039 6.16846 7.64555 6.91329 7.64555 7.83359C7.64555 8.75388 8.39039 9.49871 9.31068 9.49871C10.231 9.49871 10.9758 8.75388 10.9758 7.83359C10.9758 6.91329 10.231 6.16846 9.31068 6.16846ZM9.31068 8.7503C8.80577 8.7503 8.39397 8.3385 8.39397 7.83359C8.39397 7.32868 8.80219 6.91687 9.31068 6.91687C9.81559 6.91687 10.2274 7.32868 10.2274 7.83359C10.2274 8.3385 9.81559 8.7503 9.31068 8.7503Z" fill="white"/>
<path d="M13.819 2.20428H2.18101C1.97332 2.20428 1.80859 2.37259 1.80859 2.5767C1.80859 2.78439 1.97332 2.94912 2.18101 2.94912H13.819C14.0267 2.94912 14.1914 2.78081 14.1914 2.5767C14.1914 2.36901 14.0231 2.20428 13.819 2.20428Z" fill="white"/>
<path d="M12.8807 0.335022H3.1155C2.90781 0.335022 2.74309 0.503325 2.74309 0.707438C2.74309 0.91155 2.91139 1.07985 3.1155 1.07985H12.8807C13.0884 1.07985 13.2531 0.91155 13.2531 0.707438C13.2531 0.503325 13.0848 0.335022 12.8807 0.335022Z" fill="white"/>
</svg>
