<svg width="23" height="18" viewBox="0 0 23 18" fill="none" xmlns="http://www.w3.org/2000/svg">
<path fill-rule="evenodd" clip-rule="evenodd" d="M0 0H13.9698V1.21541H18.5058L21.2275 6.76327L22.9451 9.03742V15.2316H20.1613C19.8511 16.8119 18.4506 18 16.7761 18C15.1016 18 13.7011 16.8119 13.3909 15.2316H10.0981C9.78795 16.8119 8.38742 18 6.71291 18C5.0369 18 3.63537 16.8098 3.32689 15.2273L0 15.1505V0ZM3.30478 14.0397L1.18681 13.9908V1.18681H12.783V7.669H20.4243L21.7582 9.43524V14.0447H20.185C19.9303 12.3977 18.498 11.1413 16.7761 11.1413C15.0542 11.1413 13.6219 12.3977 13.3672 14.0447H10.1218C9.86713 12.3977 8.43477 11.1413 6.71291 11.1413C4.99282 11.1413 3.56163 12.3951 3.30478 14.0397ZM19.7677 6.48219L17.7661 2.40222H13.9698V6.48219H19.7677ZM6.71291 12.3281C5.45954 12.3281 4.45055 13.336 4.45055 14.5706C4.45055 14.5885 4.45076 14.6064 4.45118 14.6242C4.47964 15.8341 5.47773 16.8132 6.71291 16.8132C7.94809 16.8132 8.94618 15.8341 8.97465 14.6242C8.97506 14.6064 8.97528 14.5885 8.97528 14.5706C8.97528 13.336 7.96628 12.3281 6.71291 12.3281ZM16.7761 12.3281C15.5227 12.3281 14.5137 13.336 14.5137 14.5706C14.5137 14.5885 14.5139 14.6064 14.5144 14.6242C14.5428 15.8341 15.5409 16.8132 16.7761 16.8132C18.0113 16.8132 19.0094 15.8341 19.0378 14.6242C19.0383 14.6064 19.0385 14.5886 19.0385 14.5706C19.0385 13.336 18.0295 12.3281 16.7761 12.3281Z" fill="#D61635"/>
</svg>
