<svg width="20" height="17" viewBox="0 0 20 17" fill="none" xmlns="http://www.w3.org/2000/svg">
<path fill-rule="evenodd" clip-rule="evenodd" d="M0.353275 1.01034C0.451225 0.618537 0.848245 0.380325 1.24005 0.478275L4.95433 1.40685C5.24441 1.47937 5.46112 1.72119 5.50152 2.01746L6.80814 11.5993H15.413L16.2574 9.34729H8.95532C8.55146 9.34729 8.22407 9.0199 8.22407 8.61604C8.22407 8.21219 8.55146 7.88479 8.95532 7.88479H16.8057L17.6501 5.63301H9.88389C9.48003 5.63301 9.15264 5.30562 9.15264 4.90176C9.15264 4.4979 9.48003 4.17051 9.88389 4.17051H18.7053C18.9452 4.17051 19.1697 4.28812 19.3064 4.48524C19.443 4.68237 19.4742 4.93395 19.39 5.15852L16.6045 12.5873C16.4975 12.8727 16.2247 13.0618 15.9198 13.0618H6.16983C5.80416 13.0618 5.4947 12.7917 5.44529 12.4294L4.11932 2.70561L0.885337 1.89711C0.493537 1.79916 0.255325 1.40214 0.353275 1.01034ZM8.95555 15.3484C8.95555 16.2459 8.22801 16.9734 7.33055 16.9734C6.43309 16.9734 5.70555 16.2459 5.70555 15.3484C5.70555 14.451 6.43309 13.7234 7.33055 13.7234C8.22801 13.7234 8.95555 14.451 8.95555 15.3484ZM14.7589 16.9734C15.6563 16.9734 16.3839 16.2459 16.3839 15.3484C16.3839 14.451 15.6563 13.7234 14.7589 13.7234C13.8614 13.7234 13.1339 14.451 13.1339 15.3484C13.1339 16.2459 13.8614 16.9734 14.7589 16.9734Z" fill="#C4C4C4"/>
</svg>
