<?xml version="1.0" standalone="no"?>
<!DOCTYPE svg PUBLIC "-//W3C//DTD SVG 20010904//EN"
 "http://www.w3.org/TR/2001/REC-SVG-20010904/DTD/svg10.dtd">
<svg version="1.0" xmlns="http://www.w3.org/2000/svg"
 width="22" height="22" viewBox="0 0 512.000000 512.000000"
 preserveAspectRatio="xMidYMid meet">

<g transform="translate(0.000000,512.000000) scale(0.100000,-0.100000)"
fill="#c4302b" stroke="none">
<path d="M1345 4793 c-328 -18 -539 -100 -724 -282 -144 -143 -223 -289 -265
-493 -34 -162 -37 -350 -33 -1568 4 -1266 4 -1248 52 -1430 80 -304 347 -567
660 -648 178 -47 188 -47 1525 -47 1335 0 1343 0 1524 46 316 80 585 348 665
664 46 182 46 189 46 1525 0 1335 0 1343 -46 1524 -78 306 -332 569 -636 657
-181 53 -156 52 -1478 54 -676 1 -1257 0 -1290 -2z m1955 -1233 c411 -17 458
-26 533 -109 121 -134 176 -414 176 -896 1 -410 -41 -688 -125 -831 -36 -60
-115 -131 -161 -143 -105 -28 -246 -34 -1039 -38 -676 -4 -860 -2 -1044 11
-256 18 -278 25 -355 107 -82 88 -122 206 -155 467 -37 281 -21 823 29 1042
44 193 131 321 240 354 45 13 280 33 476 39 221 8 1219 5 1425 -3z"/>
<path d="M2270 2555 c0 -289 2 -525 4 -525 3 0 67 40 143 89 76 49 256 165
400 258 145 92 262 172 260 177 -2 7 -733 485 -789 517 -17 9 -18 -18 -18
-516z"/>
</g>
</svg>
