<svg width="32" height="32" viewBox="0 0 32 32" fill="none" xmlns="http://www.w3.org/2000/svg">
<path d="M31 0H1C0.447715 0 0 0.446311 0 0.996863C0 1.54742 0.447715 1.99373 1 1.99373H31C31.5523 1.99373 32 1.54742 32 0.996863C32 0.446311 31.5523 0 31 0Z" fill="#DC222C"/>
<path fill-rule="evenodd" clip-rule="evenodd" d="M30.4335 31.8229L17.6996 23.0958C16.6758 22.3942 15.3242 22.3942 14.3004 23.0958L1.56653 31.8229C0.903027 32.2776 0 31.8041 0 31.0014V6.97804C0 5.32639 1.34315 3.98745 3 3.98745H29C30.6569 3.98745 32 5.32639 32 6.97804V31.0014C32 31.8041 31.097 32.2776 30.4335 31.8229ZM10.3056 17H12.3356L10.0156 13.57L12.1856 10.33H10.1456L8.85559 12.42L7.54559 10.33H5.51559L7.69559 13.58L5.36559 17H7.40559L8.85559 14.76L10.3056 17ZM14.4934 17H12.8334V10.33H14.5534V14.26L17.2534 10.33H19.0334V17H17.3034V12.88L14.4934 17ZM21.7257 17H23.4457V11.83H25.3057V10.33H19.8557V11.83H21.7257V17Z" fill="#DC222C"/>
</svg>
