<svg width="62" height="64" viewBox="0 0 62 64" fill="none" xmlns="http://www.w3.org/2000/svg">
<path d="M61.8847 62.1214L59.9504 50.5075C59.9122 50.279 59.7928 50.0714 59.6132 49.9216C59.4337 49.7718 59.2059 49.6897 58.9704 49.6899H53.4614C53.2261 49.6899 52.9985 49.7721 52.8192 49.9219C52.6399 50.0717 52.5205 50.2792 52.4824 50.5075L52.2934 51.6224L46.723 46.0477L51.5261 43.4964C51.7519 43.3765 51.9214 43.1749 51.9986 42.9343L57.5899 33.423C57.6979 33.2388 57.7419 33.025 57.7151 32.8141C57.6883 32.6031 57.5923 32.4065 57.4415 32.2541L48.0487 22.7772L43.4402 12.6945L48.5344 13.618C48.5939 13.6291 48.6543 13.6347 48.7149 13.6347C48.8877 13.6348 49.0575 13.5903 49.2072 13.5056L54.4394 10.5659C54.5804 10.4866 54.6994 10.3745 54.7861 10.2395C54.8727 10.1044 54.9244 9.95049 54.9364 9.79125C54.9484 9.632 54.9205 9.47228 54.8551 9.32612C54.7897 9.17995 54.6888 9.0518 54.5613 8.95292L51.5271 6.60041C51.3668 6.47605 51.1715 6.40337 50.9677 6.39229L45.6306 6.09869C45.4727 6.08954 45.3148 6.1179 45.1704 6.18138L41.9311 7.60385L40.9332 3.13482C40.8939 2.95862 40.8055 2.79663 40.6781 2.66688C40.5506 2.53712 40.389 2.4447 40.2113 2.39989L31.2466 0.134713C31.0845 0.0938488 30.9145 0.0938488 30.7524 0.134713L21.7876 2.39989C21.6135 2.44372 21.4548 2.53328 21.3285 2.65897C21.2021 2.78466 21.1129 2.94175 21.0704 3.11345L19.9676 7.56018L16.8257 6.18138C16.6812 6.118 16.5234 6.08965 16.3655 6.09869L11.0284 6.39229C10.8249 6.40338 10.6298 6.47607 10.47 6.60041L7.43667 8.95292C7.30939 9.052 7.20876 9.18024 7.14358 9.32642C7.07839 9.47261 7.05065 9.63227 7.06277 9.79144C7.07489 9.95061 7.12651 10.1044 7.21311 10.2394C7.29971 10.3744 7.41865 10.4865 7.55951 10.5659L12.7917 13.5056C12.9414 13.5904 13.1112 13.635 13.284 13.6347C13.3455 13.6347 13.4069 13.6291 13.4673 13.618L18.3811 12.7084L13.9398 22.7883L4.55079 32.256C4.40004 32.4084 4.30398 32.605 4.2772 32.8159C4.25042 33.0269 4.2944 33.2407 4.40244 33.4248L10.1043 43.122C10.209 43.2989 10.3677 43.439 10.5578 43.5224L15.2883 46.031L9.70172 51.6141L9.51273 50.4991C9.47463 50.2708 9.35528 50.0633 9.17596 49.9135C8.99664 49.7638 8.76903 49.6815 8.53376 49.6815H3.02943C2.79401 49.6816 2.56629 49.7639 2.38695 49.9139C2.20762 50.0638 2.08835 50.2716 2.05046 50.5L0.11331 62.1214C0.0900162 62.261 0.0978782 62.4039 0.136351 62.5402C0.174824 62.6765 0.242988 62.803 0.336117 62.9108C0.429246 63.0186 0.545112 63.1053 0.675682 63.1647C0.806252 63.2241 0.948402 63.2549 1.09228 63.2549H10.4718C10.6157 63.2549 10.7579 63.2241 10.8884 63.1647C11.019 63.1053 11.1349 63.0186 11.228 62.9108C11.3211 62.803 11.3893 62.6765 11.4278 62.5402C11.4662 62.4039 11.4741 62.261 11.4508 62.1214L10.9396 59.0497L21.4087 50.5307V58.0249C21.4087 58.2837 21.5132 58.5318 21.6993 58.7148C21.8854 58.8977 22.1377 59.0005 22.4009 59.0005H39.599C39.862 59.0003 40.1143 58.8974 40.3003 58.7145C40.4863 58.5316 40.5909 58.2836 40.5912 58.0249V50.5261L51.0622 59.0497L50.5509 62.1214C50.5277 62.261 50.5355 62.4039 50.574 62.5402C50.6125 62.6765 50.6806 62.803 50.7738 62.9108C50.8669 63.0186 50.9827 63.1053 51.1133 63.1647C51.2439 63.2241 51.386 63.2549 51.5299 63.2549H60.9076C61.0515 63.2549 61.1936 63.2241 61.3242 63.1647C61.4548 63.1053 61.5706 63.0186 61.6638 62.9108C61.7569 62.803 61.825 62.6765 61.8635 62.5402C61.902 62.4039 61.9099 62.261 61.8866 62.1214H61.8847ZM2.25835 61.3038L3.86476 51.641H7.69464L9.30106 61.3038H2.25835ZM51.4297 56.8189L40.4343 47.8679C40.3992 47.8389 40.3619 47.8125 40.3228 47.7889L40.1196 47.6663L39.4818 47.2807L39.3769 47.2184L41.6391 44.7098L44.4626 46.568L51.9041 54.0121L51.4297 56.8189ZM16.8663 44.6578L12.6093 42.3973L15.619 39.4352L19.0369 43.2297L16.8663 44.6578ZM24.8984 46.7947L21.2792 42.7754L21.2707 42.767L17.0279 38.0555L19.0539 36.0607L27.9279 42.0312C28.0931 42.1419 28.2884 42.2011 28.4883 42.2012H33.5097C33.7096 42.2011 33.9049 42.1419 34.0701 42.0312L42.9441 36.0607L44.9729 38.0574L34.9621 49.1705H27.0359L24.8984 46.7947ZM45.1515 44.6727L42.9639 43.2325L46.3809 39.438L49.4047 42.4112L45.1515 44.6727ZM42.4669 9.50574L45.7601 8.06004L50.5443 8.32298L52.1772 9.58936L48.5382 11.6334L42.5907 10.5566L42.5293 10.2778L42.4669 9.50574ZM22.8573 4.14383L30.9999 2.08678L39.1265 4.14012L40.4494 10.0623L37.831 9.38774C37.6105 9.33079 37.3769 9.35048 37.1695 9.44349L30.9782 12.2002L24.6215 9.43978C24.4164 9.35046 24.1866 9.33212 23.9695 9.38774L21.3917 10.0511L22.8573 4.14383ZM13.4588 11.6334L9.82078 9.58936L11.4546 8.32298L16.2389 8.06004L19.4385 9.46486L19.2003 10.5714L13.4588 11.6334ZM20.752 12.2327L24.1368 11.3621L30.5823 14.1615C30.7099 14.2174 30.848 14.2462 30.9877 14.2462C31.1273 14.2462 31.2654 14.2174 31.393 14.1615L37.6675 11.3668L41.0542 12.2392L45.8413 22.7056L30.8563 27.7433L16.1406 22.7029L20.752 12.2327ZM15.0983 24.4152L25.5731 28.0601L30.3923 29.739C30.5396 29.7895 30.6969 29.8054 30.8516 29.7855C30.892 29.791 30.9327 29.7938 30.9735 29.7938C31.0845 29.794 31.1947 29.7758 31.2995 29.74L46.8912 24.4115L55.4902 33.0885L50.8117 41.0473L43.7539 34.104C43.59 33.9433 43.3743 33.8438 43.1438 33.8228C42.9133 33.8018 42.6826 33.8605 42.4915 33.9888L33.2026 40.2417H28.7954L19.4952 33.9888C19.304 33.8605 19.0733 33.8018 18.8428 33.8228C18.6124 33.8438 18.3966 33.9433 18.2327 34.104L11.1749 41.0473L6.49645 33.0875L15.0983 24.4152ZM17.5552 46.5513L20.3645 44.7015L20.8635 45.2589L22.6267 47.2166L22.6154 47.2231L21.7016 47.774C21.6604 47.7985 21.6212 47.8262 21.5845 47.8567L10.5682 56.8189L10.0958 54.0056L17.5552 46.5513ZM23.3903 57.0503V49.0423L23.9572 48.6994L25.8415 50.7927C25.9345 50.8961 26.0488 50.9789 26.1769 51.0356C26.3049 51.0924 26.4438 51.1217 26.5842 51.1216H35.4043C35.5447 51.1215 35.6835 51.0921 35.8115 51.0354C35.9396 50.9787 36.0539 50.896 36.1471 50.7927L38.037 48.6985L38.6039 49.0413V57.0494L23.3903 57.0503ZM52.6931 61.3047L54.2996 51.6419H58.1228L59.7292 61.3047H52.6931Z" fill="#E8E8E8"/>
</svg>
