<svg width="26" height="22" viewBox="0 0 26 22" fill="none" xmlns="http://www.w3.org/2000/svg">
<path d="M22.9834 0.825014C22.9834 0.825014 25.2751 -0.0916522 25.0917 2.10835C25.0001 3.02501 24.4501 6.14168 23.9917 9.53335L22.4334 19.6167C22.4334 19.6167 22.3417 21.0833 21.1501 21.3583C19.9584 21.6333 18.2167 20.4417 17.9417 20.1667C17.6667 19.9833 13.0834 17.05 11.5251 15.675C11.0667 15.3083 10.5167 14.4833 11.6167 13.6583L18.4001 7.24168C19.1334 6.50835 19.9584 4.67501 16.7501 6.87501L7.76672 13.0167C7.76672 13.0167 6.75839 13.6583 4.83338 13.1083L0.616717 11.825C0.616717 11.825 -0.941616 10.8167 1.71672 9.90001C8.13339 6.78335 16.0167 3.66668 22.9834 0.825014Z" fill="url(#paint0_linear)"/>
<defs>
<linearGradient id="paint0_linear" x1="0.178826" y1="11" x2="25.153" y2="11" gradientUnits="userSpaceOnUse">
<stop stop-color="#2AABEE"/>
<stop offset="1" stop-color="#229ED9"/>
</linearGradient>
</defs>
</svg>
