<svg width="11" height="13" viewBox="0 0 11 13" fill="none" xmlns="http://www.w3.org/2000/svg">
<path d="M7.63889 0C6.79512 0 6.11111 1.60494 6.11111 3.04938C6.11111 3.04938 9.16667 3.04938 9.16667 1.60494C9.16667 0.718555 8.48266 0 7.63889 0Z" fill="#D61635"/>
<path d="M3.36111 0C4.20488 0 4.88889 1.60494 4.88889 3.04938C4.88889 3.04938 1.83333 3.04938 1.83333 1.60494C1.83333 0.718555 2.51734 0 3.36111 0Z" fill="#D61635"/>
<path d="M0 4.01235H4.88889V7.22222H0V4.01235Z" fill="#D61635"/>
<path d="M0 8.50617H4.88889V13H0V8.50617Z" fill="#D61635"/>
<path d="M6.11111 4.01235H11V7.22222H6.11111V4.01235Z" fill="#D61635"/>
<path d="M6.11111 8.50617H11V13H6.11111V8.50617Z" fill="#D61635"/>
</svg>
