<svg width="30" height="30" viewBox="0 0 30 30" fill="none" xmlns="http://www.w3.org/2000/svg">
<path fill-rule="evenodd" clip-rule="evenodd" d="M14.8202 0L15.0611 0.105594L28.8892 6.16725L29.2965 6.34579L29.2442 6.7874L28.6484 6.71677C29.2442 6.7874 29.2442 6.7875 29.2442 6.78763L29.2441 6.78804L29.2439 6.78942L29.2433 6.79437L29.2411 6.81292L29.2323 6.88365C29.2245 6.94537 29.2128 7.03577 29.1971 7.15187C29.1658 7.38405 29.1184 7.7192 29.0541 8.13363C28.9255 8.96206 28.7287 10.1094 28.4558 11.3854C27.9143 13.9163 27.0578 17.0311 25.8005 19.1466C24.3286 21.6233 21.6363 24.0482 19.3639 25.8293C18.2192 26.7267 17.1643 27.4733 16.3955 27.9958C16.0109 28.2572 15.6974 28.4628 15.4793 28.6035C15.3703 28.6738 15.2851 28.7279 15.2268 28.7647L15.1599 28.8067L15.1423 28.8177L15.1375 28.8206L15.1362 28.8215L15.1358 28.8217C15.1357 28.8218 15.1356 28.8219 14.8202 28.3114C14.5048 28.8219 14.5047 28.8218 14.5046 28.8217L14.5042 28.8215L14.5029 28.8206L14.4981 28.8177L14.4805 28.8067L14.4136 28.7647C14.3553 28.7279 14.2701 28.6738 14.1611 28.6035C13.943 28.4628 13.6295 28.2572 13.2449 27.9958C12.4761 27.4733 11.4212 26.7267 10.2764 25.8293C8.00414 24.0482 5.31178 21.6233 3.83986 19.1466C2.58261 17.0311 1.72605 13.9163 1.18464 11.3854C0.911676 10.1094 0.71488 8.96206 0.58628 8.13363C0.521948 7.7192 0.4746 7.38405 0.443259 7.15187C0.427587 7.03577 0.415912 6.94537 0.408113 6.88365L0.399305 6.81292L0.397051 6.79437L0.396457 6.78942L0.396292 6.78804L0.396243 6.78763C0.396228 6.7875 0.396216 6.7874 0.992045 6.71677L0.396216 6.7874L0.343872 6.34579L0.751159 6.16725L14.5793 0.105594L14.8202 0ZM14.8202 28.3114L15.1356 28.8219L14.8202 29.0167L14.5048 28.8219L14.8202 28.3114ZM1.6453 7.08553C1.67533 7.30405 1.71738 7.5972 1.77208 7.94955C1.89812 8.76152 2.09099 9.88576 2.3581 11.1344C2.89684 13.6528 3.72209 16.5996 4.87144 18.5335C6.22265 20.8071 8.76256 23.1179 11.0167 24.8849C12.1352 25.7616 13.1672 26.4921 13.9194 27.0033C14.2953 27.2587 14.6008 27.4591 14.8116 27.5951L14.8202 27.6006L14.8288 27.5951C15.0396 27.4591 15.3451 27.2587 15.721 27.0033C16.4732 26.4921 17.5052 25.7616 18.6237 24.8849C20.8778 23.1179 23.4177 20.8071 24.769 18.5335C25.9183 16.5996 26.7436 13.6528 27.2823 11.1344C27.5494 9.88576 27.7423 8.76152 27.8683 7.94955C27.923 7.5972 27.9651 7.30405 27.9951 7.08553L14.8202 1.31023L1.6453 7.08553ZM15.5629 12.5078H14.6659V6.56121L12.8669 7.22194V6.4117L15.4231 5.45195H15.5629V12.5078ZM12.7869 17.296C12.7869 16.887 12.8666 16.5192 13.0261 16.1925C13.1881 15.8658 13.4119 15.6137 13.6974 15.4363C13.9855 15.2588 14.3135 15.17 14.6813 15.17C15.2498 15.17 15.7089 15.3668 16.0587 15.7604C16.4111 16.1539 16.5873 16.6773 16.5873 17.3307V17.3808C16.5873 17.7873 16.5088 18.1525 16.3519 18.4766C16.1976 18.7981 15.9751 19.0489 15.6845 19.229C15.3964 19.409 15.0646 19.4991 14.689 19.4991C14.1231 19.4991 13.664 19.3023 13.3116 18.9087C12.9618 18.5152 12.7869 17.9943 12.7869 17.3461V17.296ZM13.5045 17.3808C13.5045 17.8438 13.6113 18.2155 13.8248 18.4959C14.0408 18.7763 14.3289 18.9164 14.689 18.9164C15.0517 18.9164 15.3398 18.775 15.5533 18.492C15.7668 18.2065 15.8735 17.8078 15.8735 17.296C15.8735 16.8381 15.7642 16.4677 15.5456 16.1848C15.3295 15.8993 15.0414 15.7565 14.6813 15.7565C14.3289 15.7565 14.0447 15.8967 13.8286 16.1771C13.6125 16.4574 13.5045 16.8587 13.5045 17.3808ZM12.4319 15.8375H10.5066V19.4219H9.78897V15.2472H12.4319V15.8375ZM17.4168 18.5345L17.1699 18.8393H16.8458L16.8419 20.6488H17.5557V19.4219H20.4688V20.6488H21.1825V18.8393H20.6462V15.2472H17.957L17.8914 16.914C17.8528 17.6342 17.6946 18.1744 17.4168 18.5345ZM19.9324 18.8393H18.0149C18.3647 18.3789 18.5615 17.7332 18.6052 16.9024L18.6476 15.907H19.9324V18.8393Z" fill="black"/>
</svg>
