<svg width="100" height="100" viewBox="0 0 100 100" fill="none" xmlns="http://www.w3.org/2000/svg">
<path d="M100 25.1099V74.8899C99.9842 77.0012 99.1343 79.0207 97.6357 80.508C96.1372 81.9954 94.1114 82.83 92 82.8299H8C5.88862 82.83 3.86283 81.9954 2.36425 80.508C0.865676 79.0207 0.0158353 77.0012 0 74.8899L0 25.1099C0.0158353 22.9986 0.865676 20.9792 2.36425 19.4918C3.86283 18.0045 5.88862 17.1699 8 17.1699H92.1C94.194 17.196 96.1943 18.0422 97.6713 19.5267C99.1484 21.0113 99.9845 23.0158 100 25.1099Z" fill="#262626"/>
<path d="M90.8799 48.0001C90.4224 42.3464 87.9863 37.0351 83.9999 33.0001C83.5202 32.4986 83.0128 32.0245 82.4799 31.5801C78.1734 27.8673 72.6967 25.7902 67.0113 25.7134C61.3259 25.6366 55.7951 27.565 51.3899 31.1601C54.6273 34.2631 57.0106 38.148 58.3099 42.4401H56.3099C55.0467 38.631 52.8579 35.195 49.9399 32.4401C47.0987 35.1486 44.9545 38.504 43.6899 42.2201C43.6899 42.3001 43.6899 42.3801 43.6099 42.4601H41.6099C41.7899 41.8867 41.9799 41.3267 42.1799 40.7801C43.5492 37.1668 45.6927 33.897 48.4599 31.2001C44.7285 28.1419 40.1648 26.2747 35.3599 25.8401C34.6587 25.7714 33.9544 25.738 33.2499 25.7401C29.356 25.7131 25.5128 26.6243 22.0454 28.3965C18.5781 30.1688 15.5885 32.7499 13.3295 35.9218C11.0705 39.0936 9.60863 42.7628 9.06741 46.619C8.52618 50.4752 8.92157 54.4051 10.2201 58.0762C11.5187 61.7474 13.6822 65.0518 16.5277 67.71C19.3733 70.3683 22.8171 72.3022 26.568 73.3482C30.3189 74.3942 34.2666 74.5216 38.0771 73.7195C41.8876 72.9174 45.4489 71.2094 48.4599 68.7401C45.2647 65.6235 42.9085 61.7504 41.6099 57.4801H43.6099C44.8661 61.2829 47.0402 64.7175 49.9399 67.4801C52.8579 64.7252 55.0467 61.2891 56.3099 57.4801H58.3099C57.0257 61.7812 54.6564 65.6795 51.4299 68.8001C54.9866 71.6936 59.2905 73.52 63.8428 74.0676C68.3951 74.6151 73.0093 73.8614 77.1507 71.8938C81.2922 69.9261 84.7912 66.8252 87.2423 62.9503C89.6935 59.0753 90.9963 54.5851 90.9999 50.0001C90.9999 49.3201 90.9399 48.6601 90.8799 48.0001ZM30.6599 55.7201H27.5899L28.2999 52.0501L29.4099 46.1801L27.5299 50.4801L25.2499 55.7201H22.4599L21.9999 46.2301L20.1799 55.7201H17.3799L19.7299 43.3001H24.5299L24.7599 51.0001L27.0999 45.6601L28.0999 43.3201H33.0299L30.8699 54.5901L30.6599 55.7201ZM40.5499 55.7201H38.0599V54.7201C37.9455 54.8464 37.8181 54.9604 37.6799 55.0601C37.6603 55.0881 37.6323 55.1091 37.5999 55.1201C37.4943 55.2047 37.3804 55.2784 37.2599 55.3401C37.2373 55.3485 37.2125 55.3485 37.1899 55.3401C37.0492 55.4312 36.8982 55.505 36.7399 55.5601L36.2599 55.7101H36.2099L35.8899 55.7801H35.5999C35.3436 55.8006 35.0861 55.8006 34.8299 55.7801H34.4899C34.3818 55.774 34.2746 55.7572 34.1699 55.7301C34.0676 55.7128 33.9672 55.686 33.8699 55.6501C33.8 55.6373 33.7325 55.6137 33.6699 55.5801H33.5699C33.3755 55.5014 33.1962 55.3898 33.0399 55.2501C32.9713 55.2114 32.9103 55.1606 32.8599 55.1001C32.5161 54.7756 32.2731 54.359 32.1599 53.9001C32.1269 53.7787 32.1035 53.655 32.0899 53.5301C32.0801 53.3902 32.0801 53.2499 32.0899 53.1101C32.0899 50.6601 34.0899 49.2201 37.4699 49.2201C37.7899 49.2201 38.2199 49.2201 38.6999 49.2201C38.7745 49.0254 38.8118 48.8185 38.8099 48.6101C38.8099 47.9301 38.2799 47.7001 36.8099 47.7001C35.9743 47.6937 35.1402 47.7708 34.3199 47.9301L33.8899 48.0801L33.6099 48.1301L34.0299 45.8701C35.2138 45.5303 36.4382 45.3521 37.6699 45.3401C40.3199 45.3401 41.6699 46.3401 41.6699 48.2601C41.6617 48.9323 41.5881 49.6021 41.4499 50.2601L40.8299 54.0001L40.7499 54.6301L40.6399 55.1501V55.4901L40.5899 55.7601L40.5499 55.7201ZM47.4599 55.9101C46.8204 55.9173 46.1824 55.8468 45.5599 55.7001C44.5647 55.5235 43.6733 54.9768 43.0648 54.1698C42.4564 53.3628 42.1759 52.3554 42.2799 51.3501C42.2799 47.8901 44.5299 45.3501 47.6099 45.3501C47.9043 45.3494 48.1983 45.3695 48.4899 45.4101C49.2796 45.5176 50.0167 45.8669 50.5999 46.4101C50.9498 46.7432 51.2266 47.1455 51.4125 47.5914C51.5985 48.0373 51.6895 48.517 51.6799 49.0001C51.6737 49.8445 51.5595 50.6847 51.3399 51.5001H45.2599V51.8301C45.2599 52.9801 46.1199 53.6101 47.8899 53.6101C48.9735 53.621 50.0482 53.4135 51.0499 53.0001L50.5699 55.5001C50.2299 55.5901 49.8899 55.6601 49.5699 55.7201C48.875 55.8569 48.1681 55.9239 47.4599 55.9201V55.9101ZM54.6999 55.8601C54.1249 55.8692 53.55 55.8357 52.9799 55.7601C52.6399 55.7601 52.3399 55.7601 52.1599 55.7601H52.0899L51.6399 55.6301H51.4799L51.8699 53.2801C52.7673 53.5576 53.7005 53.7025 54.6399 53.7101C55.8599 53.7101 56.4299 53.4301 56.4299 52.8001C56.4299 52.3201 56.2399 52.1801 54.9999 51.6501C53.3599 51.0301 52.6399 50.1201 52.6399 48.8601C52.6255 48.3028 52.7564 47.7514 53.0199 47.2601C53.5999 46.1901 54.9099 45.4601 57.2899 45.4601C58.1954 45.4401 59.1012 45.4869 59.9999 45.6001L59.5699 47.9001C58.7999 47.8201 57.9399 47.7701 57.3699 47.7701C57.0563 47.7634 56.7433 47.8004 56.4399 47.8801C56.2781 47.9152 56.1324 48.003 56.0257 48.1296C55.919 48.2562 55.8571 48.4146 55.8499 48.5801C55.8499 49.0601 55.9899 49.2101 57.2799 49.6901C58.8599 50.3001 59.4899 51.1201 59.4899 52.5101C59.4899 54.3001 58.5499 55.3401 56.6299 55.7101C55.9936 55.8284 55.347 55.882 54.6999 55.8701V55.8601ZM62.5099 55.9101C62.1098 55.9188 61.712 55.8474 61.3399 55.7001C60.9453 55.5466 60.6122 55.2677 60.3917 54.9063C60.1713 54.5449 60.0757 54.1211 60.1199 53.7001C60.1311 53.3947 60.1646 53.0906 60.2199 52.7901L60.4099 51.7901L60.5499 51.0301L61.0899 48.0301L61.9399 43.2901H64.9399L64.5099 45.5901H66.0999L65.7999 47.2501L65.6699 48.0401H64.0999L63.3399 52.2601C63.2935 52.4 63.26 52.544 63.2399 52.6901C63.2399 53.2201 63.5799 53.4601 64.3099 53.4601C64.5829 53.4591 64.8548 53.4255 65.1199 53.3601L64.7399 55.5701L64.2199 55.7001C63.6611 55.8436 63.0868 55.9175 62.5099 55.9201V55.9101ZM68.7499 55.7101H65.6899L67.3499 46.7801L67.5699 45.6001H70.3399L70.0499 47.1401C70.9599 45.9401 71.6799 45.5101 72.6899 45.5101H72.9999C72.9999 45.5101 73.0999 45.5101 73.2299 45.6001C73.3527 45.6061 73.4725 45.6403 73.5799 45.7001L72.4999 48.5801L72.1599 48.4801C72.0299 48.4801 71.8699 48.4801 71.7799 48.4801C70.2899 48.4801 69.8599 49.5901 68.7799 55.7601L68.7499 55.7101ZM77.1499 55.9601H76.6399H76.2699H75.9899L75.6799 55.9001H75.5999L75.3199 55.8201C75.1735 55.7792 75.0299 55.7291 74.8899 55.6701C74.7546 55.6223 74.624 55.562 74.4999 55.4901C74.383 55.426 74.2695 55.3559 74.1599 55.2801C74.0551 55.2181 73.9578 55.1443 73.8699 55.0601C73.8429 55.0493 73.8188 55.0321 73.7999 55.0101C73.7219 54.9452 73.6484 54.875 73.5799 54.8001L73.4199 54.6301C73.3612 54.5679 73.3076 54.501 73.2599 54.4301C73.2177 54.3843 73.1808 54.334 73.1499 54.2801C73.0743 54.1651 73.0232 54.0357 72.9999 53.9001C72.9488 53.821 72.9052 53.7373 72.8699 53.6501C72.8659 53.6169 72.8659 53.5833 72.8699 53.5501C72.8114 53.4338 72.7613 53.3135 72.7199 53.1901C72.7199 53.1901 72.6499 52.9101 72.6199 52.7701C72.5793 52.619 72.5493 52.4653 72.5299 52.3101C72.5299 52.1701 72.5299 52.0201 72.5299 51.8601C72.5299 51.7001 72.5299 51.5501 72.5299 51.3801C72.4818 50.5796 72.604 49.778 72.8885 49.0282C73.173 48.2785 73.6133 47.5976 74.1804 47.0306C74.7474 46.4635 75.4283 46.0232 76.1781 45.7387C76.9278 45.4542 77.7294 45.3319 78.5299 45.3801C81.6999 45.3801 83.3799 47.3801 83.3799 49.9301C83.3969 50.3488 83.3667 50.7681 83.2899 51.1801C83.2605 51.382 83.2204 51.5823 83.1699 51.7801C83.1384 51.9463 83.095 52.1101 83.0399 52.2701V52.3601C82.9997 52.5364 82.9393 52.7076 82.8599 52.8701C82.7913 53.0241 82.7145 53.1743 82.6299 53.3201C82.554 53.475 82.4636 53.6223 82.3599 53.7601C82.2675 53.8984 82.1639 54.0289 82.0499 54.1501C81.9269 54.2996 81.7932 54.4399 81.6499 54.5701C81.5197 54.6879 81.3828 54.7981 81.2399 54.9001L80.8999 55.0001C80.7973 55.0783 80.6867 55.1453 80.5699 55.2001C80.5211 55.2375 80.4672 55.2678 80.4099 55.2901C80.2626 55.3753 80.1087 55.4489 79.9499 55.5101C79.8501 55.5586 79.7464 55.5987 79.6399 55.6301H79.5299L79.2099 55.7301C78.5389 55.9146 77.8457 56.0054 77.1499 56.0001V55.9601Z" fill="#808080"/>
<path d="M79.94 49.8201C79.9598 50.2431 79.9228 50.6669 79.83 51.0801C79.7304 51.6749 79.4539 52.2258 79.0365 52.6611C78.619 53.0963 78.0801 53.3957 77.49 53.5201C76.43 53.5201 75.77 52.6101 75.77 51.2601C75.77 49.6401 76.77 47.8201 78.25 47.8201C79.51 47.8201 79.94 48.7701 79.94 49.8201Z" fill="#808080"/>
<path d="M38.35 51.21C38.3745 51.523 38.3366 51.8377 38.2384 52.1359C38.1403 52.4341 37.9839 52.7099 37.7783 52.9471C37.5726 53.1844 37.3219 53.3784 37.0407 53.5179C36.7595 53.6575 36.4533 53.7398 36.14 53.76C35.9986 53.7688 35.8568 53.7474 35.7242 53.6972C35.5917 53.6471 35.4713 53.5693 35.371 53.469C35.2708 53.3688 35.193 53.2484 35.1428 53.1158C35.0927 52.9832 35.0713 52.8415 35.08 52.7C35.08 51.7 35.95 51.17 37.67 51.17C37.8974 51.1674 38.1246 51.1807 38.35 51.21Z" fill="#808080"/>
<path d="M49.0001 49V49.53H45.5801C45.8801 48.37 46.5801 47.71 47.5001 47.71C48.4201 47.71 49.0001 48.15 49.0001 49Z" fill="#808080"/>
</svg>
