<svg width="34" height="26" viewBox="0 0 34 26" fill="none" xmlns="http://www.w3.org/2000/svg">
<path d="M7.63953 23.9041C7.63967 23.7813 7.66702 23.6602 7.71963 23.5493C7.77223 23.4385 7.84878 23.3407 7.94375 23.2629C8.03872 23.1852 8.14975 23.1296 8.26883 23.0999C8.38791 23.0703 8.51209 23.0675 8.6324 23.0916C8.75291 23.1159 8.86651 23.1667 8.9649 23.2404C9.06329 23.314 9.14402 23.4087 9.20118 23.5176C9.25835 23.6264 9.29052 23.7466 9.29535 23.8694C9.30019 23.9923 9.27756 24.1146 9.22913 24.2276C9.16483 24.3787 9.05712 24.5072 8.91965 24.5969C8.78218 24.6867 8.62116 24.7335 8.45701 24.7316C7.95301 24.7921 7.64054 24.4191 7.64054 23.9041H7.63953ZM9.72808 22.5705H9.22409V22.9535C9.12075 22.8159 8.98682 22.7042 8.83287 22.6272C8.67892 22.5502 8.50918 22.5101 8.33706 22.51C7.98643 22.5394 7.65969 22.6996 7.42177 22.9588C7.18385 23.218 7.05216 23.5572 7.05288 23.9091C7.0533 24.2605 7.18524 24.5989 7.42273 24.8579C7.66022 25.1168 7.98604 25.2775 8.33605 25.3082C8.49491 25.3189 8.65391 25.2895 8.79838 25.2225C8.94284 25.1556 9.06811 25.0533 9.1626 24.9251V25.2376H9.72808V22.5705ZM29.2921 23.9041C29.2926 23.7408 29.3413 23.5813 29.4321 23.4456C29.5229 23.3099 29.6518 23.2041 29.8026 23.1415C29.9534 23.0788 30.1193 23.062 30.2795 23.0933C30.4398 23.1247 30.5872 23.2026 30.7033 23.3174C30.8193 23.4332 30.8985 23.5808 30.9306 23.7415C30.9628 23.9022 30.9465 24.0689 30.8839 24.2204C30.8214 24.3719 30.7152 24.5015 30.579 24.5926C30.4428 24.6838 30.2826 24.7325 30.1186 24.7326C29.5441 24.7931 29.2921 24.4191 29.2921 23.9041ZM31.3897 23.9041V21.4879H30.8152V22.9525C30.7236 22.8172 30.6005 22.7061 30.4566 22.6289C30.3126 22.5516 30.152 22.5105 29.9886 22.509C29.8095 22.5127 29.6328 22.5517 29.4688 22.6238C29.3047 22.6959 29.1566 22.7997 29.0328 22.9292C28.9089 23.0588 28.8119 23.2115 28.7473 23.3786C28.6826 23.5457 28.6516 23.7239 28.656 23.9031C28.6449 24.0851 28.6715 24.2675 28.7342 24.4388C28.7968 24.6101 28.8942 24.7666 29.0201 24.8985C29.1461 25.0304 29.2979 25.1349 29.4661 25.2054C29.6343 25.2759 29.8153 25.3109 29.9977 25.3082C30.1567 25.3192 30.316 25.2899 30.4606 25.2229C30.6053 25.1559 30.7307 25.0535 30.8252 24.9251V25.2376H31.3998L31.3897 23.9041ZM16.8818 23.0755C17.0574 23.0746 17.2271 23.1394 17.3576 23.257C17.4881 23.3746 17.57 23.5367 17.5873 23.7115H16.2064C16.2235 23.542 16.3012 23.3842 16.4253 23.2674C16.5494 23.1505 16.7115 23.0824 16.8818 23.0755ZM16.9523 22.509C16.6017 22.5386 16.2751 22.6991 16.0373 22.9585C15.7996 23.2179 15.6682 23.5572 15.6692 23.9091C15.6696 24.2605 15.8015 24.5989 16.039 24.8579C16.2765 25.1168 16.6023 25.2775 16.9523 25.3082C17.345 25.3057 17.7254 25.1707 18.0319 24.9251L17.7799 24.4796C17.5597 24.6466 17.2901 24.7353 17.0138 24.7316C16.9222 24.7402 16.8299 24.7305 16.7421 24.7032C16.6543 24.6758 16.5728 24.6313 16.5023 24.5723C16.4318 24.5132 16.3737 24.4408 16.3314 24.3591C16.2891 24.2775 16.2634 24.1882 16.2558 24.0966H18.2738V23.9041C18.2847 23.5471 18.1542 23.2002 17.9107 22.939C17.6672 22.6777 17.3304 22.5232 16.9735 22.509H16.9533H16.9523ZM23.9447 23.9041C23.9452 23.7408 23.9939 23.5813 24.0847 23.4456C24.1756 23.3099 24.3045 23.2041 24.4552 23.1415C24.606 23.0788 24.7719 23.062 24.9321 23.0933C25.0924 23.1247 25.2398 23.2026 25.3559 23.3174C25.4715 23.4334 25.5502 23.5809 25.582 23.7415C25.6139 23.9021 25.5976 24.0685 25.5351 24.2198C25.4726 24.3711 25.3667 24.5005 25.2308 24.5918C25.0949 24.683 24.935 24.732 24.7713 24.7326C24.2068 24.7931 23.9447 24.4191 23.9447 23.9041ZM26.1038 23.9041V22.5705H25.5293V22.9535C25.4375 22.8179 25.3141 22.7067 25.1698 22.6294C25.0254 22.5521 24.8644 22.5112 24.7007 22.51C24.3503 22.5396 24.0238 22.6999 23.7861 22.9591C23.5483 23.2183 23.4168 23.5574 23.4175 23.9091C23.4177 24.2605 23.5496 24.5991 23.7871 24.8581C24.0247 25.1171 24.3506 25.2777 24.7007 25.3082C24.8597 25.3191 25.0189 25.2897 25.1636 25.2228C25.3083 25.1558 25.4337 25.0535 25.5283 24.9251V25.2376H26.1028V23.9041H26.1038ZM20.7061 23.9041C20.6913 24.1843 20.7652 24.4621 20.9172 24.698C21.0691 24.9339 21.2915 25.116 21.5528 25.2185C21.7261 25.286 21.9116 25.3173 22.0971 25.3082C22.4464 25.327 22.7897 25.2116 23.0567 24.9856L22.8047 24.5401C22.5981 24.6913 22.3531 24.778 22.0981 24.7921C21.9892 24.7964 21.8805 24.7783 21.7789 24.7389C21.6772 24.6994 21.5848 24.6395 21.5073 24.5629C21.4298 24.4862 21.3688 24.3944 21.3283 24.2932C21.2877 24.192 21.2684 24.0836 21.2715 23.9746C21.2626 23.8637 21.2778 23.7522 21.3162 23.6477C21.3545 23.5433 21.4151 23.4484 21.4937 23.3696C21.5722 23.2909 21.667 23.2301 21.7713 23.1915C21.8757 23.1529 21.9872 23.1374 22.0981 23.1461C22.3569 23.1363 22.6096 23.2265 22.8037 23.398L23.0557 22.9545C22.9483 22.8037 22.8036 22.6834 22.6357 22.6053C22.4679 22.5272 22.2826 22.494 22.0981 22.509C21.9097 22.4976 21.721 22.5255 21.544 22.591C21.367 22.6564 21.2056 22.758 21.0699 22.8892C20.9343 23.0204 20.8274 23.1783 20.7561 23.353C20.6848 23.5278 20.6506 23.7154 20.6557 23.9041H20.7061ZM28.1309 22.509C27.9902 22.4985 27.8494 22.5292 27.7259 22.5974C27.6024 22.6656 27.5014 22.7684 27.4354 22.893V22.5705H26.8608V25.2376H27.4354V23.7821C27.4354 23.3386 27.6269 23.0755 28.0099 23.0755C28.1384 23.0645 28.2673 23.0889 28.3829 23.1461L28.5744 22.631C28.417 22.5653 28.2504 22.5245 28.0805 22.51H28.1309V22.509ZM12.7047 22.8225C12.3805 22.6274 12.0032 22.5393 11.6261 22.5705C10.9296 22.5705 10.5456 22.893 10.5456 23.398C10.5456 23.9041 10.858 24.0956 11.4326 24.1561L11.6856 24.2266C12.0081 24.2871 12.1291 24.3476 12.1291 24.4796C12.1291 24.6107 11.9376 24.7921 11.4941 24.7921C11.1801 24.7968 10.8716 24.7092 10.607 24.5401L10.354 24.9846C10.6847 25.2235 11.0879 25.3374 11.4941 25.3082C12.2601 25.3082 12.7047 24.9251 12.7047 24.4191C12.7047 23.9141 12.3821 23.7115 11.6967 23.6511L11.4437 23.5906C11.1917 23.52 11.0002 23.52 11.0002 23.3386C11.0002 23.1561 11.1917 23.014 11.5042 23.014C11.7975 23.0231 12.0837 23.1098 12.3307 23.267L12.7047 22.8235V22.8225ZM20.1305 22.51C19.9899 22.4993 19.8492 22.5298 19.7256 22.5978C19.6021 22.6658 19.5011 22.7685 19.435 22.893V22.5705H18.8594V25.2376H19.434V23.7821C19.434 23.3386 19.6255 23.0755 20.0085 23.0755C20.1373 23.0643 20.2667 23.0887 20.3825 23.1461L20.574 22.5695C20.3321 22.5695 20.2111 22.509 20.0801 22.509H20.1305V22.51ZM15.1762 22.5705H14.2287V21.7419H13.6532V22.5705H13.1492V23.145H13.6532V24.3587C13.6532 24.9947 13.9052 25.3687 14.6108 25.3687C14.8567 25.3707 15.0976 25.3042 15.3083 25.1771L15.1168 24.6611C14.9667 24.7574 14.7898 24.8034 14.6118 24.7921C14.2892 24.7921 14.2287 24.6006 14.2287 24.3486V23.1461H15.1762V22.5695V22.5705ZM6.55998 25.2376V23.5906C6.5695 23.4523 6.55052 23.3135 6.5042 23.1828C6.45788 23.0522 6.38521 22.9325 6.2907 22.831C6.19619 22.7296 6.08185 22.6487 5.95478 22.5933C5.82771 22.5379 5.69061 22.5092 5.55199 22.509C5.3691 22.5065 5.18799 22.5451 5.02206 22.6221C4.85612 22.699 4.70962 22.8123 4.5934 22.9535C4.49045 22.8152 4.35646 22.703 4.20221 22.626C4.04796 22.5489 3.87777 22.5092 3.70536 22.51C3.55636 22.4986 3.40708 22.5282 3.27378 22.5958C3.14047 22.6633 3.02826 22.7661 2.94937 22.893V22.5705H2.36373V25.2376H2.93828V23.7821C2.92681 23.6926 2.93477 23.6018 2.96161 23.5157C2.98846 23.4296 3.03356 23.3503 3.09384 23.2832C3.15412 23.2162 3.22815 23.1629 3.3109 23.127C3.39365 23.0912 3.48315 23.0736 3.57331 23.0755C3.94728 23.0755 4.13879 23.3376 4.13879 23.7821V25.2376H4.71335V23.7821C4.70186 23.6926 4.70984 23.6016 4.73674 23.5154C4.76365 23.4293 4.80884 23.3499 4.86923 23.2828C4.92962 23.2158 5.00378 23.1625 5.08665 23.1267C5.16952 23.0909 5.25914 23.0735 5.34939 23.0755C5.73242 23.0755 5.92394 23.3376 5.92394 23.7821V25.2376H6.55998ZM13.0585 10.2126C13.0553 8.68612 13.3976 7.17875 14.0598 5.80336C14.7219 4.42798 15.6866 3.22025 16.8818 2.27065C15.6296 1.28707 14.1604 0.617323 12.5967 0.317327C11.0329 0.0173305 9.42014 0.0957936 7.89292 0.546165C6.36571 0.996536 4.9684 1.80574 3.81767 2.90622C2.66694 4.0067 1.79619 5.36651 1.27813 6.87211C0.757993 8.3782 0.604632 9.98665 0.83078 11.5639C1.05693 13.1411 1.65606 14.6417 2.57843 15.941C3.50036 17.2387 4.719 18.2974 6.13288 19.0289C7.54676 19.7604 9.11494 20.1435 10.7068 20.1463C12.9433 20.1627 15.1196 19.422 16.8818 18.0446C15.6765 17.1292 14.7028 15.9438 14.0388 14.5838C13.3748 13.2238 13.039 11.7269 13.0585 10.2136V10.2126ZM33.0247 10.2126C33.0335 12.0905 32.5115 13.9326 31.5187 15.5267C30.7779 16.7184 29.7929 17.7395 28.6286 18.5226C27.4643 19.3057 26.1471 19.833 24.7641 20.0698C23.381 20.3066 21.9635 20.2475 20.605 19.8963C19.2464 19.5451 17.9778 18.9099 16.8828 18.0325C18.0802 17.0978 19.0461 15.8997 19.7057 14.5314C20.3652 13.163 20.7006 11.661 20.6859 10.142C20.6978 8.62614 20.3609 7.12783 19.7013 5.76294C19.0416 4.39806 18.0769 3.20316 16.8818 2.27065C18.6342 0.889744 20.7954 0.129308 23.0264 0.108521C25.6799 0.156134 28.2098 1.23876 30.0763 3.12542C31.9442 5.01396 33.0019 7.55647 33.0247 10.2126Z" fill="#676767"/>
<path d="M16.8818 3.42282C15.9476 4.2936 15.1981 5.3435 14.6781 6.50998C14.1581 7.67647 13.8781 8.93567 13.8549 10.2126C13.8873 11.4909 14.1713 12.7503 14.6907 13.9188C15.2101 15.0873 15.9546 16.142 16.8818 17.0226C17.8108 16.1434 18.5566 15.089 19.0761 13.9202C19.5957 12.7514 19.8787 11.4913 19.9088 10.2126C19.8885 8.93518 19.6098 7.67509 19.0896 6.5082C18.5694 5.34132 17.8184 4.29179 16.8818 3.42282Z" fill="#676767"/>
</svg>
