<svg width="100" height="100" viewBox="0 0 100 100" fill="none" xmlns="http://www.w3.org/2000/svg">
<path d="M100 25.1099V74.8899C99.9842 77.0012 99.1343 79.0207 97.6357 80.508C96.1372 81.9954 94.1114 82.83 92 82.8299H8C5.88862 82.83 3.86283 81.9954 2.36425 80.508C0.865676 79.0207 0.0158353 77.0012 0 74.8899L0 25.1099C0.0158353 22.9986 0.865676 20.9792 2.36425 19.4918C3.86283 18.0045 5.88862 17.1699 8 17.1699H92.1C94.194 17.196 96.1943 18.0422 97.6713 19.5267C99.1484 21.0113 99.9845 23.0158 100 25.1099Z" fill="#262626"/>
<path d="M90.9999 50.0001C91.0019 51.9265 90.777 53.8464 90.3299 55.7201C89.3687 59.7063 87.4119 63.3835 84.6428 66.4077C81.8736 69.4318 78.3825 71.7041 74.4962 73.0119C70.6099 74.3196 66.4553 74.6202 62.4213 73.8853C58.3872 73.1505 54.6054 71.4043 51.4299 68.8101C54.6613 65.7022 57.0436 61.819 58.3499 57.5301H56.3499C55.084 61.3379 52.8957 64.7733 49.9799 67.5301C47.0822 64.766 44.9084 61.3319 43.6499 57.5301H41.6499C42.9381 61.8034 45.2878 65.6807 48.4799 68.8001C45.4699 71.2456 41.9165 72.9322 38.1187 73.7179C34.321 74.5037 30.39 74.3656 26.6568 73.3152C22.9236 72.2649 19.4973 70.3331 16.6664 67.6824C13.8354 65.0316 11.6827 61.7396 10.3895 58.0834C9.09619 54.4272 8.70019 50.5139 9.2348 46.6727C9.7694 42.8315 11.219 39.175 13.4615 36.0109C15.704 32.8468 18.6738 30.2678 22.121 28.4908C25.5681 26.7139 29.3917 25.7911 33.2699 25.8001C33.9799 25.8001 34.6799 25.8001 35.3799 25.9001C40.1843 26.3365 44.7475 28.2036 48.4799 31.2601C45.7114 33.956 43.5677 37.2261 42.1999 40.8401C41.9899 41.3901 41.8099 41.9501 41.6299 42.5201H43.6299C43.6299 42.4401 43.6799 42.3601 43.7099 42.2801C44.9751 38.5403 47.1343 35.1659 49.9999 32.4501C52.9125 35.2095 55.1003 38.6441 56.3699 42.4501H58.3699C57.0577 38.1678 54.6681 34.2942 51.4299 31.2001C55.8351 27.605 61.3659 25.6766 67.0513 25.7534C72.7367 25.8302 78.2134 27.9073 82.5199 31.6201C83.0359 32.0552 83.5298 32.5158 83.9999 33.0001C87.9687 37.042 90.3868 42.3528 90.8299 48.0001C90.9299 48.6601 90.9999 49.3301 90.9999 50.0001Z" fill="#808080"/>
<path d="M42.6199 48.64H43.8499C43.9199 47.91 43.9999 47.22 44.1199 46.52C43.6899 46.52 43.3899 46.52 42.9999 46.52C42.9999 46.05 43.1199 45.67 43.1899 45.21H40.8899C40.5799 47.13 40.2299 49.02 39.8899 50.9C39.7306 51.8931 39.6304 52.8949 39.5899 53.9C39.5589 54.0925 39.5677 54.2894 39.6156 54.4784C39.6635 54.6674 39.7496 54.8447 39.8686 54.9992C39.9875 55.1538 40.1368 55.2824 40.3073 55.3771C40.4778 55.4718 40.6658 55.5306 40.8599 55.55C41.5323 55.5856 42.2062 55.5215 42.8599 55.36C42.9168 55.349 42.9692 55.3212 43.0102 55.2802C43.0512 55.2392 43.0789 55.1869 43.0899 55.13C43.1999 54.55 43.2799 54.02 43.3599 53.4C43.2037 53.4167 43.0461 53.4167 42.8899 53.4C42.0899 53.4 41.8899 53.17 41.9699 52.4C42.0499 51.98 42.1199 51.55 42.1599 51.13C42.3499 50.29 42.4999 49.49 42.6199 48.64ZM37.8499 48.37C38.3099 48.37 38.7699 48.37 39.2699 48.45C39.3499 47.79 39.4199 47.18 39.5399 46.45C38.5544 46.2364 37.5393 46.1958 36.5399 46.33C35.9422 46.4068 35.3848 46.6731 34.9494 47.0898C34.5141 47.5065 34.2237 48.0517 34.1208 48.6455C34.0179 49.2393 34.108 49.8505 34.3778 50.3894C34.6475 50.9282 35.0829 51.3665 35.6199 51.64C35.9721 51.7949 36.3072 51.9859 36.6199 52.21C36.7144 52.2847 36.7871 52.3835 36.8301 52.4961C36.8732 52.6086 36.8851 52.7307 36.8647 52.8494C36.8442 52.9681 36.7921 53.0792 36.7138 53.1708C36.6355 53.2624 36.534 53.3312 36.4199 53.37C36.217 53.4641 35.9925 53.5021 35.7699 53.48C34.9999 53.48 34.2299 53.37 33.4199 53.29C33.3499 53.91 33.2299 54.52 33.1499 55.21C34.4923 55.5198 35.8875 55.5198 37.2299 55.21C37.6604 55.1269 38.0573 54.9199 38.3718 54.6143C38.6862 54.3087 38.9046 53.9179 38.9999 53.49C39.4199 51.49 38.6499 50.56 37.3799 50.02C36.9199 49.83 36.3099 49.68 36.3799 48.95C36.5399 48.52 36.9999 48.37 37.8499 48.37Z" fill="#262626"/>
<path d="M82.0701 44.4499C81.9201 45.4499 81.7701 46.4499 81.5701 47.4499C79.8401 45.9499 78.2301 45.9499 76.9201 47.5599C76.2086 48.3654 75.7266 49.3471 75.5243 50.4026C75.322 51.4581 75.4069 52.5485 75.7701 53.5599C75.8664 53.9208 76.0391 54.2568 76.2764 54.5452C76.5137 54.8336 76.8102 55.0677 77.1458 55.2317C77.4814 55.3957 77.8482 55.4858 78.2216 55.4958C78.595 55.5059 78.9662 55.4356 79.3101 55.2899C79.6963 55.1177 80.0676 54.9136 80.4201 54.6799V55.3299C81.0401 55.3299 81.6101 55.3299 82.1901 55.3299C82.5001 55.3299 82.6501 55.2499 82.6901 54.8699C83.0701 52.4799 83.5001 50.0599 83.8801 47.6399C84.0401 46.5599 84.2301 45.4799 84.3801 44.4099L82.0701 44.4499ZM80.3101 52.5999C80.1392 52.8497 79.8972 53.0424 79.6154 53.1529C79.3337 53.2635 79.0252 53.2868 78.7301 53.2199C78.4822 53.1255 78.2686 52.9586 78.117 52.741C77.9653 52.5234 77.8828 52.2651 77.8801 51.9999C77.7436 51.1863 77.8661 50.3503 78.2301 49.6099C78.3924 49.2579 78.6441 48.9545 78.9601 48.7299C79.1173 48.604 79.3043 48.5208 79.5031 48.4883C79.7018 48.4559 79.9056 48.4753 80.0947 48.5447C80.2837 48.6141 80.4517 48.7311 80.5823 48.8844C80.7129 49.0378 80.8017 49.2222 80.8401 49.4199C80.9389 49.7444 80.9927 50.0808 81.0001 50.4199C80.9981 51.2 80.7573 51.9607 80.3101 52.5999Z" fill="#262626"/>
<path d="M76.4999 46.41C76.2299 47.29 75.9599 48.14 75.6499 49.02C74.8799 49.02 74.5799 49.22 74.3399 50.02C73.9999 51.21 73.8099 52.45 73.5799 53.68C73.4599 54.25 73.3399 54.83 73.2699 55.41H70.8799C71.3399 52.41 71.8799 49.48 72.3099 46.48H74.4999C74.4221 46.8494 74.3686 47.2236 74.3399 47.6C74.9999 47 75.4999 46.26 76.4999 46.41Z" fill="#262626"/>
<path d="M69 46.37C67.8389 46.181 66.6489 46.2876 65.54 46.68C65.4726 46.7016 65.4104 46.7367 65.3571 46.7831C65.3038 46.8295 65.2606 46.8863 65.23 46.95C65.11 47.52 65.04 48.1 64.96 48.6C65.96 48.52 66.96 48.41 67.88 48.41C68.8 48.41 69 48.79 68.77 49.75C68.27 49.75 67.77 49.75 67.3 49.75C65.3 49.87 64 50.91 63.81 52.68C63.6831 53.1769 63.7109 53.7006 63.8896 54.1813C64.0683 54.6619 64.3894 55.0766 64.81 55.37C65.2794 55.6236 65.8118 55.7367 66.3438 55.696C66.8757 55.6552 67.3847 55.4622 67.81 55.14C68 55.02 68.15 54.87 68.35 54.72V55.45H70.35C70.66 53.37 70.96 51.29 71.23 49.25C71.288 48.9124 71.2752 48.5665 71.1923 48.2341C71.1094 47.9017 70.9584 47.5902 70.7486 47.3194C70.5389 47.0485 70.2752 46.8243 69.9741 46.6608C69.6731 46.4974 69.3413 46.3984 69 46.37ZM67.8 53.49C67.6478 53.6656 67.4443 53.789 67.2182 53.8429C66.9922 53.8967 66.755 53.8782 66.54 53.79C66.4089 53.7163 66.2937 53.6174 66.201 53.499C66.1083 53.3806 66.04 53.245 66 53.1C65.9449 52.8642 65.9677 52.6168 66.0651 52.3951C66.1624 52.1733 66.3291 51.9891 66.54 51.87C67.1496 51.5336 67.863 51.4373 68.54 51.6C68.526 52.2908 68.2793 52.9568 67.84 53.49H67.8Z" fill="#262626"/>
<path d="M59.7699 47.7899C59.3748 48.3684 59.1057 49.0233 58.9799 49.7124C58.8542 50.4015 58.8746 51.1093 59.0399 51.7899C59.0992 52.0749 59.2162 52.3447 59.3838 52.5826C59.5514 52.8206 59.766 53.0217 60.0143 53.1735C60.2626 53.3253 60.5394 53.4246 60.8276 53.4653C61.1158 53.5059 61.4093 53.4871 61.6899 53.4099C62.1899 53.2899 62.6099 53.1399 63.1499 52.9799C62.9999 53.7499 62.9199 54.4799 62.7699 55.2099C62.7699 55.3299 62.5799 55.4799 62.4999 55.4799C61.7054 55.6536 60.8929 55.7308 60.0799 55.7099C59.2656 55.6591 58.4922 55.3355 57.8844 54.7912C57.2766 54.2469 56.8699 53.5137 56.7299 52.7099C56.312 50.9161 56.5019 49.0342 57.2699 47.3599C58.5799 44.4799 61.3799 43.4799 64.4199 44.7799C64.3099 45.5899 64.1899 46.36 64.0799 47.13C63.5799 46.9799 63.0799 46.7799 62.6499 46.6699C62.1134 46.5174 61.5417 46.5442 61.0218 46.7464C60.502 46.9486 60.0624 47.315 59.7699 47.7899Z" fill="#262626"/>
<path d="M56.85 46.4099L56 48.9999C55.8452 48.973 55.6866 48.9778 55.5337 49.014C55.3808 49.0502 55.2369 49.1171 55.1107 49.2106C54.9845 49.3041 54.8785 49.4223 54.7993 49.558C54.7201 49.6936 54.6693 49.844 54.65 49.9999C54.34 51.1999 54.11 52.4699 53.88 53.6999C53.77 54.2699 53.69 54.8499 53.58 55.4299H51.23C51.42 54.2699 51.58 53.1599 51.77 51.9999C52.04 50.3099 52.35 48.5799 52.62 46.8899C52.62 46.5799 52.73 46.4299 53.08 46.4699H54.85C54.85 46.8499 54.73 47.1999 54.69 47.6599C55.31 46.9999 55.85 46.2199 56.85 46.4099Z" fill="#262626"/>
<path d="M49.5401 51.7901C51.0801 51.7901 51.0801 51.7901 51.2701 50.2501C51.3883 49.7999 51.4069 49.3294 51.3246 48.8714C51.2422 48.4133 51.061 47.9787 50.7935 47.5979C50.5259 47.2171 50.1786 46.8992 49.7756 46.6664C49.3726 46.4336 48.9236 46.2915 48.4601 46.2501C47.8724 46.1768 47.2757 46.2593 46.7299 46.4892C46.1841 46.7191 45.7083 47.0884 45.3501 47.5601C44.7419 48.2716 44.3041 49.1126 44.0702 50.0189C43.8362 50.9253 43.8123 51.8731 44.0001 52.7901C44.0867 53.4465 44.373 54.0604 44.8202 54.5487C45.2674 55.037 45.8538 55.3761 46.5001 55.5201C47.6666 55.8005 48.8856 55.7764 50.0401 55.4501C50.1126 55.4316 50.1804 55.398 50.239 55.3515C50.2976 55.305 50.3457 55.2465 50.3801 55.1801C50.5401 54.5201 50.6101 53.8701 50.7701 53.1801C50.4601 53.2601 50.2301 53.3301 50.0001 53.4101C49.149 53.728 48.2215 53.7804 47.3401 53.5601C47.1552 53.5264 46.9793 53.4548 46.8234 53.3497C46.6676 53.2446 46.5352 53.1084 46.4347 52.9496C46.3341 52.7908 46.2676 52.6129 46.2393 52.4271C46.2109 52.2413 46.2214 52.0516 46.2701 51.8701C46.319 51.8553 46.3712 51.8553 46.4201 51.8701L49.5401 51.7901ZM48.0801 48.2901C48.2471 48.3014 48.4095 48.3499 48.5552 48.4323C48.701 48.5146 48.8265 48.6285 48.9224 48.7657C49.0184 48.9029 49.0823 49.0598 49.1096 49.225C49.1369 49.3901 49.1268 49.5593 49.0801 49.7201C49.0801 49.8301 48.8801 49.9501 48.7701 49.9501H46.5001C46.6201 48.8701 47.2301 48.2501 48.0801 48.2901Z" fill="#262626"/>
<path d="M31.31 46.41C30.4004 46.3161 29.4824 46.343 28.58 46.49C27.58 46.64 27.58 46.72 27.42 47.72C27.35 48.02 27.31 48.37 27.27 48.6C28.27 48.6 29.27 48.41 30.27 48.41C31.12 48.41 31.39 48.91 31.12 49.75C30.62 49.75 30.12 49.75 29.66 49.75C27.27 49.91 25.89 51.41 26.16 53.6C26.1562 53.9349 26.2329 54.2658 26.3837 54.5648C26.5344 54.8638 26.7549 55.1222 27.0264 55.3183C27.2979 55.5143 27.6125 55.6422 27.9438 55.6913C28.2751 55.7403 28.6133 55.709 28.93 55.6C29.5198 55.4232 30.0869 55.1782 30.62 54.87V55.52C31.23 55.52 31.81 55.52 32.39 55.52C32.46 55.52 32.62 55.28 32.66 55.17C32.93 53.17 33.23 51.17 33.46 49.25C33.5329 48.9193 33.5332 48.5767 33.4607 48.2458C33.3883 47.915 33.245 47.6038 33.0405 47.3337C32.8361 47.0637 32.5755 46.8413 32.2767 46.6818C31.9779 46.5223 31.6481 46.4296 31.31 46.41ZM30.12 53.52C30.0119 53.6307 29.8828 53.7186 29.7403 53.7787C29.5977 53.8387 29.4446 53.8697 29.29 53.8697C29.1353 53.8697 28.9822 53.8387 28.8396 53.7787C28.6971 53.7186 28.568 53.6307 28.46 53.52C28.2984 53.2481 28.2487 52.924 28.3215 52.6162C28.3943 52.3084 28.5837 52.0408 28.85 51.87C29.1489 51.695 29.4796 51.5811 29.8229 51.5347C30.1662 51.4884 30.5153 51.5106 30.85 51.6C30.8662 51.953 30.8098 52.3055 30.6843 52.6358C30.5587 52.9661 30.3666 53.267 30.12 53.52Z" fill="#262626"/>
<path d="M27.0001 44.45C26.3901 48.1 25.7701 51.72 25.2001 55.33H22.7701C23.1901 52.79 23.5801 50.25 24.0001 47.72C23.9829 47.728 23.9641 47.7322 23.9451 47.7322C23.9261 47.7322 23.9073 47.728 23.8901 47.72C23.8101 47.95 23.6901 48.1399 23.6201 48.3699C22.8501 50.5599 22.0401 52.72 21.2701 54.95C21.1201 55.33 20.9301 55.49 20.5401 55.45C20.2071 55.43 19.8732 55.43 19.5401 55.45C19.4701 52.83 19.3901 50.2199 19.3101 47.6399C19.3101 47.6399 19.3101 47.6399 19.2301 47.6399C18.7701 50.2599 18.3501 52.84 17.8901 55.49H15.6201C16.2301 51.84 16.8501 48.26 17.4601 44.61H20.9301V50.95H21.1201C21.5001 49.76 21.9301 48.57 22.3101 47.38C22.6201 46.57 22.8901 45.76 23.1901 44.95C23.1901 44.8 23.4301 44.57 23.5401 44.57L27.0001 44.45Z" fill="#262626"/>
</svg>
