<svg width="48" height="15" viewBox="0 0 48 15" fill="none" xmlns="http://www.w3.org/2000/svg">
<path d="M26.4115 2.40939L23.3968 8.97584H23.0724V0.984207H18.8463V14.513H22.4524C22.9183 14.511 23.3737 14.3733 23.7645 14.1163C24.1552 13.8593 24.4648 13.4938 24.656 13.0635L27.6469 6.49705H27.9522V14.508H32.2022V0.979256H28.5961C28.1302 0.981206 27.6747 1.11891 27.284 1.37592C26.8932 1.63294 26.5837 1.99842 26.3924 2.42874" fill="#676767"/>
<path d="M10.4474 2.74231L8.67769 8.97522H8.37246L6.60269 2.74231C6.45688 2.2298 6.15044 1.77921 5.72972 1.45849C5.30899 1.13777 4.79664 0.964307 4.27009 0.964262H0.0247803V14.493H4.27485V6.51586H4.58008L7.008 14.5123H10.0418L12.4697 6.51586H12.7749V14.5075H17.0247V0.978738H12.7794C12.2546 0.977906 11.7438 1.1493 11.3233 1.46722C10.9029 1.78516 10.5954 2.23252 10.4469 2.74231" fill="#676767"/>
<path d="M34.0449 7.1298V14.5077H38.2847V10.2076H42.8449C43.7868 10.2082 44.7052 9.91291 45.4739 9.36255C46.2427 8.81218 46.824 8.03377 47.1376 7.13464L34.0449 7.1298Z" fill="#676767"/>
<path d="M42.8255 0.982784H33.4147C33.6989 2.53616 34.5107 3.93982 35.7096 4.95032C36.9084 5.96084 38.4187 6.51438 39.9781 6.51506H47.286C47.3541 6.21202 47.3926 5.90294 47.4002 5.59227C47.3994 4.37012 46.9194 3.19841 46.066 2.33425C45.2126 1.47008 44.0561 0.984039 42.8497 0.982784" fill="#676767"/>
</svg>
