<svg width="100" height="100" viewBox="0 0 100 100" fill="none" xmlns="http://www.w3.org/2000/svg">
<path d="M100 25.1099V74.8899C99.9842 77.0012 99.1343 79.0207 97.6357 80.508C96.1372 81.9954 94.1114 82.83 92 82.8299H8C5.88862 82.83 3.86283 81.9954 2.36425 80.508C0.865676 79.0207 0.0158353 77.0012 0 74.8899L0 25.1099C0.0158353 22.9986 0.865676 20.9792 2.36425 19.4918C3.86283 18.0045 5.88862 17.1699 8 17.1699H92.1C94.194 17.196 96.1943 18.0422 97.6713 19.5267C99.1484 21.0113 99.9845 23.0158 100 25.1099Z" fill="#262626"/>
<path d="M18.62 39.5C19.31 39.5 21.35 39.31 22.22 42.24C22.8 44.24 23.73 47.4634 25.01 51.91H25.53C26.8633 47.19 27.8 43.9667 28.34 42.24C28.515 41.3625 29.0231 40.5868 29.7578 40.0759C30.4924 39.565 31.3964 39.3586 32.28 39.5H39V60.5H32.15V48.13H31.69L27.85 60.5H22.68L18.84 48.12H18.38V60.5H11.5V39.5H18.62ZM48.91 39.5V51.89H49.46L54.13 41.7C54.3794 41.1179 54.7744 40.6097 55.277 40.2244C55.7797 39.8391 56.373 39.5896 57 39.5H63.66V60.5H56.66V48.12H56.11L51.47 58.3C51.2099 58.8843 50.8054 59.3928 50.2945 59.7777C49.7837 60.1625 49.1834 60.4111 48.55 60.5H41.89V39.5H48.91ZM87.91 49.5C86.91 52.28 83.85 54.27 80.45 54.27H73.07V60.5H66.39V49.5H87.91Z" fill="#808080"/>
<path d="M80.76 39.5001H66C66.35 44.1801 70.38 48.1801 74.55 48.1801H88.36C88.5643 47.0883 88.5182 45.9643 88.225 44.8928C87.9318 43.8214 87.3993 42.8305 86.6676 41.9948C85.9358 41.159 85.0239 40.5003 84.0006 40.0682C82.9773 39.636 81.8693 39.4418 80.76 39.5001Z" fill="#808080"/>
</svg>
