<svg width="117" height="21" viewBox="0 0 117 21" fill="none" xmlns="http://www.w3.org/2000/svg">
<path fill-rule="evenodd" clip-rule="evenodd" d="M113.016 2.14188H115.871C115.359 2.42797 114.674 2.97069 113.814 3.76881L110.96 6.68501L112.525 8.92588C114.163 11.2588 115.595 13.0393 116.823 14.2671H112.74C112.229 13.0798 111.563 11.8728 110.745 10.6449L108.903 7.88218L110.499 5.85619C111.932 3.99412 112.771 2.75581 113.016 2.14188ZM108.688 3.49254V12.8858L108.811 13.5918C108.893 13.7146 109.077 13.8171 109.363 13.8988V14.2671H105.404V13.8988L105.956 13.5918C106.037 13.469 106.079 13.2339 106.079 12.8858V3.49254L105.956 2.81721C105.874 2.67416 105.689 2.58207 105.404 2.54093V2.14188H109.363V2.54093C109.077 2.58145 108.892 2.67416 108.811 2.81721L108.688 3.49254ZM102.794 3.49254V12.8858L102.917 13.5918L103.47 13.8988V14.2671H99.479V13.8988C99.7651 13.8171 99.9702 13.7146 100.093 13.5918L100.185 12.8858V8.00497H95.5191V12.8858L95.6419 13.5918C95.7236 13.7146 95.9072 13.8171 96.1932 13.8988V14.2671H92.172V13.8988C92.4998 13.8171 92.7036 13.7146 92.7859 13.5918L92.9087 12.8858V3.49254L92.7859 2.81721C92.7036 2.67416 92.4998 2.58207 92.172 2.54093V2.14188H96.1932V2.54093C95.9065 2.58145 95.723 2.67416 95.6407 2.81721L95.5179 3.49254V7.20685H100.184V3.49254L100.093 2.81721C99.9702 2.67416 99.7651 2.58207 99.479 2.54093V2.14188H103.47V2.54093C103.183 2.58145 102.999 2.67416 102.917 2.81721L102.794 3.49254ZM116.823 18.5033H27.9861V17.3061H116.823V18.5033ZM83.486 2.54093V2.14188H86.9854C87.0253 2.69442 87.1696 3.2881 87.4152 3.92229L89.9937 11.1667C90.4235 12.4358 90.8422 13.469 91.2523 14.2671H88.1826L86.8626 9.90818H82.9641L82.1353 12.7937L81.8897 14.2671H79.6796L83.6075 5.18086C83.9968 4.21944 84.1908 3.56437 84.1908 3.21627C84.192 2.82764 83.9562 2.60233 83.486 2.54093ZM84.9287 4.16787L83.2711 9.04867H86.5863L84.9287 4.16787ZM78.728 4.7818H78.0526L77.8992 4.25996C77.7346 3.66628 77.489 3.27766 77.1624 3.09348L75.4741 2.8786H73.8472C73.4788 2.8786 73.2332 2.93999 73.1104 3.06278C73.0085 3.16531 72.957 3.34888 72.957 3.61532V6.50083H73.6323C75.5969 6.50083 76.958 6.69544 77.715 7.08407C78.7998 7.61635 79.3419 8.66004 79.3419 10.2151C79.3419 11.7297 78.9121 12.8139 78.0526 13.469C77.295 14.0013 76.1187 14.2671 74.5225 14.2671H69.6724V13.8988L70.2556 13.5918L70.3477 12.8858V3.49254L70.2556 2.81721C70.1734 2.67416 69.9794 2.58207 69.6724 2.54093V2.14188H78.728V4.7818ZM72.957 7.26825V12.456C72.957 12.8655 73.0288 13.1313 73.1718 13.2541C73.3364 13.4181 73.6225 13.4997 74.0313 13.4997H74.3997C75.1782 13.4997 75.7504 13.2333 76.1187 12.7016C76.4466 12.2104 76.6099 11.4228 76.6099 10.3379C76.6099 9.27398 76.4361 8.517 76.088 8.06637C75.7197 7.53408 75.0339 7.26825 74.0313 7.26825H72.957ZM68.598 5.61062C68.598 7.02267 68.1683 8.03567 67.3087 8.64961C66.572 9.18189 65.4258 9.44772 63.8707 9.44772H62.6428V12.8858L62.7656 13.5918C62.827 13.7146 63.0204 13.8171 63.3476 13.8988V14.2671H59.357V13.8988L59.9096 13.5918L60.0324 12.8858V3.49254L59.9096 2.81721C59.8279 2.67416 59.6431 2.58207 59.357 2.54093V2.14188H64.3913C65.7622 2.14188 66.7648 2.34632 67.3996 2.75581C68.1989 3.2881 68.598 4.2397 68.598 5.61062ZM62.827 3.00139C62.7042 3.08304 62.6428 3.26722 62.6428 3.55393V8.6803H63.8707C64.6277 8.6803 65.16 8.39359 65.4669 7.82079C65.7334 7.30938 65.866 6.53152 65.866 5.48783C65.866 3.74855 65.1391 2.8786 63.6865 2.8786H63.3795L62.827 3.00139ZM57.5164 4.7818H56.8718L56.7183 4.25996C56.5139 3.66628 56.2579 3.27766 55.9509 3.09348L54.2933 2.8786H52.9426L52.4515 3.00139L52.3287 3.46184V7.20685H53.9249C55.03 7.20685 55.7563 7.08407 56.1044 6.83849V8.37333C55.7569 8.12776 55.03 8.00497 53.9249 8.00497H52.3287V12.5481C52.3287 12.9165 52.4515 13.1725 52.697 13.3155L54.2319 13.4997H54.5696L56.2272 13.2541C56.5139 13.07 56.7392 12.6199 56.9025 11.9035L57.0253 11.443H57.7927V14.2671H49.0441V13.8988C49.3511 13.8171 49.5457 13.7146 49.6274 13.5918L49.7501 12.8858V3.49254L49.6274 2.81721C49.5457 2.67416 49.3511 2.58207 49.0441 2.54093V2.14188H57.5164V4.7818ZM47.0488 4.7818H46.4042L46.2507 4.25996C46.0665 3.66628 45.8105 3.27766 45.4833 3.09348L43.8563 2.8786H42.168C41.8199 2.8786 41.5744 2.93999 41.4313 3.06278C41.3699 3.16531 41.3392 3.34888 41.3392 3.61532V6.50083H42.0145C43.9589 6.50083 45.3194 6.69544 46.0972 7.08407C47.1612 7.61635 47.6935 8.66004 47.6935 10.2151C47.6935 11.7297 47.2637 12.8139 46.4042 13.469C45.6675 14.0013 44.4905 14.2671 42.8741 14.2671H37.9933V13.8988C38.3211 13.8171 38.5255 13.7146 38.6072 13.5918L38.73 12.8858V3.49254L38.6072 2.81721C38.5255 2.67416 38.3211 2.58207 37.9933 2.54093V2.14188H47.0488V4.7818ZM34.8315 3.12418C34.4631 2.85834 33.8903 2.72512 33.1125 2.72512C31.8846 2.72512 31.0146 3.17513 30.5032 4.07578C30.0735 4.85364 29.8586 6.12203 29.8586 7.88218C29.8586 9.64234 30.0937 10.9414 30.5646 11.7807C31.1374 12.8244 32.1197 13.3462 33.5115 13.3462C34.5349 13.3462 35.5479 13.1006 36.5505 12.6095L36.9189 13.3769C35.7524 14.0928 34.3815 14.4513 32.8055 14.4513C28.9579 14.4513 27.0345 12.4149 27.0345 8.34264C27.0345 4.06595 29.0298 1.927 33.0204 1.927C34.5552 1.927 35.7321 2.11118 36.5505 2.47954V4.99668H35.7831L35.5682 4.25996C35.4043 3.74855 35.1587 3.36975 34.8315 3.12418ZM41.3392 7.26825V12.456C41.3392 12.8655 41.4006 13.1313 41.5234 13.2541C41.6873 13.4181 41.9838 13.4997 42.4136 13.4997H42.7513C44.2247 13.4997 44.9614 12.4456 44.9614 10.3379C44.9614 9.27398 44.7877 8.517 44.4396 8.06637C44.051 7.53408 43.3548 7.26825 42.3522 7.26825H41.3392Z" fill="#676767"/>
<path fill-rule="evenodd" clip-rule="evenodd" d="M17.1709 1.94972L18.0767 2.75979L6.6374 9.18973L1.09893 6.05071L1.61654 5.03812L6.6374 7.84805L17.1709 1.94972ZM14.8675 0.658669L16.0839 1.26622L6.6374 6.58232L2.23768 4.12679L2.98822 3.24077L6.6374 5.29126L14.8675 0.658669ZM18.879 3.59518L19.5519 4.48119L6.6374 11.7465L0.400146 8.25309L0.684835 7.13924L6.6374 10.4808L18.879 3.59518Z" fill="#676767"/>
<path fill-rule="evenodd" clip-rule="evenodd" d="M20.9965 7.1242C21.3772 8.17647 21.5679 9.27915 21.5679 10.4332C21.5679 11.5873 21.3772 12.7073 20.9965 13.7932L20.7367 14.4805C20.204 15.7137 19.4373 16.8366 18.4771 17.7895C17.5083 18.7283 16.3612 19.4719 15.1007 19.9786C13.7678 20.5386 12.3912 20.8186 10.971 20.8186C9.53369 20.8186 8.15714 20.5386 6.84137 19.9786C5.61182 19.4695 4.495 18.74 3.49089 17.7895C2.50393 16.8222 1.75073 15.7196 1.23127 14.4805C0.68221 13.199 0.399649 11.8231 0.400147 10.4332V9.74598L6.84137 13.335L20.4251 5.69876L20.9965 7.1242Z" fill="#676767"/>
</svg>
