<svg width="100" height="100" viewBox="0 0 100 100" fill="none" xmlns="http://www.w3.org/2000/svg">
<path d="M100 25.1099V74.8899C99.9842 77.0012 99.1343 79.0207 97.6357 80.508C96.1372 81.9954 94.1114 82.83 92 82.8299H8C5.88862 82.83 3.86283 81.9954 2.36425 80.508C0.865676 79.0207 0.0158353 77.0012 0 74.8899L0 25.1099C0.0158353 22.9986 0.865676 20.9792 2.36425 19.4918C3.86283 18.0045 5.88862 17.1699 8 17.1699H92.1C94.194 17.196 96.1943 18.0422 97.6713 19.5267C99.1484 21.0113 99.9845 23.0158 100 25.1099Z" fill="#262626"/>
<path d="M37 47.44L33.8 49.61C33.8 49.74 33.8 49.87 33.8 50C33.8 52.3201 33.1113 54.588 31.8213 56.5165C30.5313 58.4449 28.6979 59.947 26.5534 60.8326C24.409 61.7181 22.0499 61.9473 19.7751 61.491C17.5003 61.0347 15.4121 59.9135 13.775 58.2695C12.138 56.6254 11.0257 54.5324 10.5791 52.2557C10.1326 49.9789 10.3718 47.6209 11.2666 45.4802C12.1613 43.3395 13.6712 41.5126 15.6052 40.2308C17.5391 38.9491 19.8099 38.2701 22.13 38.28C24.4817 38.2634 26.7831 38.9608 28.73 40.28L31.73 38.28C29.0759 36.1026 25.7598 34.8932 22.3271 34.8508C18.8943 34.8083 15.5493 35.9353 12.8421 38.0464C10.135 40.1574 8.22681 43.127 7.43143 46.4665C6.63606 49.8061 7.00084 53.317 8.46579 56.4217C9.93074 59.5264 12.4086 62.0402 15.492 63.5497C18.5753 65.0591 22.0806 65.4743 25.4312 64.7271C28.7819 63.9798 31.7786 62.1145 33.9284 59.438C36.0781 56.7614 37.2531 53.433 37.26 50C37.2448 49.1409 37.1578 48.2846 37 47.44Z" fill="#808080"/>
<path d="M35.85 43.64L33.05 45.74L22.22 53.84L16.22 50.17V46.17L22 49.72L31.31 42.72L34.04 40.72C34.7531 41.6208 35.3605 42.6005 35.85 43.64Z" fill="#808080"/>
<path d="M56.9399 38.9099H48.1899V59.1499H51.8499V52.8699H56.9099C56.9099 52.8699 63.7299 52.5199 63.7299 45.6999C63.7299 38.8799 56.9399 38.9099 56.9399 38.9099ZM56.9399 49.4099H51.6499V42.2899H56.7099C57.1827 42.2701 57.6545 42.3487 58.0954 42.5206C58.5362 42.6925 58.9366 42.954 59.2712 43.2886C59.6058 43.6232 59.8674 44.0236 60.0393 44.4645C60.2112 44.9054 60.2897 45.3771 60.2699 45.8499C60.2699 48.7799 56.9999 49.4099 56.9999 49.4099H56.9399Z" fill="#808080"/>
<path d="M70.8 44.2499C70.12 44.2499 67.29 44.0899 65.53 45.8499V49.9999C66.0549 49.1419 66.7889 48.4313 67.6635 47.9345C68.538 47.4378 69.5243 47.1712 70.53 47.1599C70.9665 47.1511 71.4 47.2322 71.8038 47.3983C72.2075 47.5643 72.5727 47.8117 72.8766 48.1251C73.1806 48.4384 73.4167 48.8109 73.5704 49.2195C73.7241 49.6281 73.7921 50.0639 73.77 50.4999H69.68C69.68 50.4999 64.46 49.8699 64.46 55.1799C64.46 55.1799 63.96 59.1799 69.61 59.1799C69.61 59.1799 72.82 59.3299 73.82 56.6299V58.7999H76.82V48.5399C76.82 48.5399 76.66 44.3699 71.11 44.2699L70.8 44.2499ZM73.72 53.2499C73.7316 53.9873 73.4637 54.7019 72.97 55.2499C72.5988 55.6115 72.1535 55.8881 71.6649 56.0608C71.1763 56.2334 70.656 56.298 70.14 56.2499C67.67 56.2499 67.77 54.6399 67.77 54.6399C67.7674 54.4136 67.8097 54.1891 67.8944 53.9794C67.9792 53.7696 68.1047 53.5787 68.2638 53.4178C68.4228 53.2569 68.6122 53.1291 68.821 53.0419C69.0298 52.9548 69.2538 52.9099 69.48 52.9099H73.72V53.2499Z" fill="#808080"/>
<path d="M78.5701 44.6001H82.1701L86.0801 54.2701L89.3901 44.6001H93.0001L87.4901 60.4401C87.4901 60.4401 86.3801 64.7501 82.8801 64.7501C82.8801 64.7501 80.6701 64.5501 80.5201 64.2501C80.4446 63.2315 80.4446 62.2087 80.5201 61.1901C81.1075 61.5839 81.8206 61.7443 82.5201 61.6401C83.9301 61.6401 84.6801 59.1501 84.6801 59.1501L78.5701 44.6001Z" fill="#808080"/>
</svg>
