<svg width="44" height="15" viewBox="0 0 44 15" fill="none" xmlns="http://www.w3.org/2000/svg">
<path d="M28.545 0.682205C25.4535 0.682205 22.6896 2.28793 22.6896 5.24838C22.6896 8.64328 27.5895 8.87915 27.5895 10.5837C27.5895 11.3034 26.7659 11.9444 25.3618 11.9444C23.366 11.9444 21.8742 11.0453 21.8742 11.0453L21.2341 14.036C21.2341 14.036 22.9517 14.795 25.2318 14.795C28.6146 14.795 31.2737 13.1117 31.2737 10.0998C31.2737 6.51139 26.3517 6.2856 26.3517 4.69802C26.3517 4.13557 27.027 3.51666 28.4311 3.51666C30.0137 3.51666 31.3039 4.17085 31.3039 4.17085L31.9289 1.28498C31.9289 1.28901 30.5247 0.683213 28.546 0.683213L28.545 0.682205ZM0.25086 0.901946L0.177277 1.3374C0.177277 1.3374 1.47657 1.5773 2.64886 2.05206C4.15782 2.59637 4.26668 2.9149 4.51968 3.90071L7.28761 14.5723H10.997L16.7183 0.900938H13.017L9.34189 10.1956L7.84201 2.31817C7.70694 1.41602 7.0084 0.900938 6.15464 0.900938H0.251868L0.25086 0.901946ZM18.2081 0.901946L15.3051 14.5692H18.8361L21.726 0.900938H18.2081V0.901946ZM37.9002 0.901946C37.0504 0.901946 36.5968 1.35957 36.2652 2.15286L31.0942 14.5692H34.7966L35.5122 12.4988H40.023L40.4594 14.5692H43.7294L40.8778 0.900938H37.9002V0.901946ZM38.384 4.5942L39.4827 9.72485H36.5394L38.384 4.5942Z" fill="#676767"/>
</svg>
