<svg width="100" height="100" viewBox="0 0 100 100" fill="none" xmlns="http://www.w3.org/2000/svg">
<path d="M80.22 52.48H75.22C76.28 49.56 77.33 46.68 78.37 43.8H78.46L80.22 52.48Z" fill="#262626"/>
<path d="M100 25.1099V74.8899C99.9842 77.0012 99.1343 79.0207 97.6357 80.508C96.1372 81.9954 94.1114 82.83 92 82.8299H8C5.88862 82.83 3.86283 81.9954 2.36425 80.508C0.865676 79.0207 0.0158353 77.0012 0 74.8899L0 25.1099C0.0158353 22.9986 0.865676 20.9792 2.36425 19.4918C3.86283 18.0045 5.88862 17.1699 8 17.1699H92.1C94.194 17.196 96.1943 18.0422 97.6713 19.5267C99.1484 21.0113 99.9845 23.0158 100 25.1099Z" fill="#262626"/>
<path d="M49.64 38.72C49.48 39.47 49.33 40.19 49.18 40.91C47.76 47.5766 46.3467 54.2133 44.94 60.82C44.84 61.25 44.7 61.37 44.26 61.36C42.66 61.36 41.06 61.36 39.46 61.36H39C40.5867 53.7866 42.1867 46.24 43.8 38.72H49.64Z" fill="#808080"/>
<path d="M81.55 38.7H76.66C76.0866 38.6697 75.5186 38.8244 75.0397 39.1412C74.5608 39.4581 74.1964 39.9204 74 40.46L65.43 61C65.38 61.11 65.35 61.23 65.29 61.36C67.29 61.36 69.24 61.36 71.19 61.36C71.3 61.36 71.47 61.2 71.52 61.06C71.86 60.16 72.19 59.26 72.52 58.34C72.5494 58.2372 72.613 58.1475 72.7003 58.0857C72.7875 58.0238 72.8933 57.9936 73 58H79.2C80.2 58 80.2 58 80.37 58.95C80.54 59.9 80.71 60.57 80.88 61.37H86.28C84.7 53.76 83.12 46.24 81.55 38.7ZM74.32 53.33C75.32 50.51 76.32 47.73 77.32 44.95H77.41L79.16 53.32L74.32 53.33Z" fill="#808080"/>
<path d="M57.8201 44.0001C57.6717 44.121 57.552 44.2735 57.4698 44.4465C57.3877 44.6195 57.345 44.8086 57.345 45.0001C57.345 45.1916 57.3877 45.3806 57.4698 45.5536C57.552 45.7266 57.6717 45.8791 57.8201 46.0001C58.2634 46.4096 58.7534 46.7654 59.2801 47.0601C60.2801 47.6701 61.3801 48.1901 62.4001 48.8201C63.8044 49.574 64.8618 50.8428 65.3501 52.3601C65.7019 53.7075 65.6359 55.13 65.1608 56.439C64.6858 57.7481 63.8241 58.8818 62.6901 59.6901C61.208 60.7254 59.4879 61.3687 57.6901 61.5601C54.8826 61.9339 52.0266 61.6462 49.3501 60.7201C49.1812 60.668 49.0172 60.601 48.8601 60.5201C49.2101 58.8801 49.5601 57.2501 49.8601 55.5801L50.4801 55.8501C52.1466 56.643 53.9749 57.0367 55.8201 57.0001C56.6686 57.0231 57.5099 56.8377 58.2701 56.4601C58.5818 56.348 58.8558 56.1508 59.061 55.8908C59.2661 55.6308 59.3942 55.3184 59.4307 54.9892C59.4672 54.66 59.4105 54.3272 59.2672 54.0286C59.1239 53.73 58.8997 53.4776 58.6201 53.3001C57.9952 52.8315 57.3252 52.4261 56.6201 52.0901C55.4572 51.5449 54.3573 50.8742 53.3401 50.0901C52.1668 49.1455 51.411 47.7782 51.2352 46.2822C51.0594 44.7862 51.4777 43.2809 52.4001 42.0901C53.6632 40.3522 55.5337 39.1528 57.6401 38.7301C58.3201 38.5601 59.0101 38.5001 59.7001 38.3901L60.0001 38.3101H62.2601C62.9201 38.4201 63.5801 38.4901 64.2601 38.6401C64.9401 38.7901 65.5401 38.9701 66.1601 39.1401L66.6501 39.3201C66.3001 40.9101 65.9701 42.4701 65.6501 44.0501C64.8801 43.8101 64.1501 43.5301 63.3801 43.3401C62.0315 42.9522 60.6058 42.9177 59.2401 43.2401C58.7148 43.3813 58.229 43.6413 57.8201 44.0001Z" fill="#808080"/>
<path d="M41.25 38.72L40.95 39.49L31.94 61C31.9114 61.1201 31.8394 61.2253 31.7379 61.2955C31.6363 61.3656 31.5124 61.3957 31.39 61.38C29.58 61.38 27.76 61.38 25.94 61.38C25.67 61.38 25.56 61.31 25.48 61.03C23.97 55.13 22.43 49.24 20.93 43.33C20.8319 42.8367 20.6148 42.3749 20.2976 41.9845C19.9804 41.5941 19.5728 41.2871 19.11 41.09C17.4624 40.3729 15.7517 39.8105 14 39.41L13.77 39.33V39.17C13.83 38.72 14.11 38.69 14.5 38.69C17.58 38.69 20.66 38.69 23.73 38.69C24.4174 38.6463 25.0956 38.866 25.6268 39.3043C26.1581 39.7427 26.5025 40.3669 26.59 41.05C27.3767 45.21 28.16 49.3667 28.94 53.52C28.9698 53.6804 29.031 53.8333 29.12 53.97L35.12 38.72H41.25Z" fill="#808080"/>
</svg>
