<svg width="26" height="33" fill="none" xmlns="http://www.w3.org/2000/svg"><path d="M24.375 8.375h-5.75a1 1 0 00-.875 1V20.75a4.752 4.752 0 01-4.875 4.75 4.75 4.75 0 01-4.75-4.75V9.375a1 1 0 00-.875-1H1.5a1 1 0 00-1 1V20.75a12.5 12.5 0 0024.875 0V9.375A1 1 0 0024.25 8.25l.125.125zm-1.25 2.125v3.375h-3.25V10.5h3.375-.125zM6 10.5v3.375H2.625V10.5H6zm6.875 20.375c-5.375 0-10.25-4.125-10.25-9.625V17H5.75v4.25c0 3.5 3.75 6.625 7.125 6.625 3.5 0 7.25-3.125 7.25-6.625V17h3.125v4.25c0 5.5-4.875 9.625-10.375 9.625z" fill="#3F3F3F"/><path fill-rule="evenodd" clip-rule="evenodd" d="M2.625 5.75a1.25 1.25 0 11-2.5 0 1.25 1.25 0 012.5 0zm5.75 0a1.25 1.25 0 11-2.5 0 1.25 1.25 0 012.5 0zM5.5 2A1.25 1.25 0 113 2a1.25 1.25 0 012.5 0zm14.375 3.75a1.25 1.25 0 11-2.5 0 1.25 1.25 0 012.5 0zm5.625 0a1.25 1.25 0 11-2.5 0 1.25 1.25 0 012.5 0zM22.625 2a1.25 1.25 0 11-2.5 0 1.25 1.25 0 012.5 0z" fill="#D61635"/></svg>