<svg width="28" height="34" fill="none" xmlns="http://www.w3.org/2000/svg"><path fill-rule="evenodd" clip-rule="evenodd" d="M27.5 9.125v-2.5c0-.625-.625-1.25-1.25-1.25-4.875 0-8.5-1.25-11.625-4.25a1.25 1.25 0 00-1.5 0A15.625 15.625 0 011.5 5.5 1.25 1.25 0 00.25 6.625v2.5c0 8.125-.375 19.25 13.25 24 .244.077.506.077.75 0 13.625-4.875 13.375-15.875 13.25-24zm-13.75 21.25c-11.125-3.875-11-12.75-11-20.625v-1.5c4.5-.25 8-1.5 11.125-4.125 3 2.5 6.5 3.875 11 4.125V9.5c.125 8 .25 16.875-11 21l-.125-.125z" fill="#3F3F3F"/><path fill-rule="evenodd" clip-rule="evenodd" d="M17.875 13l-5.5 5.5-2.25-2.375A1.25 1.25 0 008.5 17.75l3.125 3.125a1.125 1.125 0 001.625 0l6.25-6.25A1.25 1.25 0 1017.875 13z" fill="#D61635"/></svg>