<svg width="40" height="40" fill="none" xmlns="http://www.w3.org/2000/svg"><path fill-rule="evenodd" clip-rule="evenodd" d="M25.25 15.625l-.125-.75h-10v.75C15 16.25 12.5 26.25 12.5 30a7.5 7.5 0 007.5 7.625 7.5 7.5 0 007.625-7.5c0-2.875-2.375-13.75-2.5-14.375l.125-.125zm-5 17.75a3.5 3.5 0 01-3.625-3.5 3.5 3.5 0 013.5-3.5A3.5 3.5 0 0123.75 30a3.5 3.5 0 01-3.5 3.5v-.125zM15 10.5h10.375V13H15v-2.5zm0-4h10.375V9H15V6.5zm0-4h10.375V5H15V2.5z" fill="#3F3F3F"/><path fill-rule="evenodd" clip-rule="evenodd" d="M15 10.5h10.375V13H15v-2.5zm0-4h10.375V9H15V6.5zm0-4h10.375V5H15V2.5z" fill="#D61635"/></svg>