<svg width="36" height="36" fill="none" xmlns="http://www.w3.org/2000/svg"><path fill-rule="evenodd" clip-rule="evenodd" d="M35.5 15.75c-1.25-10-11.875-17.5-22.625-14.625-3.375 1-6.5 3.25-8.75 6.5A18.125 18.125 0 00.5 17.875v5A3.125 3.125 0 002.375 25.5l22.5 9.375a5.874 5.874 0 007.75-3.375l.375-.875L34 31a1 1 0 001.375-.875v-14.25l.125-.125zm-5 15.375c-.75 2.125-3.125 2.5-5 1.75L3.375 23.5a1 1 0 01-.625-1V18c0-6.375 5-12.875 10.875-14.5 8-2.25 17.5 2.75 19.25 11.125L20.375 13c-1.75-.25-3.625 1.5-3.625 3.25v4.625c0 1.25.875 2.5 2 3L31 30.125l-.5 1.25v-.25zM20.875 15.25v7.25l-1.25-1c-.375-.25-.375-.625-.375-1v-4.125c0-.5.375-1.25 1-1.125h.625zM33 28.375l-9.75-5.125v-7.5L33 17v11.375z" fill="#3F3F3F"/><path fill-rule="evenodd" clip-rule="evenodd" d="M8.625 14.875a4.125 4.125 0 00-4 4.125 4.125 4.125 0 004 4 4.125 4.125 0 000-8.25v.125zm0 6.25a2 2 0 01-1.875-2.25 2 2 0 112 2l-.125.25z" fill="#D61635"/></svg>