<svg width="12" height="8" fill="none" xmlns="http://www.w3.org/2000/svg"><path fill="#00A14E" d="M0 0h12v8H0z"/><path fill="#E61B23" d="M0 0h12v5.391H0z"/><path fill="#F0F0F0" d="M0 0h2.695v8H0z"/><path d="M1.609 3.71l-.435-.79.435-.775.435.776-.435.789zm-.869 0l-.436-.79.435-.775.435.776-.435.789zm.869 2.144l-.435-.789.435-.776.435.776-.435.789zm-.869 0l-.436-.789.435-.776.435.776-.435.789zm.869 2.145l-.435-.789.435-.776.435.776-.435.789zm-.869 0L.303 7.21l.435-.776.435.776-.435.789zm.869-6.434L1.174.776 1.609 0l.435.776-.435.789z" fill="#E61B23"/><path d="M.74 1.565L.303.776.74 0l.435.776-.435.789z" fill="#E61B23"/></svg>