<svg width="12" height="8" fill="none" xmlns="http://www.w3.org/2000/svg"><path fill="#338AF3" d="M0 0h12v8H0z"/><path d="M8.248 4.23H3.75c0 .31.27.563.581.563h-.018c0 .31.251.562.562.562 0 .31.252.563.562.563h1.125c.31 0 .563-.252.563-.563.31 0 .562-.252.562-.562h-.019a.58.58 0 00.581-.563z" fill="#FFDA44"/><path d="M7.556 3.494a1.558 1.558 0 11-3.114 0" fill="#338AF3"/><path d="M7.543 3.348l-.631.256.336.526-.685-.113-.087.596-.477-.438-.477.438-.087-.596-.685.113.336-.526-.631-.256.63-.255-.335-.526.685.113.087-.596.477.438.477-.438.087.596.685-.113-.336.526.63.255z" fill="#FFDA44"/></svg>