<svg width="22" height="22" fill="none" xmlns="http://www.w3.org/2000/svg"><path d="M13.475 1.85a.75.75 0 100-1.5.75.75 0 000 1.5zM6.05 6.8a.75.75 0 100-1.5.75.75 0 000 1.5z" fill="#D61635"/><path d="M15.95 7.925a1.875 1.875 0 001.575-2.775l-1.05-1.875a.6.6 0 00-1.05 0L14.3 5.15a1.875 1.875 0 001.65 2.775zm0-3.075l.6 1.2a.638.638 0 01-1.275 0c0-.15 0-.225.675-1.2zm-6.15.6a1.875 1.875 0 001.5-2.775L10.4.8a.6.6 0 00-1.05 0l-1.2 1.95A1.875 1.875 0 009.8 5.525V5.45zm0-3.075c.525.975.6.975.6 1.2a.638.638 0 01-1.275 0c0-.225 0-.225.675-1.2zm11.4 12.6a1.875 1.875 0 00-1.575-.9 3.075 3.075 0 00-1.875-1.2A3.075 3.075 0 0014.9 10.4 4.275 4.275 0 0011 7.925 4.275 4.275 0 007.1 10.4a3 3 0 00-1.95.9 3 3 0 00-.9 1.8 3.3 3.3 0 00-.975.9H1.1a.6.6 0 00-.6.6v4.95c0 .3.3.6.6.6h4.95l7.35 1.275c.447.056.9-.05 1.275-.3l6-3.675a1.875 1.875 0 00.525-2.55v.075zm-12.6-2.85a.61.61 0 10.9-.825 3 3 0 00-1.05-.75A3 3 0 0111 9.125a3 3 0 012.55 1.5 3 3 0 00-1.05.675.61.61 0 10.9.825c1.125-1.125 3.15-.3 3.15 1.35 0 .3.3.6.6.6.45 0 .825.15 1.2.45l-3.225 1.65a3.076 3.076 0 00-2.925-2.1H9.95l-2.4-1.2a3.375 3.375 0 00-1.875-.3 1.876 1.876 0 013-.45H8.6zm11.4 4.35l-5.925 3.75a.6.6 0 01-.45 0l-7.35-1.2a.598.598 0 00-.15 0H1.7v-3.75h1.95a.6.6 0 00.525-.3 2.1 2.1 0 011.2-1.05 2.1 2.1 0 011.65.075L9.5 15.275a.6.6 0 00.3 0h2.4c.825 0 1.5.525 1.8 1.275H9.8a.6.6 0 00-.675.6c0 .375.3.6.675.6h4.875a.6.6 0 00.3 0l4.35-2.4a.675.675 0 01.825.225.675.675 0 01-.225.9H20z" fill="#202020"/></svg>