<svg width="22" height="22" fill="none" xmlns="http://www.w3.org/2000/svg"><path fill-rule="evenodd" clip-rule="evenodd" d="M21.5 9.65c-.75-6-7.125-10.5-13.575-8.775-2.025.6-3.9 1.95-5.25 3.9A10.875 10.875 0 00.5 10.925v3A1.875 1.875 0 001.625 15.5l13.5 5.625a3.527 3.527 0 004.65-2.025l.225-.525.6.225a.6.6 0 00.825-.525v-8.55l.075-.075zm-3 9.225c-.45 1.275-1.875 1.5-3 1.05L2.225 14.3a.6.6 0 01-.375-.6V11c0-3.825 3-7.725 6.525-8.7 4.8-1.35 10.5 1.65 11.55 6.675L12.425 8c-1.05-.15-2.175.9-2.175 1.95v2.775c0 .75.525 1.5 1.2 1.8l7.35 3.75-.3.75v-.15zM12.725 9.35v4.35l-.75-.6c-.225-.15-.225-.375-.225-.6v-2.475c0-.3.225-.75.6-.675h.375zM20 17.225l-5.85-3.075v-4.5l5.85.75v6.825z" fill="#202020"/><path fill-rule="evenodd" clip-rule="evenodd" d="M5.375 9.125a2.475 2.475 0 00-2.4 2.475 2.475 2.475 0 002.4 2.4 2.476 2.476 0 001.75-4.225 2.475 2.475 0 00-1.75-.725v.075zm0 3.75a1.2 1.2 0 01-1.125-1.35 1.2 1.2 0 111.2 1.2l-.075.15z" fill="#D61635"/></svg>