<svg width="22" height="22" fill="none" xmlns="http://www.w3.org/2000/svg"><path fill-rule="evenodd" clip-rule="evenodd" d="M18.875 3.125a8.776 8.776 0 00-9.64-1.95 8.775 8.775 0 00-2.885 1.95A8.775 8.775 0 003.8 9.35c0 1.8.525 3.525 1.5 5.025L.95 18.65a1.65 1.65 0 000 2.325c.375.3.75.45 1.2.45a1.65 1.65 0 001.125-.45l4.35-4.275a8.775 8.775 0 005.025 1.5 8.775 8.775 0 006.225-2.55 8.774 8.774 0 002.625-6.3c0-2.325-.9-4.575-2.625-6.225zM2.375 20a.375.375 0 01-.525-.525l4.2-4.2c.192.184.392.36.6.525L2.45 20h-.075zm15.675-5.25A7.663 7.663 0 117.25 3.875a7.575 7.575 0 015.4-2.25 7.575 7.575 0 015.4 2.25c3 3 3 7.8 0 10.8v.075z" fill="#202020"/><path fill-rule="evenodd" clip-rule="evenodd" d="M17.45 4.625a6.749 6.749 0 00-4.8-2.025 6.75 6.75 0 00-4.8 2.025 6.75 6.75 0 000 9.525 6.752 6.752 0 004.8 1.95 6.75 6.75 0 004.8-1.95 6.75 6.75 0 001.95-4.8 6.751 6.751 0 00-1.95-4.8v.075zm-.9 8.625a5.55 5.55 0 01-7.8-7.8 5.475 5.475 0 013.9-1.575c1.425 0 2.85.525 3.9 1.575a5.476 5.476 0 011.575 3.9 5.476 5.476 0 01-1.575 3.9z" fill="#202020"/><path fill-rule="evenodd" clip-rule="evenodd" d="M12.65 6.65a.6.6 0 00-.6.675v2.4a.6.6 0 101.2 0V7.25a.6.6 0 00-.6-.675v.075zm.6 4.8a.782.782 0 000-.075.525.525 0 00-.075-.15.6.6 0 00-.15-.075.6.6 0 00-.15-.15.598.598 0 00-.15 0 .6.6 0 00-.3 0 .525.525 0 00-.15.075.68.68 0 00-.075.075.521.521 0 00-.075.075.601.601 0 00-.075.225.6.6 0 000 .3.752.752 0 000 .15.521.521 0 00.075.075.525.525 0 00.15.075.675.675 0 00.15.075.47.47 0 00.075 0 .6.6 0 00.225 0c.05.009.1.009.15 0 .05.006.1.006.15 0a.599.599 0 00.15-.225.524.524 0 000-.15.679.679 0 00.075-.15.598.598 0 000-.15z" fill="#D61635"/></svg>