<svg width="18" height="20" fill="none" xmlns="http://www.w3.org/2000/svg"><path d="M17.25 8.075c.688-.687.688-1.787 0-2.406L12.437.856a1.719 1.719 0 00-2.337 0L6.112 4.844a1.719 1.719 0 00-.343 1.925L4.53 8.075a.55.55 0 000 .756l.275.275a.54.54 0 010 .757l-2.956 3.78a1.788 1.788 0 00-.069 2.063l-.344.482C.82 17.218.75 17.63.75 17.837a1.72 1.72 0 001.719 1.787 1.719 1.719 0 001.65-1.719c0-.206 0-.55-.413-1.306.276-.054.535-.171.756-.344L8.244 13.3a.55.55 0 01.756 0l.275.344a.549.549 0 00.825 0l1.238-1.306a1.718 1.718 0 001.925-.275l3.987-3.988zM1.919 17.906c0-.137.206-.687.55-1.168.343.55.55 1.03.55 1.168a.55.55 0 01-1.1 0zm3.987-7.631l.206.137a.55.55 0 10.757-.756L5.7 8.42l.825-.757 3.987 3.988-.825.756-1.168-1.168a.608.608 0 00-.894.825l.206.137a1.652 1.652 0 00-.344.206l-3.78 2.957c-.276.206-.688.206-.895-.07-.275-.274-.343-.687-.137-.962l2.956-3.781c.078-.085.147-.177.206-.275h.07zm10.588-3.85c.206.275.206.619 0 .825l-4.056 3.988a.55.55 0 01-.825 0L6.8 6.425a.55.55 0 010-.756l3.987-3.988a.55.55 0 01.825 0l4.813 4.813.069-.069z" fill="#202020"/><path d="M14.844 7.25a.549.549 0 000-.825L11.75 3.262a.55.55 0 00-.825 0L8.587 5.67a.55.55 0 000 .756l3.163 3.231c.206.206.55.206.825 0l2.338-2.406h-.07zm-1.169-.413L12.094 8.42 9.687 6.08l1.582-1.65 2.406 2.406z" fill="#D61635"/></svg>