<?xml version="1.0" encoding="utf-8"?><svg viewBox="0 0 165 102" xmlns="http://www.w3.org/2000/svg" xmlns:xlink="http://www.w3.org/1999/xlink"><style>:root>svg{display:none}:root>svg:target{display:block}</style><svg fill="none" viewBox="0 0 20 20" id="color-blue" xmlns="http://www.w3.org/2000/svg"><circle cx="10" cy="10" r="10" fill="#5485CE"/><path d="M10 20c5.523 0 10-4.477 10-10a9.962 9.962 0 00-.962-4.286l-6.18 2.5L10 20z" fill="#000" fill-opacity=".5"/></svg><svg fill="none" viewBox="0 0 28 28" id="color-green" xmlns="http://www.w3.org/2000/svg"><circle cx="14" cy="14" r="14" fill="#768F89"/><path d="M14 28c7.732 0 14-6.268 14-14 0-2.147-.483-4.181-1.347-6L18 11.5 14 28z" fill="#000" fill-opacity=".5"/></svg><svg fill="none" viewBox="0 0 28 28" id="color-grey" xmlns="http://www.w3.org/2000/svg"><circle cx="14" cy="14" r="14" fill="#7E7971"/><path d="M14 28c7.732 0 14-6.268 14-14 0-2.147-.483-4.181-1.347-6L18 11.5 14 28z" fill="#000" fill-opacity=".5"/></svg><svg fill="none" viewBox="0 0 28 28" id="color-red" xmlns="http://www.w3.org/2000/svg"><circle cx="14" cy="14" r="14" fill="#B43E37"/><path d="M14 28c7.732 0 14-6.268 14-14 0-2.147-.483-4.181-1.347-6L18 11.5 14 28z" fill="#000" fill-opacity=".5"/></svg><svg fill="none" viewBox="0 0 22 18" id="icon-arrow-back" xmlns="http://www.w3.org/2000/svg"><path d="M10.06 14.94L5.622 10.5H20a1.5 1.5 0 000-3H5.621l4.44-4.44A1.5 1.5 0 007.939.94l-7 7a1.5 1.5 0 000 2.12l7 7a1.5 1.5 0 002.122-2.12z" fill="#202020" stroke="#F4F4F4" stroke-linecap="round" stroke-linejoin="round"/></svg><svg fill="none" viewBox="0 0 7 16" id="icon-arrow-left" xmlns="http://www.w3.org/2000/svg"><path d="M6.5 15.5L1.5 8l5-7.5" stroke="#000"/></svg><svg fill="none" viewBox="0 0 7 16" id="icon-arrow-right" xmlns="http://www.w3.org/2000/svg"><path d="M.5 15.5l5-7.5L.5.5" stroke="#000"/></svg><svg fill="none" viewBox="0 0 12 16" id="icon-arrow-top" xmlns="http://www.w3.org/2000/svg"><path fill-rule="evenodd" clip-rule="evenodd" d="M11.827 6.868a.563.563 0 01-.835 0L6.59 2.156v13.212c0 .35-.264.632-.59.632-.326 0-.59-.283-.59-.632V2.156L1.007 6.868a.563.563 0 01-.834 0 .663.663 0 010-.894L5.583.185a.563.563 0 01.834 0l5.41 5.79c.23.246.23.646 0 .893z" fill="#000"/></svg><svg fill="none" viewBox="0 0 17 18" id="icon-arrow-up" xmlns="http://www.w3.org/2000/svg"><path d="M5.09 1v12a4 4 0 004 4H17M5.09 1l4.092 4.267M5.09 1L1 5.267" stroke="#000"/></svg><svg fill="none" viewBox="0 0 26 21" id="icon-basket" xmlns="http://www.w3.org/2000/svg"><path fill-rule="evenodd" clip-rule="evenodd" d="M.457.795A.9.9 0 011.54.124l4.876 1.143a.9.9 0 01.685.747l1.717 11.8h11.412l1.108-2.771h-9.642a.9.9 0 110-1.8h10.362l1.109-2.772H12.914a.9.9 0 110-1.8h11.581a.9.9 0 01.836 1.235l-1.829 4.571-1.828 4.572a.9.9 0 01-.836.566h-12.8a.9.9 0 01-.89-.77L5.408 2.878l-4.28-1.003A.9.9 0 01.458.795zm11.238 17.634c0 1.104-.955 2-2.133 2s-2.133-.896-2.133-2c0-1.105.955-2 2.133-2s2.133.895 2.133 2zm7.62 2c1.177 0 2.133-.896 2.133-2 0-1.105-.956-2-2.134-2s-2.133.895-2.133 2c0 1.104.955 2 2.133 2z" fill="#fff"/></svg><svg fill="none" viewBox="0 0 20 17" id="icon-basket-grey" xmlns="http://www.w3.org/2000/svg"><path fill-rule="evenodd" clip-rule="evenodd" d="M.353 1.01A.731.731 0 011.24.478l3.714.929c.29.072.507.314.548.61L6.808 11.6h8.605l.844-2.252H8.955a.731.731 0 110-1.462h7.85l.845-2.252H9.884a.731.731 0 110-1.462h8.821a.731.731 0 01.685.988l-2.785 7.428a.731.731 0 01-.685.475H6.17a.731.731 0 01-.725-.633L4.12 2.706.885 1.897a.731.731 0 01-.532-.887zm8.603 14.338a1.625 1.625 0 11-3.25 0 1.625 1.625 0 013.25 0zm5.803 1.625a1.625 1.625 0 100-3.25 1.625 1.625 0 000 3.25z" fill="#C4C4C4"/></svg><svg fill="none" viewBox="0 0 16 16" id="icon-blog-photo" xmlns="http://www.w3.org/2000/svg"><path d="M13.425 4.074H2.575c-.931 0-1.683.755-1.683 1.683v8.225c0 .931.755 1.683 1.683 1.683h10.85c.931 0 1.683-.756 1.683-1.683V5.757c0-.931-.755-1.683-1.683-1.683zM1.637 5.85c.003-.523.394-1.028.92-1.028h10.886c.523 0 .917.505.917 1.028v3.312l-4.305 2.525a1.1 1.1 0 01-1.289-.111l-2.134-1.87a1.85 1.85 0 00-2.32-.093l-2.675 1.945V5.85zm12.726 8.042c-.003.527-.394 1.032-.92 1.032H2.557c-.523 0-.917-.505-.917-1.028v-1.404l3.123-2.28c.422-.305.999-.273 1.386.074l2.134 1.852c.601.519 1.464.601 2.152.204l3.928-2.32v3.87z" fill="#fff"/><path d="M9.31 6.168a1.664 1.664 0 100 3.33 1.664 1.664 0 100-3.33zm0 2.582a.916.916 0 11-.001-1.834.916.916 0 01.002 1.834zM13.819 2.204H2.181a.372.372 0 100 .745h11.638a.372.372 0 100-.745zM12.88.335H3.116a.372.372 0 100 .745h9.766a.372.372 0 100-.745z" fill="#fff"/></svg><svg fill="none" viewBox="0 0 16 16" id="icon-blog-video" xmlns="http://www.w3.org/2000/svg"><path d="M10.15 9.852l-3.802-2.23a.338.338 0 00-.379 0 .358.358 0 00-.159.338v4.46a.358.358 0 00.16.338l.178.06c.071.002.141-.02.2-.06l3.802-2.23a.378.378 0 000-.676zm-3.544 1.871V8.657l2.608 1.533-2.608 1.533z" fill="#fff"/><path d="M13.973 4.516H2.027c-.99 0-1.792.802-1.792 1.792v7.565c0 .99.803 1.792 1.792 1.792h11.946c.99 0 1.791-.802 1.791-1.792V6.308c0-.99-.802-1.792-1.791-1.792zm.995 9.357c0 .55-.445.996-.995.996H2.027a.995.995 0 01-.995-.996V6.308c0-.55.445-.996.995-.996h11.946c.55 0 .995.446.995.996v7.565zM2.286 3.321h11.448a.398.398 0 000-.796H2.286a.398.398 0 100 .796zM3.978 1.131h8.044a.398.398 0 000-.796H3.978a.398.398 0 100 .796z" fill="#fff"/></svg><svg fill="none" viewBox="0 0 14 6" id="icon-caret" xmlns="http://www.w3.org/2000/svg"><path d="M1 1l6 4 6-4" stroke="#000"/></svg><svg fill="none" viewBox="0 0 12 9" id="icon-check-white" xmlns="http://www.w3.org/2000/svg"><path d="M1.625 3.333L4.99 6.667l5.385-5.334" stroke="#fff" stroke-width="2"/></svg><svg fill="none" viewBox="0 0 10 10" id="icon-close" xmlns="http://www.w3.org/2000/svg"><path d="M1 1l4 4m4 4L5 5m0 0l4-4M5 5L1 9" stroke="#fff" stroke-width="2" stroke-linecap="round" stroke-linejoin="round"/></svg><svg fill="none" viewBox="0 0 18 18" id="icon-close-black" xmlns="http://www.w3.org/2000/svg"><path d="M1 1l8 8m8 8L9 9m0 0l8-8M9 9l-8 8" stroke="#202020" stroke-width="2" stroke-linecap="round" stroke-linejoin="round"/></svg><svg fill="none" viewBox="0 0 24 16" id="icon-comparison" xmlns="http://www.w3.org/2000/svg"><path fill-rule="evenodd" clip-rule="evenodd" d="M20.512 0L24 8.407l-.015.13-.496-.059.496.059v.005l-.002.01a5.135 5.135 0 01-.117.56c-.089.33-.241.777-.498 1.228-.52.913-1.488 1.866-3.177 1.866-1.69 0-2.657-.953-3.177-1.866a5.265 5.265 0 01-.615-1.787l-.001-.01v-.004l-.001-.001s0-.002.496-.06l-.496.059-.015-.13L19.414 1.1l-6.915.61V16h-.998V1.798l-6.97.616 3.087 7.44-.015.13-.496-.059.496.059v.006L7.6 10a2.247 2.247 0 01-.025.154 5.264 5.264 0 01-.59 1.633c-.52.913-1.488 1.867-3.177 1.867S1.152 12.7.632 11.787A5.264 5.264 0 01.017 10l-.001-.01v-.005l.495-.06-.496.059L0 9.854l3.464-8.348L20.512 0zM1.259 9.426L3.81 3.28l2.55 6.146h-5.1zm-.125.998c.076.255.193.564.366.87.4.7 1.08 1.361 2.31 1.361 1.228 0 1.909-.66 2.308-1.362.174-.305.29-.614.366-.869h-5.35zM20.19 1.833l-2.55 6.146h5.1l-2.55-6.146zm-2.675 7.144a4.2 4.2 0 00.366.869c.4.701 1.08 1.362 2.309 1.362 1.228 0 1.91-.661 2.309-1.362a4.2 4.2 0 00.366-.869h-5.35z" fill="#202020"/></svg><svg fill="none" viewBox="0 0 21 14" id="icon-comparison-grey" xmlns="http://www.w3.org/2000/svg"><path d="M16.435.005L3.882 1.118a1.21 1.21 0 00-1.016.748L.25 8.17v.065s.081.455.114.593c.1.368.245.723.43 1.056A3.088 3.088 0 003.59 11.51a3.087 3.087 0 002.795-1.625c.188-.332.33-.687.423-1.056.04-.138.114-.593.114-.593V8.17L4.483 2.36l5.07-.447v10.872a.65.65 0 001.3 0V1.8l4.997-.439-2.291 5.63v.066s.073.455.114.6c.094.37.236.725.422 1.057a3.21 3.21 0 005.59 0c.183-.335.327-.689.43-1.056 0-.146.114-.601.114-.601v-.065L17.67.76a1.211 1.211 0 00-1.235-.756zM1.875 7.602l1.706-4.111 1.706 4.111H1.875zm3.55 1.34c-.047.117-.101.231-.162.342a1.795 1.795 0 01-1.625.983 1.796 1.796 0 01-1.665-.983 3.323 3.323 0 01-.163-.341h3.616zm13.31-1.218c-.05.122-.106.235-.163.35a1.902 1.902 0 01-3.331 0c-.057-.115-.114-.228-.163-.35h3.656zM15.2 6.432l1.706-4.12 1.707 4.12H15.2z" fill="#BEBEBE"/></svg><svg fill="none" viewBox="0 0 24 16" id="icon-comparison-white" xmlns="http://www.w3.org/2000/svg"><path fill-rule="evenodd" clip-rule="evenodd" d="M20.512 0L24 8.407l-.015.13-.496-.059.496.059v.005l-.002.01a5.135 5.135 0 01-.117.56c-.089.33-.241.777-.498 1.228-.52.913-1.488 1.866-3.177 1.866-1.69 0-2.657-.953-3.177-1.866a5.265 5.265 0 01-.615-1.787l-.001-.01v-.004l-.001-.001s0-.002.496-.06l-.496.059-.015-.13L19.414 1.1l-6.915.61V16h-.998V1.798l-6.97.616 3.087 7.44-.015.13-.496-.059.496.059v.006L7.6 10a2.247 2.247 0 01-.025.154 5.264 5.264 0 01-.59 1.633c-.52.913-1.488 1.867-3.177 1.867S1.152 12.7.632 11.787A5.264 5.264 0 01.017 10l-.001-.01v-.005l.495-.06-.496.059L0 9.854l3.464-8.348L20.512 0zM1.259 9.426L3.81 3.28l2.55 6.146h-5.1zm-.125.998c.076.255.193.564.366.87.4.7 1.08 1.361 2.31 1.361 1.228 0 1.909-.66 2.308-1.362.174-.305.29-.614.366-.869h-5.35zM20.19 1.833l-2.55 6.146h5.1l-2.55-6.146zm-2.675 7.144a4.2 4.2 0 00.366.869c.4.701 1.08 1.362 2.309 1.362 1.228 0 1.91-.661 2.309-1.362a4.2 4.2 0 00.366-.869h-5.35z" fill="#fff"/></svg><svg fill="none" viewBox="0 0 36 28" id="icon-delivery" xmlns="http://www.w3.org/2000/svg"><path fill-rule="evenodd" clip-rule="evenodd" d="M27.123 0h.285l.18.222 7.626 9.385.134.165V22.903h-3.557a4.707 4.707 0 01-9.336 0h-8.261a4.707 4.707 0 01-9.336 0H.714V0H27.123zm0 17.597a4.707 4.707 0 014.668 4.106h2.357V10.198L26.838 1.2H1.913v20.503h2.944a4.707 4.707 0 019.336 0h8.26a4.707 4.707 0 014.669-4.106zm3.506 4.706a3.506 3.506 0 10-7.012 0 3.506 3.506 0 007.012 0zm-17.597 0a3.506 3.506 0 10-7.012 0 3.506 3.506 0 007.012 0zM9.622 11.01h2.369v-.609H9.62v-1.93h2.754v-.613H8.877v5.645h.745v-2.493zm4.389.21h1.326l1.225 2.283h.8v-.046l-1.327-2.396a1.69 1.69 0 00.791-.586c.191-.261.287-.567.287-.919 0-.553-.172-.974-.516-1.264-.34-.29-.83-.434-1.465-.434h-1.87v5.645h.749V11.22zm1.144-.61H14.01v-2.14h1.14c.393.003.693.097.9.283.209.187.314.454.314.803 0 .32-.11.576-.33.768-.217.191-.51.287-.88.287zm6.196.284h-2.447v2h2.843v.61H18.16V7.858h3.548v.612h-2.804v1.815h2.447v.609zm2.067 0h2.447v-.609h-2.447V8.471h2.803V7.86h-3.548v5.645h3.587v-.608h-2.842v-2.001z" fill="#202020"/></svg><svg id="icon-discount" data-name="Слой 1" viewBox="0 0 32 32" xmlns="http://www.w3.org/2000/svg"><defs><style>.avcls-1{fill:#202020}.avcls-2{fill:#27aa06}.avcls-3{fill:#6fd955}.avcls-4{fill:#fff}</style></defs><path class="avcls-1" d="M0 3.74a1.87 1.87 0 011.88-1.86h28.24A1.87 1.87 0 0132 3.74V7H0z"/><path class="avcls-2" d="M3.88 1.88h26.24A1.91 1.91 0 0132 3.82v26.3H3.88z"/><path class="avcls-3" d="M4.22 2.56a.17.17 0 01.17-.17h25.87a1.31 1.31 0 011.22.85H4.39a.17.17 0 01-.17-.17z"/><path class="avcls-4" d="M15.73 15.4a4.22 4.22 0 00.76-2.78V12a4.11 4.11 0 00-.74-2.73 3.24 3.24 0 00-2.52-.84 3.21 3.21 0 00-2.52.85A4.17 4.17 0 0010 12v.58a4.29 4.29 0 00.75 2.79 3.06 3.06 0 002.5.9 3.12 3.12 0 002.48-.87zm-1.56-2.89v.7a3.43 3.43 0 01-.06.54 1.17 1.17 0 01-.16.43.79.79 0 01-.27.24 1 1 0 01-.44.09 1 1 0 01-.44-.09.83.83 0 01-.28-.24 1.25 1.25 0 01-.15-.42 3.64 3.64 0 01-.07-.54v-1.14-.69a4.53 4.53 0 01.06-.5.79.79 0 01.15-.39.78.78 0 01.28-.2 1.17 1.17 0 01.45-.08 1.19 1.19 0 01.46.08.75.75 0 01.28.2.92.92 0 01.15.39 2.92 2.92 0 01.05.5V12.51zM18.93 8.15l-4.38 14.39h2.19l4.38-14.39zM25 15.23a3.24 3.24 0 00-2.52-.84 3.24 3.24 0 00-2.52.85 4.17 4.17 0 00-.75 2.76v.58a4.25 4.25 0 00.79 2.79 3.07 3.07 0 002.49.9 3.14 3.14 0 002.5-.89 4.21 4.21 0 00.77-2.78V18a4.1 4.1 0 00-.76-2.77zm-1.57 3.25v.71a3.64 3.64 0 01-.07.54 1.41 1.41 0 01-.15.43.91.91 0 01-.28.23 1 1 0 01-.88 0 .69.69 0 01-.27-.23 1.19 1.19 0 01-.16-.42 2.62 2.62 0 01-.06-.54v-1.14-.69a3 3 0 010-.51.79.79 0 01.15-.38.88.88 0 01.28-.2 1.17 1.17 0 01.45-.08 1.19 1.19 0 01.46.08.75.75 0 01.28.2.81.81 0 01.15.38 5 5 0 01.06.51v1.11z"/></svg><svg fill="none" viewBox="0 0 20 8" id="icon-dropdown" xmlns="http://www.w3.org/2000/svg"><path d="M1 1l9 6 9-6" stroke="#202020"/></svg><svg fill="none" viewBox="0 0 14 6" id="icon-dropdown-white" xmlns="http://www.w3.org/2000/svg"><path d="M1 1l6 4 6-4" stroke="#fff"/></svg><svg fill="none" viewBox="0 0 25 20" id="icon-email" xmlns="http://www.w3.org/2000/svg"><path d="M12.77 11.724L24.6.908V19.6H.4V.908l11.83 10.816.27.247.27-.247zm-.27-.837L1.03.4h22.94L12.5 10.887z" fill="#D61635" stroke="#fff" stroke-width=".8"/></svg><svg fill="none" viewBox="0 0 14 10" id="icon-email-black" xmlns="http://www.w3.org/2000/svg"><path fill-rule="evenodd" clip-rule="evenodd" d="M14 10V1.25L7 6.875 0 1.25V10h14zM7 5l6.364-5H.636L7 5z" fill="#3F3F3F"/></svg><svg fill="none" viewBox="0 0 18 13" id="icon-email-red" xmlns="http://www.w3.org/2000/svg"><path d="M11.932 6.28L18 10.116V2.282L11.932 6.28zM0 2.282v7.834L6.068 6.28 0 2.282zM16.875 0H1.125C.564 0 .118.419.034.957L9 6.865 17.966.957C17.882.42 17.436 0 16.875 0zM10.901 6.96L9.31 8.007a.562.562 0 01-.62 0L7.1 6.958.036 11.425c.087.535.53.95 1.09.95h15.75c.558 0 1.002-.415 1.088-.95L10.901 6.96z" fill="#D61635"/></svg><svg fill="none" viewBox="0 0 165 102" id="icon-empty-basket" xmlns="http://www.w3.org/2000/svg"><g opacity=".46"><path opacity=".8" d="M164.885 33.52L95.852 65.106v-33.52L164.885 0v33.52z" fill="url(#bbpaint0_linear)"/><path d="M152.101 53.227L95.852 79.481V51.62l56.249-26.254v27.861zM132.982 19.114l-36.93 16.9V18.08l36.93-16.901v17.936z" fill="#B9C3CD" fill-opacity=".8"/></g><g opacity=".46"><path opacity=".8" d="M.115 68.48l69.033-31.586v33.52L.115 102V68.48z" fill="url(#bbpaint1_linear)"/><path d="M12.9 48.773l56.248-26.254V50.38L12.899 76.634V48.773zM32.018 82.886l36.93-16.9V83.92l-36.93 16.901V82.886z" fill="#B9C3CD" fill-opacity=".8"/></g><ellipse cx="82.898" cy="50.338" rx="40.056" ry="39.74" fill="#D61635"/><g clip-path="url(#bbclip0)" fill="#fff"><path fill-rule="evenodd" clip-rule="evenodd" d="M58.962 35.198a1.583 1.583 0 011.293-1.226c.209-.033.421-.023.626.028l8.454 2.032a1.571 1.571 0 011.193 1.285l2.956 20.494h19.71L95.096 53l1.245-3.126 1.919-4.811.916-2.188c.433-.99.986-.956 1.383-.938a1.6 1.6 0 011.297.695 1.602 1.602 0 01.156 1.458l-3.164 7.937-3.164 8.024a1.56 1.56 0 01-1.453.972h-22.13c-.373 0-.734-.135-1.017-.38a1.565 1.565 0 01-.521-.957l-2.957-20.858-7.4-1.737a1.57 1.57 0 01-1.02-.682 1.584 1.584 0 01-.224-1.21zm19.467 30.636a3.602 3.602 0 01-1.127 2.501c-.69.651-1.609 1-2.555.973a3.45 3.45 0 01-2.445-1.018 3.482 3.482 0 010-4.912 3.45 3.45 0 012.445-1.017 3.548 3.548 0 012.56.967 3.578 3.578 0 011.122 2.506zm13.175 3.474a3.449 3.449 0 001.856-.692 3.489 3.489 0 00.286-5.306 3.453 3.453 0 00-3.737-.658 3.46 3.46 0 00-1.517 1.278 3.485 3.485 0 00-.571 1.904c.032.95.437 1.85 1.127 2.501.69.651 1.61 1 2.556.973z"/><path d="M77.79 44.212c0-3.838 1.884-7.676 6.137-7.676s6.155 3.838 6.155 7.676-1.902 7.694-6.12 7.694c-4.219 0-6.172-3.856-6.172-7.694zm9.042 0c0-2.744-.796-4.863-2.905-4.863-2.11 0-2.939 2.119-2.939 4.863s.795 4.88 2.94 4.88c2.143 0 2.904-2.136 2.904-4.88z"/></g><defs><linearGradient id="bbpaint0_linear" x1="97.483" y1="41.892" x2="165.535" y2="-1.121" gradientUnits="userSpaceOnUse"><stop stop-color="#B9C3CD"/><stop offset="1" stop-color="#B9C3CD" stop-opacity="0"/></linearGradient><linearGradient id="bbpaint1_linear" x1="67.517" y1="60.108" x2="-.535" y2="103.122" gradientUnits="userSpaceOnUse"><stop stop-color="#B9C3CD"/><stop offset="1" stop-color="#B9C3CD" stop-opacity="0"/></linearGradient><clipPath id="bbclip0"><path fill="#fff" transform="translate(58.962 34)" d="M0 0h43.154v35.308H0z"/></clipPath></defs></svg><svg fill="none" viewBox="0 0 54 54" id="icon-entity" xmlns="http://www.w3.org/2000/svg"><path d="M30.669 54l-1.798-8.018 1.751-2.392-3.549-2.063-3.548 2.063 1.75 2.392L23.479 54h7.19zM5.226 26.12h.934c.119-.816.4-1.58.808-2.258v-3.759H5.226v6.017z" fill="#202020"/><path fill-rule="evenodd" clip-rule="evenodd" d="M54 20.882a4.328 4.328 0 00-3.103-4.17l-5.607-1.683v-1.323a6.09 6.09 0 002.613-4.995V6.097A6.104 6.104 0 0041.806 0a6.104 6.104 0 00-6.096 6.097V8.71a6.088 6.088 0 002.613 4.995v1.323l-4.941 1.483a10.032 10.032 0 00-6.725-2.575c-2.498 0-4.784.915-6.55 2.423l-4.43-1.33v-1.323a6.09 6.09 0 002.613-4.995V6.097A6.104 6.104 0 0012.194 0a6.104 6.104 0 00-6.097 6.097V8.71a6.088 6.088 0 002.613 4.995v1.323L3.103 16.71A4.33 4.33 0 000 20.882V27.871h6.097V27c0-.299.021-.593.063-.88H1.742v-5.238c0-1.162.748-2.169 1.862-2.502l5.608-1.683c.507.659 1.488 1.593 2.982 1.593 1.493 0 2.474-.934 2.98-1.593l3.573 1.072a10.055 10.055 0 00-2.119 5.06 6.076 6.076 0 00-4.434-1.926A6.1 6.1 0 006.096 27v2.613a6.088 6.088 0 002.613 4.996v1.323l-5.607 1.682A4.33 4.33 0 000 41.786v7.86h11.322V54h31.355v-4.354H54v-7.86a4.328 4.328 0 00-3.103-4.172l-5.607-1.681v-1.324a6.09 6.09 0 002.613-4.995V27a6.054 6.054 0 00-.87-3.138 6.1 6.1 0 00-5.227-2.959 6.077 6.077 0 00-4.354 1.838v-.826c0-1.72-.935-3.268-2.394-4.087l3.767-1.13c.507.657 1.488 1.591 2.981 1.591 1.494 0 2.475-.934 2.982-1.593l5.609 1.683a2.596 2.596 0 011.861 2.502v5.238H47.84c.042.287.063.582.063.88v.871H54V20.882zM16.548 6.097a4.36 4.36 0 00-4.354-4.355 4.36 4.36 0 00-4.355 4.355h.51c.553 0 1.096-.225 1.487-.616l.616-.616.615.616c.391.391.934.616 1.487.616h3.994zm-8.71 1.742v.87a4.36 4.36 0 004.356 4.356 4.36 4.36 0 004.354-4.355v-.871h-3.994a3.814 3.814 0 01-2.102-.625 3.814 3.814 0 01-2.103.625h-.51zm2.614 7.599c.216.333.816 1.11 1.742 1.11.925 0 1.525-.777 1.741-1.11v-.888a6.061 6.061 0 01-3.483 0v.888zm27.87 19.171a6.124 6.124 0 01-2.188-2.774 4.337 4.337 0 01-2.664 1.223 7.002 7.002 0 01-2.115 2.856v1.716l.823.19c.175-.08.354-.15.539-.206l5.606-1.681v-1.324zm-8.71 2.33a6.92 6.92 0 01-5.225 0v.948L27 39.847l2.613-1.96v-.948zm-4.171 3.916l-2.123-1.593-.614.142.553 2.762 2.184-1.31zm-.08 11.403h9.478V45.29h1.742v6.968h4.354V45.093a4.336 4.336 0 00-3.375-4.244l-4.567-1.054-1.027 5.136-1.822-1.093-1.53-.919L27 41.951l-1.615.968-1.53.919-1.822 1.093-1.027-5.136-4.566 1.054a4.336 4.336 0 00-3.376 4.244v7.165h4.355V45.29h1.742v6.968h6.199zm5.322-12.996l-2.124 1.593 2.184 1.31.553-2.761-.613-.142zm3.247-8.059a2.612 2.612 0 001.1-.703 2.598 2.598 0 00.666-2.018c-.093-.986-.79-1.81-1.728-2.166v4.168c0 .243-.013.483-.038.72zM27 35.71a5.231 5.231 0 005.226-5.226v-4.355h-1.41l-.688-1.379a11.201 11.201 0 01-5.397 1.379h-2.957v4.355A5.231 5.231 0 0027 35.71zm-8.03-5.21c.301.33.684.562 1.1.703a7.044 7.044 0 01-.038-.72v-4.166c-.937.355-1.634 1.18-1.729 2.166a2.596 2.596 0 00.666 2.017zm3.675 5.414a6.988 6.988 0 01-2.115-2.856 4.337 4.337 0 01-2.665-1.223 6.129 6.129 0 01-2.188 2.774v1.323l5.607 1.682c.184.056.362.127.538.206l.823-.19v-1.716zM16.548 27a4.36 4.36 0 00-4.354-4.355A4.36 4.36 0 007.838 27h3.994c.553 0 1.096-.224 1.487-.616l.615-.616.616.616c.391.392.934.616 1.487.616h.51zm-8.71 1.742v.87a4.36 4.36 0 004.356 4.356 4.36 4.36 0 004.354-4.355v-.871h-.51a3.814 3.814 0 01-2.103-.624 3.814 3.814 0 01-2.102.624H7.839zm6.097 6.71a6.061 6.061 0 01-3.483.002v.887c.216.333.816 1.11 1.742 1.11.925 0 1.525-.776 1.741-1.11v-.888zM6.968 47.904h4.354v-2.81a6.07 6.07 0 014.726-5.941l2.43-.56-3.303-.992c-.507.659-1.488 1.593-2.982 1.593-1.493 0-2.474-.934-2.98-1.593l-5.609 1.683a2.595 2.595 0 00-1.862 2.503v6.117h3.484v-6.097h1.742v6.097zm45.29-6.117a2.595 2.595 0 00-1.862-2.503L44.788 37.6c-.507.659-1.488 1.593-2.982 1.593-1.493 0-2.474-.934-2.98-1.593l-3.303.992 2.429.56a6.07 6.07 0 014.725 5.94v2.811h4.355v-6.097h1.742v6.097h3.484v-6.117zm-10.452-4.334c.926 0 1.526-.777 1.742-1.11v-.89a6.061 6.061 0 01-3.483 0v.89c.213.33.814 1.11 1.741 1.11zm-4.354-7.84a4.36 4.36 0 004.354 4.356 4.36 4.36 0 004.355-4.355v-.871h-3.994a3.814 3.814 0 01-2.102-.624 3.814 3.814 0 01-2.103.624h-.51v.87zM46.162 27a4.36 4.36 0 00-4.356-4.355A4.36 4.36 0 0037.452 27h.51c.553 0 1.096-.224 1.487-.616l.616-.616.615.616c.391.392.934.616 1.487.616h3.994zm-13.215-2.613c1.035 0 1.992.362 2.763.945v-3.417a2.947 2.947 0 00-2.017-2.798l-.196-.065-.924-.925a8.313 8.313 0 00-5.916-2.45c-4.613 0-8.367 3.754-8.367 8.367v1.288a4.576 4.576 0 012.763-.945h3.678a9.47 9.47 0 005.27-1.596l.821-.546 1.071 2.142h1.054zm13.214-18.29a4.36 4.36 0 00-4.355-4.355 4.36 4.36 0 00-4.354 4.355h3.994c.553 0 1.096-.225 1.487-.616l.615-.616.616.616c.391.391.934.616 1.487.616h.51zm-8.71 1.742v.87a4.36 4.36 0 004.355 4.356 4.36 4.36 0 004.355-4.355v-.871h-.51a3.814 3.814 0 01-2.103-.625 3.814 3.814 0 01-2.102.625h-3.994zm2.614 7.599c.213.33.814 1.11 1.741 1.11.926 0 1.526-.777 1.742-1.11v-.888a6.061 6.061 0 01-3.483 0v.888z" fill="#202020"/><path d="M47.84 26.12h.934v-6.017h-1.742v3.76c.409.678.69 1.441.808 2.257zM20.032 0h1.742v1.742h-1.742V0zM20.032 3.484h1.742v9.58h-1.742v-9.58zM32.226 0h1.742v1.742h-1.742V0zM32.226 3.484h1.742v9.58h-1.742v-9.58zM23.516 3.484h1.742V9.58h-1.742V3.484zM23.516 11.323h1.742v1.742h-1.742v-1.742zM28.742 3.484h1.742V9.58h-1.742V3.484zM28.742 11.323h1.742v1.742h-1.742v-1.742zM33.896 40.354h-1.76V34.19h1.76z" fill="#202020"/></svg><svg fill="none" viewBox="0 0 32 32" id="icon-filters" xmlns="http://www.w3.org/2000/svg"><path fill="#fff" d="M0 0h32v32H0z"/><path d="M13.216 12c0 1.105-.944 2-2.108 2C9.944 14 9 13.105 9 12s.944-2 2.108-2c1.164 0 2.108.895 2.108 2zm0 0H23M18.784 19c0-1.105.944-2 2.108-2 1.164 0 2.108.895 2.108 2s-.944 2-2.108 2c-1.164 0-2.108-.895-2.108-2zm0 0H9" stroke="#202020"/></svg><svg fill="none" viewBox="0 0 16 16" id="icon-gift" xmlns="http://www.w3.org/2000/svg"><path fill-rule="evenodd" clip-rule="evenodd" d="M6.844 1.209A3.049 3.049 0 005.085.057C4.45-.083 3.7.011 3.261.607c-.668.911-.721 2.374.232 3.218H0v3.75h7.5V5h1v2.575H16v-3.75h-3.493c.953-.844.9-2.307.232-3.218-.438-.596-1.189-.69-1.824-.55A3.049 3.049 0 009.156 1.21c-.199.27-.327.612-.415.938-.089.332-.144.683-.18.997-.026.245-.042.473-.05.66H7.489a10.352 10.352 0 00-.05-.66 6.816 6.816 0 00-.18-.997c-.088-.326-.216-.667-.415-.938zM5.85 3.73c.258.038.499.06.696.075a9.338 9.338 0 00-.044-.557 5.885 5.885 0 00-.153-.857c-.075-.277-.166-.49-.265-.625a2.109 2.109 0 00-1.202-.79c-.449-.099-.736.015-.863.188-.454.619-.41 1.524.114 1.971.36.307 1.038.495 1.717.595zM11.117.976a2.109 2.109 0 00-1.202.79c-.1.135-.19.348-.265.625-.072.27-.12.57-.153.857a9.338 9.338 0 00-.044.557c.197-.014.438-.037.697-.075.678-.1 1.356-.288 1.716-.595.525-.447.568-1.352.114-1.97-.127-.174-.414-.288-.863-.189zM1.13 8.238H7.5V16H1.13V8.238zm7.37 0h6.371V16h-6.37V8.238z" fill="#fff"/></svg><svg fill="none" viewBox="0 0 12 12" id="icon-gift-black" xmlns="http://www.w3.org/2000/svg"><path fill-rule="evenodd" clip-rule="evenodd" d="M5.132.907A2.287 2.287 0 003.814.043c-.477-.105-1.04-.035-1.368.413-.501.683-.541 1.78.174 2.413H0v2.812h5.625V3.75h.75v1.931H12V2.87H9.38c.714-.633.675-1.73.173-2.413-.328-.448-.891-.518-1.367-.413a2.287 2.287 0 00-1.32.864c-.148.203-.245.459-.31.703a5.113 5.113 0 00-.135.748 7.76 7.76 0 00-.038.496h-.766a7.76 7.76 0 00-.039-.496 5.112 5.112 0 00-.134-.748 2.133 2.133 0 00-.312-.703zm-.744 1.89c.193.029.374.046.522.057a7.004 7.004 0 00-.033-.418 4.414 4.414 0 00-.115-.643 1.454 1.454 0 00-.198-.468 1.581 1.581 0 00-.902-.593c-.336-.074-.552.011-.647.141-.34.464-.308 1.143.086 1.479.27.23.778.37 1.287.446zM8.338.733a1.581 1.581 0 00-.902.593c-.075.1-.143.26-.199.468-.054.203-.09.428-.114.643a7.004 7.004 0 00-.034.418c.148-.01.33-.028.523-.056.509-.075 1.017-.217 1.287-.446.394-.336.426-1.015.085-1.479-.095-.13-.31-.215-.646-.14zM.847 6.179h4.778V12H.847V6.179zm5.528 0h4.778V12H6.375V6.179z" fill="#202020"/></svg><svg id="icon-gift-new" data-name="Слой 1" viewBox="0 0 32 32" xmlns="http://www.w3.org/2000/svg"><defs><style>.bgcls-1{fill:#202020}.bgcls-2{fill:#d61635}.bgcls-3{fill:#f7667d}.bgcls-4{fill:#fff}</style></defs><path class="bgcls-1" d="M0 3.81A1.86 1.86 0 011.86 2h28.28A1.86 1.86 0 0132 3.81V7H0z"/><path class="bgcls-2" d="M32 3.81v26.24H3.89V2h26.24A1.86 1.86 0 0132 3.81z"/><path class="bgcls-3" d="M4.23 2.64a.18.18 0 01.17-.17h25.68a1.32 1.32 0 011.24.88H4.4a.17.17 0 01-.17-.17z"/><path class="bgcls-4" d="M22 12.15a2.28 2.28 0 00.2-3 1.53 1.53 0 00-1.64-.5A2.71 2.71 0 0019 9.74a2.46 2.46 0 00-.38.86 6.35 6.35 0 00-.16.92c0 .23 0 .44-.05.61h-.92c0-.17 0-.38-.05-.61a6.35 6.35 0 00-.16-.92 2.66 2.66 0 00-.38-.86 2.71 2.71 0 00-1.6-1.06 1.55 1.55 0 00-1.65.5 2.3 2.3 0 00.21 3h-3.15v3.46h6.78v-2.41h.9v2.38h6.78v-3.46zm-6-.09a3.23 3.23 0 01-1.56-.55 1.4 1.4 0 01-.1-1.81.73.73 0 01.78-.18 2 2 0 011.09.73 1.9 1.9 0 01.24.58 6.5 6.5 0 01.14.79v.51a5.5 5.5 0 01-.59-.07zm5.43-.55a3.15 3.15 0 01-1.55.55 5.5 5.5 0 01-.63.07v-.51a6.5 6.5 0 01.14-.79 1.9 1.9 0 01.24-.58 1.92 1.92 0 011.09-.73.73.73 0 01.78.18 1.39 1.39 0 01-.07 1.81zM11.73 16.22h5.76v7.16h-5.76zm6.66 0h5.76v7.16h-5.76z"/></svg><svg fill="none" viewBox="0 0 32 32" id="icon-hit" xmlns="http://www.w3.org/2000/svg"><path d="M31 0H1C.448 0 0 .446 0 .997c0 .55.448.997 1 .997h30c.552 0 1-.447 1-.997A.998.998 0 0031 0z" fill="#DC222C"/><path fill-rule="evenodd" clip-rule="evenodd" d="M30.433 31.823L17.7 23.096a3.008 3.008 0 00-3.4 0L1.567 31.823A1 1 0 010 31V6.978a2.995 2.995 0 013-2.99h26c1.657 0 3 1.338 3 2.99v24.023a1 1 0 01-1.567.822zM10.306 17h2.03l-2.32-3.43 2.17-3.24h-2.04l-1.29 2.09-1.31-2.09h-2.03l2.18 3.25L5.366 17h2.04l1.45-2.24 1.45 2.24zm4.187 0h-1.66v-6.67h1.72v3.93l2.7-3.93h1.78V17h-1.73v-4.12L14.493 17zm7.233 0h1.72v-5.17h1.86v-1.5h-5.45v1.5h1.87V17z" fill="#DC222C"/></svg><svg fill="none" viewBox="0 0 22 22" id="icon-instagram" xmlns="http://www.w3.org/2000/svg"><path fill-rule="evenodd" clip-rule="evenodd" d="M4.889 0A4.889 4.889 0 000 4.889V17.11C0 19.811 2.189 22 4.889 22H17.11c2.7 0 4.889-2.189 4.889-4.889V4.89C22 2.189 19.811 0 17.111 0H4.89zm6.107 16.493a5.65 5.65 0 01-5.65-5.65 5.65 5.65 0 019.646-3.995 5.65 5.65 0 01-3.996 9.645zm5.876-10.192a1.316 1.316 0 01-.505-2.534 1.316 1.316 0 11.505 2.534zm-2.205 4.542a3.67 3.67 0 11-7.341 0 3.67 3.67 0 017.34 0z" fill="#D61635"/><path fill-rule="evenodd" clip-rule="evenodd" d="M4.889 0A4.889 4.889 0 000 4.889V17.11C0 19.811 2.189 22 4.889 22H17.11c2.7 0 4.889-2.189 4.889-4.889V4.89C22 2.189 19.811 0 17.111 0H4.89zm6.107 16.493a5.65 5.65 0 01-5.65-5.65 5.65 5.65 0 019.646-3.995 5.65 5.65 0 01-3.996 9.645zm5.876-10.192a1.316 1.316 0 01-.505-2.534 1.316 1.316 0 11.505 2.534zm-2.205 4.542a3.67 3.67 0 11-7.341 0 3.67 3.67 0 017.34 0z" fill="url(#bipaint0_radial)"/><path fill-rule="evenodd" clip-rule="evenodd" d="M4.889 0A4.889 4.889 0 000 4.889V17.11C0 19.811 2.189 22 4.889 22H17.11c2.7 0 4.889-2.189 4.889-4.889V4.89C22 2.189 19.811 0 17.111 0H4.89zm6.107 16.493a5.65 5.65 0 01-5.65-5.65 5.65 5.65 0 019.646-3.995 5.65 5.65 0 01-3.996 9.645zm5.876-10.192a1.316 1.316 0 01-.505-2.534 1.316 1.316 0 11.505 2.534zm-2.205 4.542a3.67 3.67 0 11-7.341 0 3.67 3.67 0 017.34 0z" fill="url(#bipaint1_radial)"/><defs><radialGradient id="bipaint0_radial" cx="0" cy="0" r="1" gradientUnits="userSpaceOnUse" gradientTransform="translate(8.178 22.016) scale(27.4238)"><stop stop-color="#FD5"/><stop offset=".328" stop-color="#FF543F"/><stop offset=".348" stop-color="#FC5245"/><stop offset=".504" stop-color="#E64771"/><stop offset=".643" stop-color="#D53E91"/><stop offset=".761" stop-color="#CC39A4"/><stop offset=".841" stop-color="#C837AB"/></radialGradient><radialGradient id="bipaint1_radial" cx="0" cy="0" r="1" gradientUnits="userSpaceOnUse" gradientTransform="matrix(18.2094 0 0 12.133 3.54 -.275)"><stop stop-color="#4168C9"/><stop offset=".999" stop-color="#4168C9" stop-opacity="0"/></radialGradient></defs></svg><svg fill="none" viewBox="0 0 33 32" id="icon-instagram-gray" xmlns="http://www.w3.org/2000/svg"><path fill-rule="evenodd" clip-rule="evenodd" d="M7.611 0A7.111 7.111 0 00.5 7.111V24.89A7.111 7.111 0 007.611 32H25.39a7.111 7.111 0 007.111-7.111V7.11A7.111 7.111 0 0025.389 0H7.61zm8.884 23.99a8.217 8.217 0 01-8.219-8.218 8.217 8.217 0 0114.03-5.812 8.219 8.219 0 01-5.811 14.03zM25.04 9.165a1.914 1.914 0 01-1.355-3.27 1.916 1.916 0 111.355 3.27zm-3.207 6.607a5.339 5.339 0 11-10.677 0 5.339 5.339 0 0110.677 0z" fill="#969696"/></svg><svg fill="none" viewBox="0 0 12 14" id="icon-location" xmlns="http://www.w3.org/2000/svg"><path d="M6 0C2.692 0 0 2.512 0 5.596-.022 10.108 5.772 13.85 6 14c0 0 6.022-3.892 6-8.4C12 2.512 9.308 0 6 0zm0 8.4c-1.657 0-3-1.253-3-2.8s1.343-2.8 3-2.8 3 1.253 3 2.8-1.343 2.8-3 2.8z" fill="#3F3F3F"/></svg><svg fill="none" viewBox="0 0 14 11" id="icon-metro" xmlns="http://www.w3.org/2000/svg"><path d="M12.264 5.958c0 2.292-1.26 3.667-3.514 4.168l.438.861 3.076.013C13.44 9.768 14 8.235 14 6.417 14 3.366 12.313.997 9.625 0L7 7.792 4.375 0C1.687.997 0 3.366 0 6.417c0 1.818.69 3.34 1.81 4.571h3.007l.407-.862C3.062 9.625 1.75 8.25 1.75 5.958c0-1.466.35-2.658 1.302-3.597.112-.117.28-.176.448-.117a.74.74 0 01.265.157c.077.07.14.157.183.254l2.665 8.332h.824l2.671-8.285c.056-.234.224-.352.392-.41.224-.059.336 0 .504.117.952.939 1.26 2.141 1.26 3.55z" fill="#B4228D"/></svg><svg fill="none" viewBox="0 0 12 12" id="icon-mobile-phone" xmlns="http://www.w3.org/2000/svg"><path fill-rule="evenodd" clip-rule="evenodd" d="M1.414.383a1.309 1.309 0 011.958.122l1.346 1.73c.246.317.333.73.236 1.12l-.41 1.643a.509.509 0 00.133.482L6.52 7.323a.508.508 0 00.483.133l1.642-.41a1.309 1.309 0 011.12.236l1.73 1.346c.621.484.678 1.402.122 1.958l-.776.776c-.555.555-1.384.798-2.157.526a13.975 13.975 0 01-5.258-3.315A13.976 13.976 0 01.111 3.316C-.16 2.543.084 1.713.64 1.158l.775-.775z" fill="#3F3F3F"/></svg><svg fill="none" viewBox="0 0 32 32" id="icon-new" xmlns="http://www.w3.org/2000/svg"><path d="M31 0H1C.448 0 0 .449 0 1.003c0 .554.448 1.003 1 1.003h30c.552 0 1-.45 1-1.003C32 .449 31.552 0 31 0z" fill="#5194DC"/><path fill-rule="evenodd" clip-rule="evenodd" d="M30.646 22.952l-13 8.555c-1 .657-2.293.657-3.292 0l-13-8.555A3.01 3.01 0 010 20.437V7.019a3.004 3.004 0 013-3.008h26c1.657 0 3 1.347 3 3.008v13.418a3.01 3.01 0 01-1.354 2.515zM9.316 17h1.66v-6.67h-1.73V14l-2.7-3.67h-1.77V17h1.72v-3.86L9.317 17zm7.753 0h-4.89v-6.67h4.89v1.5H13.9v1.04H17v1.5h-3.1v1.13h3.17V17zm6.089 0h1.82l1.91-6.67h-1.94l-1 4.45-1.14-4.45h-1.32l-1.14 4.45-1.01-4.45h-1.93l1.91 6.67h1.82l1.01-4.18 1.01 4.18z" fill="#5194DC"/></svg><svg fill="none" viewBox="0 0 44 54" id="icon-person" xmlns="http://www.w3.org/2000/svg"><path d="M26.696 54l-2.348-10.565 2.287-3.151L22 37.565l-4.635 2.719 2.287 3.15L17.304 54h9.392z" fill="#202020"/><path fill-rule="evenodd" clip-rule="evenodd" d="M36.761 33.987l-8.891-2.052v-2.311a9.421 9.421 0 002.848-3.85c1.466-.129 2.848-.774 3.844-1.871.98-1.078 1.489-2.493 1.492-3.947h.033v-9.2a6.317 6.317 0 00-4.051-5.902l-.863-.863a13.724 13.724 0 00-2.128-1.738c-.234-.253-1.664-.935-2.35-1.245A13.615 13.615 0 0021.538 0C14.026 0 7.913 6.113 7.913 13.624v6.332h.033c.003 1.455.512 2.87 1.492 3.947.996 1.097 2.378 1.742 3.844 1.87.348.873.28 1.74 2.848 4.455v1.707L7.24 33.987a8.18 8.18 0 00-6.37 8.007V54H43.13V41.994a8.18 8.18 0 00-6.369-8.007zM19.9 36.282l-2.862-2.146-.827.19.745 3.723 2.944-1.767zm-.11 15.37h12.775v-9.391h2.348v9.391h5.87v-9.658c0-2.749-1.872-5.1-4.55-5.718l-6.157-1.42-1.383 6.921-2.457-1.474-2.06-1.238L22 37.76l-2.176 1.305-2.062 1.237-2.456 1.474-1.383-6.921-6.157 1.42a5.842 5.842 0 00-4.549 5.72v9.657h5.87v-9.391h2.348v9.391h8.355zm7.173-17.516l-2.862 2.146 2.946 1.767.744-3.721-.828-.192zM22 34.924l3.522-2.641v-1.279a9.327 9.327 0 01-7.044 0v1.279L22 34.923zm-7.043-12.62A7.05 7.05 0 0022 29.348a7.05 7.05 0 007.044-7.044v-5.87h-1.9l-.93-1.859a15.094 15.094 0 01-7.272 1.86h-3.986v5.87zm-3.78.022c.405.444.921.758 1.482.948a9.542 9.542 0 01-.05-.97v-5.616c-1.264.48-2.205 1.59-2.332 2.92a3.502 3.502 0 00.9 2.718zm20.165.948a3.514 3.514 0 001.483-.948c.674-.744.994-1.71.897-2.72-.126-1.328-1.067-2.44-2.33-2.919v5.617c0 .328-.018.65-.05.97zM31.02 6.983l-.263-.087-1.245-1.246a11.205 11.205 0 00-7.975-3.302c-6.216 0-11.276 5.06-11.276 11.276v1.737a6.165 6.165 0 013.723-1.274h4.958c2.536 0 4.991-.744 7.103-2.15l1.106-.738 1.444 2.888h1.42c1.396 0 2.685.487 3.724 1.274v-4.606a3.974 3.974 0 00-2.719-3.772z" fill="#202020"/></svg><svg fill="none" viewBox="0 0 18 18" id="icon-phone" xmlns="http://www.w3.org/2000/svg"><g clip-path="url(#bpclip0)" fill="#202020"><path d="M13.685 11.907c-.588-.58-1.322-.58-1.907 0-.445.442-.891.884-1.33 1.334-.12.123-.22.15-.367.067-.288-.157-.595-.284-.872-.457-1.292-.813-2.375-1.858-3.334-3.034-.475-.584-.899-1.21-1.195-1.914-.06-.142-.048-.236.068-.352.446-.43.88-.873 1.318-1.315.61-.614.61-1.333-.004-1.951-.348-.352-.696-.697-1.045-1.049-.36-.36-.715-.723-1.078-1.079-.588-.573-1.323-.573-1.907.004-.45.442-.88.895-1.337 1.33-.423.4-.637.891-.682 1.464-.07.933.158 1.813.48 2.671.659 1.776 1.663 3.352 2.88 4.798a17.825 17.825 0 005.903 4.619c1.034.502 2.105.887 3.27.951.802.045 1.498-.157 2.056-.783.383-.427.813-.816 1.218-1.225.6-.606.603-1.34.007-1.94a561.061 561.061 0 00-2.142-2.139zM12.97 8.922l1.382-.236a6.178 6.178 0 00-1.727-3.333 6.144 6.144 0 00-3.521-1.757l-.195 1.39a4.767 4.767 0 012.727 1.36 4.766 4.766 0 011.333 2.576zM15.13 2.914A10.191 10.191 0 009.288 0l-.194 1.39a8.837 8.837 0 015.049 2.517 8.83 8.83 0 012.476 4.775L18 8.446a10.267 10.267 0 00-2.87-5.532z"/></g><defs><clipPath id="bpclip0"><path fill="#fff" d="M0 0h18v18H0z"/></clipPath></defs></svg><svg fill="none" viewBox="0 0 15 15" id="icon-phone-red" xmlns="http://www.w3.org/2000/svg"><path d="M13.805 11L11.88 9.078c-.688-.687-1.858-.412-2.134.48-.206.618-.894.962-1.514.824-1.376-.343-3.234-2.128-3.578-3.57-.206-.618.207-1.305.826-1.511.895-.275 1.17-1.442.482-2.129L4.034 1.25c-.55-.48-1.376-.48-1.858 0L.868 2.554c-1.307 1.374.138 5.013 3.372 8.24 3.235 3.228 6.882 4.739 8.258 3.365l1.307-1.305c.482-.549.482-1.373 0-1.854z" fill="#D61635"/></svg><svg fill="none" viewBox="0 0 35 30" id="icon-return" xmlns="http://www.w3.org/2000/svg"><path fill-rule="evenodd" clip-rule="evenodd" d="M17.56 1.2c-5.892 0-10.876 4.121-12.375 9.762l-1.16-.308C5.655 4.525 11.085 0 17.56 0c7.324 0 13.31 5.787 13.973 13.143l1.82-1.769.836.86-2.777 2.7-.418.407-.418-.407-2.777-2.7.837-.86 1.678 1.632C29.595 6.348 24.143 1.2 17.56 1.2zM4.126 13.667l.418.407 3.128 3.041-.836.86-2.03-1.973c.719 6.658 6.171 11.806 12.754 11.806 5.8 0 10.718-3.992 12.301-9.497l1.154.331c-1.72 5.982-7.083 10.366-13.455 10.366-7.324 0-13.31-5.787-13.973-13.143l-2.172 2.11-.836-.86 3.128-3.041.419-.407zm13.391.837h-4.626v-.645l2.444-2.716c.362-.41.61-.743.747-.998a1.67 1.67 0 00.208-.8c0-.37-.111-.671-.334-.907-.224-.236-.521-.354-.893-.354-.446 0-.793.127-1.042.383-.246.252-.369.604-.369 1.057h-.897c0-.65.208-1.175.625-1.576.42-.401.982-.602 1.683-.602.656 0 1.175.173 1.557.52.381.342.572.8.572 1.372 0 .695-.443 1.522-1.329 2.483l-1.89 2.05h3.544v.733zm3.899 0h-.902v-5.98l-1.809.665v-.814l2.57-.966h.14v7.095zm-6.679 5.478c.357.372.82.559 1.389.559.703 0 1.231-.27 1.583-.811l-.439-.342c-.131.171-.285.308-.461.412a1.25 1.25 0 01-.644.155c-.357 0-.652-.127-.885-.38-.23-.256-.35-.591-.36-1.005h2.843v-.299c0-.67-.151-1.184-.454-1.544-.302-.36-.727-.54-1.272-.54-.334 0-.644.094-.931.28-.285.184-.507.44-.668.768a2.523 2.523 0 00-.236 1.114v.132c0 .625.178 1.126.535 1.5zm.57-2.886a.954.954 0 01.73-.319c.3 0 .538.101.714.303.175.2.274.481.294.846v.054h-2.102c.046-.38.168-.675.364-.884zm-5.266 2.475l-.248.306h-.326l-.004 1.82h.718v-1.234h2.929v1.234h.717v-1.82h-.539v-3.612h-2.704l-.066 1.676c-.039.725-.198 1.268-.477 1.63zm2.53.306h-1.929c.352-.463.55-1.112.594-1.947l.042-1.001h1.292v2.948zm9.217.586h-.717v-1.792h-1.928v1.792h-.722v-4.198h.722v1.82h1.928v-1.82h.717v4.198zm2.792-2.75h-1.09v-1.448h-.718v4.198h1.777c.48 0 .864-.127 1.148-.38.285-.254.427-.59.427-1.009 0-.416-.138-.746-.415-.99-.277-.242-.653-.366-1.13-.372zm-1.09 2.164v-1.579h1.094c.258.005.459.083.601.233a.779.779 0 01.217.57c0 .24-.073.43-.22.57-.148.138-.356.206-.625.206H23.49z" fill="#000"/></svg><svg fill="none" viewBox="0 0 16 16" id="icon-search" xmlns="http://www.w3.org/2000/svg"><path d="M15.805 14.862l-4.55-4.55a6.302 6.302 0 001.411-3.979A6.34 6.34 0 006.333 0 6.34 6.34 0 000 6.333a6.34 6.34 0 006.333 6.334c1.507 0 2.89-.531 3.979-1.412l4.55 4.55a.665.665 0 00.943 0 .666.666 0 000-.943zm-9.472-3.529c-2.757 0-5-2.242-5-5 0-2.757 2.243-5 5-5 2.758 0 5 2.243 5 5 0 2.758-2.242 5-5 5z" fill="#fff"/></svg><svg fill="none" viewBox="0 0 22 22" id="icon-share" xmlns="http://www.w3.org/2000/svg"><path d="M.5 18A3.5 3.5 0 004 21.5h14a3.5 3.5 0 003.5-3.5V7.538a1.5 1.5 0 00-3 0V18a.5.5 0 01-.5.5H4a.5.5 0 01-.5-.5V7.538a1.5 1.5 0 10-3 0V18zM6.66 4.16A1.5 1.5 0 008.761 6.3l.738-.724V14a1.5 1.5 0 003 0V5.462l.922.863a1.5 1.5 0 002.051-2.189L12.026.906A1.5 1.5 0 009.949.93l-3.29 3.23z" fill="#202020" stroke="#fff" stroke-linecap="round" stroke-linejoin="round"/></svg><svg fill="none" viewBox="0 0 14 13" id="icon-star" xmlns="http://www.w3.org/2000/svg"><path d="M5.08 3.82L7 .908 8.92 3.82a.9.9 0 00.512.372l3.361.926-2.175 2.724a.9.9 0 00-.196.603l.159 3.483-3.264-1.227-.176.468.176-.468a.9.9 0 00-.634 0L3.42 11.928l.16-3.483a.9.9 0 00-.197-.603L1.207 5.118l3.361-.926a.9.9 0 00.513-.372z" fill="#F4D289" stroke="#E7C57E"/></svg><svg fill="none" viewBox="0 0 40 40" id="icon-star-active" xmlns="http://www.w3.org/2000/svg"><path d="M20 .908l6.412 9.728a.9.9 0 00.513.372L38.157 14.1l-7.27 9.104a.9.9 0 00-.195.603l.53 11.638-10.905-4.1a.9.9 0 00-.634 0l-10.905 4.1.53-11.638a.9.9 0 00-.196-.602L1.842 14.1l11.233-3.092a.9.9 0 00.513-.372l-.418-.276.418.276L20 .908z" fill="#F4D289" stroke="#E7C57E"/></svg><svg fill="none" viewBox="0 0 40 40" id="icon-star-noactive" xmlns="http://www.w3.org/2000/svg"><path d="M19.666.507a.4.4 0 01.668 0l6.496 9.853a.4.4 0 00.227.166l11.38 3.133a.4.4 0 01.206.635l-7.365 9.223a.4.4 0 00-.087.267l.537 11.79a.4.4 0 01-.54.393L20.14 31.813a.4.4 0 00-.282 0L8.812 35.967a.4.4 0 01-.54-.393l.537-11.79a.4.4 0 00-.087-.267l-7.364-9.223a.4.4 0 01.206-.635l11.379-3.133a.4.4 0 00.227-.166L19.666.507z" fill="#E8E8E8"/></svg><svg fill="none" viewBox="0 0 126 78" id="icon-success" xmlns="http://www.w3.org/2000/svg"><g opacity=".46"><path opacity=".8" d="M126 25.633L73.21 49.787V24.154L126 0v25.633z" fill="url(#bxpaint0_linear)"/><path d="M116.224 40.703L73.21 60.779V39.474l43.014-20.076v21.305zM101.604 14.617L73.364 27.54V13.825L101.603.901v13.716z" fill="#B9C3CD" fill-opacity=".8"/></g><g opacity=".46"><path opacity=".8" d="M0 52.367l52.79-24.154v25.633L0 78V52.367z" fill="url(#bxpaint1_linear)"/><path d="M9.776 37.297L52.79 17.221v21.305L9.776 58.602V37.297zM24.396 63.383l28.24-12.924v13.716l-28.24 12.924V63.383z" fill="#B9C3CD" fill-opacity=".8"/></g><ellipse cx="63.304" cy="38.493" rx="30.631" ry="30.39" fill="#D61635"/><path fill-rule="evenodd" clip-rule="evenodd" d="M75.07 31.057c.717.81.632 2.04-.19 2.746L59.983 46.597l-8.255-7.09a1.926 1.926 0 01-.19-2.747 1.997 1.997 0 012.788-.187l5.657 4.86 12.297-10.564a1.997 1.997 0 012.789.188z" fill="#fff"/><defs><linearGradient id="bxpaint0_linear" x1="74.457" y1="32.035" x2="126.497" y2="-.858" gradientUnits="userSpaceOnUse"><stop stop-color="#B9C3CD"/><stop offset="1" stop-color="#B9C3CD" stop-opacity="0"/></linearGradient><linearGradient id="bxpaint1_linear" x1="51.543" y1="45.965" x2="-.497" y2="78.858" gradientUnits="userSpaceOnUse"><stop stop-color="#B9C3CD"/><stop offset="1" stop-color="#B9C3CD" stop-opacity="0"/></linearGradient></defs></svg><svg fill="none" viewBox="0 0 26 22" id="icon-telegram" xmlns="http://www.w3.org/2000/svg"><path d="M22.983.825s2.292-.917 2.109 1.283c-.092.917-.642 4.034-1.1 7.425l-1.559 10.084s-.091 1.466-1.283 1.741c-1.192.275-2.933-.916-3.208-1.191-.275-.184-4.859-3.117-6.417-4.492-.458-.367-1.008-1.192.092-2.017L18.4 7.242c.733-.734 1.558-2.567-1.65-.367l-8.983 6.142s-1.009.641-2.934.091L.617 11.825s-1.559-1.008 1.1-1.925c6.416-3.117 14.3-6.233 21.266-9.075z" fill="url(#bypaint0_linear)"/><defs><linearGradient id="bypaint0_linear" x1=".179" y1="11" x2="25.153" y2="11" gradientUnits="userSpaceOnUse"><stop stop-color="#2AABEE"/><stop offset="1" stop-color="#229ED9"/></linearGradient></defs></svg><svg fill="none" viewBox="0 0 15 12" id="icon-telegram-color" xmlns="http://www.w3.org/2000/svg"><path fill-rule="evenodd" clip-rule="evenodd" d="M14.38.244a.503.503 0 00-.472-.11L.772 5.066a.483.483 0 00-.22.753c.064.08.151.137.25.163l3.211 1.007s.856 2.576 1.299 3.885a.523.523 0 00.352.342.535.535 0 00.473-.12l1.822-1.732s2.094 1.54 3.281 2.386a.685.685 0 001.077-.403c.514-2.406 1.752-8.475 2.225-10.65a.474.474 0 00-.161-.453zM11.966 2.46L5.986 7.844l-.221 2.064-1.007-3.252 6.986-4.459a.161.161 0 01.221 0 .17.17 0 010 .262z" fill="#26A6E7"/></svg><svg fill="none" viewBox="0 0 25 28" id="icon-tiktok" xmlns="http://www.w3.org/2000/svg"><path d="M14.467 2.358h4.125c.091 1.65.641 3.3 1.833 4.4 1.192 1.192 2.842 1.742 4.492 1.925v4.308c-1.559-.091-3.025-.366-4.492-1.008-.642-.275-1.192-.642-1.742-1.008v9.258c-.091 1.467-.55 2.933-1.466 4.217-1.375 2.016-3.759 3.391-6.234 3.391-1.558.092-3.025-.366-4.308-1.1-2.108-1.283-3.667-3.575-3.85-6.05v-1.558a7.75 7.75 0 012.75-5.225c1.742-1.558 4.217-2.292 6.508-1.833v4.675c-1.008-.367-2.291-.275-3.208.366-.642.459-1.192 1.1-1.467 1.834-.183.55-.183 1.1-.183 1.741.275 1.742 1.925 3.209 3.667 3.025 1.191 0 2.291-.733 2.933-1.741.183-.367.458-.734.458-1.1.092-1.925.092-3.759.092-5.684.092-4.308.092-8.525.092-12.833z" fill="#FE2C55"/><path d="M12.542.433h4.125c.091 1.65.641 3.3 1.833 4.4 1.192 1.192 2.842 1.742 4.492 1.925v4.308c-1.559-.091-3.025-.366-4.492-1.008-.642-.275-1.192-.642-1.742-1.008v9.258c-.091 1.467-.55 2.933-1.466 4.217-1.375 2.017-3.759 3.392-6.234 3.392-1.558.091-3.025-.367-4.308-1.1-2.108-1.284-3.667-3.576-3.85-6.05v-1.559a7.75 7.75 0 012.75-5.225c1.742-1.558 4.217-2.292 6.508-1.833v4.675c-1.008-.367-2.291-.275-3.208.367-.642.458-1.192 1.1-1.467 1.833-.183.55-.183 1.1-.183 1.742.275 1.741 1.925 3.208 3.667 3.024 1.191 0 2.291-.733 2.933-1.741.183-.367.458-.733.458-1.1.092-1.925.092-3.758.092-5.683.092-4.309.092-8.525.092-12.834z" fill="#25F4EE"/><path d="M13.55 1.258h4.125c.092 1.65.642 3.3 1.833 4.4C20.7 6.85 22.35 7.4 24 7.583v4.309c-1.558-.092-3.025-.367-4.492-1.009-.641-.275-1.191-.641-1.741-1.008v9.258c-.092 1.467-.55 2.934-1.467 4.217-1.375 2.016-3.758 3.391-6.233 3.391-1.559.092-3.025-.366-4.309-1.1-2.108-1.283-3.666-3.574-3.85-6.05v-1.558a7.75 7.75 0 012.75-5.225c1.742-1.558 4.217-2.291 6.509-1.833v4.675c-1.009-.367-2.292-.275-3.209.367-.641.458-1.191 1.1-1.466 1.833-.184.55-.184 1.1-.184 1.741.275 1.742 1.925 3.209 3.667 3.025 1.192 0 2.292-.733 2.933-1.741.184-.367.459-.733.459-1.1.091-1.925.091-3.758.091-5.683.092-4.309.092-8.525.092-12.834z" fill="#000"/></svg><svg fill="none" viewBox="0 0 10 11" id="icon-tooltip" xmlns="http://www.w3.org/2000/svg"><path d="M4.996 4.185a.68.68 0 110-1.359.66.66 0 01.486.198.65.65 0 01.198.477.68.68 0 01-.684.684zM5.572 9H4.429V4.653h1.143V9z" fill="#000"/><circle cx="5" cy="6" r="4.7" stroke="#202020" stroke-width=".6"/></svg><svg fill="none" viewBox="0 0 10 11" id="icon-tooltip-white" xmlns="http://www.w3.org/2000/svg"><path d="M4.996 4.185a.684.684 0 00.684-.684.676.676 0 00-.684-.675.682.682 0 00-.684.675.69.69 0 00.684.684zM5.572 9V4.653H4.429V9h1.143z" fill="#fff"/><circle cx="5" cy="6" r="4.7" stroke="#fff" stroke-width=".6"/></svg><svg fill="none" viewBox="0 0 20 22" id="icon-trash" xmlns="http://www.w3.org/2000/svg"><path d="M1 3.353h1.862m16.138 0h-1.862m0 0V19a2 2 0 01-2 2H4.862a2 2 0 01-2-2V3.353m14.276 0h-3.569m-10.707 0h3.569m0 0h7.138m-7.138 0h7.138m-7.138 0V3a2 2 0 012-2h3.138a2 2 0 012 2v.353M6.431 6.294V18.06M10 6.294V18.06m3.569-11.765V18.06" stroke="#BEBEBE" stroke-linecap="round"/></svg><svg fill="none" viewBox="0 0 15 16" id="icon-type" xmlns="http://www.w3.org/2000/svg"><path fill-rule="evenodd" clip-rule="evenodd" d="M5.69 1.534H1.034V6.19H5.69V1.534zM1.034.5C.464.5 0 .963 0 1.534V6.19c0 .571.463 1.034 1.034 1.034H5.69c.571 0 1.034-.463 1.034-1.034V1.534C6.724.964 6.261.5 5.69.5H1.034zM5.69 9.81H1.034v4.655H5.69V9.81zM1.034 8.776C.464 8.776 0 9.239 0 9.81v4.655c0 .572.463 1.035 1.034 1.035H5.69c.571 0 1.034-.463 1.034-1.034V9.81c0-.571-.463-1.034-1.034-1.034H1.034zM13.966 1.534H9.31V6.19h4.655V1.534zM9.31.5C8.74.5 8.276.963 8.276 1.534V6.19c0 .571.463 1.034 1.034 1.034h4.655c.572 0 1.035-.463 1.035-1.034V1.534C15 .964 14.537.5 13.966.5H9.31zM13.966 9.81H9.31v4.655h4.655V9.81zM9.31 8.776c-.571 0-1.034.463-1.034 1.034v4.655c0 .572.463 1.035 1.034 1.035h4.655c.572 0 1.035-.463 1.035-1.034V9.81c0-.571-.463-1.034-1.034-1.034H9.31z" fill="#000"/></svg><svg fill="none" viewBox="0 0 54 54" id="icon-upload" xmlns="http://www.w3.org/2000/svg"><g clip-path="url(#cfclip0)" fill="#202020"><path d="M44.992 19.85C42.496 9.907 32.413 3.87 22.47 6.367A18.56 18.56 0 008.478 23.022a10.124 10.124 0 001.687 20.113h8.437V39.76h-8.437a6.75 6.75 0 010-13.499c.932 0 1.688-.755 1.688-1.687-.009-8.387 6.784-15.193 15.17-15.201a15.186 15.186 0 0114.915 12.248 1.687 1.687 0 001.434 1.35 8.437 8.437 0 01-1.148 16.789h-6.749v3.375h6.75C48.747 43.114 54.02 37.81 54 31.288a11.811 11.811 0 00-9.008-11.438z"/><path d="M25.84 26.75l-5.558 5.56a1.684 1.684 0 002.38 2.383l2.69-2.678V46.51a1.687 1.687 0 103.374 0V32.015l2.675 2.675a1.682 1.682 0 102.379-2.38l-5.56-5.56a1.687 1.687 0 00-2.38 0z"/></g><defs><clipPath id="cfclip0"><path fill="#fff" d="M0 0h54v54H0z"/></clipPath></defs></svg><svg viewBox="0 0 27.43 22.29" id="icon-upload-camera" xmlns="http://www.w3.org/2000/svg"><g data-name="Layer 2"><g data-name="Layer 1"><path d="M27.43 22.29H0V3.51h6.79L9.05 0h9.33l2.18 3.51h6.87zM1.3 21h24.83V4.81h-6.29L17.66 1.3h-7.9L7.49 4.81H1.3z"/><path d="M13.71 18.13a5.88 5.88 0 115.88-5.88 5.88 5.88 0 01-5.88 5.88zm0-10.45a4.58 4.58 0 104.58 4.57 4.58 4.58 0 00-4.58-4.57z"/><circle cx="22.96" cy="7.66" r="1.1"/></g></g></svg><svg viewBox="0 0 26.43 30.69" id="icon-upload-document" xmlns="http://www.w3.org/2000/svg"><defs><style>.chcls-1{fill:#202020}</style></defs><g id="chLayer_2" data-name="Layer 2"><g id="chLayer_1-2" data-name="Layer 1"><path class="chcls-1" d="M26.43 6.94L19.49 0H4.12v1.86H0v28.83h23.39V27h3zm-6.56-4.72l4.34 4.34h-4.34zm2.22 27.17H1.3V3.16h2.82V27h18zM5.42 25.72V1.3h13.15v6.56h6.56v17.86z"/><path class="chcls-1" d="M12.79 6v2.39h-2.36V6h2.36m1.3-1.3h-5v5h5v-5zM9.13 11.75h12.29v1.3H9.13zM9.13 14.87h12.29v1.3H9.13zM9.13 17.99h12.29v1.3H9.13zM9.13 21.12h8.68v1.3H9.13z"/></g></g></svg><svg fill="none" viewBox="0 0 24 17" id="icon-upload-photo" xmlns="http://www.w3.org/2000/svg"><path fill-rule="evenodd" clip-rule="evenodd" d="M9.986 0h7.038l1.86 3.13H24V17H8.507v-1H23V4.13H18.12L16.261 1h-5.513l-1.86 3.13H3.51v3.252h-1V3.13h5.617L9.986 0zm3.519 6a3.499 3.499 0 10.001 6.998A3.499 3.499 0 0013.505 6zM9.007 9.5a4.5 4.5 0 114.498 4.5 4.5 4.5 0 01-4.498-4.5zM2.509 13v-2.608h1V13h2.51v1h-2.51v2.5h-1V14H0v-1h2.51z" fill="#202020"/></svg><svg fill="none" viewBox="0 0 24 20" id="icon-utp-change" xmlns="http://www.w3.org/2000/svg"><path fill-rule="evenodd" clip-rule="evenodd" d="M11.928 1.188c-3.975 0-7.34 2.729-8.352 6.466l-1.159-.308C3.562 3.12 7.377 0 11.927 0c4.912 0 8.966 3.633 9.732 8.371l1.139-1.526.965.707-2.503 3.353-3.351-3.284.844-.845 1.702 1.669c-.723-4.135-4.277-7.257-8.527-7.257zm-9.33 7.91l3.443 3.374-.844.844-1.797-1.76c.723 4.134 4.277 7.256 8.528 7.256 3.912 0 7.233-2.643 8.302-6.29l1.152.331C20.174 16.977 16.406 20 11.928 20c-4.916 0-8.972-3.64-9.734-8.383L.961 13.25 0 12.538l2.598-3.44z" fill="#D61635"/></svg><svg fill="none" viewBox="0 0 23 18" id="icon-utp-delivery" xmlns="http://www.w3.org/2000/svg"><path fill-rule="evenodd" clip-rule="evenodd" d="M0 0h13.97v1.215h4.536l2.721 5.548 1.718 2.274v6.195h-2.784A3.446 3.446 0 0116.776 18a3.446 3.446 0 01-3.385-2.768h-3.293A3.445 3.445 0 016.713 18a3.445 3.445 0 01-3.386-2.773L0 15.15V0zm3.305 14.04l-2.118-.05V1.188h11.596v6.482h7.641l1.334 1.766v4.61h-1.573a3.444 3.444 0 00-3.409-2.904 3.444 3.444 0 00-3.409 2.904h-3.245a3.444 3.444 0 00-3.41-2.904 3.444 3.444 0 00-3.407 2.899zm16.463-7.558l-2.002-4.08H13.97v4.08h5.798zM6.713 12.328a2.252 2.252 0 00-2.262 2.296 2.253 2.253 0 002.262 2.19 2.253 2.253 0 002.262-2.243 2.253 2.253 0 00-2.262-2.243zm10.063 0a2.253 2.253 0 00-2.262 2.296 2.253 2.253 0 002.262 2.19 2.253 2.253 0 002.262-2.243 2.253 2.253 0 00-2.262-2.243z" fill="#D61635"/></svg><svg fill="none" viewBox="0 0 24 19" id="icon-utp-money" xmlns="http://www.w3.org/2000/svg"><path fill-rule="evenodd" clip-rule="evenodd" d="M0 2.6A2.6 2.6 0 012.6 0h15.639a2.6 2.6 0 012.6 2.6v7.868A4.136 4.136 0 0124 14.496c0 2.282-1.837 4.14-4.113 4.14a4.079 4.079 0 01-2.458-.822 4.08 4.08 0 01-2.46.821 4.11 4.11 0 01-3.67-2.272H2.6a2.6 2.6 0 01-2.6-2.6V2.6zm10.91 12.563a4.188 4.188 0 01.289-2.321 4.113 4.113 0 013.77-2.485 4.08 4.08 0 012.46.82 4.078 4.078 0 012.21-.813v-5.14H1.2v8.539a1.4 1.4 0 001.4 1.4h8.31zM1.2 4.023h18.439V2.6a1.4 1.4 0 00-1.4-1.4H2.6a1.4 1.4 0 00-1.4 1.4v1.424zm17.082 8.02c.503.687.8 1.536.8 2.453 0 .918-.297 1.767-.8 2.453.461.308 1.012.486 1.605.486 1.605 0 2.913-1.311 2.913-2.939 0-1.628-1.308-2.94-2.913-2.94-.593 0-1.144.18-1.605.487zM10.017 8.24H3.378v-1.2h6.64v1.2zM8.53 11.557H3.378v-1.2H8.53v1.2zm6.44 0c-1.191 0-2.219.722-2.67 1.762a2.95 2.95 0 00-.243 1.177c0 .372.069.727.193 1.053a2.915 2.915 0 002.72 1.886c.792 0 1.51-.318 2.037-.838.54-.534.875-1.277.875-2.1 0-.825-.335-1.568-.875-2.102a2.888 2.888 0 00-2.037-.838z" fill="#D61635"/></svg><svg fill="none" viewBox="0 0 20 20" id="icon-utp-warranty" xmlns="http://www.w3.org/2000/svg"><path fill-rule="evenodd" clip-rule="evenodd" d="M9.969 0l9.968 4.37-.051.434-.586-.07.586.07v.005l-.002.012-.006.049-.024.182a40.098 40.098 0 01-.503 2.87c-.366 1.711-.949 3.84-1.814 5.295-1.012 1.702-2.852 3.356-4.388 4.56a37.198 37.198 0 01-2.808 1.992l-.045.029-.013.008-.003.002h-.001l-.31-.5-.31.5h-.002l-.003-.002-.012-.008-.046-.029-.172-.11a37.2 37.2 0 01-2.635-1.882c-1.537-1.204-3.377-2.858-4.389-4.56C1.535 11.76.952 9.633.586 7.923A40.065 40.065 0 01.06 4.87L.054 4.82.052 4.81v-.005l.585-.07-.586.07L0 4.37 9.969 0zm-8.69 5.096l.066.442c.085.545.215 1.3.394 2.139.363 1.697.915 3.66 1.674 4.937.894 1.503 2.584 3.045 4.103 4.236a35.996 35.996 0 002.453 1.758 36.035 36.035 0 002.453-1.758c1.518-1.19 3.208-2.732 4.102-4.236.759-1.277 1.311-3.24 1.674-4.937a38.88 38.88 0 00.46-2.581l-8.69-3.809L1.28 5.096zm8.69 14.211l-.31.502.31.191.31-.192-.31-.5zm3.527-10.781l-4.123 4.122-2.903-2.54.776-.887 2.074 1.814 3.342-3.343.834.834z" fill="#D61635"/></svg><svg fill="none" viewBox="0 0 22 22" id="icon-vk" xmlns="http://www.w3.org/2000/svg"><path fill-rule="evenodd" clip-rule="evenodd" d="M4.889 0A4.889 4.889 0 000 4.889V17.11C0 19.811 2.189 22 4.889 22H17.11c2.7 0 4.889-2.189 4.889-4.889V4.89C22 2.189 19.811 0 17.111 0H4.89zm11.274 15.696h1.598c.45 0 .683-.234.527-.683-.14-.45-.667-1.103-1.35-1.879-.188-.22-.425-.451-.634-.657-.205-.2-.384-.377-.469-.492-.232-.311-.17-.435 0-.715 0 0 1.957-2.762 2.158-3.695.11-.342 0-.59-.481-.59h-1.599c-.404 0-.59.218-.7.451 0 0-.821 1.987-1.97 3.276-.373.372-.544.497-.746.497-.093 0-.248-.125-.248-.466V7.56c0-.404-.124-.59-.466-.59H9.267c-.247 0-.403.186-.403.373 0 .149.084.254.192.388.173.217.407.509.445 1.18v2.361c0 .512-.093.605-.295.605-.544 0-1.864-2.003-2.655-4.285-.155-.435-.311-.62-.715-.62H4.238c-.45 0-.544.216-.544.45 0 .434.545 2.53 2.532 5.324 1.32 1.91 3.198 2.935 4.89 2.935 1.025 0 1.149-.232 1.149-.621v-1.444c0-.45.093-.543.42-.543.233 0 .652.123 1.598 1.04.314.317.552.583.747.8.483.54.702.783 1.133.783z" fill="#2787F5"/></svg><svg fill="none" viewBox="0 0 33 32" id="icon-vk-gray" xmlns="http://www.w3.org/2000/svg"><path fill-rule="evenodd" clip-rule="evenodd" d="M7.611 0A7.111 7.111 0 00.5 7.111V24.89A7.111 7.111 0 007.611 32H25.39a7.111 7.111 0 007.111-7.111V7.11A7.111 7.111 0 0025.389 0H7.61zM24.01 22.83h2.326-.002c.655 0 .995-.34.768-.993-.204-.656-.97-1.604-1.964-2.733-.274-.32-.618-.656-.922-.955-.298-.293-.56-.548-.682-.716-.338-.453-.248-.633 0-1.04 0 0 2.846-4.018 3.139-5.374.159-.498 0-.858-.7-.858h-2.325c-.588 0-.859.316-1.018.655 0 0-1.196 2.89-2.868 4.765-.541.542-.79.723-1.084.723-.134 0-.361-.181-.361-.677v-4.631c0-.587-.18-.857-.677-.857H13.98c-.36 0-.587.27-.587.542 0 .216.123.37.279.564.252.315.592.74.648 1.716v3.435c0 .744-.136.88-.43.88-.79 0-2.71-2.913-3.86-6.233-.227-.632-.454-.903-1.04-.903H6.663c-.655 0-.79.316-.79.655 0 .632.791 3.681 3.682 7.745 1.919 2.779 4.652 4.27 7.113 4.27 1.491 0 1.671-.34 1.671-.905v-2.1c0-.654.136-.79.61-.79.34 0 .949.18 2.326 1.513.455.462.802.848 1.086 1.165.702.783 1.02 1.138 1.647 1.138z" fill="#969696"/></svg><svg fill="none" viewBox="0 0 30 19" id="icon-vkontakte" xmlns="http://www.w3.org/2000/svg"><path d="M29.208 1.675c.184-.734 0-1.192-1.008-1.192h-3.3c-.825 0-1.192.458-1.375.917 0 0-1.65 4.033-4.033 6.691-.734.734-1.1 1.009-1.559 1.009-.183 0-.55-.275-.55-.917V1.675c0-.825-.275-1.192-.916-1.192h-5.134c-.55 0-.825.367-.825.733 0 .825 1.192 1.009 1.284 3.209V9.19c0 1.009-.184 1.284-.642 1.284-1.1 0-3.758-4.034-5.408-8.709C5.467.85 5.1.483 4.275.483H1.158c-.916 0-1.1.458-1.1.917 0 .825 1.1 5.133 5.134 10.816 2.658 3.85 6.508 5.959 9.991 5.959 2.109 0 2.292-.459 2.292-1.284v-2.933c0-.917.183-1.1.825-1.1.458 0 1.283.275 3.208 2.108 2.2 2.2 2.567 3.209 3.85 3.209h3.392c.917 0 1.375-.459 1.1-1.375-.275-.917-1.375-2.292-2.75-3.85-.733-.917-1.925-1.833-2.292-2.383-.458-.642-.366-.917 0-1.467 0 .091 4.034-5.5 4.4-7.425z" fill="#5181B8"/></svg><svg fill="none" viewBox="0 0 30 30" id="icon-warranty" xmlns="http://www.w3.org/2000/svg"><path fill-rule="evenodd" clip-rule="evenodd" d="M14.82 0l.241.106L28.89 6.167l.408.179-.053.441-.596-.07.596.07v.007l-.003.019-.009.07-.035.269a59.15 59.15 0 01-.741 4.234c-.542 2.53-1.398 5.645-2.655 7.76-1.472 2.477-4.165 4.902-6.437 6.683a54.808 54.808 0 01-3.885 2.774l-.252.162-.067.042-.018.01-.005.004h-.001l-.316-.51-.315.51h-.002l-.005-.003-.018-.011-.066-.042a46.183 46.183 0 01-1.169-.769 54.845 54.845 0 01-2.969-2.167c-2.272-1.78-4.964-4.206-6.436-6.682-1.257-2.116-2.114-5.23-2.655-7.762a59.098 59.098 0 01-.777-4.501L.4 6.813l-.002-.019v-.006l.595-.071-.596.07-.052-.441.407-.179L14.58.106 14.82 0zm0 28.311l.316.51-.316.196-.315-.195.315-.51zM1.645 7.086a57.895 57.895 0 00.713 4.049c.539 2.518 1.364 5.465 2.513 7.398 1.352 2.274 3.892 4.585 6.146 6.352a53.677 53.677 0 003.795 2.71l.008.006.009-.006a53.677 53.677 0 003.795-2.71c2.254-1.767 4.794-4.078 6.145-6.352 1.15-1.933 1.975-4.88 2.513-7.399a57.863 57.863 0 00.713-4.048L14.82 1.31 1.645 7.086zm13.918 5.422h-.897V6.56l-1.8.66v-.81l2.557-.959h.14v7.056zm-2.776 4.788c0-.409.08-.777.24-1.104.161-.326.385-.578.67-.756.289-.177.617-.266.984-.266.569 0 1.028.197 1.378.59.352.394.528.917.528 1.57v.05c0 .407-.078.773-.235 1.097a1.759 1.759 0 01-.668.752c-.288.18-.62.27-.995.27-.566 0-1.025-.197-1.377-.59-.35-.394-.525-.915-.525-1.563v-.05zm.717.085c0 .463.107.834.32 1.115.217.28.505.42.865.42.363 0 .65-.141.864-.424.214-.286.32-.684.32-1.196 0-.458-.109-.828-.327-1.111a1.03 1.03 0 00-.865-.428c-.352 0-.636.14-.852.42-.216.28-.325.682-.325 1.204zm-1.072-1.543h-1.925v3.584h-.718v-4.175h2.643v.59zm4.985 2.697l-.247.304h-.324l-.004 1.81h.714v-1.227h2.913v1.227h.713v-1.81h-.536v-3.592h-2.689l-.066 1.667c-.038.72-.196 1.26-.474 1.62zm2.515.304h-1.917c.35-.46.546-1.106.59-1.937l.043-.995h1.284v2.932z" fill="#000"/></svg><svg fill="none" viewBox="0 0 16 16" id="icon-whatsapp-color" xmlns="http://www.w3.org/2000/svg"><path d="M.505 15.503l1.05-3.728a7.462 7.462 0 01-1.03-3.793C.524 3.855 3.881.497 8.01.497c4.127 0 7.485 3.358 7.485 7.485 0 4.128-3.358 7.486-7.485 7.486a7.476 7.476 0 01-3.66-.955l-3.845.99zm4.042-2.351l.229.14c.971.592 2.09.906 3.234.906a6.223 6.223 0 006.215-6.216A6.223 6.223 0 008.01 1.767a6.223 6.223 0 00-6.216 6.215c0 1.194.34 2.354.981 3.354l.155.24-.605 2.147 2.222-.571z" fill="#249B06"/><path d="M5.907 4.498l-.486-.026a.587.587 0 00-.417.143c-.236.204-.612.6-.728 1.115-.172.768.094 1.708.784 2.649.69.94 1.975 2.445 4.248 3.088.733.207 1.309.068 1.753-.217.353-.225.595-.586.683-.995l.077-.362a.252.252 0 00-.14-.282l-1.642-.756a.252.252 0 00-.305.075l-.644.835a.184.184 0 01-.207.062c-.442-.155-1.92-.775-2.731-2.337a.186.186 0 01.023-.208l.616-.712a.252.252 0 00.041-.264l-.707-1.655a.252.252 0 00-.218-.153z" fill="#249B06"/></svg><svg fill="none" viewBox="0 0 30 30" id="icon-yandex-dzen" xmlns="http://www.w3.org/2000/svg"><path d="M29.483 14.816v.275c-6.416.184-9.35.367-11.641 2.659-2.292 2.383-2.475 5.225-2.659 11.641h-.275c-.183-6.416-.366-9.35-2.658-11.641C9.867 15.458 7.025 15.275.608 15.09v-.275c6.417-.183 9.35-.366 11.642-2.658 2.292-2.383 2.475-5.225 2.658-11.642h.275c.184 6.417.367 9.35 2.659 11.642 2.291 2.292 5.225 2.475 11.641 2.658z" fill="#fff"/></svg><svg fill="none" viewBox="0 0 30 30" id="icon-youtube" xmlns="http://www.w3.org/2000/svg"><path fill-rule="evenodd" clip-rule="evenodd" d="M6.518 0A6.518 6.518 0 000 6.518v16.294c0 3.6 2.918 6.518 6.518 6.518h16.294c3.6 0 6.518-2.918 6.518-6.518V6.518c0-3.6-2.918-6.518-6.518-6.518H6.518zM21.04 9.31a2.041 2.041 0 011.437 1.437c.349 1.275.335 3.933.335 3.933s0 2.644-.335 3.919a2.041 2.041 0 01-1.437 1.436c-1.275.336-6.375.336-6.375.336s-5.087 0-6.375-.35a2.042 2.042 0 01-1.437-1.436c-.335-1.261-.335-3.919-.335-3.919s0-2.644.335-3.919a2.083 2.083 0 011.436-1.45c1.276-.335 6.376-.335 6.376-.335s5.1 0 6.375.349zm-3.758 5.356l-4.241-2.443v4.886l4.241-2.443z" fill="red"/></svg><svg fill="none" viewBox="0 0 33 32" id="icon-youtube-gray" xmlns="http://www.w3.org/2000/svg"><path fill-rule="evenodd" clip-rule="evenodd" d="M7.611 0A7.111 7.111 0 00.5 7.111V24.89A7.111 7.111 0 007.611 32H25.39a7.111 7.111 0 007.111-7.111V7.11A7.111 7.111 0 0025.389 0H7.61zm15.845 10.158a2.227 2.227 0 011.567 1.568c.38 1.39.366 4.29.366 4.29s0 2.885-.366 4.276a2.227 2.227 0 01-1.567 1.567c-1.391.366-6.956.366-6.956.366s-5.55 0-6.956-.38a2.227 2.227 0 01-1.567-1.568c-.366-1.376-.366-4.276-.366-4.276s0-2.885.366-4.276a2.272 2.272 0 011.567-1.581c1.391-.366 6.956-.366 6.956-.366s5.565 0 6.956.38zm-8.728 3.178v5.33l4.627-2.665-4.627-2.665z" fill="#969696"/></svg><svg fill="none" viewBox="0 0 34 26" id="mastercard-gray" xmlns="http://www.w3.org/2000/svg"><path d="M7.64 23.904a.83.83 0 011.561-.386.826.826 0 01-.281 1.079.828.828 0 01-.463.135c-.504.06-.816-.313-.816-.828H7.64zm2.088-1.334h-.504v.383a1.11 1.11 0 00-.887-.443 1.401 1.401 0 00-.914 2.348c.237.259.563.42.913.45a.947.947 0 00.827-.383v.313h.565V22.57zm19.564 1.334a.829.829 0 011.411-.587.829.829 0 01-.584 1.416c-.575.06-.827-.314-.827-.829zm2.098 0v-2.416h-.575v1.465a1.01 1.01 0 00-.826-.444 1.362 1.362 0 00-1.333 1.394 1.324 1.324 0 001.342 1.405.946.946 0 00.827-.383v.313h.575l-.01-1.334zm-14.508-.828a.706.706 0 01.705.636h-1.38a.707.707 0 01.675-.636zm.07-.567a1.401 1.401 0 00-1.283 1.4 1.406 1.406 0 001.283 1.4 1.744 1.744 0 001.08-.384l-.252-.445a1.24 1.24 0 01-.766.252.696.696 0 01-.758-.635h2.018v-.193a1.355 1.355 0 00-1.3-1.395h-.022zm6.993 1.395a.829.829 0 011.41-.587.829.829 0 01-.584 1.416c-.564.06-.826-.314-.826-.829zm2.159 0V22.57h-.575v.383a1.01 1.01 0 00-.828-.443 1.401 1.401 0 00-1.284 1.4 1.405 1.405 0 001.284 1.398.949.949 0 00.827-.383v.313h.575v-1.334zm-5.398 0a1.336 1.336 0 001.391 1.404c.35.019.693-.096.96-.322l-.252-.446a1.318 1.318 0 01-.707.252.796.796 0 01-.826-.817.77.77 0 01.826-.829c.259-.01.512.08.706.252l.252-.444a1.07 1.07 0 00-.958-.445 1.36 1.36 0 00-1.442 1.395h.05zm7.425-1.395a.726.726 0 00-.696.384v-.323h-.574v2.668h.574v-1.456c0-.443.192-.706.575-.706a.705.705 0 01.373.07l.191-.515a1.645 1.645 0 00-.494-.121h.05v-.001zm-15.426.314a1.803 1.803 0 00-1.079-.253c-.696 0-1.08.323-1.08.828 0 .506.312.698.887.758l.253.07c.322.061.443.122.443.254 0 .13-.191.312-.635.312a1.603 1.603 0 01-.887-.252l-.253.445c.33.239.734.352 1.14.323.766 0 1.21-.383 1.21-.889 0-.505-.322-.707-1.007-.768l-.253-.06c-.252-.071-.444-.071-.444-.252 0-.183.192-.325.504-.325.293.01.58.096.827.253l.374-.444zm7.426-.313a.726.726 0 00-.696.383v-.323h-.576v2.668h.575v-1.456c0-.443.191-.706.575-.706a.705.705 0 01.373.07l.192-.576c-.242 0-.363-.061-.494-.061h.05v.001zm-4.955.06h-.947v-.828h-.576v.828h-.504v.575h.504v1.214c0 .636.252 1.01.958 1.01.246.002.487-.065.697-.192l-.191-.516a.837.837 0 01-.505.131c-.323 0-.383-.191-.383-.443v-1.203h.947v-.576zM6.56 25.238V23.59a1.013 1.013 0 00-1.008-1.082 1.22 1.22 0 00-.959.444 1.1 1.1 0 00-.888-.443.816.816 0 00-.756.383v-.323h-.585v2.668h.574v-1.456a.627.627 0 01.635-.706c.374 0 .566.262.566.706v1.456h.574v-1.456a.627.627 0 01.636-.706c.383 0 .575.262.575.706v1.456h.636zm6.499-15.025a10.115 10.115 0 013.823-7.942A9.982 9.982 0 001.278 6.872a10.017 10.017 0 001.3 9.069 9.993 9.993 0 008.129 4.205 9.91 9.91 0 006.175-2.101 9.677 9.677 0 01-3.824-7.831v-.001zm19.966 0a9.964 9.964 0 01-4.396 8.31 9.926 9.926 0 01-11.746-.49 9.89 9.89 0 003.803-7.891 9.886 9.886 0 00-3.804-7.871A10.08 10.08 0 0123.026.109a10.174 10.174 0 017.05 3.016 10.203 10.203 0 012.949 7.088z" fill="#676767"/><path d="M16.882 3.423a9.519 9.519 0 00-3.027 6.79 9.732 9.732 0 003.027 6.81 9.69 9.69 0 003.027-6.81 9.467 9.467 0 00-3.027-6.79z" fill="#676767"/></svg><svg fill="none" viewBox="0 0 48 15" id="mir-gray" xmlns="http://www.w3.org/2000/svg"><path d="M26.412 2.41l-3.015 6.566h-.325V.984h-4.226v13.529h3.606c.466-.002.922-.14 1.313-.397.39-.257.7-.622.891-1.053l2.99-6.566h.306v8.011h4.25V.979h-3.606c-.466.002-.921.14-1.312.397-.39.257-.7.622-.892 1.053M10.447 2.742l-1.77 6.233h-.305l-1.77-6.233a2.46 2.46 0 00-.872-1.284A2.408 2.408 0 004.27.964H.025v13.529h4.25V6.516h.305l2.428 7.996h3.034l2.428-7.996h.305v7.992h4.25V.978h-4.246c-.524 0-1.035.171-1.456.49a2.46 2.46 0 00-.876 1.274M34.045 7.13v7.378h4.24v-4.3h4.56a4.51 4.51 0 002.629-.845 4.602 4.602 0 001.664-2.228L34.045 7.13zM42.825.983h-9.41A6.783 6.783 0 0035.71 4.95a6.626 6.626 0 004.268 1.565h7.308c.068-.303.107-.612.114-.923 0-1.222-.48-2.394-1.334-3.258A4.526 4.526 0 0042.85.983" fill="#676767"/></svg><svg fill="none" viewBox="0 0 117 21" id="sber-gray" xmlns="http://www.w3.org/2000/svg"><path fill-rule="evenodd" clip-rule="evenodd" d="M113.016 2.142h2.855c-.512.286-1.197.829-2.057 1.627l-2.854 2.916 1.565 2.24c1.638 2.334 3.07 4.114 4.298 5.342h-4.083c-.511-1.187-1.177-2.394-1.995-3.622l-1.842-2.763 1.596-2.026c1.433-1.862 2.272-3.1 2.517-3.714zm-4.328 1.35v9.394l.123.706c.082.123.266.225.552.307v.368h-3.959V13.9l.552-.307c.081-.123.123-.358.123-.706V3.493l-.123-.676c-.082-.143-.267-.235-.552-.276v-.4h3.959v.4c-.286.04-.471.133-.552.276l-.123.676zm-5.894 0v9.394l.123.706.553.307v.368h-3.991V13.9c.286-.082.491-.184.614-.307l.092-.706V8.005h-4.666v4.88l.123.707c.082.123.265.225.551.307v.368h-4.021V13.9c.328-.082.532-.184.614-.307l.123-.706V3.493l-.123-.676c-.082-.143-.286-.235-.614-.276v-.4h4.021v.4c-.287.04-.47.133-.552.276l-.123.676v3.714h4.666V3.493l-.091-.676c-.123-.143-.328-.235-.614-.276v-.4h3.991v.4c-.287.04-.471.133-.553.276l-.123.676zm14.029 15.011H27.986v-1.197h88.837v1.197zM83.486 2.541v-.4h3.5c.04.553.184 1.147.43 1.781l2.578 7.245c.43 1.269.848 2.302 1.258 3.1h-3.07l-1.32-4.359h-3.898l-.829 2.886-.245 1.473h-2.21l3.927-9.086c.39-.962.584-1.617.584-1.965.001-.388-.235-.614-.705-.675zm1.443 1.627l-1.658 4.88h3.315l-1.657-4.88zm-6.201.614h-.675l-.154-.522c-.164-.594-.41-.982-.737-1.167l-1.688-.214h-1.627c-.368 0-.614.061-.737.184-.102.102-.153.286-.153.552v2.886h.675c1.965 0 3.326.194 4.083.583 1.085.532 1.627 1.576 1.627 3.131 0 1.515-.43 2.599-1.29 3.254-.757.532-1.933.798-3.53.798h-4.85V13.9l.584-.307.092-.706V3.493l-.092-.676c-.083-.143-.277-.235-.584-.276v-.4h9.056v2.64zm-5.771 2.486v5.188c0 .41.072.675.215.798.164.164.45.246.86.246h.368c.778 0 1.35-.267 1.719-.798.328-.492.49-1.28.49-2.364 0-1.064-.173-1.821-.521-2.272-.368-.532-1.054-.798-2.057-.798h-1.074zm-4.359-1.657c0 1.412-.43 2.425-1.29 3.039-.736.532-1.882.798-3.437.798h-1.228v3.438l.123.706c.061.123.254.225.582.307v.368h-3.991V13.9l.553-.307.122-.706V3.493l-.122-.676c-.082-.143-.267-.235-.553-.276v-.4h5.034c1.371 0 2.374.205 3.009.615.799.532 1.198 1.484 1.198 2.855zM62.827 3c-.123.082-.184.266-.184.553V8.68h1.228c.757 0 1.289-.286 1.596-.86.266-.51.399-1.288.399-2.332 0-1.74-.727-2.61-2.18-2.61h-.306l-.553.123zm-5.31 1.78h-.645l-.154-.521c-.204-.594-.46-.982-.767-1.167l-1.658-.214h-1.35L52.452 3l-.123.46v3.746h1.596c1.105 0 1.831-.123 2.18-.369v1.535c-.348-.245-1.075-.368-2.18-.368h-1.596v4.543c0 .368.123.624.368.768l1.535.184h.338l1.657-.246c.287-.184.512-.634.676-1.35l.122-.461h.768v2.824h-8.749V13.9c.307-.082.502-.184.583-.307l.123-.706V3.493l-.123-.676c-.081-.143-.276-.235-.583-.276v-.4h8.472v2.64zm-10.468 0h-.645l-.153-.521c-.184-.594-.44-.982-.768-1.167l-1.627-.214h-1.688c-.348 0-.594.061-.737.184-.061.102-.092.286-.092.552v2.886h.675c1.945 0 3.305.194 4.083.583 1.064.532 1.596 1.576 1.596 3.131 0 1.515-.43 2.599-1.289 3.254-.737.532-1.914.798-3.53.798h-4.88V13.9c.327-.082.532-.184.613-.307l.123-.706V3.493l-.123-.676c-.081-.143-.286-.235-.614-.276v-.4h9.056v2.64zM34.83 3.125c-.368-.266-.94-.399-1.719-.399-1.227 0-2.097.45-2.609 1.35-.43.779-.644 2.047-.644 3.807 0 1.76.235 3.06.706 3.899.572 1.043 1.555 1.565 2.946 1.565 1.024 0 2.037-.245 3.04-.736l.368.767c-1.167.716-2.537 1.074-4.113 1.074-3.848 0-5.771-2.036-5.771-6.108 0-4.277 1.995-6.416 5.985-6.416 1.535 0 2.712.184 3.53.553v2.517h-.767l-.215-.737c-.164-.511-.41-.89-.736-1.136zm6.508 4.144v5.188c0 .41.062.675.184.798.164.164.46.246.89.246h.338c1.474 0 2.21-1.054 2.21-3.162 0-1.064-.173-1.821-.521-2.272-.389-.532-1.085-.798-2.088-.798H41.34zM17.17 1.95l.907.81-11.44 6.43L1.1 6.05l.518-1.012 5.02 2.81L17.171 1.95zM14.868.659l1.217.607-9.447 5.316-4.4-2.455.751-.886 3.65 2.05L14.867.66zm4.012 2.936l.673.886-12.915 7.265L.4 8.253.685 7.14l5.952 3.342L18.88 3.595z" fill="#676767"/><path fill-rule="evenodd" clip-rule="evenodd" d="M20.997 7.124a9.65 9.65 0 01.57 3.31c0 1.153-.19 2.273-.57 3.36l-.26.686a10.567 10.567 0 01-2.26 3.31 10.452 10.452 0 01-3.376 2.189c-1.333.56-2.71.84-4.13.84-1.437 0-2.814-.28-4.13-.84a10.925 10.925 0 01-3.35-2.19 10.023 10.023 0 01-2.26-3.309 10.264 10.264 0 01-.83-4.047v-.687l6.44 3.589 13.584-7.636.572 1.425z" fill="#676767"/></svg><svg fill="none" viewBox="0 0 44 15" id="visa-gray" xmlns="http://www.w3.org/2000/svg"><path d="M28.545.682c-3.092 0-5.855 1.606-5.855 4.566 0 3.395 4.9 3.631 4.9 5.336 0 .72-.824 1.36-2.228 1.36-1.996 0-3.488-.899-3.488-.899l-.64 2.991s1.718.759 3.998.759c3.383 0 6.042-1.683 6.042-4.695 0-3.589-4.922-3.814-4.922-5.402 0-.562.675-1.181 2.08-1.181 1.582 0 2.872.654 2.872.654l.625-2.886c0 .004-1.404-.602-3.383-.602h-.001zM.251.902l-.074.435s1.3.24 2.472.715c1.509.544 1.618.863 1.87 1.849l2.769 10.671h3.709L16.718.901h-3.701l-3.675 9.295-1.5-7.878C7.707 1.416 7.008.901 6.155.901H.25zm17.957 0l-2.903 13.667h3.531L21.726.901h-3.518zm19.692 0c-.85 0-1.303.458-1.635 1.25l-5.17 12.417h3.702l.715-2.07h4.511l.436 2.07h3.27L40.878.901H37.9zm.484 3.692l1.099 5.13h-2.944l1.845-5.13z" fill="#676767"/></svg></svg>