<svg width="147" height="14" fill="none" xmlns="http://www.w3.org/2000/svg"><g clip-path="url(#clip0)" fill-rule="evenodd" clip-rule="evenodd" fill="#fff"><path d="M129.125 12.711L130.287 0h-3.999l-1.282 14 4.119-1.289zm-108.071 0L22.221 0h-4.004l-1.281 14 4.118-1.289zM39.976 0l-.887 9.687L32.03.005h-6.582L24.167 14l4.118-1.289.881-9.618 7.013 9.618h6.64L43.98 0h-4.004zm21.37 0l-.886 9.687L53.4.005h-6.582L45.53 14l4.124-1.289.882-9.618 7.013 9.618h6.639L65.351 0h-4.005zm22.113 0H67.472l-.27 2.947h5.966L72.156 14l4.119-1.289.897-9.764h6.017L83.459 0zm53.28 9.58l.877-9.58h-4.004l-1.162 12.711h13.31l.285-3.131h-9.306zM15.333 2.947L15.603 0H1.28L0 14l4.124-1.289.394-4.303h9.808l.27-2.947H4.788l.228-2.514h10.317zm103.138 9.764h4.616L116.806.01h-5.296l-8.429 12.701h4.347l1.499-2.256h8.527l1.017 2.256zm-7.77-4.94l3.288-4.955 2.246 4.955h-5.534zM98.978 0c3.024 0 3.372 2.091 3.232 3.681-.063.73-.151 1.653-.26 1.94-.192.501-.441.91-.845 1.284-.643.603-1.562.895-2.428 1.021 0 0 .301-.005.405 0 2.718.107 2.35 1.999 2.35 1.999l-.281 2.786h-4.004l.109-1.575c0-1.76-1.66-1.639-1.66-1.639H88.91l-.3 3.258-.027-.024-4.092-.02L85.772.005h13.206V0zm-1.214 5.655c-.145.278-.622.7-1.177.7H89.19l.296-3.243h7.324c.934 0 1.115.53 1.177.832.115.535.037 1.225-.223 1.711zm.877 2.276c-.016 0-.02.005 0 0z"/></g><defs><clipPath id="clip0"><path fill="#fff" d="M0 0h146.045v14H0z"/></clipPath></defs></svg>