<?xml version="1.0" encoding="utf-8"?><svg viewBox="0 0 26 22" xmlns="http://www.w3.org/2000/svg" xmlns:xlink="http://www.w3.org/1999/xlink"><style>:root>svg{display:none}:root>svg:target{display:block}</style><svg fill="none" viewBox="0 0 17 18" id="icon-arrow-up" xmlns="http://www.w3.org/2000/svg"><path d="M5.09 1v12a4 4 0 004 4H17M5.09 1l4.092 4.267M5.09 1L1 5.267" stroke="#000"/></svg><svg fill="none" viewBox="0 0 26 21" id="icon-basket" xmlns="http://www.w3.org/2000/svg"><path fill-rule="evenodd" clip-rule="evenodd" d="M.457.795A.9.9 0 011.54.124l4.876 1.143a.9.9 0 01.685.747l1.717 11.8h11.412l1.108-2.771h-9.642a.9.9 0 110-1.8h10.362l1.109-2.772H12.914a.9.9 0 110-1.8h11.581a.9.9 0 01.836 1.235l-1.829 4.571-1.828 4.572a.9.9 0 01-.836.566h-12.8a.9.9 0 01-.89-.77L5.408 2.878l-4.28-1.003A.9.9 0 01.458.795zm11.238 17.634c0 1.104-.955 2-2.133 2s-2.133-.896-2.133-2c0-1.105.955-2 2.133-2s2.133.895 2.133 2zm7.62 2c1.177 0 2.133-.896 2.133-2 0-1.105-.956-2-2.134-2s-2.133.895-2.133 2c0 1.104.955 2 2.133 2z" fill="#fff"/></svg><svg fill="none" viewBox="0 0 14 6" id="icon-caret" xmlns="http://www.w3.org/2000/svg"><path d="M1 1l6 4 6-4" stroke="#000"/></svg><svg fill="none" viewBox="0 0 24 20" id="icon-change" xmlns="http://www.w3.org/2000/svg"><path fill-rule="evenodd" clip-rule="evenodd" d="M11.928 1.188c-3.975 0-7.34 2.729-8.352 6.466l-1.159-.308C3.562 3.12 7.377 0 11.927 0c4.912 0 8.966 3.633 9.732 8.371l1.139-1.526.965.707-2.503 3.353-3.351-3.284.844-.845 1.702 1.669c-.723-4.135-4.277-7.257-8.527-7.257zm-9.33 7.91l3.443 3.374-.844.844-1.797-1.76c.723 4.134 4.277 7.256 8.528 7.256 3.912 0 7.233-2.643 8.302-6.29l1.152.331C20.174 16.977 16.406 20 11.928 20c-4.916 0-8.972-3.64-9.734-8.383L.961 13.25 0 12.538l2.598-3.44z" fill="#202020"/></svg><svg fill="none" viewBox="0 0 12 9" id="icon-check-white" xmlns="http://www.w3.org/2000/svg"><path d="M1.625 3.333L4.99 6.667l5.385-5.334" stroke="#fff" stroke-width="2"/></svg><svg fill="none" viewBox="0 0 23 18" id="icon-delivery" xmlns="http://www.w3.org/2000/svg"><path fill-rule="evenodd" clip-rule="evenodd" d="M0 0h13.97v1.215h4.536l2.721 5.548 1.718 2.274v6.195h-2.784A3.446 3.446 0 0116.776 18a3.446 3.446 0 01-3.385-2.768h-3.293A3.445 3.445 0 016.713 18a3.445 3.445 0 01-3.386-2.773L0 15.15V0zm3.305 14.04l-2.118-.05V1.188h11.596v6.482h7.641l1.334 1.766v4.61h-1.573a3.444 3.444 0 00-3.409-2.904 3.444 3.444 0 00-3.409 2.904h-3.245a3.444 3.444 0 00-3.41-2.904 3.444 3.444 0 00-3.407 2.899zm16.463-7.558l-2.002-4.08H13.97v4.08h5.798zM6.713 12.328a2.252 2.252 0 00-2.262 2.296 2.253 2.253 0 002.262 2.19 2.253 2.253 0 002.262-2.243 2.253 2.253 0 00-2.262-2.243zm10.063 0a2.253 2.253 0 00-2.262 2.296 2.253 2.253 0 002.262 2.19 2.253 2.253 0 002.262-2.243 2.253 2.253 0 00-2.262-2.243z" fill="#202020"/></svg><svg fill="none" viewBox="0 0 11 13" id="icon-gift" xmlns="http://www.w3.org/2000/svg"><path d="M7.639 0C6.795 0 6.11 1.605 6.11 3.05c0 0 3.056 0 3.056-1.445C9.167.719 8.483 0 7.639 0zM3.361 0C4.205 0 4.89 1.605 4.89 3.05c0 0-3.056 0-3.056-1.445C1.833.719 2.517 0 3.361 0zM0 4.012h4.889v3.21H0v-3.21zM0 8.506h4.889V13H0V8.506zM6.111 4.012H11v3.21H6.111v-3.21zM6.111 8.506H11V13H6.111V8.506z" fill="#D61635"/></svg><svg fill="none" viewBox="0 0 18 18" id="icon-phone" xmlns="http://www.w3.org/2000/svg"><g clip-path="url(#hclip0)" fill="#202020"><path d="M13.685 11.907c-.588-.58-1.322-.58-1.907 0-.445.442-.891.884-1.33 1.334-.12.123-.22.15-.367.067-.288-.157-.595-.284-.872-.457-1.292-.813-2.375-1.858-3.334-3.034-.475-.584-.899-1.21-1.195-1.914-.06-.142-.048-.236.068-.352.446-.43.88-.873 1.318-1.315.61-.614.61-1.333-.004-1.951-.348-.352-.696-.697-1.045-1.049-.36-.36-.715-.723-1.078-1.079-.588-.573-1.323-.573-1.907.004-.45.442-.88.895-1.337 1.33-.423.4-.637.891-.682 1.464-.07.933.158 1.813.48 2.671.659 1.776 1.663 3.352 2.88 4.798a17.825 17.825 0 005.903 4.619c1.034.502 2.105.887 3.27.951.802.045 1.498-.157 2.056-.783.383-.427.813-.816 1.218-1.225.6-.606.603-1.34.007-1.94a561.061 561.061 0 00-2.142-2.139zM12.97 8.922l1.382-.236a6.178 6.178 0 00-1.727-3.333 6.144 6.144 0 00-3.521-1.757l-.195 1.39a4.767 4.767 0 012.727 1.36 4.766 4.766 0 011.333 2.576zM15.13 2.914A10.191 10.191 0 009.288 0l-.194 1.39a8.837 8.837 0 015.049 2.517 8.83 8.83 0 012.476 4.775L18 8.446a10.267 10.267 0 00-2.87-5.532z"/></g><defs><clipPath id="hclip0"><path fill="#fff" d="M0 0h18v18H0z"/></clipPath></defs></svg><svg fill="none" viewBox="0 0 20 22" id="icon-trash" xmlns="http://www.w3.org/2000/svg"><path d="M1 3.353h1.862m16.138 0h-1.862m0 0V19a2 2 0 01-2 2H4.862a2 2 0 01-2-2V3.353m14.276 0h-3.569m-10.707 0h3.569m0 0h7.138m-7.138 0h7.138m-7.138 0V3a2 2 0 012-2h3.138a2 2 0 012 2v.353M6.431 6.294V18.06M10 6.294V18.06m3.569-11.765V18.06" stroke="#BEBEBE" stroke-linecap="round"/></svg><svg fill="none" viewBox="0 0 20 20" id="icon-warranty" xmlns="http://www.w3.org/2000/svg"><path fill-rule="evenodd" clip-rule="evenodd" d="M9.969 0l9.968 4.37-.051.434-.586-.07.586.07v.005l-.002.012-.006.049-.024.182a40.098 40.098 0 01-.503 2.87c-.366 1.711-.949 3.84-1.814 5.295-1.012 1.702-2.852 3.356-4.388 4.56a37.198 37.198 0 01-2.808 1.992l-.045.029-.013.008-.003.002h-.001l-.31-.5-.31.5h-.002l-.003-.002-.012-.008-.046-.029-.172-.11a37.2 37.2 0 01-2.635-1.882c-1.537-1.204-3.377-2.858-4.389-4.56C1.535 11.76.952 9.633.586 7.923A40.065 40.065 0 01.06 4.87L.054 4.82.052 4.81v-.005l.585-.07-.586.07L0 4.37 9.969 0zm-8.69 5.096l.066.442c.085.545.215 1.3.394 2.139.363 1.697.915 3.66 1.674 4.937.894 1.503 2.584 3.045 4.103 4.236a35.996 35.996 0 002.453 1.758 36.035 36.035 0 002.453-1.758c1.518-1.19 3.208-2.732 4.102-4.236.759-1.277 1.311-3.24 1.674-4.937a38.88 38.88 0 00.46-2.581l-8.69-3.809L1.28 5.096zm8.69 14.211l-.31.502.31.191.31-.192-.31-.5zm3.527-10.781l-4.123 4.122-2.903-2.54.776-.887 2.074 1.814 3.342-3.343.834.834z" fill="#202020"/></svg></svg>