<svg width="36" height="36" fill="none" xmlns="http://www.w3.org/2000/svg"><path d="M26.625 17.625a6.875 6.875 0 01-6.875-6.875V.5H.5v35H12v-1.875h2.625V35.5H35.5v-9a8.875 8.875 0 00-8.875-8.875zM2.5 2.625H12v.25a3.75 3.75 0 01-3.75 3.75H2.5V2.5v.125zm0 6h5.75A5.75 5.75 0 0014 3v-.375h3.75v6h-3.5V10.5h3.375v1.25H14.25v2H18l.5 1.125h-4.25v1.875h5.625a8.875 8.875 0 004 2.5V28h-10a10 10 0 00-10-9H2.5V8.625zm0 12.5H4a8 8 0 017.875 6.75H2.5V21v.125zm31 12.375h-2.75v-2h-2v2h-2.625v-2H24v2h-2.625v-2h-2v2h-2.75v-1.875h-6.75V33.5h-2.5v-2h-2.25v2H2.5V30h31v3.5z" fill="#3F3F3F"/><path fill-rule="evenodd" clip-rule="evenodd" d="M33.5 28H26v-8.375h.625A6.875 6.875 0 0133.5 26.5V28z" fill="#D61635"/></svg>