<svg width="34" height="38" fill="none" xmlns="http://www.w3.org/2000/svg"><path fill-rule="evenodd" clip-rule="evenodd" d="M3.25 21.5v3.75h27.5V21.5H3.25zm0-2.5h27.5a2.5 2.5 0 012.5 2.5v3.75a2.5 2.5 0 01-2.5 2.5H3.25a2.5 2.5 0 01-2.5-2.5V21.5a2.5 2.5 0 012.5-2.5zM7 21.5V24h2.5v-2.5H7zm8.75 0V24h2.5v-2.5h-2.5zm-4.375 1.25v2.5h2.5v-2.5h-2.5zM24.5 21.5V24H27v-2.5h-2.5zm-4.375 1.25v2.5h2.5v-2.5h-2.5zM5.75 35.625a1.625 1.625 0 100-3.25 1.625 1.625 0 000 3.25zm0 2.125a3.75 3.75 0 110-7.5 3.75 3.75 0 010 7.5zM17 35.5a1.625 1.625 0 101.25-3 1.625 1.625 0 00-1.25 3zm0 2.25a3.75 3.75 0 110-7.5 3.75 3.75 0 010 7.5zm11.25-2.25a1.625 1.625 0 101.25-3 1.625 1.625 0 00-1.25 3zm0 2.25a3.75 3.75 0 110-7.5 3.75 3.75 0 010 7.5zM4.5 11V1.5a1.25 1.25 0 012.5 0V11l1.25-1.5A1.25 1.25 0 0110 11.25l-3.5 3.5a1.25 1.25 0 01-2 0l-3.375-3.375a1.25 1.25 0 011.75-1.75L4.5 11zM27 11V1.5a1.25 1.25 0 012.5 0V11l1.25-1.5a1.25 1.25 0 011.75 1.75l-3.5 3.5a1.25 1.25 0 01-2 0l-3.5-3.5a1.25 1.25 0 111.75-1.75L27 11z" fill="#3F3F3F"/><path fill-rule="evenodd" clip-rule="evenodd" d="M15.75 13.5V4a1.25 1.25 0 012.5 0v9.5l1.375-1.5a1.25 1.25 0 011.75 1.75l-3.5 3.5a1.25 1.25 0 01-2 0l-3.5-3.5a1.25 1.25 0 111.75-1.75l1.5 1.5h.125z" fill="#D61635"/></svg>