<svg width="40" height="40" fill="none" xmlns="http://www.w3.org/2000/svg"><path fill-rule="evenodd" clip-rule="evenodd" d="M26.25 18a3.25 3.25 0 006.5 0c0-1-1.125-2.875-3.25-5.5-2.25 2.5-3.25 4.5-3.25 5.5zm3.25 5.75A5.75 5.75 0 0123.75 18c0-2.125 1.875-5.125 5.75-9.25 3.75 4.125 5.75 7.125 5.75 9.25a5.75 5.75 0 01-5.75 5.75zM2.5 25h35v2.5h-35V25zm5.625 12.5v-6.25l-1.25.625-.625-1.25 2.125-1H10V37.5H8.125zm3-1.75h2v1.75l-.75 1.25h-1l.5-1.125h-.75V35.75zm5-4.5v1.25h1.75c.75 0 1.25.25 1.625.5.375.375.5.875.5 1.5v.875c0 .75-.125 1.25-.5 1.625s-.875.5-1.625.5H16.5a48.019 48.019 0 01-1.25-.125c-.5.01-1 .01-1.5 0V35.75H15a51.8 51.8 0 002.875 0 .5.5 0 00.125-.375v-.625c0-.375-.25-.625-.625-.625h-3.25V29.5H19.5v1.75h-3.375zm15 1.75h-.375c-.299.057-.591.14-.875.25v4.25h-2v-4a.375.375 0 00-.375-.5H27c-.299.057-.591.14-.875.25v4.25H24.25v-6H26v.625c.197-.143.406-.268.625-.375l.75-.25H29l.625.625.625-.375.625-.25h1c.5 0 1 0 1.25.375s.5.75.5 1.25V37.5h-2v-4a.375.375 0 00-.375-.5h-.125zm-18-10.5A8.125 8.125 0 015 14.375c0-3 2.75-7.375 8.125-13.125C18.5 7 21.25 11.375 21.25 14.375a8.125 8.125 0 01-8.125 8.125zM7.5 14.375a5.625 5.625 0 0011.25 0c0-1.875-1.875-5-5.625-9.375C9.375 9.25 7.5 12.5 7.5 14.375z" fill="#3F3F3F"/><path fill-rule="evenodd" clip-rule="evenodd" d="M2.5 25h35v2.5h-35V25z" fill="#D61635"/></svg>