<svg width="20" height="24" fill="none" xmlns="http://www.w3.org/2000/svg"><path fill-rule="evenodd" clip-rule="evenodd" d="M1.75 13.5v2.25h16.5V13.5H1.75zm0-1.5h16.5a1.5 1.5 0 011.5 1.5v2.25a1.5 1.5 0 01-1.5 1.5H1.75a1.5 1.5 0 01-1.5-1.5V13.5a1.5 1.5 0 011.5-1.5zM4 13.5V15h1.5v-1.5H4zm5.25 0V15h1.5v-1.5h-1.5zm-2.625.75v1.5h1.5v-1.5h-1.5zm7.875-.75V15H16v-1.5h-1.5zm-2.625.75v1.5h1.5v-1.5h-1.5zM3.25 21.975a.975.975 0 100-1.95.975.975 0 000 1.95zm0 1.275a2.25 2.25 0 110-4.5 2.25 2.25 0 010 4.5zM10 21.9a.976.976 0 001.235-1.36A.974.974 0 1010 21.9zm0 1.35a2.25 2.25 0 110-4.5 2.25 2.25 0 010 4.5zm6.75-1.35a.976.976 0 001.235-1.36.974.974 0 10-1.235 1.36zm0 1.35a2.25 2.25 0 110-4.5 2.25 2.25 0 010 4.5zM2.5 7.2V1.5a.75.75 0 011.5 0v5.7l.75-.9A.75.75 0 015.8 7.35l-2.1 2.1a.75.75 0 01-1.2 0L.475 7.425a.75.75 0 011.05-1.05L2.5 7.2zm13.5 0V1.5a.75.75 0 111.5 0v5.7l.75-.9a.75.75 0 011.05 1.05l-2.1 2.1a.748.748 0 01-1.05.15.748.748 0 01-.15-.15l-2.1-2.1a.75.75 0 111.05-1.05l1.05.9z" fill="#202020"/><path fill-rule="evenodd" clip-rule="evenodd" d="M9.25 8.7V3a.75.75 0 011.5 0v5.7l.825-.9a.75.75 0 011.05 1.05l-2.1 2.1a.75.75 0 01-1.2 0l-2.1-2.1a.75.75 0 111.05-1.05l.9.9h.075z" fill="#D61635"/></svg>