<svg width="22" height="22" fill="none" xmlns="http://www.w3.org/2000/svg"><path fill-rule="evenodd" clip-rule="evenodd" d="M15.35.5h-8.7A6.15 6.15 0 00.5 6.65v5.7a3 3 0 001.35 2.4v1.875a1.725 1.725 0 001.65 1.8h1.275v2.25c0 .45.45.825.9.825h10.5c.45 0 .9-.375.9-.9v-2.1h1.275a1.726 1.726 0 001.8-1.725V14.75a3 3 0 001.275-2.55V6.575C21.5 3.275 18.725.5 15.35.5zM11 4.475l-1.95-2.25h3.9L11 4.475zM3.5 16.7v-1.35h1.35v1.35H3.5zm3.15-8.325a.9.9 0 00-1.8 0v5.25H3.575c-.75 0-1.35-.6-1.35-1.35V6.65A4.35 4.35 0 016.65 2.225L10.1 6.05v13.725H6.65v-11.4zm11.775 8.25H17.15V15.35h1.275v1.35-.075zm1.35-4.35c0 .75-.6 1.35-1.35 1.35H17.15v-5.25a.9.9 0 10-1.8 0v11.4H11.9V6.05l3.45-3.75a4.35 4.35 0 014.425 4.35v5.7-.075z" fill="#202020"/><path fill-rule="evenodd" clip-rule="evenodd" d="M10.1 6.05h1.8v13.725h-1.8V6.05z" fill="#D61635"/></svg>