<svg width="15" height="22" fill="none" xmlns="http://www.w3.org/2000/svg"><path fill-rule="evenodd" clip-rule="evenodd" d="M3.625.875v.675h7.35a.525.525 0 01.375.9L9.1 4.925 9.025 5a1.125 1.125 0 00.75 1.875h.525a.975.975 0 01.375 1.8c-.375.225-.6.45-.675.75a1.05 1.05 0 00.825 1.35l.675.15a1.125 1.125 0 01.975 1.05v2.25h.675V11.6a1.125 1.125 0 00-1.125-1.125H11.8a.9.9 0 01-.525-1.575l.75-.525a.825.825 0 00-.15-1.5l-.3-.075-.75-.15a1.125 1.125 0 01-.525-1.875l1.425-1.5a1.499 1.499 0 00-.75-2.4h-7.35z" fill="#202020" stroke="#202020" stroke-width=".75"/><path clip-rule="evenodd" d="M12.4 15.35c.225-.3.375-.6.375-1.05H12.1v.75h1.425v-.75h-.75c0 .45-.15.75-.375 1.05zm-2.025 0A1.426 1.426 0 0110 14.3h-.75v.75h1.425v-.75h-.75c0 .45.225.75.45 1.05zM11.5 14v.375V14zM1 20.75h2.55V1.25h-.3A2.25 2.25 0 001 3.5v17.25z" stroke="#202020" stroke-width="1.425"/><path fill-rule="evenodd" clip-rule="evenodd" d="M1 14.75h2.25v1.425H1V14.75z" fill="#202020"/><path d="M5.5 18.5a1.5 1.5 0 100-3 1.5 1.5 0 000 3z" stroke="#D61635" stroke-width="1.425"/><path fill-rule="evenodd" clip-rule="evenodd" d="M4.075 11.6h1.5v1.425h-1.5V11.6zm0-2.775h1.5v1.425h-1.5V8.825zm0-2.7h1.5V7.55h-1.5V6.125zm0-2.775h1.5v1.425h-1.5V3.35z" fill="#202020"/></svg>