<svg width="22" height="22" fill="none" xmlns="http://www.w3.org/2000/svg"><path fill-rule="evenodd" clip-rule="evenodd" d="M16.175 10.775A4.125 4.125 0 0112.05 6.65V.5H.5v21h6.9v-1.125h1.575V21.5H21.5v-5.4a5.325 5.325 0 00-5.325-5.325zm-14.475-9h5.7v.15a2.25 2.25 0 01-2.25 2.25H1.7V1.7v.075zm0 3.6h3.45A3.45 3.45 0 008.6 2v-.225h2.25v3.6h-2.1V6.5h2.025v.75H8.75v1.2H11l.3.675H8.75v1.125h3.375a5.325 5.325 0 002.4 1.5V17h-6a6 6 0 00-6-5.4H1.7V5.375zm0 7.5h.9a4.8 4.8 0 014.725 4.05H1.7V12.8v.075zM20.3 20.3h-1.65v-1.2h-1.2v1.2h-1.575v-1.2H14.6v1.2h-1.575v-1.2h-1.2v1.2h-1.65v-1.125h-4.05V20.3h-1.5v-1.2h-1.35v1.2H1.7v-2.1h18.6v2.1z" fill="#202020"/><path fill-rule="evenodd" clip-rule="evenodd" d="M20.3 17h-4.5v-5.025h.375A4.125 4.125 0 0120.3 16.1v.9z" fill="#D61635"/></svg>