<svg width="16" height="22" fill="none" xmlns="http://www.w3.org/2000/svg"><path clip-rule="evenodd" d="M9.65 1.25l-.6.6a1.5 1.5 0 01-2.1-.075l-.525-.6H3.65A2.25 2.25 0 001.4 3.5v7.8h2.775v9.45h7.8v-9.375h2.775V3.5a2.25 2.25 0 00-2.25-2.25H9.65z" stroke="#202020" stroke-width="1.425"/><path fill-rule="evenodd" clip-rule="evenodd" d="M4.1 4.625a.75.75 0 01.75.75V12.5H3.425V5.3a.75.75 0 01.75-.75l-.075.075zm3.9 7.5a.75.75 0 01.75.75v7.5h-1.5v-7.5a.75.75 0 01.75-.75z" fill="#202020"/><path d="M8 10.7a.75.75 0 100-1.5.75.75 0 000 1.5zm0-2.55a.75.75 0 100-1.5.75.75 0 000 1.5zM8 5.6a.75.75 0 100-1.5.75.75 0 000 1.5z" fill="#D61635"/><path fill-rule="evenodd" clip-rule="evenodd" d="M12.05 4.625a.75.75 0 01.675.75V12.5H11.3V5.3a.75.75 0 01.75-.75v.075z" fill="#202020"/></svg>