<svg width="14" height="18" fill="none" xmlns="http://www.w3.org/2000/svg"><path d="M12.325 5.475H1.675A.675.675 0 001 6.15v.075c0 .373.302.675.675.675h10.65A.675.675 0 0013 6.225V6.15a.675.675 0 00-.675-.675z" fill="#202020"/><path d="M9.325 2.85h-4.65A.675.675 0 004 3.525V3.6c0 .373.302.675.675.675h4.65A.675.675 0 0010 3.6v-.075a.675.675 0 00-.675-.675z" fill="#D61635"/><path clip-rule="evenodd" d="M1.525 9.975h.45A6.6 6.6 0 003.4 8.25c.375-.75.675-1.35.75-1.95v-.15H1.6v3.825h-.075zm0-3.75H1.45h.075z" stroke="#202020" stroke-width="1.425"/><path clip-rule="evenodd" d="M2.875.75l-1.35 5.475V17.1h4.05l.75-2.4a.75.75 0 111.5 0l.525 2.4h4.125V6.225L11.05.825V.75H2.875z" stroke="#202020" stroke-width="1.425"/><path clip-rule="evenodd" d="M12.55 9.975h-.45a6.601 6.601 0 01-1.425-1.725C10.3 7.5 10 6.9 9.925 6.3v-.15h2.55v3.825h.075z" stroke="#202020" stroke-width="1.425"/><path fill-rule="evenodd" clip-rule="evenodd" d="M7.75 12.525l.675 1.875h-2.85l.75-1.875a.75.75 0 011.425 0z" fill="#202020"/></svg>