<?xml version="1.0" encoding="utf-8"?><svg viewBox="0 0 126 78" xmlns="http://www.w3.org/2000/svg" xmlns:xlink="http://www.w3.org/1999/xlink"><style>:root>svg{display:none}:root>svg:target{display:block}</style><svg fill="none" viewBox="0 0 22 18" id="icon-arrow-back" xmlns="http://www.w3.org/2000/svg"><path d="M10.06 14.94L5.622 10.5H20a1.5 1.5 0 000-3H5.621l4.44-4.44A1.5 1.5 0 007.939.94l-7 7a1.5 1.5 0 000 2.12l7 7a1.5 1.5 0 002.122-2.12z" fill="#202020" stroke="#F4F4F4" stroke-linecap="round" stroke-linejoin="round"/></svg><svg fill="none" viewBox="0 0 17 18" id="icon-arrow-up" xmlns="http://www.w3.org/2000/svg"><path d="M5.09 1v12a4 4 0 004 4H17M5.09 1l4.092 4.267M5.09 1L1 5.267" stroke="#000"/></svg><svg fill="none" viewBox="0 0 26 21" id="icon-basket" xmlns="http://www.w3.org/2000/svg"><path fill-rule="evenodd" clip-rule="evenodd" d="M.457.795A.9.9 0 011.54.124l4.876 1.143a.9.9 0 01.685.747l1.717 11.8h11.412l1.108-2.771h-9.642a.9.9 0 110-1.8h10.362l1.109-2.772H12.914a.9.9 0 110-1.8h11.581a.9.9 0 01.836 1.235l-1.829 4.571-1.828 4.572a.9.9 0 01-.836.566h-12.8a.9.9 0 01-.89-.77L5.408 2.878l-4.28-1.003A.9.9 0 01.458.795zm11.238 17.634c0 1.104-.955 2-2.133 2s-2.133-.896-2.133-2c0-1.105.955-2 2.133-2s2.133.895 2.133 2zm7.62 2c1.177 0 2.133-.896 2.133-2 0-1.105-.956-2-2.134-2s-2.133.895-2.133 2c0 1.104.955 2 2.133 2z" fill="#fff"/></svg><svg fill="none" viewBox="0 0 14 6" id="icon-caret" xmlns="http://www.w3.org/2000/svg"><path d="M1 1l6 4 6-4" stroke="#000"/></svg><svg fill="none" viewBox="0 0 12 9" id="icon-check-white" xmlns="http://www.w3.org/2000/svg"><path d="M1.625 3.333L4.99 6.667l5.385-5.334" stroke="#fff" stroke-width="2"/></svg><svg fill="none" viewBox="0 0 36 28" id="icon-delivery" xmlns="http://www.w3.org/2000/svg"><path fill-rule="evenodd" clip-rule="evenodd" d="M27.123 0h.285l.18.222 7.626 9.385.134.165V22.903h-3.557a4.707 4.707 0 01-9.336 0h-8.261a4.707 4.707 0 01-9.336 0H.714V0H27.123zm0 17.597a4.707 4.707 0 014.668 4.106h2.357V10.198L26.838 1.2H1.913v20.503h2.944a4.707 4.707 0 019.336 0h8.26a4.707 4.707 0 014.669-4.106zm3.506 4.706a3.506 3.506 0 10-7.012 0 3.506 3.506 0 007.012 0zm-17.597 0a3.506 3.506 0 10-7.012 0 3.506 3.506 0 007.012 0zM9.622 11.01h2.369v-.609H9.62v-1.93h2.754v-.613H8.877v5.645h.745v-2.493zm4.389.21h1.326l1.225 2.283h.8v-.046l-1.327-2.396a1.69 1.69 0 00.791-.586c.191-.261.287-.567.287-.919 0-.553-.172-.974-.516-1.264-.34-.29-.83-.434-1.465-.434h-1.87v5.645h.749V11.22zm1.144-.61H14.01v-2.14h1.14c.393.003.693.097.9.283.209.187.314.454.314.803 0 .32-.11.576-.33.768-.217.191-.51.287-.88.287zm6.196.284h-2.447v2h2.843v.61H18.16V7.858h3.548v.612h-2.804v1.815h2.447v.609zm2.067 0h2.447v-.609h-2.447V8.471h2.803V7.86h-3.548v5.645h3.587v-.608h-2.842v-2.001z" fill="#202020"/></svg><svg fill="none" viewBox="0 0 20 8" id="icon-dropdown" xmlns="http://www.w3.org/2000/svg"><path d="M1 1l9 6 9-6" stroke="#202020"/></svg><svg fill="none" viewBox="0 0 25 20" id="icon-email" xmlns="http://www.w3.org/2000/svg"><path d="M12.77 11.724L24.6.908V19.6H.4V.908l11.83 10.816.27.247.27-.247zm-.27-.837L1.03.4h22.94L12.5 10.887z" fill="#D61635" stroke="#fff" stroke-width=".8"/></svg><svg fill="none" viewBox="0 0 11 13" id="icon-gift" xmlns="http://www.w3.org/2000/svg"><path d="M7.639 0C6.795 0 6.11 1.605 6.11 3.05c0 0 3.056 0 3.056-1.445C9.167.719 8.483 0 7.639 0zM3.361 0C4.205 0 4.89 1.605 4.89 3.05c0 0-3.056 0-3.056-1.445C1.833.719 2.517 0 3.361 0zM0 4.012h4.889v3.21H0v-3.21zM0 8.506h4.889V13H0V8.506zM6.111 4.012H11v3.21H6.111v-3.21zM6.111 8.506H11V13H6.111V8.506z" fill="#D61635"/></svg><svg fill="none" viewBox="0 0 22 22" id="icon-instagram" xmlns="http://www.w3.org/2000/svg"><path fill-rule="evenodd" clip-rule="evenodd" d="M4.889 0A4.889 4.889 0 000 4.889V17.11C0 19.811 2.189 22 4.889 22H17.11c2.7 0 4.889-2.189 4.889-4.889V4.89C22 2.189 19.811 0 17.111 0H4.89zm6.107 16.493a5.65 5.65 0 01-5.65-5.65 5.65 5.65 0 019.646-3.995 5.65 5.65 0 01-3.996 9.645zm5.876-10.192a1.316 1.316 0 01-.505-2.534 1.316 1.316 0 11.505 2.534zm-2.205 4.542a3.67 3.67 0 11-7.341 0 3.67 3.67 0 017.34 0z" fill="#D61635"/><path fill-rule="evenodd" clip-rule="evenodd" d="M4.889 0A4.889 4.889 0 000 4.889V17.11C0 19.811 2.189 22 4.889 22H17.11c2.7 0 4.889-2.189 4.889-4.889V4.89C22 2.189 19.811 0 17.111 0H4.89zm6.107 16.493a5.65 5.65 0 01-5.65-5.65 5.65 5.65 0 019.646-3.995 5.65 5.65 0 01-3.996 9.645zm5.876-10.192a1.316 1.316 0 01-.505-2.534 1.316 1.316 0 11.505 2.534zm-2.205 4.542a3.67 3.67 0 11-7.341 0 3.67 3.67 0 017.34 0z" fill="url(#jpaint0_radial)"/><path fill-rule="evenodd" clip-rule="evenodd" d="M4.889 0A4.889 4.889 0 000 4.889V17.11C0 19.811 2.189 22 4.889 22H17.11c2.7 0 4.889-2.189 4.889-4.889V4.89C22 2.189 19.811 0 17.111 0H4.89zm6.107 16.493a5.65 5.65 0 01-5.65-5.65 5.65 5.65 0 019.646-3.995 5.65 5.65 0 01-3.996 9.645zm5.876-10.192a1.316 1.316 0 01-.505-2.534 1.316 1.316 0 11.505 2.534zm-2.205 4.542a3.67 3.67 0 11-7.341 0 3.67 3.67 0 017.34 0z" fill="url(#jpaint1_radial)"/><defs><radialGradient id="jpaint0_radial" cx="0" cy="0" r="1" gradientUnits="userSpaceOnUse" gradientTransform="translate(8.178 22.016) scale(27.4238)"><stop stop-color="#FD5"/><stop offset=".328" stop-color="#FF543F"/><stop offset=".348" stop-color="#FC5245"/><stop offset=".504" stop-color="#E64771"/><stop offset=".643" stop-color="#D53E91"/><stop offset=".761" stop-color="#CC39A4"/><stop offset=".841" stop-color="#C837AB"/></radialGradient><radialGradient id="jpaint1_radial" cx="0" cy="0" r="1" gradientUnits="userSpaceOnUse" gradientTransform="matrix(18.2094 0 0 12.133 3.54 -.275)"><stop stop-color="#4168C9"/><stop offset=".999" stop-color="#4168C9" stop-opacity="0"/></radialGradient></defs></svg><svg fill="none" viewBox="0 0 18 18" id="icon-phone" xmlns="http://www.w3.org/2000/svg"><g clip-path="url(#kclip0)" fill="#202020"><path d="M13.685 11.907c-.588-.58-1.322-.58-1.907 0-.445.442-.891.884-1.33 1.334-.12.123-.22.15-.367.067-.288-.157-.595-.284-.872-.457-1.292-.813-2.375-1.858-3.334-3.034-.475-.584-.899-1.21-1.195-1.914-.06-.142-.048-.236.068-.352.446-.43.88-.873 1.318-1.315.61-.614.61-1.333-.004-1.951-.348-.352-.696-.697-1.045-1.049-.36-.36-.715-.723-1.078-1.079-.588-.573-1.323-.573-1.907.004-.45.442-.88.895-1.337 1.33-.423.4-.637.891-.682 1.464-.07.933.158 1.813.48 2.671.659 1.776 1.663 3.352 2.88 4.798a17.825 17.825 0 005.903 4.619c1.034.502 2.105.887 3.27.951.802.045 1.498-.157 2.056-.783.383-.427.813-.816 1.218-1.225.6-.606.603-1.34.007-1.94a561.061 561.061 0 00-2.142-2.139zM12.97 8.922l1.382-.236a6.178 6.178 0 00-1.727-3.333 6.144 6.144 0 00-3.521-1.757l-.195 1.39a4.767 4.767 0 012.727 1.36 4.766 4.766 0 011.333 2.576zM15.13 2.914A10.191 10.191 0 009.288 0l-.194 1.39a8.837 8.837 0 015.049 2.517 8.83 8.83 0 012.476 4.775L18 8.446a10.267 10.267 0 00-2.87-5.532z"/></g><defs><clipPath id="kclip0"><path fill="#fff" d="M0 0h18v18H0z"/></clipPath></defs></svg><svg fill="none" viewBox="0 0 35 30" id="icon-return" xmlns="http://www.w3.org/2000/svg"><path fill-rule="evenodd" clip-rule="evenodd" d="M17.56 1.2c-5.892 0-10.876 4.121-12.375 9.762l-1.16-.308C5.655 4.525 11.085 0 17.56 0c7.324 0 13.31 5.787 13.973 13.143l1.82-1.769.836.86-2.777 2.7-.418.407-.418-.407-2.777-2.7.837-.86 1.678 1.632C29.595 6.348 24.143 1.2 17.56 1.2zM4.126 13.667l.418.407 3.128 3.041-.836.86-2.03-1.973c.719 6.658 6.171 11.806 12.754 11.806 5.8 0 10.718-3.992 12.301-9.497l1.154.331c-1.72 5.982-7.083 10.366-13.455 10.366-7.324 0-13.31-5.787-13.973-13.143l-2.172 2.11-.836-.86 3.128-3.041.419-.407zm13.391.837h-4.626v-.645l2.444-2.716c.362-.41.61-.743.747-.998a1.67 1.67 0 00.208-.8c0-.37-.111-.671-.334-.907-.224-.236-.521-.354-.893-.354-.446 0-.793.127-1.042.383-.246.252-.369.604-.369 1.057h-.897c0-.65.208-1.175.625-1.576.42-.401.982-.602 1.683-.602.656 0 1.175.173 1.557.52.381.342.572.8.572 1.372 0 .695-.443 1.522-1.329 2.483l-1.89 2.05h3.544v.733zm3.899 0h-.902v-5.98l-1.809.665v-.814l2.57-.966h.14v7.095zm-6.679 5.478c.357.372.82.559 1.389.559.703 0 1.231-.27 1.583-.811l-.439-.342c-.131.171-.285.308-.461.412a1.25 1.25 0 01-.644.155c-.357 0-.652-.127-.885-.38-.23-.256-.35-.591-.36-1.005h2.843v-.299c0-.67-.151-1.184-.454-1.544-.302-.36-.727-.54-1.272-.54-.334 0-.644.094-.931.28-.285.184-.507.44-.668.768a2.523 2.523 0 00-.236 1.114v.132c0 .625.178 1.126.535 1.5zm.57-2.886a.954.954 0 01.73-.319c.3 0 .538.101.714.303.175.2.274.481.294.846v.054h-2.102c.046-.38.168-.675.364-.884zm-5.266 2.475l-.248.306h-.326l-.004 1.82h.718v-1.234h2.929v1.234h.717v-1.82h-.539v-3.612h-2.704l-.066 1.676c-.039.725-.198 1.268-.477 1.63zm2.53.306h-1.929c.352-.463.55-1.112.594-1.947l.042-1.001h1.292v2.948zm9.217.586h-.717v-1.792h-1.928v1.792h-.722v-4.198h.722v1.82h1.928v-1.82h.717v4.198zm2.792-2.75h-1.09v-1.448h-.718v4.198h1.777c.48 0 .864-.127 1.148-.38.285-.254.427-.59.427-1.009 0-.416-.138-.746-.415-.99-.277-.242-.653-.366-1.13-.372zm-1.09 2.164v-1.579h1.094c.258.005.459.083.601.233a.779.779 0 01.217.57c0 .24-.073.43-.22.57-.148.138-.356.206-.625.206H23.49z" fill="#000"/></svg><svg fill="none" viewBox="0 0 126 78" id="icon-success" xmlns="http://www.w3.org/2000/svg"><g opacity=".46"><path opacity=".8" d="M126 25.633L73.21 49.787V24.154L126 0v25.633z" fill="url(#mpaint0_linear)"/><path d="M116.224 40.703L73.21 60.779V39.474l43.014-20.076v21.305zM101.604 14.617L73.364 27.54V13.825L101.603.901v13.716z" fill="#B9C3CD" fill-opacity=".8"/></g><g opacity=".46"><path opacity=".8" d="M0 52.367l52.79-24.154v25.633L0 78V52.367z" fill="url(#mpaint1_linear)"/><path d="M9.776 37.297L52.79 17.221v21.305L9.776 58.602V37.297zM24.396 63.383l28.24-12.924v13.716l-28.24 12.924V63.383z" fill="#B9C3CD" fill-opacity=".8"/></g><ellipse cx="63.304" cy="38.493" rx="30.631" ry="30.39" fill="#D61635"/><path fill-rule="evenodd" clip-rule="evenodd" d="M75.07 31.057c.717.81.632 2.04-.19 2.746L59.983 46.597l-8.255-7.09a1.926 1.926 0 01-.19-2.747 1.997 1.997 0 012.788-.187l5.657 4.86 12.297-10.564a1.997 1.997 0 012.789.188z" fill="#fff"/><defs><linearGradient id="mpaint0_linear" x1="74.457" y1="32.035" x2="126.497" y2="-.858" gradientUnits="userSpaceOnUse"><stop stop-color="#B9C3CD"/><stop offset="1" stop-color="#B9C3CD" stop-opacity="0"/></linearGradient><linearGradient id="mpaint1_linear" x1="51.543" y1="45.965" x2="-.497" y2="78.858" gradientUnits="userSpaceOnUse"><stop stop-color="#B9C3CD"/><stop offset="1" stop-color="#B9C3CD" stop-opacity="0"/></linearGradient></defs></svg><svg fill="none" viewBox="0 0 10 11" id="icon-tooltip" xmlns="http://www.w3.org/2000/svg"><path d="M4.996 4.185a.68.68 0 110-1.359.66.66 0 01.486.198.65.65 0 01.198.477.68.68 0 01-.684.684zM5.572 9H4.429V4.653h1.143V9z" fill="#000"/><circle cx="5" cy="6" r="4.7" stroke="#202020" stroke-width=".6"/></svg><svg fill="none" viewBox="0 0 20 22" id="icon-trash" xmlns="http://www.w3.org/2000/svg"><path d="M1 3.353h1.862m16.138 0h-1.862m0 0V19a2 2 0 01-2 2H4.862a2 2 0 01-2-2V3.353m14.276 0h-3.569m-10.707 0h3.569m0 0h7.138m-7.138 0h7.138m-7.138 0V3a2 2 0 012-2h3.138a2 2 0 012 2v.353M6.431 6.294V18.06M10 6.294V18.06m3.569-11.765V18.06" stroke="#BEBEBE" stroke-linecap="round"/></svg><svg fill="none" viewBox="0 0 22 22" id="icon-vk" xmlns="http://www.w3.org/2000/svg"><path fill-rule="evenodd" clip-rule="evenodd" d="M4.889 0A4.889 4.889 0 000 4.889V17.11C0 19.811 2.189 22 4.889 22H17.11c2.7 0 4.889-2.189 4.889-4.889V4.89C22 2.189 19.811 0 17.111 0H4.89zm11.274 15.696h1.598c.45 0 .683-.234.527-.683-.14-.45-.667-1.103-1.35-1.879-.188-.22-.425-.451-.634-.657-.205-.2-.384-.377-.469-.492-.232-.311-.17-.435 0-.715 0 0 1.957-2.762 2.158-3.695.11-.342 0-.59-.481-.59h-1.599c-.404 0-.59.218-.7.451 0 0-.821 1.987-1.97 3.276-.373.372-.544.497-.746.497-.093 0-.248-.125-.248-.466V7.56c0-.404-.124-.59-.466-.59H9.267c-.247 0-.403.186-.403.373 0 .149.084.254.192.388.173.217.407.509.445 1.18v2.361c0 .512-.093.605-.295.605-.544 0-1.864-2.003-2.655-4.285-.155-.435-.311-.62-.715-.62H4.238c-.45 0-.544.216-.544.45 0 .434.545 2.53 2.532 5.324 1.32 1.91 3.198 2.935 4.89 2.935 1.025 0 1.149-.232 1.149-.621v-1.444c0-.45.093-.543.42-.543.233 0 .652.123 1.598 1.04.314.317.552.583.747.8.483.54.702.783 1.133.783z" fill="#2787F5"/></svg><svg fill="none" viewBox="0 0 30 30" id="icon-warranty" xmlns="http://www.w3.org/2000/svg"><path fill-rule="evenodd" clip-rule="evenodd" d="M14.82 0l.241.106L28.89 6.167l.408.179-.053.441-.596-.07.596.07v.007l-.003.019-.009.07-.035.269a59.15 59.15 0 01-.741 4.234c-.542 2.53-1.398 5.645-2.655 7.76-1.472 2.477-4.165 4.902-6.437 6.683a54.808 54.808 0 01-3.885 2.774l-.252.162-.067.042-.018.01-.005.004h-.001l-.316-.51-.315.51h-.002l-.005-.003-.018-.011-.066-.042a46.183 46.183 0 01-1.169-.769 54.845 54.845 0 01-2.969-2.167c-2.272-1.78-4.964-4.206-6.436-6.682-1.257-2.116-2.114-5.23-2.655-7.762a59.098 59.098 0 01-.777-4.501L.4 6.813l-.002-.019v-.006l.595-.071-.596.07-.052-.441.407-.179L14.58.106 14.82 0zm0 28.311l.316.51-.316.196-.315-.195.315-.51zM1.645 7.086a57.895 57.895 0 00.713 4.049c.539 2.518 1.364 5.465 2.513 7.398 1.352 2.274 3.892 4.585 6.146 6.352a53.677 53.677 0 003.795 2.71l.008.006.009-.006a53.677 53.677 0 003.795-2.71c2.254-1.767 4.794-4.078 6.145-6.352 1.15-1.933 1.975-4.88 2.513-7.399a57.863 57.863 0 00.713-4.048L14.82 1.31 1.645 7.086zm13.918 5.422h-.897V6.56l-1.8.66v-.81l2.557-.959h.14v7.056zm-2.776 4.788c0-.409.08-.777.24-1.104.161-.326.385-.578.67-.756.289-.177.617-.266.984-.266.569 0 1.028.197 1.378.59.352.394.528.917.528 1.57v.05c0 .407-.078.773-.235 1.097a1.759 1.759 0 01-.668.752c-.288.18-.62.27-.995.27-.566 0-1.025-.197-1.377-.59-.35-.394-.525-.915-.525-1.563v-.05zm.717.085c0 .463.107.834.32 1.115.217.28.505.42.865.42.363 0 .65-.141.864-.424.214-.286.32-.684.32-1.196 0-.458-.109-.828-.327-1.111a1.03 1.03 0 00-.865-.428c-.352 0-.636.14-.852.42-.216.28-.325.682-.325 1.204zm-1.072-1.543h-1.925v3.584h-.718v-4.175h2.643v.59zm4.985 2.697l-.247.304h-.324l-.004 1.81h.714v-1.227h2.913v1.227h.713v-1.81h-.536v-3.592h-2.689l-.066 1.667c-.038.72-.196 1.26-.474 1.62zm2.515.304h-1.917c.35-.46.546-1.106.59-1.937l.043-.995h1.284v2.932z" fill="#000"/></svg></svg>